M48
; DRILL file {KiCad 9.0.4} date 2025-09-28T00:45:46+0200
; FORMAT={-:-/ absolute / metric / decimal}
; #@! TF.CreationDate,2025-09-28T00:45:46+02:00
; #@! TF.GenerationSoftware,Kicad,Pcbnew,9.0.4
; #@! TF.FileFunction,Plated,1,4,PTH
FMAT,2
METRIC
; #@! TA.AperFunction,Plated,PTH,ViaDrill
T1C0.300
; #@! TA.AperFunction,Plated,PTH,ComponentDrill
T2C0.600
; #@! TA.AperFunction,Plated,PTH,ComponentDrill
T3C0.700
; #@! TA.AperFunction,Plated,PTH,ComponentDrill
T4C0.780
; #@! TA.AperFunction,Plated,PTH,ComponentDrill
T5C1.000
; #@! TA.AperFunction,Plated,PTH,ComponentDrill
T6C1.460
%
G90
G05
T1
X115.6Y-65.3
X115.8Y-71.8
X115.8Y-86.6
X115.8Y-90.1
X115.9Y-94.0
X116.0Y-58.9
X117.5Y-94.1
X117.7Y-75.6
X117.7Y-86.8
X118.3Y-58.8
X118.4Y-65.0
X118.5Y-71.3
X118.6Y-90.8
X119.4Y-94.4
X119.7Y-67.7
X119.9Y-61.3
X120.6Y-79.3
X120.6Y-81.3
X120.7Y-74.9
X120.7Y-83.5
X120.75Y-62.5
X120.75Y-68.75
X121.0Y-56.55
X121.7Y-86.4
X122.6Y-86.4
X124.0Y-79.2
X124.75Y-60.732
X124.9Y-94.5
X125.0Y-58.0
X126.1Y-59.0
X126.4Y-74.0
X126.4Y-74.7
X126.4Y-75.4
X126.4Y-76.1
X126.7Y-56.7
X127.7Y-88.0
X127.8Y-71.5
X127.9Y-72.294
X128.4Y-63.3
X128.5Y-65.8
X128.5Y-68.3
X128.7Y-57.4
X128.7Y-89.9
X129.2Y-75.6
X129.3Y-70.9
X129.6Y-94.9
X130.4Y-74.3
X130.6Y-65.7
X130.8Y-68.9
X131.0Y-61.1
X131.3Y-88.0
X131.4Y-63.5
X132.3Y-89.9
X132.4Y-58.325
X132.4Y-59.175
X132.4Y-80.3
X133.4Y-94.9
X134.5Y-67.2
X134.506Y-60.925
X134.506Y-61.775
X134.6Y-63.8
X134.7Y-73.0
X134.8Y-73.9
X134.8Y-75.2
X134.8Y-75.8
X134.9Y-88.0
X135.9Y-89.9
X145.3Y-62.4
X145.3Y-68.4
X145.4Y-65.2
X145.4Y-73.7
X145.5Y-71.0
X145.5Y-76.3
X145.5Y-78.6
X145.5Y-81.1
X145.5Y-83.5
X145.5Y-92.4
X145.6Y-57.8
X146.5Y-60.0
X146.9Y-85.8
X147.5Y-57.6
X147.9Y-95.0
X148.0Y-81.5
X148.0Y-92.7
X148.4Y-90.7
X148.5Y-64.75
X148.7Y-59.6
X150.1Y-93.1
X150.3Y-58.0
X150.3Y-91.2
X150.5Y-95.0
X150.75Y-64.75
X150.75Y-67.0
X150.75Y-69.25
X150.75Y-71.5
X150.75Y-75.75
X150.75Y-78.25
X150.75Y-80.5
X151.6Y-61.8
X151.8Y-90.8
X152.4Y-93.0
X152.5Y-82.5
X152.7Y-57.5
X152.7Y-62.6
X152.8Y-95.0
X153.3Y-59.5
X154.5Y-79.4
X154.5Y-92.5
X155.75Y-69.75
X155.9Y-89.7
X156.2Y-95.0
X156.9Y-91.8
X157.4Y-57.3
X157.4Y-63.4
X158.9Y-79.2
X159.0Y-91.8
X159.3Y-59.2
X159.5Y-63.4
X159.8Y-57.5
X160.0Y-80.3
X160.2Y-95.0
X160.8Y-91.6
X161.2Y-94.1
X161.5Y-87.4
X162.3Y-57.4
X162.4Y-59.1
X162.8Y-88.5
X163.3Y-95.0
X163.4Y-93.8
X163.6Y-91.1
X163.7Y-87.3
X163.8Y-78.4
X164.5Y-79.7
X164.6Y-63.4
X164.7Y-57.5
X165.2Y-61.1
X166.0Y-91.7
X166.1Y-62.3
X166.1Y-72.0
X166.1Y-75.0
X166.2Y-69.1
X166.4Y-64.5
X166.6Y-59.5
X166.7Y-57.5
T4
X129.25Y-93.0
X131.25Y-93.0
X133.25Y-93.0
T5
X116.7Y-79.3
X116.7Y-83.5
X125.67Y-82.485
X125.67Y-85.025
X128.21Y-82.485
X128.21Y-85.025
X130.75Y-82.485
X130.75Y-85.025
X133.29Y-82.485
X133.29Y-85.025
X135.83Y-82.485
X135.83Y-85.025
X155.42Y-82.587
X155.42Y-85.127
X157.96Y-82.587
X157.96Y-85.127
X160.5Y-82.587
X160.5Y-85.127
X163.04Y-82.587
X163.04Y-85.127
X165.4Y-88.9
X165.4Y-93.8
X165.58Y-82.587
X165.58Y-85.127
T6
X127.15Y-93.0
X135.35Y-93.0
T2
G00X145.68Y-89.718
M15
G01X145.68Y-90.817
M16
G05
G00X145.68Y-94.147
M15
G01X145.68Y-94.748
M16
G05
G00X154.32Y-89.718
M15
G01X154.32Y-90.817
M16
G05
G00X154.32Y-94.147
M15
G01X154.32Y-94.748
M16
G05
T3
G00X155.45Y-57.3
M15
G01X154.65Y-57.3
M16
G05
G00X156.45Y-61.7
M15
G01X155.65Y-61.7
M16
G05
G00X160.45Y-61.7
M15
G01X159.65Y-61.7
M16
G05
G00X163.45Y-61.7
M15
G01X162.65Y-61.7
M16
G05
M30
