%TF.GenerationSoftware,KiCad,Pcbnew,9.0.4*%
%TF.CreationDate,2025-09-28T00:45:50+02:00*%
%TF.ProjectId,BTM308-host,42544d33-3038-42d6-986f-73742e6b6963,rev?*%
%TF.SameCoordinates,Original*%
%TF.FileFunction,Copper,L4,Bot*%
%TF.FilePolarity,Positive*%
%FSLAX46Y46*%
G04 Gerber Fmt 4.6, Leading zero omitted, Abs format (unit mm)*
G04 Created by KiCad (PCBNEW 9.0.4) date 2025-09-28 00:45:50*
%MOMM*%
%LPD*%
G01*
G04 APERTURE LIST*
%TA.AperFunction,ComponentPad*%
%ADD10R,1.700000X1.700000*%
%TD*%
%TA.AperFunction,ComponentPad*%
%ADD11R,1.337000X1.337000*%
%TD*%
%TA.AperFunction,ComponentPad*%
%ADD12C,1.337000*%
%TD*%
%TA.AperFunction,ComponentPad*%
%ADD13C,2.190000*%
%TD*%
%TA.AperFunction,ComponentPad*%
%ADD14C,1.700000*%
%TD*%
%TA.AperFunction,ComponentPad*%
%ADD15C,1.600000*%
%TD*%
%TA.AperFunction,HeatsinkPad*%
%ADD16O,1.000000X2.100000*%
%TD*%
%TA.AperFunction,HeatsinkPad*%
%ADD17O,1.000000X1.600000*%
%TD*%
%TA.AperFunction,ViaPad*%
%ADD18C,0.600000*%
%TD*%
%TA.AperFunction,Conductor*%
%ADD19C,1.000000*%
%TD*%
%TA.AperFunction,Conductor*%
%ADD20C,0.200000*%
%TD*%
G04 APERTURE END LIST*
D10*
%TO.P,J6,1,Pin_1*%
%TO.N,Net-(J6-Pin_1)*%
X116700000Y-83500000D03*
%TD*%
%TO.P,J7,1,Pin_1*%
%TO.N,GND*%
X116700000Y-79300000D03*
%TD*%
D11*
%TO.P,SW4,1,A*%
%TO.N,/MFB*%
X129250000Y-93000000D03*
D12*
%TO.P,SW4,2,B*%
%TO.N,/VBAT*%
X131250000Y-93000000D03*
%TO.P,SW4,3*%
%TO.N,N/C*%
X133250000Y-93000000D03*
D13*
%TO.P,SW4,4*%
X127150000Y-93000000D03*
%TO.P,SW4,5*%
X135350000Y-93000000D03*
%TD*%
D14*
%TO.P,J5,10,Pin_10*%
%TO.N,/SPK_BN*%
X135830000Y-82485000D03*
%TO.P,J5,9,Pin_9*%
%TO.N,/VBAT*%
X135830000Y-85025000D03*
%TO.P,J5,8,Pin_8*%
%TO.N,/SPK_BP*%
X133290000Y-82485000D03*
%TO.P,J5,7,Pin_7*%
%TO.N,/VCHG*%
X133290000Y-85025000D03*
%TO.P,J5,6,Pin_6*%
%TO.N,/SPK_AP*%
X130750000Y-82485000D03*
%TO.P,J5,5,Pin_5*%
%TO.N,GND*%
X130750000Y-85025000D03*
%TO.P,J5,4,Pin_4*%
%TO.N,/SPK_AN*%
X128210000Y-82485000D03*
%TO.P,J5,3,Pin_3*%
%TO.N,AGND*%
X128210000Y-85025000D03*
%TO.P,J5,2,Pin_2*%
X125670000Y-82485000D03*
D10*
%TO.P,J5,1,Pin_1*%
X125670000Y-85025000D03*
%TD*%
%TO.P,J1,1,Pin_1*%
%TO.N,AGND*%
X155420000Y-85127500D03*
D14*
%TO.P,J1,2,Pin_2*%
X155420000Y-82587500D03*
%TO.P,J1,3,Pin_3*%
X157960000Y-85127500D03*
%TO.P,J1,4,Pin_4*%
%TO.N,/SPK_AN*%
X157960000Y-82587500D03*
%TO.P,J1,5,Pin_5*%
%TO.N,GND*%
X160500000Y-85127500D03*
%TO.P,J1,6,Pin_6*%
%TO.N,/SPK_AP*%
X160500000Y-82587500D03*
%TO.P,J1,7,Pin_7*%
%TO.N,/VCHG*%
X163040000Y-85127500D03*
%TO.P,J1,8,Pin_8*%
%TO.N,/SPK_BP*%
X163040000Y-82587500D03*
%TO.P,J1,9,Pin_9*%
%TO.N,/VBAT*%
X165580000Y-85127500D03*
%TO.P,J1,10,Pin_10*%
%TO.N,/SPK_BN*%
X165580000Y-82587500D03*
%TD*%
D10*
%TO.P,J4,1,Pin_1*%
%TO.N,GND*%
X165400000Y-93800000D03*
%TD*%
%TO.P,J3,1,Pin_1*%
%TO.N,/VBAT*%
X165400000Y-88900000D03*
%TD*%
D15*
%TO.P,U3,1,Sleeve*%
%TO.N,GND*%
X155050000Y-57300000D03*
%TO.P,U3,2,Tip*%
%TO.N,Net-(U3-Tip)*%
X156050000Y-61700000D03*
%TO.P,U3,3,Ring1*%
%TO.N,Net-(U3-Ring1)*%
X160050000Y-61700000D03*
%TO.P,U3,4,Ring2*%
%TO.N,unconnected-(U3-Ring2-Pad4)*%
X163050000Y-61700000D03*
%TD*%
D16*
%TO.P,J2,S1,SHIELD*%
%TO.N,GND*%
X145680000Y-90267500D03*
D17*
X145680000Y-94447500D03*
D16*
X154320000Y-90267500D03*
D17*
X154320000Y-94447500D03*
%TD*%
D18*
%TO.N,GND*%
X163800000Y-78400000D03*
X164600000Y-63400000D03*
X165200000Y-61100000D03*
X162400000Y-59100000D03*
X159300000Y-59200000D03*
X153300000Y-59500000D03*
X145600000Y-57800000D03*
X128700000Y-57400000D03*
X126700000Y-56700000D03*
X130800000Y-68900000D03*
X128500000Y-65800000D03*
X131400000Y-63500000D03*
X120700000Y-74900000D03*
X120600000Y-81300000D03*
X117500000Y-94100000D03*
X130400000Y-74300000D03*
X127700000Y-88000000D03*
X131300000Y-88000000D03*
X115800000Y-86600000D03*
X117700000Y-75600000D03*
X120600000Y-79300000D03*
X120700000Y-83500000D03*
X117700000Y-86800000D03*
X134900000Y-88000000D03*
X133400000Y-94900000D03*
X115800000Y-90100000D03*
X115900000Y-94000000D03*
%TO.N,/MFB*%
X129300000Y-70900000D03*
%TO.N,Net-(U1-PIO8)*%
X120750000Y-62500000D03*
X125000000Y-58000000D03*
%TO.N,Net-(U1-PIO1)*%
X126100000Y-59000000D03*
X120750000Y-68750000D03*
%TO.N,Net-(U1-PIO0)*%
X124750000Y-60731671D03*
X121000000Y-56550000D03*
%TO.N,GND*%
X129200000Y-75600000D03*
X134500000Y-67200000D03*
X134600000Y-63800000D03*
%TO.N,/SPK_AP*%
X132400000Y-58325000D03*
%TO.N,GND*%
X128400000Y-63300000D03*
%TO.N,/SPK_AN*%
X132400000Y-59175000D03*
%TO.N,GND*%
X128500000Y-68300000D03*
X131000000Y-61100000D03*
X130600000Y-65700000D03*
%TO.N,/VBAT*%
X134700000Y-73000000D03*
X118600000Y-90800000D03*
%TO.N,/LED0*%
X122600000Y-86400000D03*
%TO.N,/LED2*%
X121700000Y-86400000D03*
%TO.N,GND*%
X124000000Y-79200000D03*
%TO.N,/VBAT*%
X124900000Y-94500000D03*
X119400000Y-94400000D03*
%TO.N,GND*%
X134800000Y-75800000D03*
%TO.N,AGND*%
X126400000Y-75400000D03*
X126400000Y-76100000D03*
X126400000Y-74700000D03*
X126400000Y-74000000D03*
%TO.N,GND*%
X119900000Y-61300000D03*
%TO.N,/SPK_BN*%
X134506472Y-61775000D03*
%TO.N,GND*%
X118300000Y-58800000D03*
X115600000Y-65300000D03*
%TO.N,/SPK_BP*%
X134506472Y-60925000D03*
%TO.N,GND*%
X116000000Y-58900000D03*
X134800000Y-75200000D03*
%TO.N,/VBAT*%
X134800000Y-73900000D03*
%TO.N,GND*%
X119700000Y-67700000D03*
%TO.N,/LED2*%
X127800000Y-71500000D03*
%TO.N,/LED0*%
X127900000Y-72293726D03*
%TO.N,GND*%
X118400000Y-65000000D03*
X132400000Y-80300000D03*
X129600000Y-94900000D03*
X115800000Y-71800000D03*
X118500000Y-71300000D03*
X128700000Y-89900000D03*
X132300000Y-89900000D03*
X135900000Y-89900000D03*
X162800000Y-88500000D03*
X163700000Y-87300000D03*
X161500000Y-87400000D03*
X166000000Y-91700000D03*
X163400000Y-93800000D03*
X163300000Y-95000000D03*
X160200000Y-95000000D03*
X155900000Y-89700000D03*
X156200000Y-95000000D03*
X154500000Y-92500000D03*
X150300000Y-91200000D03*
X150100000Y-93100000D03*
X152800000Y-95000000D03*
X150500000Y-95000000D03*
X147900000Y-95000000D03*
X145500000Y-92400000D03*
X145500000Y-81100000D03*
X145500000Y-76300000D03*
X145400000Y-73700000D03*
X145300000Y-68400000D03*
X145300000Y-62400000D03*
X148700000Y-59600000D03*
X147500000Y-57600000D03*
X152700000Y-57500000D03*
X157400000Y-57300000D03*
X166700000Y-57500000D03*
X162300000Y-57400000D03*
X166600000Y-59500000D03*
X166400000Y-64500000D03*
X166200000Y-69100000D03*
X166100000Y-75000000D03*
X166100000Y-62300000D03*
X164700000Y-57500000D03*
X159800000Y-57500000D03*
X150300000Y-58000000D03*
X146500000Y-60000000D03*
X145400000Y-65200000D03*
X145500000Y-71000000D03*
X145500000Y-78600000D03*
X161200000Y-94100000D03*
X152400000Y-93000000D03*
X148000000Y-92700000D03*
X154500000Y-79400000D03*
X159500000Y-63400000D03*
X157400000Y-63400000D03*
X152700000Y-62600000D03*
X151600000Y-61800000D03*
X166100000Y-72000000D03*
X164500000Y-79700000D03*
X160000000Y-80300000D03*
X158900000Y-79200000D03*
X159000000Y-91800000D03*
X160800000Y-91600000D03*
%TO.N,/VBAT*%
X163600000Y-91100000D03*
%TO.N,/VCHG*%
X156900000Y-91800000D03*
X151800000Y-90800000D03*
X148400000Y-90700000D03*
%TO.N,GND*%
X146900000Y-85800000D03*
X145500000Y-83500000D03*
X148000000Y-81500000D03*
%TO.N,AGND*%
X152500000Y-82500000D03*
X150750000Y-80500000D03*
X150750000Y-78250000D03*
X150750000Y-75750000D03*
X148500000Y-64750000D03*
X150750000Y-64750000D03*
X150750000Y-67000000D03*
X150750000Y-69250000D03*
X150750000Y-71500000D03*
X155750000Y-69750000D03*
%TD*%
D19*
%TO.N,AGND*%
X125670000Y-82485000D02*
X125670000Y-85025000D01*
D20*
%TO.N,/SPK_BP*%
X133290000Y-72791468D02*
X133290000Y-82485000D01*
D19*
%TO.N,AGND*%
X125670000Y-85025000D02*
X128210000Y-85025000D01*
D20*
%TO.N,/SPK_BN*%
X133740001Y-80395001D02*
X135830000Y-82485000D01*
%TO.N,/SPK_AP*%
X132850000Y-72918568D02*
X132850000Y-78481397D01*
X133001000Y-58926057D02*
X133001000Y-59423943D01*
X132850000Y-59574943D02*
X132850000Y-62014372D01*
%TO.N,/SPK_AN*%
X132299040Y-73003976D02*
X132400000Y-73104936D01*
%TO.N,/SPK_BN*%
X133600000Y-62467869D02*
X133600000Y-72465100D01*
%TO.N,/SPK_AN*%
X132400000Y-78295000D02*
X128210000Y-82485000D01*
%TO.N,/SPK_BN*%
X133740001Y-72605101D02*
X133740001Y-80395001D01*
%TO.N,/SPK_AP*%
X132749020Y-62115352D02*
X132749020Y-72817588D01*
X132400000Y-58325000D02*
X132850000Y-58775000D01*
X132850000Y-58775000D02*
X132850000Y-58775057D01*
%TO.N,/SPK_BP*%
X133150020Y-62281452D02*
X133150020Y-72651488D01*
%TO.N,/SPK_BN*%
X134506472Y-61775000D02*
X134292869Y-61775000D01*
X134292869Y-61775000D02*
X133600000Y-62467869D01*
%TO.N,/SPK_AP*%
X132850000Y-58775057D02*
X133001000Y-58926057D01*
X133001000Y-59423943D02*
X132850000Y-59574943D01*
%TO.N,/SPK_BN*%
X133600000Y-72465100D02*
X133740001Y-72605101D01*
%TO.N,/SPK_AP*%
X132850000Y-62014372D02*
X132749020Y-62115352D01*
%TO.N,/SPK_BP*%
X133150020Y-72651488D02*
X133290000Y-72791468D01*
%TO.N,/SPK_AP*%
X132749020Y-72817588D02*
X132850000Y-72918568D01*
X132850000Y-78481397D02*
X130750000Y-80581397D01*
%TO.N,/SPK_AN*%
X132400000Y-61828004D02*
X132299040Y-61928964D01*
X132299040Y-61928964D02*
X132299040Y-73003976D01*
%TO.N,/SPK_AP*%
X130750000Y-80581397D02*
X130750000Y-82485000D01*
%TO.N,/SPK_AN*%
X132400000Y-73104936D02*
X132400000Y-78295000D01*
%TO.N,/SPK_BP*%
X134506472Y-60925000D02*
X133150020Y-62281452D01*
%TO.N,/SPK_AN*%
X132400000Y-59175000D02*
X132400000Y-61828004D01*
%TO.N,/LED2*%
X127800000Y-71500000D02*
X126500000Y-71500000D01*
X121999000Y-76001000D02*
X121999000Y-86101000D01*
X121999000Y-86101000D02*
X121700000Y-86400000D01*
X126500000Y-71500000D02*
X121999000Y-76001000D01*
%TO.N,/MFB*%
X129250000Y-91750000D02*
X129250000Y-93000000D01*
X128600000Y-72900000D02*
X126234200Y-72900000D01*
X122801000Y-85301000D02*
X129250000Y-91750000D01*
X129300000Y-70900000D02*
X129300000Y-72200000D01*
X126234200Y-72900000D02*
X122801000Y-76333200D01*
X122801000Y-76333200D02*
X122801000Y-85301000D01*
X129300000Y-72200000D02*
X128600000Y-72900000D01*
D19*
%TO.N,AGND*%
X126400000Y-74000000D02*
X126400000Y-80100000D01*
X126400000Y-80100000D02*
X125670000Y-80830000D01*
D20*
%TO.N,Net-(U1-PIO8)*%
X125500000Y-61000000D02*
X125500000Y-58500000D01*
X124000000Y-62500000D02*
X125500000Y-61000000D01*
X120750000Y-62500000D02*
X124000000Y-62500000D01*
%TO.N,Net-(U1-PIO1)*%
X126100000Y-59000000D02*
X126100000Y-61150000D01*
%TO.N,Net-(U1-PIO8)*%
X125500000Y-58500000D02*
X125000000Y-58000000D01*
%TO.N,Net-(U1-PIO1)*%
X126100000Y-61150000D02*
X120750000Y-66500000D01*
X120750000Y-66500000D02*
X120750000Y-68750000D01*
D19*
%TO.N,AGND*%
X125670000Y-80830000D02*
X125670000Y-82485000D01*
D20*
%TO.N,/LED0*%
X127900000Y-72293726D02*
X127706274Y-72100000D01*
X127706274Y-72100000D02*
X126467100Y-72100000D01*
X122400000Y-76167100D02*
X122400000Y-86099997D01*
X122400000Y-86099997D02*
X122700003Y-86400000D01*
X126467100Y-72100000D02*
X122400000Y-76167100D01*
X122700003Y-86400000D02*
X122600000Y-86400000D01*
%TO.N,Net-(U1-PIO0)*%
X122050000Y-56550000D02*
X124750000Y-59250000D01*
X124750000Y-59250000D02*
X124750000Y-60731671D01*
X121000000Y-56550000D02*
X122050000Y-56550000D01*
%TD*%
%TA.AperFunction,Conductor*%
%TO.N,GND*%
G36*
X167141600Y-56120471D02*
G01*
X167187355Y-56173275D01*
X167198561Y-56224786D01*
X167198561Y-95476786D01*
X167178876Y-95543825D01*
X167126072Y-95589580D01*
X167074561Y-95600786D01*
X144824500Y-95600786D01*
X144757461Y-95581101D01*
X144711706Y-95528297D01*
X144700500Y-95476786D01*
X144700500Y-91721153D01*
X156099500Y-91721153D01*
X156099500Y-91878846D01*
X156130261Y-92033489D01*
X156130264Y-92033501D01*
X156190602Y-92179172D01*
X156190609Y-92179185D01*
X156278210Y-92310288D01*
X156278213Y-92310292D01*
X156389707Y-92421786D01*
X156389711Y-92421789D01*
X156520814Y-92509390D01*
X156520827Y-92509397D01*
X156666498Y-92569735D01*
X156666503Y-92569737D01*
X156821153Y-92600499D01*
X156821156Y-92600500D01*
X156821158Y-92600500D01*
X156978844Y-92600500D01*
X156978845Y-92600499D01*
X157133497Y-92569737D01*
X157279179Y-92509394D01*
X157410289Y-92421789D01*
X157521789Y-92310289D01*
X157609394Y-92179179D01*
X157669737Y-92033497D01*
X157700500Y-91878842D01*
X157700500Y-91721158D01*
X157700500Y-91721155D01*
X157700499Y-91721153D01*
X157678447Y-91610292D01*
X157669737Y-91566503D01*
X157642398Y-91500500D01*
X157609397Y-91420827D01*
X157609390Y-91420814D01*
X157521789Y-91289711D01*
X157521786Y-91289707D01*
X157410292Y-91178213D01*
X157410288Y-91178210D01*
X157320429Y-91118168D01*
X157279185Y-91090609D01*
X157279172Y-91090602D01*
X157133501Y-91030264D01*
X157133489Y-91030261D01*
X157087701Y-91021153D01*
X162799500Y-91021153D01*
X162799500Y-91178846D01*
X162830261Y-91333489D01*
X162830264Y-91333501D01*
X162890602Y-91479172D01*
X162890609Y-91479185D01*
X162978210Y-91610288D01*
X162978213Y-91610292D01*
X163089707Y-91721786D01*
X163089711Y-91721789D01*
X163220814Y-91809390D01*
X163220827Y-91809397D01*
X163366498Y-91869735D01*
X163366503Y-91869737D01*
X163521153Y-91900499D01*
X163521156Y-91900500D01*
X163521158Y-91900500D01*
X163678844Y-91900500D01*
X163678845Y-91900499D01*
X163833497Y-91869737D01*
X163979179Y-91809394D01*
X164110289Y-91721789D01*
X164221789Y-91610289D01*
X164309394Y-91479179D01*
X164369737Y-91333497D01*
X164400500Y-91178842D01*
X164400500Y-91021158D01*
X164400500Y-91021155D01*
X164400499Y-91021153D01*
X164371082Y-90873265D01*
X164369737Y-90866503D01*
X164333427Y-90778842D01*
X164309397Y-90720827D01*
X164309390Y-90720814D01*
X164221789Y-90589711D01*
X164221786Y-90589707D01*
X164110292Y-90478213D01*
X164110288Y-90478210D01*
X163979185Y-90390609D01*
X163979172Y-90390602D01*
X163833501Y-90330264D01*
X163833489Y-90330261D01*
X163678845Y-90299500D01*
X163678842Y-90299500D01*
X163521158Y-90299500D01*
X163521155Y-90299500D01*
X163366510Y-90330261D01*
X163366498Y-90330264D01*
X163220827Y-90390602D01*
X163220814Y-90390609D01*
X163089711Y-90478210D01*
X163089707Y-90478213D01*
X162978213Y-90589707D01*
X162978210Y-90589711D01*
X162890609Y-90720814D01*
X162890602Y-90720827D01*
X162830264Y-90866498D01*
X162830261Y-90866510D01*
X162799500Y-91021153D01*
X157087701Y-91021153D01*
X156978845Y-90999500D01*
X156978842Y-90999500D01*
X156821158Y-90999500D01*
X156821155Y-90999500D01*
X156666510Y-91030261D01*
X156666498Y-91030264D01*
X156520827Y-91090602D01*
X156520814Y-91090609D01*
X156389711Y-91178210D01*
X156389707Y-91178213D01*
X156278213Y-91289707D01*
X156278210Y-91289711D01*
X156190609Y-91420814D01*
X156190602Y-91420827D01*
X156130264Y-91566498D01*
X156130261Y-91566510D01*
X156099500Y-91721153D01*
X144700500Y-91721153D01*
X144700500Y-90721734D01*
X146534500Y-90721734D01*
X146534500Y-90873265D01*
X146573719Y-91019636D01*
X146608093Y-91079172D01*
X146649485Y-91150865D01*
X146756635Y-91258015D01*
X146887865Y-91333781D01*
X147034234Y-91373000D01*
X147034236Y-91373000D01*
X147185764Y-91373000D01*
X147185766Y-91373000D01*
X147332135Y-91333781D01*
X147463365Y-91258015D01*
X147564380Y-91156999D01*
X147625699Y-91123517D01*
X147695391Y-91128501D01*
X147751325Y-91170372D01*
X147755160Y-91175791D01*
X147778213Y-91210292D01*
X147889707Y-91321786D01*
X147889711Y-91321789D01*
X148020814Y-91409390D01*
X148020827Y-91409397D01*
X148166498Y-91469735D01*
X148166503Y-91469737D01*
X148321153Y-91500499D01*
X148321156Y-91500500D01*
X148321158Y-91500500D01*
X148478844Y-91500500D01*
X148478845Y-91500499D01*
X148633497Y-91469737D01*
X148751592Y-91420821D01*
X148779172Y-91409397D01*
X148779172Y-91409396D01*
X148779179Y-91409394D01*
X148910289Y-91321789D01*
X149021789Y-91210289D01*
X149109394Y-91079179D01*
X149169737Y-90933497D01*
X149200500Y-90778842D01*
X149200500Y-90721153D01*
X150999500Y-90721153D01*
X150999500Y-90878846D01*
X151030261Y-91033489D01*
X151030264Y-91033501D01*
X151090602Y-91179172D01*
X151090609Y-91179185D01*
X151178210Y-91310288D01*
X151178213Y-91310292D01*
X151289707Y-91421786D01*
X151289711Y-91421789D01*
X151420814Y-91509390D01*
X151420827Y-91509397D01*
X151558683Y-91566498D01*
X151566503Y-91569737D01*
X151721153Y-91600499D01*
X151721156Y-91600500D01*
X151721158Y-91600500D01*
X151878844Y-91600500D01*
X151878845Y-91600499D01*
X151889179Y-91598443D01*
X151914287Y-91593450D01*
X151914292Y-91593449D01*
X151999800Y-91576439D01*
X152033497Y-91569737D01*
X152179179Y-91509394D01*
X152310289Y-91421789D01*
X152359079Y-91372999D01*
X152426097Y-91305982D01*
X152427144Y-91307029D01*
X152478803Y-91271828D01*
X152548648Y-91269946D01*
X152578926Y-91282432D01*
X152667865Y-91333781D01*
X152814234Y-91373000D01*
X152814236Y-91373000D01*
X152965764Y-91373000D01*
X152965766Y-91373000D01*
X153112135Y-91333781D01*
X153243365Y-91258015D01*
X153350515Y-91150865D01*
X153426281Y-91019635D01*
X153465500Y-90873266D01*
X153465500Y-90721734D01*
X153426281Y-90575365D01*
X153350515Y-90444135D01*
X153243365Y-90336985D01*
X153167803Y-90293359D01*
X153112136Y-90261219D01*
X153038950Y-90241609D01*
X152965766Y-90222000D01*
X152814234Y-90222000D01*
X152667865Y-90261219D01*
X152667864Y-90261219D01*
X152667862Y-90261220D01*
X152667861Y-90261220D01*
X152576146Y-90314172D01*
X152508245Y-90330645D01*
X152442219Y-90307792D01*
X152426755Y-90293359D01*
X152426097Y-90294018D01*
X152310292Y-90178213D01*
X152310288Y-90178210D01*
X152179185Y-90090609D01*
X152179172Y-90090602D01*
X152033501Y-90030264D01*
X152033489Y-90030261D01*
X151878845Y-89999500D01*
X151878842Y-89999500D01*
X151721158Y-89999500D01*
X151721155Y-89999500D01*
X151566510Y-90030261D01*
X151566498Y-90030264D01*
X151420827Y-90090602D01*
X151420814Y-90090609D01*
X151289711Y-90178210D01*
X151289707Y-90178213D01*
X151178213Y-90289707D01*
X151178210Y-90289711D01*
X151090609Y-90420814D01*
X151090602Y-90420827D01*
X151030264Y-90566498D01*
X151030261Y-90566510D01*
X150999500Y-90721153D01*
X149200500Y-90721153D01*
X149200500Y-90621158D01*
X149200500Y-90621155D01*
X149200499Y-90621153D01*
X149172066Y-90478211D01*
X149169737Y-90466503D01*
X149136762Y-90386894D01*
X149109397Y-90320827D01*
X149109390Y-90320814D01*
X149021789Y-90189711D01*
X149021786Y-90189707D01*
X148910292Y-90078213D01*
X148910288Y-90078210D01*
X148779185Y-89990609D01*
X148779172Y-89990602D01*
X148633501Y-89930264D01*
X148633489Y-89930261D01*
X148478845Y-89899500D01*
X148478842Y-89899500D01*
X148321158Y-89899500D01*
X148321155Y-89899500D01*
X148166510Y-89930261D01*
X148166498Y-89930264D01*
X148020827Y-89990602D01*
X148020814Y-89990609D01*
X147889711Y-90078210D01*
X147889707Y-90078213D01*
X147778213Y-90189707D01*
X147778210Y-90189711D01*
X147690609Y-90320814D01*
X147690604Y-90320824D01*
X147690332Y-90321482D01*
X147690097Y-90321773D01*
X147687736Y-90326191D01*
X147686898Y-90325743D01*
X147646491Y-90375885D01*
X147580197Y-90397950D01*
X147512497Y-90380671D01*
X147488090Y-90361710D01*
X147463367Y-90336987D01*
X147463365Y-90336985D01*
X147387803Y-90293359D01*
X147332136Y-90261219D01*
X147258950Y-90241609D01*
X147185766Y-90222000D01*
X147034234Y-90222000D01*
X146887863Y-90261219D01*
X146756635Y-90336985D01*
X146756632Y-90336987D01*
X146649487Y-90444132D01*
X146649485Y-90444135D01*
X146573719Y-90575363D01*
X146534500Y-90721734D01*
X144700500Y-90721734D01*
X144700500Y-88002135D01*
X164049500Y-88002135D01*
X164049500Y-89797870D01*
X164049501Y-89797876D01*
X164055908Y-89857483D01*
X164106202Y-89992328D01*
X164106206Y-89992335D01*
X164192452Y-90107544D01*
X164192455Y-90107547D01*
X164307664Y-90193793D01*
X164307671Y-90193797D01*
X164442517Y-90244091D01*
X164442516Y-90244091D01*
X164449444Y-90244835D01*
X164502127Y-90250500D01*
X166297872Y-90250499D01*
X166357483Y-90244091D01*
X166492331Y-90193796D01*
X166607546Y-90107546D01*
X166693796Y-89992331D01*
X166744091Y-89857483D01*
X166750500Y-89797873D01*
X166750499Y-88002128D01*
X166744091Y-87942517D01*
X166693796Y-87807669D01*
X166693795Y-87807668D01*
X166693793Y-87807664D01*
X166607547Y-87692455D01*
X166607544Y-87692452D01*
X166492335Y-87606206D01*
X166492328Y-87606202D01*
X166357482Y-87555908D01*
X166357483Y-87555908D01*
X166297883Y-87549501D01*
X166297881Y-87549500D01*
X166297873Y-87549500D01*
X166297864Y-87549500D01*
X164502129Y-87549500D01*
X164502123Y-87549501D01*
X164442516Y-87555908D01*
X164307671Y-87606202D01*
X164307664Y-87606206D01*
X164192455Y-87692452D01*
X164192452Y-87692455D01*
X164106206Y-87807664D01*
X164106202Y-87807671D01*
X164055908Y-87942517D01*
X164049501Y-88002116D01*
X164049501Y-88002123D01*
X164049500Y-88002135D01*
X144700500Y-88002135D01*
X144700500Y-64500000D01*
X146599999Y-64500000D01*
X146799999Y-80599998D01*
X146800000Y-80600000D01*
X150096566Y-81084789D01*
X150160026Y-81114017D01*
X150197612Y-81172917D01*
X150202488Y-81204517D01*
X150249999Y-83199999D01*
X150250000Y-83200000D01*
X153081218Y-83391947D01*
X153146770Y-83416120D01*
X153188848Y-83471898D01*
X153196783Y-83519012D01*
X153100000Y-87099999D01*
X153100000Y-87100000D01*
X159300000Y-86900000D01*
X159254582Y-85537476D01*
X159260582Y-85495028D01*
X159277246Y-85443743D01*
X159310500Y-85233787D01*
X159310500Y-85021213D01*
X159277246Y-84811257D01*
X159277245Y-84811253D01*
X159277245Y-84811252D01*
X159230433Y-84667181D01*
X159224433Y-84632994D01*
X159219116Y-84473498D01*
X159200000Y-83900000D01*
X158832740Y-83900000D01*
X158765701Y-83880315D01*
X158719946Y-83827511D01*
X158710002Y-83758353D01*
X158739027Y-83694797D01*
X158759855Y-83675682D01*
X158839786Y-83617609D01*
X158839788Y-83617606D01*
X158839792Y-83617604D01*
X158990104Y-83467292D01*
X158990106Y-83467288D01*
X158990109Y-83467286D01*
X159115048Y-83295320D01*
X159115047Y-83295320D01*
X159115051Y-83295316D01*
X159119514Y-83286554D01*
X159167488Y-83235759D01*
X159235308Y-83218963D01*
X159301444Y-83241499D01*
X159340486Y-83286556D01*
X159344951Y-83295320D01*
X159469890Y-83467286D01*
X159620213Y-83617609D01*
X159792179Y-83742548D01*
X159792181Y-83742549D01*
X159792184Y-83742551D01*
X159981588Y-83839057D01*
X160183757Y-83904746D01*
X160393713Y-83938000D01*
X160393714Y-83938000D01*
X160606286Y-83938000D01*
X160606287Y-83938000D01*
X160816243Y-83904746D01*
X161018412Y-83839057D01*
X161207816Y-83742551D01*
X161299854Y-83675682D01*
X161379786Y-83617609D01*
X161379788Y-83617606D01*
X161379792Y-83617604D01*
X161530104Y-83467292D01*
X161530106Y-83467288D01*
X161530109Y-83467286D01*
X161655048Y-83295320D01*
X161655047Y-83295320D01*
X161655051Y-83295316D01*
X161659514Y-83286554D01*
X161707488Y-83235759D01*
X161775308Y-83218963D01*
X161841444Y-83241499D01*
X161880486Y-83286556D01*
X161884951Y-83295320D01*
X162009890Y-83467286D01*
X162160213Y-83617609D01*
X162332182Y-83742550D01*
X162340946Y-83747016D01*
X162391742Y-83794991D01*
X162408536Y-83862812D01*
X162385998Y-83928947D01*
X162340946Y-83967984D01*
X162332182Y-83972449D01*
X162160213Y-84097390D01*
X162009890Y-84247713D01*
X161884951Y-84419679D01*
X161788444Y-84609085D01*
X161722753Y-84811260D01*
X161689500Y-85021213D01*
X161689500Y-85233787D01*
X161722754Y-85443743D01*
X161746142Y-85515725D01*
X161788444Y-85645914D01*
X161884951Y-85835320D01*
X162009890Y-86007286D01*
X162160213Y-86157609D01*
X162332179Y-86282548D01*
X162332181Y-86282549D01*
X162332184Y-86282551D01*
X162521588Y-86379057D01*
X162723757Y-86444746D01*
X162933713Y-86478000D01*
X162933714Y-86478000D01*
X163146286Y-86478000D01*
X163146287Y-86478000D01*
X163356243Y-86444746D01*
X163558412Y-86379057D01*
X163747816Y-86282551D01*
X163769789Y-86266586D01*
X163919786Y-86157609D01*
X163919788Y-86157606D01*
X163919792Y-86157604D01*
X164070104Y-86007292D01*
X164070106Y-86007288D01*
X164070109Y-86007286D01*
X164195048Y-85835320D01*
X164195047Y-85835320D01*
X164195051Y-85835316D01*
X164199514Y-85826554D01*
X164247488Y-85775759D01*
X164315308Y-85758963D01*
X164381444Y-85781499D01*
X164420486Y-85826556D01*
X164424951Y-85835320D01*
X164549890Y-86007286D01*
X164700213Y-86157609D01*
X164872179Y-86282548D01*
X164872181Y-86282549D01*
X164872184Y-86282551D01*
X165061588Y-86379057D01*
X165263757Y-86444746D01*
X165473713Y-86478000D01*
X165473714Y-86478000D01*
X165686286Y-86478000D01*
X165686287Y-86478000D01*
X165896243Y-86444746D01*
X166098412Y-86379057D01*
X166287816Y-86282551D01*
X166309789Y-86266586D01*
X166459786Y-86157609D01*
X166459788Y-86157606D01*
X166459792Y-86157604D01*
X166610104Y-86007292D01*
X166610106Y-86007288D01*
X166610109Y-86007286D01*
X166735048Y-85835320D01*
X166735047Y-85835320D01*
X166735051Y-85835316D01*
X166831557Y-85645912D01*
X166897246Y-85443743D01*
X166930500Y-85233787D01*
X166930500Y-85021213D01*
X166897246Y-84811257D01*
X166831557Y-84609088D01*
X166735051Y-84419684D01*
X166735049Y-84419681D01*
X166735048Y-84419679D01*
X166610109Y-84247713D01*
X166459786Y-84097390D01*
X166287820Y-83972451D01*
X166287115Y-83972091D01*
X166279054Y-83967985D01*
X166228259Y-83920012D01*
X166211463Y-83852192D01*
X166233999Y-83786056D01*
X166279054Y-83747015D01*
X166287816Y-83742551D01*
X166379854Y-83675682D01*
X166459786Y-83617609D01*
X166459788Y-83617606D01*
X166459792Y-83617604D01*
X166610104Y-83467292D01*
X166610106Y-83467288D01*
X166610109Y-83467286D01*
X166735048Y-83295320D01*
X166735047Y-83295320D01*
X166735051Y-83295316D01*
X166831557Y-83105912D01*
X166897246Y-82903743D01*
X166930500Y-82693787D01*
X166930500Y-82481213D01*
X166897246Y-82271257D01*
X166831557Y-82069088D01*
X166735051Y-81879684D01*
X166735049Y-81879681D01*
X166735048Y-81879679D01*
X166610109Y-81707713D01*
X166459786Y-81557390D01*
X166287820Y-81432451D01*
X166098414Y-81335944D01*
X166098413Y-81335943D01*
X166098412Y-81335943D01*
X165896243Y-81270254D01*
X165896241Y-81270253D01*
X165896240Y-81270253D01*
X165734957Y-81244708D01*
X165686287Y-81237000D01*
X165473713Y-81237000D01*
X165425042Y-81244708D01*
X165263760Y-81270253D01*
X165061585Y-81335944D01*
X164872179Y-81432451D01*
X164700213Y-81557390D01*
X164549890Y-81707713D01*
X164424949Y-81879682D01*
X164420484Y-81888446D01*
X164372509Y-81939242D01*
X164304688Y-81956036D01*
X164238553Y-81933498D01*
X164199516Y-81888446D01*
X164195050Y-81879682D01*
X164070109Y-81707713D01*
X163919786Y-81557390D01*
X163747820Y-81432451D01*
X163558414Y-81335944D01*
X163558413Y-81335943D01*
X163558412Y-81335943D01*
X163356243Y-81270254D01*
X163356241Y-81270253D01*
X163356240Y-81270253D01*
X163194957Y-81244708D01*
X163146287Y-81237000D01*
X162933713Y-81237000D01*
X162885042Y-81244708D01*
X162723760Y-81270253D01*
X162521585Y-81335944D01*
X162332179Y-81432451D01*
X162160213Y-81557390D01*
X162009890Y-81707713D01*
X161884949Y-81879682D01*
X161880484Y-81888446D01*
X161832509Y-81939242D01*
X161764688Y-81956036D01*
X161698553Y-81933498D01*
X161659516Y-81888446D01*
X161655050Y-81879682D01*
X161530109Y-81707713D01*
X161379786Y-81557390D01*
X161207820Y-81432451D01*
X161018414Y-81335944D01*
X161018413Y-81335943D01*
X161018412Y-81335943D01*
X160816243Y-81270254D01*
X160816241Y-81270253D01*
X160816240Y-81270253D01*
X160654957Y-81244708D01*
X160606287Y-81237000D01*
X160393713Y-81237000D01*
X160345042Y-81244708D01*
X160183760Y-81270253D01*
X159981585Y-81335944D01*
X159792179Y-81432451D01*
X159620213Y-81557390D01*
X159469890Y-81707713D01*
X159344949Y-81879682D01*
X159340484Y-81888446D01*
X159292509Y-81939242D01*
X159224688Y-81956036D01*
X159158553Y-81933498D01*
X159119516Y-81888446D01*
X159115050Y-81879682D01*
X158990109Y-81707713D01*
X158839786Y-81557390D01*
X158667820Y-81432451D01*
X158478414Y-81335944D01*
X158478413Y-81335943D01*
X158478412Y-81335943D01*
X158276243Y-81270254D01*
X158276241Y-81270253D01*
X158276240Y-81270253D01*
X158114957Y-81244708D01*
X158066287Y-81237000D01*
X157853713Y-81237000D01*
X157805042Y-81244708D01*
X157643760Y-81270253D01*
X157441585Y-81335944D01*
X157252179Y-81432451D01*
X157080213Y-81557390D01*
X156929894Y-81707709D01*
X156929890Y-81707714D01*
X156916363Y-81726332D01*
X156861032Y-81768996D01*
X156791418Y-81774974D01*
X156729624Y-81742366D01*
X156707854Y-81714027D01*
X156700000Y-81700001D01*
X156700000Y-81700000D01*
X154769893Y-80517031D01*
X153652464Y-79832155D01*
X153605593Y-79780339D01*
X153593877Y-79738770D01*
X153313575Y-76935755D01*
X153326492Y-76867093D01*
X153374481Y-76816311D01*
X153436431Y-76799421D01*
X165100000Y-76750000D01*
X165000000Y-66600000D01*
X164999999Y-66599999D01*
X165000000Y-66599999D01*
X160804076Y-65916942D01*
X160741071Y-65886741D01*
X160704395Y-65827272D01*
X160700000Y-65794553D01*
X160700000Y-64400000D01*
X151582000Y-64464665D01*
X151514823Y-64445456D01*
X151468695Y-64392978D01*
X151466560Y-64388120D01*
X151459397Y-64370827D01*
X151459390Y-64370814D01*
X151371789Y-64239711D01*
X151371786Y-64239707D01*
X151260292Y-64128213D01*
X151260288Y-64128210D01*
X151129185Y-64040609D01*
X151129172Y-64040602D01*
X150983501Y-63980264D01*
X150983489Y-63980261D01*
X150828845Y-63949500D01*
X150828842Y-63949500D01*
X150671158Y-63949500D01*
X150671155Y-63949500D01*
X150516510Y-63980261D01*
X150516498Y-63980264D01*
X150370827Y-64040602D01*
X150370814Y-64040609D01*
X150239711Y-64128210D01*
X150239707Y-64128213D01*
X150128213Y-64239707D01*
X150128210Y-64239711D01*
X150040609Y-64370814D01*
X150040603Y-64370826D01*
X150028540Y-64399948D01*
X149984698Y-64454351D01*
X149918403Y-64476414D01*
X149914859Y-64476490D01*
X149338590Y-64480576D01*
X149271413Y-64461367D01*
X149225285Y-64408889D01*
X149223150Y-64404031D01*
X149209396Y-64370827D01*
X149209394Y-64370821D01*
X149209392Y-64370818D01*
X149209392Y-64370817D01*
X149121789Y-64239711D01*
X149121786Y-64239707D01*
X149010292Y-64128213D01*
X149010288Y-64128210D01*
X148879185Y-64040609D01*
X148879172Y-64040602D01*
X148733501Y-63980264D01*
X148733489Y-63980261D01*
X148578845Y-63949500D01*
X148578842Y-63949500D01*
X148421158Y-63949500D01*
X148421155Y-63949500D01*
X148266510Y-63980261D01*
X148266498Y-63980264D01*
X148120827Y-64040602D01*
X148120814Y-64040609D01*
X147989711Y-64128210D01*
X147989707Y-64128213D01*
X147878213Y-64239707D01*
X147878207Y-64239715D01*
X147790607Y-64370818D01*
X147790602Y-64370827D01*
X147771911Y-64415951D01*
X147728070Y-64470354D01*
X147661775Y-64492418D01*
X147658231Y-64492494D01*
X146599999Y-64500000D01*
X144700500Y-64500000D01*
X144700500Y-61597648D01*
X154749500Y-61597648D01*
X154749500Y-61802351D01*
X154781522Y-62004534D01*
X154844781Y-62199223D01*
X154937715Y-62381613D01*
X155058028Y-62547213D01*
X155202786Y-62691971D01*
X155357749Y-62804556D01*
X155368390Y-62812287D01*
X155484607Y-62871503D01*
X155550776Y-62905218D01*
X155550778Y-62905218D01*
X155550781Y-62905220D01*
X155655137Y-62939127D01*
X155745465Y-62968477D01*
X155846557Y-62984488D01*
X155947648Y-63000500D01*
X155947649Y-63000500D01*
X156152351Y-63000500D01*
X156152352Y-63000500D01*
X156354534Y-62968477D01*
X156549219Y-62905220D01*
X156731610Y-62812287D01*
X156824590Y-62744732D01*
X156897213Y-62691971D01*
X156897215Y-62691968D01*
X156897219Y-62691966D01*
X157041966Y-62547219D01*
X157041968Y-62547215D01*
X157041971Y-62547213D01*
X157094732Y-62474590D01*
X157162287Y-62381610D01*
X157255220Y-62199219D01*
X157318477Y-62004534D01*
X157350500Y-61802352D01*
X157350500Y-61597648D01*
X158749500Y-61597648D01*
X158749500Y-61802351D01*
X158781522Y-62004534D01*
X158844781Y-62199223D01*
X158937715Y-62381613D01*
X159058028Y-62547213D01*
X159202786Y-62691971D01*
X159357749Y-62804556D01*
X159368390Y-62812287D01*
X159484607Y-62871503D01*
X159550776Y-62905218D01*
X159550778Y-62905218D01*
X159550781Y-62905220D01*
X159655137Y-62939127D01*
X159745465Y-62968477D01*
X159846557Y-62984488D01*
X159947648Y-63000500D01*
X159947649Y-63000500D01*
X160152351Y-63000500D01*
X160152352Y-63000500D01*
X160354534Y-62968477D01*
X160549219Y-62905220D01*
X160731610Y-62812287D01*
X160824590Y-62744732D01*
X160897213Y-62691971D01*
X160897215Y-62691968D01*
X160897219Y-62691966D01*
X161041966Y-62547219D01*
X161041968Y-62547215D01*
X161041971Y-62547213D01*
X161094732Y-62474590D01*
X161162287Y-62381610D01*
X161255220Y-62199219D01*
X161318477Y-62004534D01*
X161350500Y-61802352D01*
X161350500Y-61597648D01*
X161749500Y-61597648D01*
X161749500Y-61802351D01*
X161781522Y-62004534D01*
X161844781Y-62199223D01*
X161937715Y-62381613D01*
X162058028Y-62547213D01*
X162202786Y-62691971D01*
X162357749Y-62804556D01*
X162368390Y-62812287D01*
X162484607Y-62871503D01*
X162550776Y-62905218D01*
X162550778Y-62905218D01*
X162550781Y-62905220D01*
X162655137Y-62939127D01*
X162745465Y-62968477D01*
X162846557Y-62984488D01*
X162947648Y-63000500D01*
X162947649Y-63000500D01*
X163152351Y-63000500D01*
X163152352Y-63000500D01*
X163354534Y-62968477D01*
X163549219Y-62905220D01*
X163731610Y-62812287D01*
X163824590Y-62744732D01*
X163897213Y-62691971D01*
X163897215Y-62691968D01*
X163897219Y-62691966D01*
X164041966Y-62547219D01*
X164041968Y-62547215D01*
X164041971Y-62547213D01*
X164094732Y-62474590D01*
X164162287Y-62381610D01*
X164255220Y-62199219D01*
X164318477Y-62004534D01*
X164350500Y-61802352D01*
X164350500Y-61597648D01*
X164318477Y-61395466D01*
X164255220Y-61200781D01*
X164255218Y-61200778D01*
X164255218Y-61200776D01*
X164221503Y-61134607D01*
X164162287Y-61018390D01*
X164154556Y-61007749D01*
X164041971Y-60852786D01*
X163897213Y-60708028D01*
X163731613Y-60587715D01*
X163731612Y-60587714D01*
X163731610Y-60587713D01*
X163674653Y-60558691D01*
X163549223Y-60494781D01*
X163354534Y-60431522D01*
X163179995Y-60403878D01*
X163152352Y-60399500D01*
X162947648Y-60399500D01*
X162923329Y-60403351D01*
X162745465Y-60431522D01*
X162550776Y-60494781D01*
X162368386Y-60587715D01*
X162202786Y-60708028D01*
X162058028Y-60852786D01*
X161937715Y-61018386D01*
X161844781Y-61200776D01*
X161781522Y-61395465D01*
X161749500Y-61597648D01*
X161350500Y-61597648D01*
X161318477Y-61395466D01*
X161255220Y-61200781D01*
X161255218Y-61200778D01*
X161255218Y-61200776D01*
X161221503Y-61134607D01*
X161162287Y-61018390D01*
X161154556Y-61007749D01*
X161041971Y-60852786D01*
X160897213Y-60708028D01*
X160731613Y-60587715D01*
X160731612Y-60587714D01*
X160731610Y-60587713D01*
X160674653Y-60558691D01*
X160549223Y-60494781D01*
X160354534Y-60431522D01*
X160179995Y-60403878D01*
X160152352Y-60399500D01*
X159947648Y-60399500D01*
X159923329Y-60403351D01*
X159745465Y-60431522D01*
X159550776Y-60494781D01*
X159368386Y-60587715D01*
X159202786Y-60708028D01*
X159058028Y-60852786D01*
X158937715Y-61018386D01*
X158844781Y-61200776D01*
X158781522Y-61395465D01*
X158749500Y-61597648D01*
X157350500Y-61597648D01*
X157318477Y-61395466D01*
X157255220Y-61200781D01*
X157255218Y-61200778D01*
X157255218Y-61200776D01*
X157221503Y-61134607D01*
X157162287Y-61018390D01*
X157154556Y-61007749D01*
X157041971Y-60852786D01*
X156897213Y-60708028D01*
X156731613Y-60587715D01*
X156731612Y-60587714D01*
X156731610Y-60587713D01*
X156674653Y-60558691D01*
X156549223Y-60494781D01*
X156354534Y-60431522D01*
X156179995Y-60403878D01*
X156152352Y-60399500D01*
X155947648Y-60399500D01*
X155923329Y-60403351D01*
X155745465Y-60431522D01*
X155550776Y-60494781D01*
X155368386Y-60587715D01*
X155202786Y-60708028D01*
X155058028Y-60852786D01*
X154937715Y-61018386D01*
X154844781Y-61200776D01*
X154781522Y-61395465D01*
X154749500Y-61597648D01*
X144700500Y-61597648D01*
X144700500Y-59598543D01*
X156499499Y-59598543D01*
X156537947Y-59791829D01*
X156537950Y-59791839D01*
X156613364Y-59973907D01*
X156613371Y-59973920D01*
X156722860Y-60137781D01*
X156722863Y-60137785D01*
X156862214Y-60277136D01*
X156862218Y-60277139D01*
X157026079Y-60386628D01*
X157026092Y-60386635D01*
X157134463Y-60431523D01*
X157208165Y-60462051D01*
X157208169Y-60462051D01*
X157208170Y-60462052D01*
X157401456Y-60500500D01*
X157401459Y-60500500D01*
X157598543Y-60500500D01*
X157728582Y-60474632D01*
X157791835Y-60462051D01*
X157973914Y-60386632D01*
X158137782Y-60277139D01*
X158277139Y-60137782D01*
X158386632Y-59973914D01*
X158462051Y-59791835D01*
X158500500Y-59598543D01*
X163499499Y-59598543D01*
X163537947Y-59791829D01*
X163537950Y-59791839D01*
X163613364Y-59973907D01*
X163613371Y-59973920D01*
X163722860Y-60137781D01*
X163722863Y-60137785D01*
X163862214Y-60277136D01*
X163862218Y-60277139D01*
X164026079Y-60386628D01*
X164026092Y-60386635D01*
X164134463Y-60431523D01*
X164208165Y-60462051D01*
X164208169Y-60462051D01*
X164208170Y-60462052D01*
X164401456Y-60500500D01*
X164401459Y-60500500D01*
X164598543Y-60500500D01*
X164728582Y-60474632D01*
X164791835Y-60462051D01*
X164973914Y-60386632D01*
X165137782Y-60277139D01*
X165277139Y-60137782D01*
X165386632Y-59973914D01*
X165462051Y-59791835D01*
X165500500Y-59598541D01*
X165500500Y-59401459D01*
X165500500Y-59401456D01*
X165462052Y-59208170D01*
X165462051Y-59208169D01*
X165462051Y-59208165D01*
X165462049Y-59208160D01*
X165386635Y-59026092D01*
X165386628Y-59026079D01*
X165277139Y-58862218D01*
X165277136Y-58862214D01*
X165137785Y-58722863D01*
X165137781Y-58722860D01*
X164973920Y-58613371D01*
X164973907Y-58613364D01*
X164791839Y-58537950D01*
X164791829Y-58537947D01*
X164598543Y-58499500D01*
X164598541Y-58499500D01*
X164401459Y-58499500D01*
X164401457Y-58499500D01*
X164208170Y-58537947D01*
X164208160Y-58537950D01*
X164026092Y-58613364D01*
X164026079Y-58613371D01*
X163862218Y-58722860D01*
X163862214Y-58722863D01*
X163722863Y-58862214D01*
X163722860Y-58862218D01*
X163613371Y-59026079D01*
X163613364Y-59026092D01*
X163537950Y-59208160D01*
X163537947Y-59208170D01*
X163499500Y-59401456D01*
X163499500Y-59401459D01*
X163499500Y-59598541D01*
X163499500Y-59598543D01*
X163499499Y-59598543D01*
X158500500Y-59598543D01*
X158500500Y-59598541D01*
X158500500Y-59401459D01*
X158500500Y-59401456D01*
X158462052Y-59208170D01*
X158462051Y-59208169D01*
X158462051Y-59208165D01*
X158462049Y-59208160D01*
X158386635Y-59026092D01*
X158386628Y-59026079D01*
X158277139Y-58862218D01*
X158277136Y-58862214D01*
X158137785Y-58722863D01*
X158137781Y-58722860D01*
X157973920Y-58613371D01*
X157973907Y-58613364D01*
X157791839Y-58537950D01*
X157791829Y-58537947D01*
X157598543Y-58499500D01*
X157598541Y-58499500D01*
X157401459Y-58499500D01*
X157401457Y-58499500D01*
X157208170Y-58537947D01*
X157208160Y-58537950D01*
X157026092Y-58613364D01*
X157026079Y-58613371D01*
X156862218Y-58722860D01*
X156862214Y-58722863D01*
X156722863Y-58862214D01*
X156722860Y-58862218D01*
X156613371Y-59026079D01*
X156613364Y-59026092D01*
X156537950Y-59208160D01*
X156537947Y-59208170D01*
X156499500Y-59401456D01*
X156499500Y-59401459D01*
X156499500Y-59598541D01*
X156499500Y-59598543D01*
X156499499Y-59598543D01*
X144700500Y-59598543D01*
X144700500Y-56224786D01*
X144720185Y-56157747D01*
X144772989Y-56111992D01*
X144824500Y-56100786D01*
X167074561Y-56100786D01*
X167141600Y-56120471D01*
G37*
%TD.AperFunction*%
%TD*%
%TA.AperFunction,Conductor*%
%TO.N,GND*%
G36*
X125318834Y-74767115D02*
G01*
X125374767Y-74808987D01*
X125399184Y-74874451D01*
X125399500Y-74883297D01*
X125399500Y-79634217D01*
X125379815Y-79701256D01*
X125363181Y-79721898D01*
X125032221Y-80052858D01*
X125032218Y-80052861D01*
X124990175Y-80094904D01*
X124892859Y-80192219D01*
X124783371Y-80356079D01*
X124783364Y-80356092D01*
X124707950Y-80538160D01*
X124707947Y-80538170D01*
X124669500Y-80731456D01*
X124669500Y-81524800D01*
X124649815Y-81591839D01*
X124640506Y-81604365D01*
X124514951Y-81777179D01*
X124418444Y-81966585D01*
X124352753Y-82168760D01*
X124319500Y-82378713D01*
X124319500Y-82591286D01*
X124352753Y-82801239D01*
X124418444Y-83003414D01*
X124514951Y-83192820D01*
X124642759Y-83368734D01*
X124641888Y-83369366D01*
X124650413Y-83388380D01*
X124664477Y-83410264D01*
X124666484Y-83424223D01*
X124668357Y-83428401D01*
X124669500Y-83445199D01*
X124669500Y-83610858D01*
X124649815Y-83677897D01*
X124597011Y-83723652D01*
X124588847Y-83727034D01*
X124577669Y-83731204D01*
X124577664Y-83731206D01*
X124462455Y-83817452D01*
X124462452Y-83817455D01*
X124376206Y-83932664D01*
X124376202Y-83932671D01*
X124325908Y-84067517D01*
X124319501Y-84127116D01*
X124319500Y-84127135D01*
X124319500Y-85670903D01*
X124299815Y-85737942D01*
X124247011Y-85783697D01*
X124177853Y-85793641D01*
X124114297Y-85764616D01*
X124107819Y-85758584D01*
X123437819Y-85088584D01*
X123404334Y-85027261D01*
X123401500Y-85000903D01*
X123401500Y-76633297D01*
X123421185Y-76566258D01*
X123437819Y-76545616D01*
X125187819Y-74795616D01*
X125249142Y-74762131D01*
X125318834Y-74767115D01*
G37*
%TD.AperFunction*%
%TA.AperFunction,Conductor*%
G36*
X132608834Y-79674312D02*
G01*
X132664767Y-79716184D01*
X132689184Y-79781648D01*
X132689500Y-79790494D01*
X132689500Y-81199281D01*
X132669815Y-81266320D01*
X132621795Y-81309765D01*
X132582185Y-81329947D01*
X132582184Y-81329948D01*
X132410213Y-81454890D01*
X132259890Y-81605213D01*
X132134949Y-81777182D01*
X132130484Y-81785946D01*
X132082509Y-81836742D01*
X132014688Y-81853536D01*
X131948553Y-81830998D01*
X131909516Y-81785946D01*
X131905050Y-81777182D01*
X131780109Y-81605213D01*
X131629786Y-81454890D01*
X131457815Y-81329948D01*
X131457814Y-81329947D01*
X131418205Y-81309765D01*
X131367409Y-81261791D01*
X131350500Y-81199281D01*
X131350500Y-80881494D01*
X131370185Y-80814455D01*
X131386819Y-80793813D01*
X132477819Y-79702813D01*
X132539142Y-79669328D01*
X132608834Y-79674312D01*
G37*
%TD.AperFunction*%
%TA.AperFunction,Conductor*%
G36*
X120242822Y-56019685D02*
G01*
X120288577Y-56072489D01*
X120298521Y-56141647D01*
X120290344Y-56171452D01*
X120230264Y-56316498D01*
X120230261Y-56316510D01*
X120199500Y-56471153D01*
X120199500Y-56628846D01*
X120230261Y-56783489D01*
X120230264Y-56783501D01*
X120290602Y-56929172D01*
X120290609Y-56929185D01*
X120378210Y-57060288D01*
X120378213Y-57060292D01*
X120489707Y-57171786D01*
X120489711Y-57171789D01*
X120620814Y-57259390D01*
X120620827Y-57259397D01*
X120766498Y-57319735D01*
X120766503Y-57319737D01*
X120896962Y-57345687D01*
X120921153Y-57350499D01*
X120921156Y-57350500D01*
X120921158Y-57350500D01*
X121078844Y-57350500D01*
X121078845Y-57350499D01*
X121233497Y-57319737D01*
X121379179Y-57259394D01*
X121468817Y-57199500D01*
X121510875Y-57171398D01*
X121528921Y-57165747D01*
X121544831Y-57155523D01*
X121575792Y-57151071D01*
X121577553Y-57150520D01*
X121579766Y-57150500D01*
X121749903Y-57150500D01*
X121816942Y-57170185D01*
X121837584Y-57186819D01*
X124113181Y-59462416D01*
X124146666Y-59523739D01*
X124149500Y-59550097D01*
X124149500Y-60151905D01*
X124129815Y-60218944D01*
X124128602Y-60220796D01*
X124040609Y-60352485D01*
X124040602Y-60352498D01*
X123980264Y-60498169D01*
X123980261Y-60498181D01*
X123949500Y-60652824D01*
X123949500Y-60810517D01*
X123980261Y-60965160D01*
X123980264Y-60965172D01*
X124040602Y-61110843D01*
X124040609Y-61110856D01*
X124128210Y-61241959D01*
X124128213Y-61241963D01*
X124180825Y-61294574D01*
X124214311Y-61355897D01*
X124209327Y-61425589D01*
X124180826Y-61469937D01*
X123787584Y-61863181D01*
X123726261Y-61896666D01*
X123699903Y-61899500D01*
X121329766Y-61899500D01*
X121262727Y-61879815D01*
X121260875Y-61878602D01*
X121129185Y-61790609D01*
X121129172Y-61790602D01*
X120983501Y-61730264D01*
X120983489Y-61730261D01*
X120828845Y-61699500D01*
X120828842Y-61699500D01*
X120671158Y-61699500D01*
X120671155Y-61699500D01*
X120516510Y-61730261D01*
X120516498Y-61730264D01*
X120370827Y-61790602D01*
X120370814Y-61790609D01*
X120239711Y-61878210D01*
X120239707Y-61878213D01*
X120128213Y-61989707D01*
X120128210Y-61989711D01*
X120040609Y-62120814D01*
X120040602Y-62120827D01*
X119980264Y-62266498D01*
X119980261Y-62266510D01*
X119949500Y-62421153D01*
X119949500Y-62578846D01*
X119980261Y-62733489D01*
X119980264Y-62733501D01*
X120040602Y-62879172D01*
X120040609Y-62879185D01*
X120128210Y-63010288D01*
X120128213Y-63010292D01*
X120239707Y-63121786D01*
X120239711Y-63121789D01*
X120370814Y-63209390D01*
X120370827Y-63209397D01*
X120449894Y-63242147D01*
X120516503Y-63269737D01*
X120671153Y-63300499D01*
X120671156Y-63300500D01*
X120671158Y-63300500D01*
X120828844Y-63300500D01*
X120828845Y-63300499D01*
X120983497Y-63269737D01*
X121129179Y-63209394D01*
X121183663Y-63172989D01*
X121260875Y-63121398D01*
X121327553Y-63100520D01*
X121329766Y-63100500D01*
X123000902Y-63100500D01*
X123067941Y-63120185D01*
X123113696Y-63172989D01*
X123123640Y-63242147D01*
X123094615Y-63305703D01*
X123088583Y-63312181D01*
X120269481Y-66131282D01*
X120269479Y-66131285D01*
X120219361Y-66218094D01*
X120219359Y-66218096D01*
X120190425Y-66268209D01*
X120190424Y-66268210D01*
X120190423Y-66268215D01*
X120149499Y-66420943D01*
X120149499Y-66420945D01*
X120149499Y-66589046D01*
X120149500Y-66589059D01*
X120149500Y-68170234D01*
X120129815Y-68237273D01*
X120128602Y-68239125D01*
X120040609Y-68370814D01*
X120040602Y-68370827D01*
X119980264Y-68516498D01*
X119980261Y-68516510D01*
X119949500Y-68671153D01*
X119949500Y-68828846D01*
X119980261Y-68983489D01*
X119980264Y-68983501D01*
X120040602Y-69129172D01*
X120040609Y-69129185D01*
X120128210Y-69260288D01*
X120128213Y-69260292D01*
X120239707Y-69371786D01*
X120239711Y-69371789D01*
X120370814Y-69459390D01*
X120370827Y-69459397D01*
X120516498Y-69519735D01*
X120516503Y-69519737D01*
X120671153Y-69550499D01*
X120671156Y-69550500D01*
X120671158Y-69550500D01*
X120828844Y-69550500D01*
X120828845Y-69550499D01*
X120983497Y-69519737D01*
X121129179Y-69459394D01*
X121260289Y-69371789D01*
X121371789Y-69260289D01*
X121459394Y-69129179D01*
X121519737Y-68983497D01*
X121550500Y-68828842D01*
X121550500Y-68671158D01*
X121550500Y-68671155D01*
X121550499Y-68671153D01*
X121519738Y-68516510D01*
X121519737Y-68516503D01*
X121519735Y-68516498D01*
X121459397Y-68370827D01*
X121459390Y-68370814D01*
X121371398Y-68239125D01*
X121350520Y-68172447D01*
X121350500Y-68170234D01*
X121350500Y-66800097D01*
X121370185Y-66733058D01*
X121386819Y-66712416D01*
X123912629Y-64186606D01*
X126580520Y-61518716D01*
X126659577Y-61381784D01*
X126700501Y-61229057D01*
X126700501Y-61070942D01*
X126700501Y-61063347D01*
X126700500Y-61063329D01*
X126700500Y-59579765D01*
X126720185Y-59512726D01*
X126721398Y-59510874D01*
X126809390Y-59379185D01*
X126809390Y-59379184D01*
X126809394Y-59379179D01*
X126869737Y-59233497D01*
X126900500Y-59078842D01*
X126900500Y-58921158D01*
X126900500Y-58921155D01*
X126900499Y-58921153D01*
X126875893Y-58797452D01*
X126869737Y-58766503D01*
X126839818Y-58694272D01*
X126809397Y-58620827D01*
X126809390Y-58620814D01*
X126721789Y-58489711D01*
X126721786Y-58489707D01*
X126610292Y-58378213D01*
X126610288Y-58378210D01*
X126479185Y-58290609D01*
X126479172Y-58290602D01*
X126333501Y-58230264D01*
X126333489Y-58230261D01*
X126178845Y-58199500D01*
X126178842Y-58199500D01*
X126091496Y-58199500D01*
X126024457Y-58179815D01*
X126001669Y-58160982D01*
X125991491Y-58150287D01*
X125980520Y-58131284D01*
X125833469Y-57984233D01*
X125832427Y-57983138D01*
X125817116Y-57953367D01*
X125801088Y-57924014D01*
X125800637Y-57921847D01*
X125769738Y-57766510D01*
X125769737Y-57766503D01*
X125769735Y-57766498D01*
X125709397Y-57620827D01*
X125709390Y-57620814D01*
X125621789Y-57489711D01*
X125621786Y-57489707D01*
X125510292Y-57378213D01*
X125510288Y-57378210D01*
X125379185Y-57290609D01*
X125379172Y-57290602D01*
X125233501Y-57230264D01*
X125233489Y-57230261D01*
X125078845Y-57199500D01*
X125078842Y-57199500D01*
X124921158Y-57199500D01*
X124921155Y-57199500D01*
X124766510Y-57230261D01*
X124766498Y-57230264D01*
X124620827Y-57290602D01*
X124620814Y-57290609D01*
X124489711Y-57378210D01*
X124489707Y-57378213D01*
X124378213Y-57489707D01*
X124378210Y-57489711D01*
X124290609Y-57620814D01*
X124290604Y-57620824D01*
X124267737Y-57676031D01*
X124223896Y-57730434D01*
X124157602Y-57752499D01*
X124089902Y-57735220D01*
X124065495Y-57716259D01*
X122560916Y-56211681D01*
X122527431Y-56150358D01*
X122532415Y-56080666D01*
X122574287Y-56024733D01*
X122639751Y-56000316D01*
X122648597Y-56000000D01*
X137376000Y-56000000D01*
X137443039Y-56019685D01*
X137488794Y-56072489D01*
X137500000Y-56124000D01*
X137500000Y-95376000D01*
X137480315Y-95443039D01*
X137427511Y-95488794D01*
X137376000Y-95500000D01*
X125200983Y-95500000D01*
X125133944Y-95480315D01*
X125088189Y-95427511D01*
X125078245Y-95358353D01*
X125107270Y-95294797D01*
X125153531Y-95261439D01*
X125279172Y-95209397D01*
X125279172Y-95209396D01*
X125279179Y-95209394D01*
X125410289Y-95121789D01*
X125521789Y-95010289D01*
X125609394Y-94879179D01*
X125669737Y-94733497D01*
X125700500Y-94578842D01*
X125700500Y-94421158D01*
X125700500Y-94421155D01*
X125700499Y-94421153D01*
X125669737Y-94266503D01*
X125649224Y-94216980D01*
X125609397Y-94120827D01*
X125609390Y-94120814D01*
X125521789Y-93989711D01*
X125521786Y-93989707D01*
X125410292Y-93878213D01*
X125410288Y-93878210D01*
X125279185Y-93790609D01*
X125279172Y-93790602D01*
X125133501Y-93730264D01*
X125133489Y-93730261D01*
X124978845Y-93699500D01*
X124978842Y-93699500D01*
X124821158Y-93699500D01*
X124821155Y-93699500D01*
X124666510Y-93730261D01*
X124666498Y-93730264D01*
X124520827Y-93790602D01*
X124520814Y-93790609D01*
X124389711Y-93878210D01*
X124389707Y-93878213D01*
X124278213Y-93989707D01*
X124278210Y-93989711D01*
X124190609Y-94120814D01*
X124190602Y-94120827D01*
X124130264Y-94266498D01*
X124130261Y-94266510D01*
X124099500Y-94421153D01*
X124099500Y-94578846D01*
X124130261Y-94733489D01*
X124130264Y-94733501D01*
X124190602Y-94879172D01*
X124190609Y-94879185D01*
X124278210Y-95010288D01*
X124278213Y-95010292D01*
X124389707Y-95121786D01*
X124389711Y-95121789D01*
X124520814Y-95209390D01*
X124520827Y-95209397D01*
X124646469Y-95261439D01*
X124700873Y-95305280D01*
X124722938Y-95371574D01*
X124705659Y-95439273D01*
X124654522Y-95486884D01*
X124599017Y-95500000D01*
X115124000Y-95500000D01*
X115056961Y-95480315D01*
X115011206Y-95427511D01*
X115000000Y-95376000D01*
X115000000Y-94321153D01*
X118599500Y-94321153D01*
X118599500Y-94478846D01*
X118630261Y-94633489D01*
X118630264Y-94633501D01*
X118690602Y-94779172D01*
X118690609Y-94779185D01*
X118778210Y-94910288D01*
X118778213Y-94910292D01*
X118889707Y-95021786D01*
X118889711Y-95021789D01*
X119020814Y-95109390D01*
X119020827Y-95109397D01*
X119166498Y-95169735D01*
X119166503Y-95169737D01*
X119321153Y-95200499D01*
X119321156Y-95200500D01*
X119321158Y-95200500D01*
X119478844Y-95200500D01*
X119478845Y-95200499D01*
X119633497Y-95169737D01*
X119779179Y-95109394D01*
X119910289Y-95021789D01*
X120021789Y-94910289D01*
X120109394Y-94779179D01*
X120169737Y-94633497D01*
X120200500Y-94478842D01*
X120200500Y-94321158D01*
X120200500Y-94321155D01*
X120200499Y-94321153D01*
X120189627Y-94266498D01*
X120169737Y-94166503D01*
X120150812Y-94120814D01*
X120109397Y-94020827D01*
X120109390Y-94020814D01*
X120021789Y-93889711D01*
X120021786Y-93889707D01*
X119910292Y-93778213D01*
X119910288Y-93778210D01*
X119779185Y-93690609D01*
X119779172Y-93690602D01*
X119633501Y-93630264D01*
X119633489Y-93630261D01*
X119478845Y-93599500D01*
X119478842Y-93599500D01*
X119321158Y-93599500D01*
X119321155Y-93599500D01*
X119166510Y-93630261D01*
X119166498Y-93630264D01*
X119020827Y-93690602D01*
X119020814Y-93690609D01*
X118889711Y-93778210D01*
X118889707Y-93778213D01*
X118778213Y-93889707D01*
X118778210Y-93889711D01*
X118690609Y-94020814D01*
X118690602Y-94020827D01*
X118630264Y-94166498D01*
X118630261Y-94166510D01*
X118599500Y-94321153D01*
X115000000Y-94321153D01*
X115000000Y-90805889D01*
X116374500Y-90805889D01*
X116374500Y-90929110D01*
X116398535Y-91049944D01*
X116398538Y-91049954D01*
X116445687Y-91163783D01*
X116445692Y-91163792D01*
X116514141Y-91266232D01*
X116514144Y-91266236D01*
X116601263Y-91353355D01*
X116601267Y-91353358D01*
X116703707Y-91421807D01*
X116703713Y-91421810D01*
X116703714Y-91421811D01*
X116817548Y-91468963D01*
X116938389Y-91492999D01*
X116938393Y-91493000D01*
X116938394Y-91493000D01*
X117061607Y-91493000D01*
X117061608Y-91492999D01*
X117182452Y-91468963D01*
X117296286Y-91421811D01*
X117398733Y-91353358D01*
X117485858Y-91266233D01*
X117554311Y-91163786D01*
X117601463Y-91049952D01*
X117601463Y-91049950D01*
X117603794Y-91044324D01*
X117605772Y-91045143D01*
X117638751Y-90994803D01*
X117702559Y-90966336D01*
X117771627Y-90976885D01*
X117824028Y-91023101D01*
X117833690Y-91041772D01*
X117890602Y-91179172D01*
X117890609Y-91179185D01*
X117978210Y-91310288D01*
X117978213Y-91310292D01*
X118089707Y-91421786D01*
X118089711Y-91421789D01*
X118220814Y-91509390D01*
X118220827Y-91509397D01*
X118366498Y-91569735D01*
X118366503Y-91569737D01*
X118521153Y-91600499D01*
X118521156Y-91600500D01*
X118521158Y-91600500D01*
X118678844Y-91600500D01*
X118678845Y-91600499D01*
X118833497Y-91569737D01*
X118957883Y-91518215D01*
X118979172Y-91509397D01*
X118979172Y-91509396D01*
X118979179Y-91509394D01*
X119110289Y-91421789D01*
X119221789Y-91310289D01*
X119309394Y-91179179D01*
X119315768Y-91163792D01*
X119369735Y-91033501D01*
X119369737Y-91033497D01*
X119400500Y-90878842D01*
X119400500Y-90721158D01*
X119400500Y-90721155D01*
X119400499Y-90721153D01*
X119370674Y-90571214D01*
X119369737Y-90566503D01*
X119329252Y-90468763D01*
X119309397Y-90420827D01*
X119309390Y-90420814D01*
X119221789Y-90289711D01*
X119221786Y-90289707D01*
X119110292Y-90178213D01*
X119110288Y-90178210D01*
X118979185Y-90090609D01*
X118979172Y-90090602D01*
X118833501Y-90030264D01*
X118833489Y-90030261D01*
X118678845Y-89999500D01*
X118678842Y-89999500D01*
X118521158Y-89999500D01*
X118521155Y-89999500D01*
X118366510Y-90030261D01*
X118366498Y-90030264D01*
X118220827Y-90090602D01*
X118220814Y-90090609D01*
X118089711Y-90178210D01*
X118089707Y-90178213D01*
X117978213Y-90289707D01*
X117978210Y-90289711D01*
X117890609Y-90420814D01*
X117890602Y-90420827D01*
X117830264Y-90566498D01*
X117830262Y-90566505D01*
X117819851Y-90618842D01*
X117787465Y-90680752D01*
X117726748Y-90715325D01*
X117656979Y-90711584D01*
X117600308Y-90670716D01*
X117583673Y-90642100D01*
X117554314Y-90571220D01*
X117554307Y-90571207D01*
X117485858Y-90468767D01*
X117485855Y-90468763D01*
X117398736Y-90381644D01*
X117398732Y-90381641D01*
X117296292Y-90313192D01*
X117296283Y-90313187D01*
X117182454Y-90266038D01*
X117182455Y-90266038D01*
X117182452Y-90266037D01*
X117182448Y-90266036D01*
X117182444Y-90266035D01*
X117061610Y-90242000D01*
X117061606Y-90242000D01*
X116938394Y-90242000D01*
X116938389Y-90242000D01*
X116817555Y-90266035D01*
X116817545Y-90266038D01*
X116703716Y-90313187D01*
X116703707Y-90313192D01*
X116601267Y-90381641D01*
X116601263Y-90381644D01*
X116514144Y-90468763D01*
X116514141Y-90468767D01*
X116445692Y-90571207D01*
X116445687Y-90571216D01*
X116398538Y-90685045D01*
X116398535Y-90685055D01*
X116374500Y-90805889D01*
X115000000Y-90805889D01*
X115000000Y-89105889D01*
X116374500Y-89105889D01*
X116374500Y-89229110D01*
X116398535Y-89349944D01*
X116398538Y-89349954D01*
X116445687Y-89463783D01*
X116445692Y-89463792D01*
X116514141Y-89566232D01*
X116514144Y-89566236D01*
X116601263Y-89653355D01*
X116601267Y-89653358D01*
X116703707Y-89721807D01*
X116703713Y-89721810D01*
X116703714Y-89721811D01*
X116817548Y-89768963D01*
X116938389Y-89792999D01*
X116938393Y-89793000D01*
X116938394Y-89793000D01*
X117061607Y-89793000D01*
X117061608Y-89792999D01*
X117182452Y-89768963D01*
X117296286Y-89721811D01*
X117398733Y-89653358D01*
X117485858Y-89566233D01*
X117554311Y-89463786D01*
X117601463Y-89349952D01*
X117625500Y-89229106D01*
X117625500Y-89105894D01*
X117601463Y-88985048D01*
X117554311Y-88871214D01*
X117554310Y-88871213D01*
X117554307Y-88871207D01*
X117485858Y-88768767D01*
X117485855Y-88768763D01*
X117398736Y-88681644D01*
X117398732Y-88681641D01*
X117296292Y-88613192D01*
X117296283Y-88613187D01*
X117182454Y-88566038D01*
X117182455Y-88566038D01*
X117182452Y-88566037D01*
X117182448Y-88566036D01*
X117182444Y-88566035D01*
X117061610Y-88542000D01*
X117061606Y-88542000D01*
X116938394Y-88542000D01*
X116938389Y-88542000D01*
X116817555Y-88566035D01*
X116817545Y-88566038D01*
X116703716Y-88613187D01*
X116703707Y-88613192D01*
X116601267Y-88681641D01*
X116601263Y-88681644D01*
X116514144Y-88768763D01*
X116514141Y-88768767D01*
X116445692Y-88871207D01*
X116445687Y-88871216D01*
X116398538Y-88985045D01*
X116398535Y-88985055D01*
X116374500Y-89105889D01*
X115000000Y-89105889D01*
X115000000Y-86321153D01*
X120899500Y-86321153D01*
X120899500Y-86478846D01*
X120930261Y-86633489D01*
X120930264Y-86633501D01*
X120990602Y-86779172D01*
X120990609Y-86779185D01*
X121078210Y-86910288D01*
X121078213Y-86910292D01*
X121189707Y-87021786D01*
X121189711Y-87021789D01*
X121320814Y-87109390D01*
X121320827Y-87109397D01*
X121466498Y-87169735D01*
X121466503Y-87169737D01*
X121621153Y-87200499D01*
X121621156Y-87200500D01*
X121621158Y-87200500D01*
X121778844Y-87200500D01*
X121778845Y-87200499D01*
X121933497Y-87169737D01*
X122079179Y-87109394D01*
X122081110Y-87108103D01*
X122082276Y-87107737D01*
X122084546Y-87106525D01*
X122084776Y-87106955D01*
X122147786Y-87087226D01*
X122215166Y-87105710D01*
X122218850Y-87108077D01*
X122220821Y-87109394D01*
X122220824Y-87109395D01*
X122220827Y-87109397D01*
X122366498Y-87169735D01*
X122366503Y-87169737D01*
X122521153Y-87200499D01*
X122521156Y-87200500D01*
X122521158Y-87200500D01*
X122678844Y-87200500D01*
X122678845Y-87200499D01*
X122833497Y-87169737D01*
X122979179Y-87109394D01*
X123110289Y-87021789D01*
X123221789Y-86910289D01*
X123273737Y-86832543D01*
X123327347Y-86787740D01*
X123396672Y-86779032D01*
X123459700Y-86809186D01*
X123464519Y-86813754D01*
X128044170Y-91393405D01*
X128077655Y-91454728D01*
X128072671Y-91524420D01*
X128030799Y-91580353D01*
X127965335Y-91604770D01*
X127900194Y-91591571D01*
X127762464Y-91521393D01*
X127523614Y-91443785D01*
X127275574Y-91404500D01*
X127275569Y-91404500D01*
X127024431Y-91404500D01*
X127024426Y-91404500D01*
X126776385Y-91443785D01*
X126537535Y-91521393D01*
X126313772Y-91635408D01*
X126110606Y-91783014D01*
X125933014Y-91960606D01*
X125785408Y-92163772D01*
X125671393Y-92387535D01*
X125593785Y-92626385D01*
X125554500Y-92874425D01*
X125554500Y-93125574D01*
X125593785Y-93373614D01*
X125671393Y-93612464D01*
X125731415Y-93730261D01*
X125769490Y-93804988D01*
X125785408Y-93836227D01*
X125933014Y-94039393D01*
X126110606Y-94216985D01*
X126300722Y-94355109D01*
X126313776Y-94364594D01*
X126424779Y-94421153D01*
X126537535Y-94478606D01*
X126537537Y-94478606D01*
X126537540Y-94478608D01*
X126665567Y-94520206D01*
X126776385Y-94556214D01*
X127024426Y-94595500D01*
X127024431Y-94595500D01*
X127275574Y-94595500D01*
X127523614Y-94556214D01*
X127762460Y-94478608D01*
X127986224Y-94364594D01*
X128189399Y-94216980D01*
X128249983Y-94156395D01*
X128311303Y-94122912D01*
X128380994Y-94127895D01*
X128457410Y-94156397D01*
X128474017Y-94162591D01*
X128474016Y-94162591D01*
X128480944Y-94163335D01*
X128533627Y-94169000D01*
X129966372Y-94168999D01*
X130025983Y-94162591D01*
X130160831Y-94112296D01*
X130276046Y-94026046D01*
X130342775Y-93936906D01*
X130398708Y-93895037D01*
X130468400Y-93890053D01*
X130514923Y-93910899D01*
X130637310Y-93999819D01*
X130801260Y-94083355D01*
X130976258Y-94140216D01*
X131036838Y-94149810D01*
X131157994Y-94169000D01*
X131157998Y-94169000D01*
X131342006Y-94169000D01*
X131432872Y-94154608D01*
X131523742Y-94140216D01*
X131698740Y-94083355D01*
X131862690Y-93999819D01*
X132011553Y-93891663D01*
X132141663Y-93761553D01*
X132149683Y-93750513D01*
X132205012Y-93707850D01*
X132274626Y-93701871D01*
X132336421Y-93734477D01*
X132350314Y-93750510D01*
X132358337Y-93761553D01*
X132488447Y-93891663D01*
X132637310Y-93999819D01*
X132801260Y-94083355D01*
X132976258Y-94140216D01*
X133036838Y-94149810D01*
X133157994Y-94169000D01*
X133157998Y-94169000D01*
X133342006Y-94169000D01*
X133432872Y-94154608D01*
X133523742Y-94140216D01*
X133698740Y-94083355D01*
X133862690Y-93999819D01*
X133920483Y-93957830D01*
X133986289Y-93934349D01*
X134054343Y-93950174D01*
X134093685Y-93985259D01*
X134133020Y-94039399D01*
X134133022Y-94039401D01*
X134310606Y-94216985D01*
X134500722Y-94355109D01*
X134513776Y-94364594D01*
X134624779Y-94421153D01*
X134737535Y-94478606D01*
X134737537Y-94478606D01*
X134737540Y-94478608D01*
X134865567Y-94520206D01*
X134976385Y-94556214D01*
X135224426Y-94595500D01*
X135224431Y-94595500D01*
X135475574Y-94595500D01*
X135723614Y-94556214D01*
X135962460Y-94478608D01*
X136186224Y-94364594D01*
X136321243Y-94266498D01*
X136389393Y-94216985D01*
X136389395Y-94216982D01*
X136389399Y-94216980D01*
X136566980Y-94039399D01*
X136566982Y-94039395D01*
X136566985Y-94039393D01*
X136671864Y-93895037D01*
X136714594Y-93836224D01*
X136828608Y-93612460D01*
X136906214Y-93373614D01*
X136945500Y-93125574D01*
X136945500Y-92874425D01*
X136906214Y-92626385D01*
X136870206Y-92515567D01*
X136828608Y-92387540D01*
X136828606Y-92387537D01*
X136828606Y-92387535D01*
X136752644Y-92238453D01*
X136714594Y-92163776D01*
X136677397Y-92112578D01*
X136566985Y-91960606D01*
X136389393Y-91783014D01*
X136186227Y-91635408D01*
X136186226Y-91635407D01*
X136186224Y-91635406D01*
X136116347Y-91599801D01*
X135962464Y-91521393D01*
X135723614Y-91443785D01*
X135475574Y-91404500D01*
X135475569Y-91404500D01*
X135224431Y-91404500D01*
X135224426Y-91404500D01*
X134976385Y-91443785D01*
X134737535Y-91521393D01*
X134513772Y-91635408D01*
X134310606Y-91783014D01*
X134133022Y-91960598D01*
X134133019Y-91960602D01*
X134093685Y-92014739D01*
X134038354Y-92057404D01*
X133968740Y-92063382D01*
X133920483Y-92042170D01*
X133862690Y-92000181D01*
X133698740Y-91916645D01*
X133523742Y-91859784D01*
X133523740Y-91859783D01*
X133523739Y-91859783D01*
X133342006Y-91831000D01*
X133342002Y-91831000D01*
X133157998Y-91831000D01*
X133157994Y-91831000D01*
X132976261Y-91859783D01*
X132801257Y-91916646D01*
X132637309Y-92000181D01*
X132488445Y-92108338D01*
X132358339Y-92238444D01*
X132358332Y-92238453D01*
X132350315Y-92249487D01*
X132294984Y-92292151D01*
X132225370Y-92298127D01*
X132163576Y-92265519D01*
X132149685Y-92249487D01*
X132141667Y-92238453D01*
X132141663Y-92238447D01*
X132011553Y-92108337D01*
X131862690Y-92000181D01*
X131698740Y-91916645D01*
X131523742Y-91859784D01*
X131523740Y-91859783D01*
X131523739Y-91859783D01*
X131342006Y-91831000D01*
X131342002Y-91831000D01*
X131157998Y-91831000D01*
X131157994Y-91831000D01*
X130976261Y-91859783D01*
X130801257Y-91916646D01*
X130637309Y-92000181D01*
X130514927Y-92089098D01*
X130449120Y-92112578D01*
X130381066Y-92096753D01*
X130342775Y-92063092D01*
X130306578Y-92014739D01*
X130276046Y-91973954D01*
X130276044Y-91973953D01*
X130276044Y-91973952D01*
X130160835Y-91887706D01*
X130160828Y-91887702D01*
X130025982Y-91837408D01*
X130025983Y-91837408D01*
X129963072Y-91830645D01*
X129963200Y-91829452D01*
X129901914Y-91807792D01*
X129859084Y-91752590D01*
X129850500Y-91707257D01*
X129850500Y-91670945D01*
X129850500Y-91670943D01*
X129818224Y-91550490D01*
X129809577Y-91518215D01*
X129809577Y-91518214D01*
X129780639Y-91468095D01*
X129780637Y-91468092D01*
X129730520Y-91381284D01*
X129618716Y-91269480D01*
X129618715Y-91269479D01*
X129614385Y-91265149D01*
X129614374Y-91265139D01*
X124936415Y-86587180D01*
X124902930Y-86525857D01*
X124907914Y-86456165D01*
X124949786Y-86400232D01*
X125015250Y-86375815D01*
X125024071Y-86375499D01*
X126567872Y-86375499D01*
X126627483Y-86369091D01*
X126762331Y-86318796D01*
X126877546Y-86232546D01*
X126963796Y-86117331D01*
X126967960Y-86106165D01*
X126981228Y-86088441D01*
X126990428Y-86068297D01*
X127001758Y-86061015D01*
X127009829Y-86050234D01*
X127030577Y-86042495D01*
X127049206Y-86030523D01*
X127071121Y-86027371D01*
X127075293Y-86025816D01*
X127084141Y-86025500D01*
X127249800Y-86025500D01*
X127316839Y-86045185D01*
X127329365Y-86054493D01*
X127502179Y-86180048D01*
X127502181Y-86180049D01*
X127502184Y-86180051D01*
X127691588Y-86276557D01*
X127893757Y-86342246D01*
X128103713Y-86375500D01*
X128103714Y-86375500D01*
X128316286Y-86375500D01*
X128316287Y-86375500D01*
X128526243Y-86342246D01*
X128728412Y-86276557D01*
X128917816Y-86180051D01*
X129004138Y-86117335D01*
X129089786Y-86055109D01*
X129089788Y-86055106D01*
X129089792Y-86055104D01*
X129240104Y-85904792D01*
X129240106Y-85904788D01*
X129240109Y-85904786D01*
X129365048Y-85732820D01*
X129365047Y-85732820D01*
X129365051Y-85732816D01*
X129461557Y-85543412D01*
X129527246Y-85341243D01*
X129560500Y-85131287D01*
X129560500Y-84918713D01*
X129527246Y-84708757D01*
X129461557Y-84506588D01*
X129365051Y-84317184D01*
X129365049Y-84317181D01*
X129365048Y-84317179D01*
X129240109Y-84145213D01*
X129089786Y-83994890D01*
X128917820Y-83869951D01*
X128917115Y-83869591D01*
X128909054Y-83865485D01*
X128858259Y-83817512D01*
X128841463Y-83749692D01*
X128863999Y-83683556D01*
X128909054Y-83644515D01*
X128917816Y-83640051D01*
X128957997Y-83610858D01*
X129089786Y-83515109D01*
X129089788Y-83515106D01*
X129089792Y-83515104D01*
X129240104Y-83364792D01*
X129240106Y-83364788D01*
X129240109Y-83364786D01*
X129365048Y-83192820D01*
X129365047Y-83192820D01*
X129365051Y-83192816D01*
X129369514Y-83184054D01*
X129417488Y-83133259D01*
X129485308Y-83116463D01*
X129551444Y-83138999D01*
X129590486Y-83184056D01*
X129594951Y-83192820D01*
X129719890Y-83364786D01*
X129870213Y-83515109D01*
X130042179Y-83640048D01*
X130042181Y-83640049D01*
X130042184Y-83640051D01*
X130231588Y-83736557D01*
X130433757Y-83802246D01*
X130643713Y-83835500D01*
X130643714Y-83835500D01*
X130856286Y-83835500D01*
X130856287Y-83835500D01*
X131066243Y-83802246D01*
X131268412Y-83736557D01*
X131457816Y-83640051D01*
X131497997Y-83610858D01*
X131629786Y-83515109D01*
X131629788Y-83515106D01*
X131629792Y-83515104D01*
X131780104Y-83364792D01*
X131780106Y-83364788D01*
X131780109Y-83364786D01*
X131905048Y-83192820D01*
X131905047Y-83192820D01*
X131905051Y-83192816D01*
X131909514Y-83184054D01*
X131957488Y-83133259D01*
X132025308Y-83116463D01*
X132091444Y-83138999D01*
X132130486Y-83184056D01*
X132134951Y-83192820D01*
X132259890Y-83364786D01*
X132410213Y-83515109D01*
X132582182Y-83640050D01*
X132590946Y-83644516D01*
X132641742Y-83692491D01*
X132658536Y-83760312D01*
X132635998Y-83826447D01*
X132590946Y-83865484D01*
X132582182Y-83869949D01*
X132410213Y-83994890D01*
X132259890Y-84145213D01*
X132134951Y-84317179D01*
X132038444Y-84506585D01*
X131972753Y-84708760D01*
X131939500Y-84918713D01*
X131939500Y-85131286D01*
X131972753Y-85341239D01*
X132038444Y-85543414D01*
X132134951Y-85732820D01*
X132259890Y-85904786D01*
X132410213Y-86055109D01*
X132582179Y-86180048D01*
X132582181Y-86180049D01*
X132582184Y-86180051D01*
X132771588Y-86276557D01*
X132973757Y-86342246D01*
X133183713Y-86375500D01*
X133183714Y-86375500D01*
X133396286Y-86375500D01*
X133396287Y-86375500D01*
X133606243Y-86342246D01*
X133808412Y-86276557D01*
X133997816Y-86180051D01*
X134084138Y-86117335D01*
X134169786Y-86055109D01*
X134169788Y-86055106D01*
X134169792Y-86055104D01*
X134320104Y-85904792D01*
X134320106Y-85904788D01*
X134320109Y-85904786D01*
X134445048Y-85732820D01*
X134445047Y-85732820D01*
X134445051Y-85732816D01*
X134449514Y-85724054D01*
X134497488Y-85673259D01*
X134565308Y-85656463D01*
X134631444Y-85678999D01*
X134670486Y-85724056D01*
X134674951Y-85732820D01*
X134799890Y-85904786D01*
X134950213Y-86055109D01*
X135122179Y-86180048D01*
X135122181Y-86180049D01*
X135122184Y-86180051D01*
X135311588Y-86276557D01*
X135513757Y-86342246D01*
X135723713Y-86375500D01*
X135723714Y-86375500D01*
X135936286Y-86375500D01*
X135936287Y-86375500D01*
X136146243Y-86342246D01*
X136348412Y-86276557D01*
X136537816Y-86180051D01*
X136624138Y-86117335D01*
X136709786Y-86055109D01*
X136709788Y-86055106D01*
X136709792Y-86055104D01*
X136860104Y-85904792D01*
X136860106Y-85904788D01*
X136860109Y-85904786D01*
X136985048Y-85732820D01*
X136985047Y-85732820D01*
X136985051Y-85732816D01*
X137081557Y-85543412D01*
X137147246Y-85341243D01*
X137180500Y-85131287D01*
X137180500Y-84918713D01*
X137147246Y-84708757D01*
X137081557Y-84506588D01*
X136985051Y-84317184D01*
X136985049Y-84317181D01*
X136985048Y-84317179D01*
X136860109Y-84145213D01*
X136709786Y-83994890D01*
X136537820Y-83869951D01*
X136537115Y-83869591D01*
X136529054Y-83865485D01*
X136478259Y-83817512D01*
X136461463Y-83749692D01*
X136483999Y-83683556D01*
X136529054Y-83644515D01*
X136537816Y-83640051D01*
X136577997Y-83610858D01*
X136709786Y-83515109D01*
X136709788Y-83515106D01*
X136709792Y-83515104D01*
X136860104Y-83364792D01*
X136860106Y-83364788D01*
X136860109Y-83364786D01*
X136985048Y-83192820D01*
X136985047Y-83192820D01*
X136985051Y-83192816D01*
X137081557Y-83003412D01*
X137147246Y-82801243D01*
X137180500Y-82591287D01*
X137180500Y-82378713D01*
X137147246Y-82168757D01*
X137081557Y-81966588D01*
X136985051Y-81777184D01*
X136985049Y-81777181D01*
X136985048Y-81777179D01*
X136860109Y-81605213D01*
X136709786Y-81454890D01*
X136537820Y-81329951D01*
X136348414Y-81233444D01*
X136348413Y-81233443D01*
X136348412Y-81233443D01*
X136146243Y-81167754D01*
X136146241Y-81167753D01*
X136146240Y-81167753D01*
X135984957Y-81142208D01*
X135936287Y-81134500D01*
X135723713Y-81134500D01*
X135695006Y-81139046D01*
X135513757Y-81167753D01*
X135471473Y-81181492D01*
X135401632Y-81183486D01*
X135345476Y-81151241D01*
X134376820Y-80182585D01*
X134343335Y-80121262D01*
X134340501Y-80094904D01*
X134340501Y-74761703D01*
X134360186Y-74694664D01*
X134412990Y-74648909D01*
X134482148Y-74638965D01*
X134511952Y-74647141D01*
X134566503Y-74669737D01*
X134691819Y-74694664D01*
X134721153Y-74700499D01*
X134721156Y-74700500D01*
X134721158Y-74700500D01*
X134878844Y-74700500D01*
X134878845Y-74700499D01*
X135033497Y-74669737D01*
X135179179Y-74609394D01*
X135310289Y-74521789D01*
X135421789Y-74410289D01*
X135509394Y-74279179D01*
X135569737Y-74133497D01*
X135600500Y-73978842D01*
X135600500Y-73821158D01*
X135600500Y-73821155D01*
X135600499Y-73821153D01*
X135578024Y-73708165D01*
X135569737Y-73666503D01*
X135543219Y-73602482D01*
X135509397Y-73520827D01*
X135509390Y-73520814D01*
X135448267Y-73429337D01*
X135427389Y-73362659D01*
X135436808Y-73312993D01*
X135437645Y-73310973D01*
X135469737Y-73233497D01*
X135500500Y-73078842D01*
X135500500Y-72921158D01*
X135500500Y-72921155D01*
X135500499Y-72921153D01*
X135469738Y-72766510D01*
X135469737Y-72766503D01*
X135438349Y-72690724D01*
X135409397Y-72620827D01*
X135409390Y-72620814D01*
X135321789Y-72489711D01*
X135321786Y-72489707D01*
X135210292Y-72378213D01*
X135210288Y-72378210D01*
X135079185Y-72290609D01*
X135079172Y-72290602D01*
X134933501Y-72230264D01*
X134933489Y-72230261D01*
X134778845Y-72199500D01*
X134778842Y-72199500D01*
X134621158Y-72199500D01*
X134621155Y-72199500D01*
X134466510Y-72230261D01*
X134466507Y-72230261D01*
X134371952Y-72269427D01*
X134302482Y-72276895D01*
X134240003Y-72245619D01*
X134204351Y-72185530D01*
X134200500Y-72154865D01*
X134200500Y-62767966D01*
X134209143Y-62738529D01*
X134215667Y-62708540D01*
X134219422Y-62703522D01*
X134220185Y-62700927D01*
X134236813Y-62680290D01*
X134309012Y-62608091D01*
X134370331Y-62574609D01*
X134420883Y-62574158D01*
X134427629Y-62575500D01*
X134427630Y-62575500D01*
X134585316Y-62575500D01*
X134585317Y-62575499D01*
X134739969Y-62544737D01*
X134885651Y-62484394D01*
X135016761Y-62396789D01*
X135128261Y-62285289D01*
X135215866Y-62154179D01*
X135276209Y-62008497D01*
X135306972Y-61853842D01*
X135306972Y-61696158D01*
X135306972Y-61696155D01*
X135306971Y-61696153D01*
X135286490Y-61593191D01*
X135276209Y-61541503D01*
X135266771Y-61518717D01*
X135216542Y-61397452D01*
X135209073Y-61327983D01*
X135216542Y-61302548D01*
X135276207Y-61158501D01*
X135276209Y-61158497D01*
X135306972Y-61003842D01*
X135306972Y-60846158D01*
X135306972Y-60846155D01*
X135306971Y-60846153D01*
X135304230Y-60832375D01*
X135276209Y-60691503D01*
X135260188Y-60652824D01*
X135215869Y-60545827D01*
X135215862Y-60545814D01*
X135128261Y-60414711D01*
X135128258Y-60414707D01*
X135016764Y-60303213D01*
X135016760Y-60303210D01*
X134885657Y-60215609D01*
X134885644Y-60215602D01*
X134739973Y-60155264D01*
X134739961Y-60155261D01*
X134585317Y-60124500D01*
X134585314Y-60124500D01*
X134427630Y-60124500D01*
X134427627Y-60124500D01*
X134272982Y-60155261D01*
X134272970Y-60155264D01*
X134127299Y-60215602D01*
X134127286Y-60215609D01*
X133996183Y-60303210D01*
X133996179Y-60303213D01*
X133884685Y-60414707D01*
X133884682Y-60414711D01*
X133797081Y-60545814D01*
X133797074Y-60545827D01*
X133736736Y-60691498D01*
X133736733Y-60691508D01*
X133705833Y-60846850D01*
X133697069Y-60863603D01*
X133693051Y-60882079D01*
X133674301Y-60907128D01*
X133673448Y-60908761D01*
X133671902Y-60910335D01*
X133662183Y-60920053D01*
X133600864Y-60953540D01*
X133531172Y-60948559D01*
X133475237Y-60906691D01*
X133450816Y-60841227D01*
X133450500Y-60832375D01*
X133450500Y-59875041D01*
X133470185Y-59808002D01*
X133477056Y-59799474D01*
X133476574Y-59799104D01*
X133481514Y-59792664D01*
X133481520Y-59792659D01*
X133557183Y-59661606D01*
X133560577Y-59655728D01*
X133601500Y-59503001D01*
X133601500Y-59344886D01*
X133601500Y-58847000D01*
X133591655Y-58810256D01*
X133560577Y-58694272D01*
X133525275Y-58633127D01*
X133481520Y-58557341D01*
X133369716Y-58445537D01*
X133369715Y-58445536D01*
X133365385Y-58441206D01*
X133365374Y-58441196D01*
X133336473Y-58412295D01*
X133336053Y-58411816D01*
X133234573Y-58310336D01*
X133201088Y-58249013D01*
X133200637Y-58246846D01*
X133169738Y-58091510D01*
X133169737Y-58091503D01*
X133115933Y-57961607D01*
X133109397Y-57945827D01*
X133109390Y-57945814D01*
X133021789Y-57814711D01*
X133021786Y-57814707D01*
X132910292Y-57703213D01*
X132910288Y-57703210D01*
X132779185Y-57615609D01*
X132779172Y-57615602D01*
X132633501Y-57555264D01*
X132633489Y-57555261D01*
X132478845Y-57524500D01*
X132478842Y-57524500D01*
X132321158Y-57524500D01*
X132321155Y-57524500D01*
X132166510Y-57555261D01*
X132166498Y-57555264D01*
X132020827Y-57615602D01*
X132020814Y-57615609D01*
X131889711Y-57703210D01*
X131889707Y-57703213D01*
X131778213Y-57814707D01*
X131778210Y-57814711D01*
X131690609Y-57945814D01*
X131690602Y-57945827D01*
X131630264Y-58091498D01*
X131630261Y-58091510D01*
X131599500Y-58246153D01*
X131599500Y-58403846D01*
X131630261Y-58558489D01*
X131630264Y-58558501D01*
X131689930Y-58702548D01*
X131697399Y-58772017D01*
X131689930Y-58797452D01*
X131630264Y-58941498D01*
X131630261Y-58941510D01*
X131599500Y-59096153D01*
X131599500Y-59253846D01*
X131630261Y-59408489D01*
X131630264Y-59408501D01*
X131690602Y-59554172D01*
X131690609Y-59554185D01*
X131778602Y-59685874D01*
X131799480Y-59752551D01*
X131799500Y-59754765D01*
X131799500Y-61559966D01*
X131782887Y-61621966D01*
X131739464Y-61697175D01*
X131739463Y-61697179D01*
X131698539Y-61849907D01*
X131698539Y-61849909D01*
X131698539Y-62018010D01*
X131698540Y-62018023D01*
X131698540Y-72917306D01*
X131698539Y-72917324D01*
X131698539Y-73083030D01*
X131698538Y-73083030D01*
X131698539Y-73083033D01*
X131739463Y-73235761D01*
X131739464Y-73235763D01*
X131739463Y-73235763D01*
X131748831Y-73251987D01*
X131748833Y-73251990D01*
X131782887Y-73310973D01*
X131799500Y-73372973D01*
X131799500Y-77994902D01*
X131779815Y-78061941D01*
X131763181Y-78082583D01*
X128694522Y-81151241D01*
X128633199Y-81184726D01*
X128568523Y-81181491D01*
X128526245Y-81167754D01*
X128386272Y-81145584D01*
X128316287Y-81134500D01*
X128103713Y-81134500D01*
X128055042Y-81142208D01*
X127893760Y-81167753D01*
X127691585Y-81233444D01*
X127502179Y-81329951D01*
X127330213Y-81454890D01*
X127179890Y-81605213D01*
X127054949Y-81777182D01*
X127050484Y-81785946D01*
X127002509Y-81836742D01*
X126934688Y-81853536D01*
X126868553Y-81830998D01*
X126829516Y-81785946D01*
X126825050Y-81777182D01*
X126697241Y-81601266D01*
X126698108Y-81600635D01*
X126689582Y-81581612D01*
X126675523Y-81559735D01*
X126673513Y-81545758D01*
X126671641Y-81541581D01*
X126670500Y-81524800D01*
X126670500Y-81295781D01*
X126690185Y-81228742D01*
X126706815Y-81208104D01*
X127037778Y-80877141D01*
X127037782Y-80877139D01*
X127177139Y-80737782D01*
X127286632Y-80573914D01*
X127362051Y-80391835D01*
X127400500Y-80198541D01*
X127400500Y-73901459D01*
X127400500Y-73901456D01*
X127362052Y-73708170D01*
X127362051Y-73708169D01*
X127362051Y-73708165D01*
X127347051Y-73671951D01*
X127339584Y-73602482D01*
X127370859Y-73540003D01*
X127430949Y-73504351D01*
X127461613Y-73500500D01*
X128513331Y-73500500D01*
X128513347Y-73500501D01*
X128520943Y-73500501D01*
X128679054Y-73500501D01*
X128679057Y-73500501D01*
X128831785Y-73459577D01*
X128894211Y-73423535D01*
X128968716Y-73380520D01*
X129080520Y-73268716D01*
X129080520Y-73268714D01*
X129090724Y-73258511D01*
X129090728Y-73258506D01*
X129658506Y-72690728D01*
X129658511Y-72690724D01*
X129668714Y-72680520D01*
X129668716Y-72680520D01*
X129780520Y-72568716D01*
X129859577Y-72431784D01*
X129891955Y-72310948D01*
X129900500Y-72279058D01*
X129900500Y-72120943D01*
X129900500Y-71479765D01*
X129920185Y-71412726D01*
X129921398Y-71410874D01*
X130009390Y-71279185D01*
X130009390Y-71279184D01*
X130009394Y-71279179D01*
X130069737Y-71133497D01*
X130100500Y-70978842D01*
X130100500Y-70821158D01*
X130100500Y-70821155D01*
X130100499Y-70821153D01*
X130086094Y-70748736D01*
X130069737Y-70666503D01*
X130069735Y-70666498D01*
X130009397Y-70520827D01*
X130009390Y-70520814D01*
X129921789Y-70389711D01*
X129921786Y-70389707D01*
X129810292Y-70278213D01*
X129810288Y-70278210D01*
X129679185Y-70190609D01*
X129679172Y-70190602D01*
X129533501Y-70130264D01*
X129533489Y-70130261D01*
X129378845Y-70099500D01*
X129378842Y-70099500D01*
X129221158Y-70099500D01*
X129221155Y-70099500D01*
X129066510Y-70130261D01*
X129066498Y-70130264D01*
X128920827Y-70190602D01*
X128920814Y-70190609D01*
X128789711Y-70278210D01*
X128789707Y-70278213D01*
X128678213Y-70389707D01*
X128678210Y-70389711D01*
X128590609Y-70520814D01*
X128590602Y-70520827D01*
X128530264Y-70666498D01*
X128530261Y-70666508D01*
X128503489Y-70801099D01*
X128471104Y-70863010D01*
X128410388Y-70897584D01*
X128340618Y-70893843D01*
X128312981Y-70880009D01*
X128179185Y-70790609D01*
X128179172Y-70790602D01*
X128033501Y-70730264D01*
X128033489Y-70730261D01*
X127878845Y-70699500D01*
X127878842Y-70699500D01*
X127721158Y-70699500D01*
X127721155Y-70699500D01*
X127566510Y-70730261D01*
X127566498Y-70730264D01*
X127420827Y-70790602D01*
X127420814Y-70790609D01*
X127289125Y-70878602D01*
X127222447Y-70899480D01*
X127220234Y-70899500D01*
X126579057Y-70899500D01*
X126420942Y-70899500D01*
X126268215Y-70940423D01*
X126268214Y-70940423D01*
X126268212Y-70940424D01*
X126268209Y-70940425D01*
X126218096Y-70969359D01*
X126218095Y-70969360D01*
X126201665Y-70978846D01*
X126131285Y-71019479D01*
X126131282Y-71019481D01*
X121518481Y-75632282D01*
X121518479Y-75632285D01*
X121468361Y-75719094D01*
X121468359Y-75719096D01*
X121439425Y-75769209D01*
X121439424Y-75769210D01*
X121439423Y-75769215D01*
X121398499Y-75921943D01*
X121398499Y-75921945D01*
X121398499Y-76090046D01*
X121398500Y-76090059D01*
X121398500Y-85575575D01*
X121378815Y-85642614D01*
X121326011Y-85688369D01*
X121321966Y-85690131D01*
X121320827Y-85690602D01*
X121320814Y-85690609D01*
X121189711Y-85778210D01*
X121189707Y-85778213D01*
X121078213Y-85889707D01*
X121078210Y-85889711D01*
X120990609Y-86020814D01*
X120990602Y-86020827D01*
X120930264Y-86166498D01*
X120930261Y-86166510D01*
X120899500Y-86321153D01*
X115000000Y-86321153D01*
X115000000Y-82602135D01*
X115349500Y-82602135D01*
X115349500Y-84397870D01*
X115349501Y-84397876D01*
X115355908Y-84457483D01*
X115406202Y-84592328D01*
X115406206Y-84592335D01*
X115492452Y-84707544D01*
X115492455Y-84707547D01*
X115607664Y-84793793D01*
X115607671Y-84793797D01*
X115742517Y-84844091D01*
X115742516Y-84844091D01*
X115749444Y-84844835D01*
X115802127Y-84850500D01*
X117597872Y-84850499D01*
X117657483Y-84844091D01*
X117792331Y-84793796D01*
X117907546Y-84707546D01*
X117993796Y-84592331D01*
X118044091Y-84457483D01*
X118050500Y-84397873D01*
X118050499Y-82602128D01*
X118044091Y-82542517D01*
X117993796Y-82407669D01*
X117993795Y-82407668D01*
X117993793Y-82407664D01*
X117907547Y-82292455D01*
X117907544Y-82292452D01*
X117792335Y-82206206D01*
X117792328Y-82206202D01*
X117657482Y-82155908D01*
X117657483Y-82155908D01*
X117597883Y-82149501D01*
X117597881Y-82149500D01*
X117597873Y-82149500D01*
X117597864Y-82149500D01*
X115802129Y-82149500D01*
X115802123Y-82149501D01*
X115742516Y-82155908D01*
X115607671Y-82206202D01*
X115607664Y-82206206D01*
X115492455Y-82292452D01*
X115492452Y-82292455D01*
X115406206Y-82407664D01*
X115406202Y-82407671D01*
X115355908Y-82542517D01*
X115350665Y-82591287D01*
X115349501Y-82602123D01*
X115349500Y-82602135D01*
X115000000Y-82602135D01*
X115000000Y-71988389D01*
X116374500Y-71988389D01*
X116374500Y-72111610D01*
X116398535Y-72232444D01*
X116398538Y-72232454D01*
X116445687Y-72346283D01*
X116445692Y-72346292D01*
X116514141Y-72448732D01*
X116514144Y-72448736D01*
X116601263Y-72535855D01*
X116601267Y-72535858D01*
X116703707Y-72604307D01*
X116703713Y-72604310D01*
X116703714Y-72604311D01*
X116817548Y-72651463D01*
X116938389Y-72675499D01*
X116938393Y-72675500D01*
X116938394Y-72675500D01*
X117061607Y-72675500D01*
X117061608Y-72675499D01*
X117182452Y-72651463D01*
X117296286Y-72604311D01*
X117398733Y-72535858D01*
X117485858Y-72448733D01*
X117554311Y-72346286D01*
X117601463Y-72232452D01*
X117625500Y-72111606D01*
X117625500Y-71988394D01*
X117601463Y-71867548D01*
X117554311Y-71753714D01*
X117554310Y-71753713D01*
X117554307Y-71753707D01*
X117485858Y-71651267D01*
X117485855Y-71651263D01*
X117398736Y-71564144D01*
X117398732Y-71564141D01*
X117296292Y-71495692D01*
X117296283Y-71495687D01*
X117182454Y-71448538D01*
X117182455Y-71448538D01*
X117182452Y-71448537D01*
X117182448Y-71448536D01*
X117182444Y-71448535D01*
X117061610Y-71424500D01*
X117061606Y-71424500D01*
X116938394Y-71424500D01*
X116938389Y-71424500D01*
X116817555Y-71448535D01*
X116817545Y-71448538D01*
X116703716Y-71495687D01*
X116703707Y-71495692D01*
X116601267Y-71564141D01*
X116601263Y-71564144D01*
X116514144Y-71651263D01*
X116514141Y-71651267D01*
X116445692Y-71753707D01*
X116445687Y-71753716D01*
X116398538Y-71867545D01*
X116398535Y-71867555D01*
X116374500Y-71988389D01*
X115000000Y-71988389D01*
X115000000Y-70288389D01*
X116374500Y-70288389D01*
X116374500Y-70411610D01*
X116398535Y-70532444D01*
X116398538Y-70532454D01*
X116445687Y-70646283D01*
X116445692Y-70646292D01*
X116514141Y-70748732D01*
X116514144Y-70748736D01*
X116601263Y-70835855D01*
X116601267Y-70835858D01*
X116703707Y-70904307D01*
X116703713Y-70904310D01*
X116703714Y-70904311D01*
X116817548Y-70951463D01*
X116938389Y-70975499D01*
X116938393Y-70975500D01*
X116938394Y-70975500D01*
X117061607Y-70975500D01*
X117061608Y-70975499D01*
X117182452Y-70951463D01*
X117296286Y-70904311D01*
X117398733Y-70835858D01*
X117485858Y-70748733D01*
X117554311Y-70646286D01*
X117601463Y-70532452D01*
X117625500Y-70411606D01*
X117625500Y-70288394D01*
X117601463Y-70167548D01*
X117554311Y-70053714D01*
X117554310Y-70053713D01*
X117554307Y-70053707D01*
X117485858Y-69951267D01*
X117485855Y-69951263D01*
X117398736Y-69864144D01*
X117398732Y-69864141D01*
X117296292Y-69795692D01*
X117296283Y-69795687D01*
X117182454Y-69748538D01*
X117182455Y-69748538D01*
X117182452Y-69748537D01*
X117182448Y-69748536D01*
X117182444Y-69748535D01*
X117061610Y-69724500D01*
X117061606Y-69724500D01*
X116938394Y-69724500D01*
X116938389Y-69724500D01*
X116817555Y-69748535D01*
X116817545Y-69748538D01*
X116703716Y-69795687D01*
X116703707Y-69795692D01*
X116601267Y-69864141D01*
X116601263Y-69864144D01*
X116514144Y-69951263D01*
X116514141Y-69951267D01*
X116445692Y-70053707D01*
X116445687Y-70053716D01*
X116398538Y-70167545D01*
X116398535Y-70167555D01*
X116374500Y-70288389D01*
X115000000Y-70288389D01*
X115000000Y-65763389D01*
X116374500Y-65763389D01*
X116374500Y-65886610D01*
X116398535Y-66007444D01*
X116398538Y-66007454D01*
X116445687Y-66121283D01*
X116445692Y-66121292D01*
X116514141Y-66223732D01*
X116514144Y-66223736D01*
X116601263Y-66310855D01*
X116601267Y-66310858D01*
X116703707Y-66379307D01*
X116703713Y-66379310D01*
X116703714Y-66379311D01*
X116817548Y-66426463D01*
X116938389Y-66450499D01*
X116938393Y-66450500D01*
X116938394Y-66450500D01*
X117061607Y-66450500D01*
X117061608Y-66450499D01*
X117182452Y-66426463D01*
X117296286Y-66379311D01*
X117398733Y-66310858D01*
X117485858Y-66223733D01*
X117554311Y-66121286D01*
X117601463Y-66007452D01*
X117625500Y-65886606D01*
X117625500Y-65763394D01*
X117601463Y-65642548D01*
X117554311Y-65528714D01*
X117554310Y-65528713D01*
X117554307Y-65528707D01*
X117485858Y-65426267D01*
X117485855Y-65426263D01*
X117398736Y-65339144D01*
X117398732Y-65339141D01*
X117296292Y-65270692D01*
X117296283Y-65270687D01*
X117182454Y-65223538D01*
X117182455Y-65223538D01*
X117182452Y-65223537D01*
X117182448Y-65223536D01*
X117182444Y-65223535D01*
X117061610Y-65199500D01*
X117061606Y-65199500D01*
X116938394Y-65199500D01*
X116938389Y-65199500D01*
X116817555Y-65223535D01*
X116817545Y-65223538D01*
X116703716Y-65270687D01*
X116703707Y-65270692D01*
X116601267Y-65339141D01*
X116601263Y-65339144D01*
X116514144Y-65426263D01*
X116514141Y-65426267D01*
X116445692Y-65528707D01*
X116445687Y-65528716D01*
X116398538Y-65642545D01*
X116398535Y-65642555D01*
X116374500Y-65763389D01*
X115000000Y-65763389D01*
X115000000Y-64063389D01*
X116374500Y-64063389D01*
X116374500Y-64186610D01*
X116398535Y-64307444D01*
X116398538Y-64307454D01*
X116445687Y-64421283D01*
X116445692Y-64421292D01*
X116514141Y-64523732D01*
X116514144Y-64523736D01*
X116601263Y-64610855D01*
X116601267Y-64610858D01*
X116703707Y-64679307D01*
X116703713Y-64679310D01*
X116703714Y-64679311D01*
X116817548Y-64726463D01*
X116938389Y-64750499D01*
X116938393Y-64750500D01*
X116938394Y-64750500D01*
X117061607Y-64750500D01*
X117061608Y-64750499D01*
X117182452Y-64726463D01*
X117296286Y-64679311D01*
X117398733Y-64610858D01*
X117485858Y-64523733D01*
X117554311Y-64421286D01*
X117601463Y-64307452D01*
X117625500Y-64186606D01*
X117625500Y-64063394D01*
X117601463Y-63942548D01*
X117554311Y-63828714D01*
X117554310Y-63828713D01*
X117554307Y-63828707D01*
X117485858Y-63726267D01*
X117485855Y-63726263D01*
X117398736Y-63639144D01*
X117398732Y-63639141D01*
X117296292Y-63570692D01*
X117296283Y-63570687D01*
X117182454Y-63523538D01*
X117182455Y-63523538D01*
X117182452Y-63523537D01*
X117182448Y-63523536D01*
X117182444Y-63523535D01*
X117061610Y-63499500D01*
X117061606Y-63499500D01*
X116938394Y-63499500D01*
X116938389Y-63499500D01*
X116817555Y-63523535D01*
X116817545Y-63523538D01*
X116703716Y-63570687D01*
X116703707Y-63570692D01*
X116601267Y-63639141D01*
X116601263Y-63639144D01*
X116514144Y-63726263D01*
X116514141Y-63726267D01*
X116445692Y-63828707D01*
X116445687Y-63828716D01*
X116398538Y-63942545D01*
X116398535Y-63942555D01*
X116374500Y-64063389D01*
X115000000Y-64063389D01*
X115000000Y-59538389D01*
X116374500Y-59538389D01*
X116374500Y-59661607D01*
X116398535Y-59782444D01*
X116398538Y-59782454D01*
X116445687Y-59896283D01*
X116445692Y-59896292D01*
X116514141Y-59998732D01*
X116514144Y-59998736D01*
X116601263Y-60085855D01*
X116601267Y-60085858D01*
X116703707Y-60154307D01*
X116703716Y-60154312D01*
X116724739Y-60163020D01*
X116817548Y-60201463D01*
X116905434Y-60218944D01*
X116938389Y-60225499D01*
X116938393Y-60225500D01*
X116938394Y-60225500D01*
X117061607Y-60225500D01*
X117061608Y-60225499D01*
X117182452Y-60201463D01*
X117296286Y-60154311D01*
X117398733Y-60085858D01*
X117485858Y-59998733D01*
X117554311Y-59896286D01*
X117601463Y-59782452D01*
X117625500Y-59661606D01*
X117625500Y-59538394D01*
X117601463Y-59417548D01*
X117554311Y-59303714D01*
X117554310Y-59303713D01*
X117554307Y-59303707D01*
X117485858Y-59201267D01*
X117485855Y-59201263D01*
X117398736Y-59114144D01*
X117398732Y-59114141D01*
X117296292Y-59045692D01*
X117296283Y-59045687D01*
X117182454Y-58998538D01*
X117182455Y-58998538D01*
X117182452Y-58998537D01*
X117182448Y-58998536D01*
X117182444Y-58998535D01*
X117061610Y-58974500D01*
X117061606Y-58974500D01*
X116938394Y-58974500D01*
X116938389Y-58974500D01*
X116817555Y-58998535D01*
X116817545Y-58998538D01*
X116703716Y-59045687D01*
X116703707Y-59045692D01*
X116601267Y-59114141D01*
X116601263Y-59114144D01*
X116514144Y-59201263D01*
X116514141Y-59201267D01*
X116445692Y-59303707D01*
X116445687Y-59303716D01*
X116398538Y-59417545D01*
X116398535Y-59417555D01*
X116374500Y-59538389D01*
X115000000Y-59538389D01*
X115000000Y-57838389D01*
X116374500Y-57838389D01*
X116374500Y-57961610D01*
X116398535Y-58082444D01*
X116398538Y-58082454D01*
X116445687Y-58196283D01*
X116445692Y-58196292D01*
X116514141Y-58298732D01*
X116514144Y-58298736D01*
X116601263Y-58385855D01*
X116601267Y-58385858D01*
X116703707Y-58454307D01*
X116703713Y-58454310D01*
X116703714Y-58454311D01*
X116817548Y-58501463D01*
X116938389Y-58525499D01*
X116938393Y-58525500D01*
X116938394Y-58525500D01*
X117061607Y-58525500D01*
X117061608Y-58525499D01*
X117182452Y-58501463D01*
X117296286Y-58454311D01*
X117398733Y-58385858D01*
X117485858Y-58298733D01*
X117554311Y-58196286D01*
X117601463Y-58082452D01*
X117625500Y-57961606D01*
X117625500Y-57838394D01*
X117601463Y-57717548D01*
X117563020Y-57624739D01*
X117554312Y-57603716D01*
X117554307Y-57603707D01*
X117485858Y-57501267D01*
X117485855Y-57501263D01*
X117398736Y-57414144D01*
X117398732Y-57414141D01*
X117296292Y-57345692D01*
X117296283Y-57345687D01*
X117182454Y-57298538D01*
X117182455Y-57298538D01*
X117182452Y-57298537D01*
X117182448Y-57298536D01*
X117182444Y-57298535D01*
X117061610Y-57274500D01*
X117061606Y-57274500D01*
X116938394Y-57274500D01*
X116938389Y-57274500D01*
X116817555Y-57298535D01*
X116817545Y-57298538D01*
X116703716Y-57345687D01*
X116703707Y-57345692D01*
X116601267Y-57414141D01*
X116601263Y-57414144D01*
X116514144Y-57501263D01*
X116514141Y-57501267D01*
X116445692Y-57603707D01*
X116445687Y-57603716D01*
X116398538Y-57717545D01*
X116398535Y-57717555D01*
X116374500Y-57838389D01*
X115000000Y-57838389D01*
X115000000Y-56124000D01*
X115019685Y-56056961D01*
X115072489Y-56011206D01*
X115124000Y-56000000D01*
X120175783Y-56000000D01*
X120242822Y-56019685D01*
G37*
%TD.AperFunction*%
%TD*%
M02*
