%TF.GenerationSoftware,KiCad,Pcbnew,9.0.4*%
%TF.CreationDate,2025-09-28T00:45:50+02:00*%
%TF.ProjectId,BTM308-host,42544d33-3038-42d6-986f-73742e6b6963,rev?*%
%TF.SameCoordinates,Original*%
%TF.FileFunction,Copper,L3,Inr*%
%TF.FilePolarity,Positive*%
%FSLAX46Y46*%
G04 Gerber Fmt 4.6, Leading zero omitted, Abs format (unit mm)*
G04 Created by KiCad (PCBNEW 9.0.4) date 2025-09-28 00:45:50*
%MOMM*%
%LPD*%
G01*
G04 APERTURE LIST*
%TA.AperFunction,ComponentPad*%
%ADD10R,1.700000X1.700000*%
%TD*%
%TA.AperFunction,ComponentPad*%
%ADD11R,1.337000X1.337000*%
%TD*%
%TA.AperFunction,ComponentPad*%
%ADD12C,1.337000*%
%TD*%
%TA.AperFunction,ComponentPad*%
%ADD13C,2.190000*%
%TD*%
%TA.AperFunction,ComponentPad*%
%ADD14C,1.700000*%
%TD*%
%TA.AperFunction,ComponentPad*%
%ADD15C,1.600000*%
%TD*%
%TA.AperFunction,HeatsinkPad*%
%ADD16O,1.000000X2.100000*%
%TD*%
%TA.AperFunction,HeatsinkPad*%
%ADD17O,1.000000X1.600000*%
%TD*%
%TA.AperFunction,ViaPad*%
%ADD18C,0.600000*%
%TD*%
G04 APERTURE END LIST*
D10*
%TO.N,Net-(J6-Pin_1)*%
%TO.C,J6*%
X116700000Y-83500000D03*
%TD*%
%TO.N,GND*%
%TO.C,J7*%
X116700000Y-79300000D03*
%TD*%
D11*
%TO.N,/MFB*%
%TO.C,SW4*%
X129250000Y-93000000D03*
D12*
%TO.N,/VBAT*%
X131250000Y-93000000D03*
%TO.N,N/C*%
X133250000Y-93000000D03*
D13*
X127150000Y-93000000D03*
X135350000Y-93000000D03*
%TD*%
D14*
%TO.N,/SPK_BN*%
%TO.C,J5*%
X135830000Y-82485000D03*
%TO.N,/VBAT*%
X135830000Y-85025000D03*
%TO.N,/SPK_BP*%
X133290000Y-82485000D03*
%TO.N,/VCHG*%
X133290000Y-85025000D03*
%TO.N,/SPK_AP*%
X130750000Y-82485000D03*
%TO.N,GND*%
X130750000Y-85025000D03*
%TO.N,/SPK_AN*%
X128210000Y-82485000D03*
%TO.N,AGND*%
X128210000Y-85025000D03*
X125670000Y-82485000D03*
D10*
X125670000Y-85025000D03*
%TD*%
%TO.N,AGND*%
%TO.C,J1*%
X155420000Y-85127500D03*
D14*
X155420000Y-82587500D03*
X157960000Y-85127500D03*
%TO.N,/SPK_AN*%
X157960000Y-82587500D03*
%TO.N,GND*%
X160500000Y-85127500D03*
%TO.N,/SPK_AP*%
X160500000Y-82587500D03*
%TO.N,/VCHG*%
X163040000Y-85127500D03*
%TO.N,/SPK_BP*%
X163040000Y-82587500D03*
%TO.N,/VBAT*%
X165580000Y-85127500D03*
%TO.N,/SPK_BN*%
X165580000Y-82587500D03*
%TD*%
D10*
%TO.N,GND*%
%TO.C,J4*%
X165400000Y-93800000D03*
%TD*%
%TO.N,/VBAT*%
%TO.C,J3*%
X165400000Y-88900000D03*
%TD*%
D15*
%TO.N,GND*%
%TO.C,U3*%
X155050000Y-57300000D03*
%TO.N,Net-(U3-Tip)*%
X156050000Y-61700000D03*
%TO.N,Net-(U3-Ring1)*%
X160050000Y-61700000D03*
%TO.N,unconnected-(U3-Ring2-Pad4)*%
X163050000Y-61700000D03*
%TD*%
D16*
%TO.N,GND*%
%TO.C,J2*%
X145680000Y-90267500D03*
D17*
X145680000Y-94447500D03*
D16*
X154320000Y-90267500D03*
D17*
X154320000Y-94447500D03*
%TD*%
D18*
%TO.N,GND*%
X163800000Y-78400000D03*
X164600000Y-63400000D03*
X165200000Y-61100000D03*
X162400000Y-59100000D03*
X159300000Y-59200000D03*
X153300000Y-59500000D03*
X145600000Y-57800000D03*
X128700000Y-57400000D03*
X126700000Y-56700000D03*
X130800000Y-68900000D03*
X128500000Y-65800000D03*
X131400000Y-63500000D03*
X120700000Y-74900000D03*
X120600000Y-81300000D03*
X117500000Y-94100000D03*
X130400000Y-74300000D03*
X127700000Y-88000000D03*
X131300000Y-88000000D03*
X115800000Y-86600000D03*
X117700000Y-75600000D03*
X120600000Y-79300000D03*
X120700000Y-83500000D03*
X117700000Y-86800000D03*
X134900000Y-88000000D03*
X133400000Y-94900000D03*
X115800000Y-90100000D03*
X115900000Y-94000000D03*
%TO.N,/MFB*%
X129300000Y-70900000D03*
%TO.N,Net-(U1-PIO8)*%
X120750000Y-62500000D03*
X125000000Y-58000000D03*
%TO.N,Net-(U1-PIO1)*%
X126100000Y-59000000D03*
X120750000Y-68750000D03*
%TO.N,Net-(U1-PIO0)*%
X124750000Y-60731671D03*
X121000000Y-56550000D03*
%TO.N,GND*%
X129200000Y-75600000D03*
X134500000Y-67200000D03*
X134600000Y-63800000D03*
%TO.N,/SPK_AP*%
X132400000Y-58325000D03*
%TO.N,GND*%
X128400000Y-63300000D03*
%TO.N,/SPK_AN*%
X132400000Y-59175000D03*
%TO.N,GND*%
X128500000Y-68300000D03*
X131000000Y-61100000D03*
X130600000Y-65700000D03*
%TO.N,/VBAT*%
X134700000Y-73000000D03*
X118600000Y-90800000D03*
%TO.N,/LED0*%
X122600000Y-86400000D03*
%TO.N,/LED2*%
X121700000Y-86400000D03*
%TO.N,GND*%
X124000000Y-79200000D03*
%TO.N,/VBAT*%
X124900000Y-94500000D03*
X119400000Y-94400000D03*
%TO.N,GND*%
X134800000Y-75800000D03*
%TO.N,AGND*%
X126400000Y-75400000D03*
X126400000Y-76100000D03*
X126400000Y-74700000D03*
X126400000Y-74000000D03*
%TO.N,GND*%
X119900000Y-61300000D03*
%TO.N,/SPK_BN*%
X134506472Y-61775000D03*
%TO.N,GND*%
X118300000Y-58800000D03*
X115600000Y-65300000D03*
%TO.N,/SPK_BP*%
X134506472Y-60925000D03*
%TO.N,GND*%
X116000000Y-58900000D03*
X134800000Y-75200000D03*
%TO.N,/VBAT*%
X134800000Y-73900000D03*
%TO.N,GND*%
X119700000Y-67700000D03*
%TO.N,/LED2*%
X127800000Y-71500000D03*
%TO.N,/LED0*%
X127900000Y-72293726D03*
%TO.N,GND*%
X118400000Y-65000000D03*
X132400000Y-80300000D03*
X129600000Y-94900000D03*
X115800000Y-71800000D03*
X118500000Y-71300000D03*
X128700000Y-89900000D03*
X132300000Y-89900000D03*
X135900000Y-89900000D03*
X162800000Y-88500000D03*
X163700000Y-87300000D03*
X161500000Y-87400000D03*
X166000000Y-91700000D03*
X163400000Y-93800000D03*
X163300000Y-95000000D03*
X160200000Y-95000000D03*
X155900000Y-89700000D03*
X156200000Y-95000000D03*
X154500000Y-92500000D03*
X150300000Y-91200000D03*
X150100000Y-93100000D03*
X152800000Y-95000000D03*
X150500000Y-95000000D03*
X147900000Y-95000000D03*
X145500000Y-92400000D03*
X145500000Y-81100000D03*
X145500000Y-76300000D03*
X145400000Y-73700000D03*
X145300000Y-68400000D03*
X145300000Y-62400000D03*
X148700000Y-59600000D03*
X147500000Y-57600000D03*
X152700000Y-57500000D03*
X157400000Y-57300000D03*
X166700000Y-57500000D03*
X162300000Y-57400000D03*
X166600000Y-59500000D03*
X166400000Y-64500000D03*
X166200000Y-69100000D03*
X166100000Y-75000000D03*
X166100000Y-62300000D03*
X164700000Y-57500000D03*
X159800000Y-57500000D03*
X150300000Y-58000000D03*
X146500000Y-60000000D03*
X145400000Y-65200000D03*
X145500000Y-71000000D03*
X145500000Y-78600000D03*
X161200000Y-94100000D03*
X152400000Y-93000000D03*
X148000000Y-92700000D03*
X154500000Y-79400000D03*
X159500000Y-63400000D03*
X157400000Y-63400000D03*
X152700000Y-62600000D03*
X151600000Y-61800000D03*
X166100000Y-72000000D03*
X164500000Y-79700000D03*
X160000000Y-80300000D03*
X158900000Y-79200000D03*
X159000000Y-91800000D03*
X160800000Y-91600000D03*
%TO.N,/VBAT*%
X163600000Y-91100000D03*
%TO.N,/VCHG*%
X156900000Y-91800000D03*
X151800000Y-90800000D03*
X148400000Y-90700000D03*
%TO.N,GND*%
X146900000Y-85800000D03*
X145500000Y-83500000D03*
X148000000Y-81500000D03*
%TO.N,AGND*%
X152500000Y-82500000D03*
X150750000Y-80500000D03*
X150750000Y-78250000D03*
X150750000Y-75750000D03*
X148500000Y-64750000D03*
X150750000Y-64750000D03*
X150750000Y-67000000D03*
X150750000Y-69250000D03*
X150750000Y-71500000D03*
X155750000Y-69750000D03*
%TD*%
%TA.AperFunction,Conductor*%
%TO.N,/VBAT*%
G36*
X164989999Y-83816458D02*
G01*
X165043706Y-83829945D01*
X165061588Y-83839057D01*
X165263757Y-83904746D01*
X165473713Y-83938000D01*
X165473714Y-83938000D01*
X165686286Y-83938000D01*
X165686287Y-83938000D01*
X165896243Y-83904746D01*
X166077053Y-83845996D01*
X166117939Y-83839957D01*
X166839003Y-83854979D01*
X166905618Y-83876056D01*
X166950263Y-83929801D01*
X166960419Y-83978522D01*
X166986016Y-91364829D01*
X166966564Y-91431937D01*
X166913919Y-91477874D01*
X166844795Y-91488057D01*
X166781140Y-91459253D01*
X166747456Y-91412711D01*
X166709397Y-91320827D01*
X166709390Y-91320814D01*
X166621789Y-91189711D01*
X166621786Y-91189707D01*
X166510292Y-91078213D01*
X166510288Y-91078210D01*
X166379185Y-90990609D01*
X166379172Y-90990602D01*
X166233501Y-90930264D01*
X166233489Y-90930261D01*
X166078845Y-90899500D01*
X166078842Y-90899500D01*
X165921158Y-90899500D01*
X165921155Y-90899500D01*
X165766510Y-90930261D01*
X165766498Y-90930264D01*
X165620827Y-90990602D01*
X165620814Y-90990609D01*
X165489711Y-91078210D01*
X165489707Y-91078213D01*
X165378213Y-91189707D01*
X165378210Y-91189711D01*
X165290609Y-91320814D01*
X165290602Y-91320827D01*
X165230264Y-91466498D01*
X165230261Y-91466510D01*
X165199500Y-91621153D01*
X165199500Y-91778846D01*
X165230261Y-91933489D01*
X165230264Y-91933501D01*
X165290602Y-92079172D01*
X165290609Y-92079185D01*
X165378210Y-92210288D01*
X165378213Y-92210292D01*
X165405740Y-92237819D01*
X165439225Y-92299142D01*
X165434241Y-92368834D01*
X165392369Y-92424767D01*
X165326905Y-92449184D01*
X165318059Y-92449500D01*
X164502129Y-92449500D01*
X164502123Y-92449501D01*
X164442516Y-92455908D01*
X164307671Y-92506202D01*
X164307664Y-92506206D01*
X164192455Y-92592452D01*
X164192452Y-92592455D01*
X164106206Y-92707664D01*
X164106202Y-92707671D01*
X164055908Y-92842517D01*
X164049501Y-92902116D01*
X164049500Y-92902135D01*
X164049500Y-93039240D01*
X164029815Y-93106279D01*
X163977011Y-93152034D01*
X163907853Y-93161978D01*
X163856610Y-93142342D01*
X163779190Y-93090612D01*
X163779172Y-93090602D01*
X163633501Y-93030264D01*
X163633489Y-93030261D01*
X163478845Y-92999500D01*
X163478842Y-92999500D01*
X163321158Y-92999500D01*
X163321155Y-92999500D01*
X163166510Y-93030261D01*
X163166498Y-93030264D01*
X163020827Y-93090602D01*
X163020814Y-93090609D01*
X162889711Y-93178210D01*
X162889707Y-93178213D01*
X162778213Y-93289707D01*
X162778210Y-93289711D01*
X162690609Y-93420814D01*
X162690602Y-93420827D01*
X162630264Y-93566498D01*
X162630261Y-93566510D01*
X162599500Y-93721153D01*
X162599500Y-93878846D01*
X162630261Y-94033489D01*
X162630264Y-94033501D01*
X162690602Y-94179172D01*
X162690609Y-94179185D01*
X162753485Y-94273285D01*
X162774363Y-94339963D01*
X162755878Y-94407343D01*
X162738064Y-94429857D01*
X162678213Y-94489707D01*
X162678210Y-94489711D01*
X162590609Y-94620814D01*
X162590602Y-94620827D01*
X162530264Y-94766498D01*
X162530261Y-94766510D01*
X162499500Y-94921153D01*
X162499500Y-95078846D01*
X162530261Y-95233489D01*
X162530264Y-95233501D01*
X162581834Y-95358004D01*
X162589303Y-95427474D01*
X162558027Y-95489953D01*
X162497938Y-95525604D01*
X162470814Y-95529405D01*
X161016752Y-95570949D01*
X160949178Y-95553187D01*
X160901934Y-95501712D01*
X160890019Y-95432865D01*
X160907545Y-95385101D01*
X160906521Y-95384554D01*
X160909390Y-95379184D01*
X160909394Y-95379179D01*
X160969737Y-95233497D01*
X161000500Y-95078842D01*
X161000500Y-95024500D01*
X161020185Y-94957461D01*
X161072989Y-94911706D01*
X161124500Y-94900500D01*
X161278844Y-94900500D01*
X161278845Y-94900499D01*
X161433497Y-94869737D01*
X161579179Y-94809394D01*
X161710289Y-94721789D01*
X161821789Y-94610289D01*
X161909394Y-94479179D01*
X161969737Y-94333497D01*
X162000500Y-94178842D01*
X162000500Y-94021158D01*
X162000500Y-94021155D01*
X162000499Y-94021153D01*
X161969738Y-93866510D01*
X161969737Y-93866503D01*
X161909532Y-93721153D01*
X161909397Y-93720827D01*
X161909390Y-93720814D01*
X161821789Y-93589711D01*
X161821786Y-93589707D01*
X161710292Y-93478213D01*
X161710288Y-93478210D01*
X161579185Y-93390609D01*
X161579172Y-93390602D01*
X161433501Y-93330264D01*
X161433489Y-93330261D01*
X161278845Y-93299500D01*
X161278842Y-93299500D01*
X161121158Y-93299500D01*
X161121155Y-93299500D01*
X160966510Y-93330261D01*
X160966498Y-93330264D01*
X160820827Y-93390602D01*
X160820814Y-93390609D01*
X160689711Y-93478210D01*
X160689707Y-93478213D01*
X160578213Y-93589707D01*
X160578210Y-93589711D01*
X160490609Y-93720814D01*
X160490602Y-93720827D01*
X160430264Y-93866498D01*
X160430261Y-93866510D01*
X160399500Y-94021153D01*
X160399500Y-94075500D01*
X160379815Y-94142539D01*
X160327011Y-94188294D01*
X160275500Y-94199500D01*
X160218050Y-94199500D01*
X160151011Y-94179815D01*
X160105256Y-94127011D01*
X160094284Y-94067884D01*
X160125138Y-93566510D01*
X160197868Y-92384635D01*
X160221633Y-92318933D01*
X160277148Y-92276508D01*
X160346787Y-92270831D01*
X160390523Y-92289150D01*
X160420821Y-92309394D01*
X160420823Y-92309395D01*
X160420827Y-92309397D01*
X160564323Y-92368834D01*
X160566503Y-92369737D01*
X160690582Y-92394418D01*
X160721153Y-92400499D01*
X160721156Y-92400500D01*
X160721158Y-92400500D01*
X160878844Y-92400500D01*
X160878845Y-92400499D01*
X161033497Y-92369737D01*
X161179179Y-92309394D01*
X161310289Y-92221789D01*
X161421789Y-92110289D01*
X161509394Y-91979179D01*
X161569737Y-91833497D01*
X161600500Y-91678842D01*
X161600500Y-91521158D01*
X161600500Y-91521155D01*
X161600499Y-91521153D01*
X161588186Y-91459253D01*
X161569737Y-91366503D01*
X161550812Y-91320814D01*
X161509397Y-91220827D01*
X161509390Y-91220814D01*
X161421789Y-91089711D01*
X161421786Y-91089707D01*
X161310292Y-90978213D01*
X161310288Y-90978210D01*
X161179185Y-90890609D01*
X161179172Y-90890602D01*
X161033501Y-90830264D01*
X161033489Y-90830261D01*
X160878845Y-90799500D01*
X160878842Y-90799500D01*
X160721158Y-90799500D01*
X160721155Y-90799500D01*
X160566510Y-90830261D01*
X160566503Y-90830263D01*
X160469792Y-90870321D01*
X160400323Y-90877789D01*
X160337844Y-90846513D01*
X160302192Y-90786424D01*
X160298575Y-90748148D01*
X160395972Y-89165450D01*
X160419737Y-89099747D01*
X160456362Y-89066486D01*
X161821607Y-88254719D01*
X161889286Y-88237378D01*
X161955601Y-88259381D01*
X161999493Y-88313743D01*
X162007026Y-88383205D01*
X162006594Y-88385493D01*
X161999500Y-88421158D01*
X161999500Y-88578846D01*
X162030261Y-88733489D01*
X162030264Y-88733501D01*
X162090602Y-88879172D01*
X162090609Y-88879185D01*
X162178210Y-89010288D01*
X162178213Y-89010292D01*
X162289707Y-89121786D01*
X162289711Y-89121789D01*
X162420814Y-89209390D01*
X162420827Y-89209397D01*
X162566498Y-89269735D01*
X162566503Y-89269737D01*
X162721153Y-89300499D01*
X162721156Y-89300500D01*
X162721158Y-89300500D01*
X162878844Y-89300500D01*
X162878845Y-89300499D01*
X163033497Y-89269737D01*
X163179179Y-89209394D01*
X163310289Y-89121789D01*
X163421789Y-89010289D01*
X163509394Y-88879179D01*
X163569737Y-88733497D01*
X163600500Y-88578842D01*
X163600500Y-88421158D01*
X163600500Y-88421155D01*
X163600499Y-88421153D01*
X163592951Y-88383205D01*
X163569737Y-88266503D01*
X163569732Y-88266492D01*
X163567969Y-88260676D01*
X163570720Y-88259841D01*
X163564497Y-88202641D01*
X163595691Y-88140122D01*
X163655734Y-88104392D01*
X163686555Y-88100500D01*
X163778844Y-88100500D01*
X163778845Y-88100499D01*
X163933497Y-88069737D01*
X164079179Y-88009394D01*
X164210289Y-87921789D01*
X164321789Y-87810289D01*
X164409394Y-87679179D01*
X164469737Y-87533497D01*
X164500500Y-87378842D01*
X164500500Y-87221158D01*
X164500500Y-87221155D01*
X164500499Y-87221153D01*
X164469738Y-87066510D01*
X164469737Y-87066503D01*
X164450815Y-87020821D01*
X164409397Y-86920827D01*
X164409390Y-86920814D01*
X164321789Y-86789711D01*
X164321786Y-86789707D01*
X164210292Y-86678213D01*
X164210288Y-86678210D01*
X164166595Y-86649015D01*
X164121790Y-86595403D01*
X164111550Y-86541920D01*
X164130296Y-85960820D01*
X164152131Y-85894454D01*
X164153869Y-85891997D01*
X164195051Y-85835316D01*
X164291557Y-85645912D01*
X164357246Y-85443743D01*
X164390500Y-85233787D01*
X164390500Y-85021213D01*
X164357246Y-84811257D01*
X164291557Y-84609088D01*
X164195383Y-84420337D01*
X164181933Y-84360049D01*
X164196047Y-83922526D01*
X164217883Y-83856158D01*
X164272135Y-83812129D01*
X164322563Y-83802553D01*
X164989999Y-83816458D01*
G37*
%TD.AperFunction*%
%TD*%
%TA.AperFunction,Conductor*%
%TO.N,/VCHG*%
G36*
X163656128Y-83883525D02*
G01*
X163686956Y-83946226D01*
X163688708Y-83971369D01*
X163676696Y-84343757D01*
X163682966Y-84410524D01*
X163688562Y-84470118D01*
X163702012Y-84530406D01*
X163744980Y-84649830D01*
X163744982Y-84649835D01*
X163818659Y-84794435D01*
X163826105Y-84812410D01*
X163861179Y-84920354D01*
X163865721Y-84939274D01*
X163883473Y-85051352D01*
X163885000Y-85070751D01*
X163885000Y-85184247D01*
X163883473Y-85203645D01*
X163865721Y-85315724D01*
X163861179Y-85334645D01*
X163826106Y-85442586D01*
X163818660Y-85460562D01*
X163767136Y-85561683D01*
X163756975Y-85578266D01*
X163750495Y-85587185D01*
X163744914Y-85594868D01*
X163743082Y-85597422D01*
X163741118Y-85600162D01*
X163739443Y-85602531D01*
X163735912Y-85607586D01*
X163671951Y-85736471D01*
X163671950Y-85736473D01*
X163650168Y-85802678D01*
X163650115Y-85802837D01*
X163625059Y-85944517D01*
X163625059Y-85944522D01*
X163610239Y-86403892D01*
X163588402Y-86470262D01*
X163534151Y-86514291D01*
X163510497Y-86521511D01*
X163466505Y-86530262D01*
X163466498Y-86530264D01*
X163320827Y-86590602D01*
X163320814Y-86590609D01*
X163189711Y-86678210D01*
X163189707Y-86678213D01*
X163078213Y-86789707D01*
X163078210Y-86789711D01*
X162990609Y-86920814D01*
X162990602Y-86920827D01*
X162930264Y-87066498D01*
X162930261Y-87066510D01*
X162899500Y-87221153D01*
X162899500Y-87354471D01*
X162879815Y-87421510D01*
X162829864Y-87465918D01*
X162471234Y-87640859D01*
X162402351Y-87652559D01*
X162338078Y-87625161D01*
X162298820Y-87567362D01*
X162295253Y-87505219D01*
X162300500Y-87478842D01*
X162300500Y-87321155D01*
X162300499Y-87321153D01*
X162296291Y-87300000D01*
X162269737Y-87166503D01*
X162228314Y-87066498D01*
X162209397Y-87020827D01*
X162209390Y-87020814D01*
X162121789Y-86889711D01*
X162121786Y-86889707D01*
X162010292Y-86778213D01*
X162010288Y-86778210D01*
X161879185Y-86690609D01*
X161879172Y-86690602D01*
X161733501Y-86630264D01*
X161733489Y-86630261D01*
X161578845Y-86599500D01*
X161578842Y-86599500D01*
X161421158Y-86599500D01*
X161421155Y-86599500D01*
X161266510Y-86630261D01*
X161266498Y-86630264D01*
X161120827Y-86690602D01*
X161120814Y-86690609D01*
X160989711Y-86778210D01*
X160989707Y-86778213D01*
X160878213Y-86889707D01*
X160878210Y-86889711D01*
X160790609Y-87020814D01*
X160790602Y-87020827D01*
X160730264Y-87166498D01*
X160730261Y-87166510D01*
X160699500Y-87321153D01*
X160699500Y-87478846D01*
X160730261Y-87633489D01*
X160730264Y-87633501D01*
X160790602Y-87779172D01*
X160790609Y-87779185D01*
X160878210Y-87910288D01*
X160878213Y-87910292D01*
X160964407Y-87996486D01*
X160997892Y-88057809D01*
X160992908Y-88127501D01*
X160951036Y-88183434D01*
X160940099Y-88190749D01*
X160198023Y-88631984D01*
X160198015Y-88631989D01*
X160116518Y-88692272D01*
X160116515Y-88692274D01*
X160079887Y-88725538D01*
X160079886Y-88725539D01*
X160012073Y-88800847D01*
X159978225Y-88864328D01*
X159944377Y-88927808D01*
X159921665Y-88990602D01*
X159920548Y-88993689D01*
X159920225Y-88995380D01*
X159891425Y-89134402D01*
X159794028Y-90717108D01*
X159795316Y-90795694D01*
X159795316Y-90795699D01*
X159798933Y-90833970D01*
X159798935Y-90833991D01*
X159812391Y-90911428D01*
X159812395Y-90911440D01*
X159867450Y-91044357D01*
X159867456Y-91044368D01*
X159894887Y-91090602D01*
X159903105Y-91104452D01*
X159940508Y-91150867D01*
X159993382Y-91216481D01*
X159999872Y-91222524D01*
X159997778Y-91224772D01*
X160032037Y-91267265D01*
X160039521Y-91336733D01*
X160038668Y-91341027D01*
X160036307Y-91351909D01*
X160030263Y-91366503D01*
X159999500Y-91521158D01*
X159999500Y-91521609D01*
X159998178Y-91527705D01*
X159981946Y-91557474D01*
X159966228Y-91587524D01*
X159965262Y-91588073D01*
X159964731Y-91589049D01*
X159934989Y-91605312D01*
X159905512Y-91622098D01*
X159904401Y-91622038D01*
X159903428Y-91622571D01*
X159869636Y-91620174D01*
X159835743Y-91618358D01*
X159834841Y-91617707D01*
X159833733Y-91617629D01*
X159806569Y-91597320D01*
X159779071Y-91577491D01*
X159778321Y-91576201D01*
X159777774Y-91575792D01*
X159777217Y-91574302D01*
X159762435Y-91548873D01*
X159709397Y-91420827D01*
X159709390Y-91420814D01*
X159621789Y-91289711D01*
X159621786Y-91289707D01*
X159510292Y-91178213D01*
X159510288Y-91178210D01*
X159379185Y-91090609D01*
X159379172Y-91090602D01*
X159233501Y-91030264D01*
X159233489Y-91030261D01*
X159078845Y-90999500D01*
X159078842Y-90999500D01*
X158921158Y-90999500D01*
X158921155Y-90999500D01*
X158766510Y-91030261D01*
X158766498Y-91030264D01*
X158620827Y-91090602D01*
X158620814Y-91090609D01*
X158489711Y-91178210D01*
X158489707Y-91178213D01*
X158378213Y-91289707D01*
X158378210Y-91289711D01*
X158290609Y-91420814D01*
X158290602Y-91420827D01*
X158230264Y-91566498D01*
X158230261Y-91566510D01*
X158199500Y-91721153D01*
X158199500Y-91878846D01*
X158230261Y-92033489D01*
X158230264Y-92033501D01*
X158290602Y-92179172D01*
X158290609Y-92179185D01*
X158378210Y-92310288D01*
X158378213Y-92310292D01*
X158489707Y-92421786D01*
X158489711Y-92421789D01*
X158620814Y-92509390D01*
X158620827Y-92509397D01*
X158711335Y-92546886D01*
X158766503Y-92569737D01*
X158921153Y-92600499D01*
X158921156Y-92600500D01*
X158921158Y-92600500D01*
X159078844Y-92600500D01*
X159078845Y-92600499D01*
X159233497Y-92569737D01*
X159379179Y-92509394D01*
X159488769Y-92436167D01*
X159555446Y-92415290D01*
X159622826Y-92433774D01*
X159669517Y-92485753D01*
X159681426Y-92546886D01*
X159589738Y-94036838D01*
X159589737Y-94036841D01*
X159597268Y-94160107D01*
X159597268Y-94160110D01*
X159608241Y-94219243D01*
X159643279Y-94330174D01*
X159644700Y-94400030D01*
X159612720Y-94455200D01*
X159578213Y-94489708D01*
X159578208Y-94489714D01*
X159490609Y-94620814D01*
X159490602Y-94620827D01*
X159430264Y-94766498D01*
X159430261Y-94766510D01*
X159399500Y-94921153D01*
X159399500Y-95078846D01*
X159430261Y-95233489D01*
X159430264Y-95233501D01*
X159490602Y-95379172D01*
X159490611Y-95379188D01*
X159509288Y-95407141D01*
X159530165Y-95473818D01*
X159511680Y-95541198D01*
X159459700Y-95587888D01*
X159406191Y-95600030D01*
X156993737Y-95600153D01*
X156926697Y-95580472D01*
X156880939Y-95527670D01*
X156870992Y-95458512D01*
X156890631Y-95407260D01*
X156909388Y-95379188D01*
X156909391Y-95379183D01*
X156909394Y-95379179D01*
X156969737Y-95233497D01*
X157000500Y-95078842D01*
X157000500Y-94921158D01*
X157000500Y-94921155D01*
X157000499Y-94921153D01*
X156969737Y-94766503D01*
X156969735Y-94766498D01*
X156909397Y-94620827D01*
X156909390Y-94620814D01*
X156821789Y-94489711D01*
X156821786Y-94489707D01*
X156710292Y-94378213D01*
X156710288Y-94378210D01*
X156579185Y-94290609D01*
X156579172Y-94290602D01*
X156433501Y-94230264D01*
X156433489Y-94230261D01*
X156278845Y-94199500D01*
X156278842Y-94199500D01*
X156121158Y-94199500D01*
X156121155Y-94199500D01*
X155966510Y-94230261D01*
X155966498Y-94230264D01*
X155820827Y-94290602D01*
X155820814Y-94290609D01*
X155689711Y-94378210D01*
X155689707Y-94378213D01*
X155578213Y-94489707D01*
X155547602Y-94535520D01*
X155493989Y-94580324D01*
X155424664Y-94589031D01*
X155361637Y-94558876D01*
X155324918Y-94499432D01*
X155320500Y-94466628D01*
X155320500Y-94048956D01*
X155282052Y-93855670D01*
X155282051Y-93855669D01*
X155282051Y-93855665D01*
X155282049Y-93855660D01*
X155206635Y-93673592D01*
X155206628Y-93673579D01*
X155097139Y-93509718D01*
X155097136Y-93509714D01*
X154957785Y-93370363D01*
X154957741Y-93370334D01*
X154952333Y-93366720D01*
X154907528Y-93313111D01*
X154898818Y-93243787D01*
X154928970Y-93180758D01*
X154952328Y-93160516D01*
X155010289Y-93121789D01*
X155121789Y-93010289D01*
X155209394Y-92879179D01*
X155269737Y-92733497D01*
X155300500Y-92578842D01*
X155300500Y-92421158D01*
X155300500Y-92421155D01*
X155300499Y-92421153D01*
X155282419Y-92330261D01*
X155269737Y-92266503D01*
X155269735Y-92266498D01*
X155209397Y-92120827D01*
X155209390Y-92120814D01*
X155121789Y-91989711D01*
X155121786Y-91989707D01*
X155010292Y-91878213D01*
X155010288Y-91878210D01*
X154926141Y-91821984D01*
X154881336Y-91768371D01*
X154872629Y-91699046D01*
X154902784Y-91636019D01*
X154926139Y-91615781D01*
X154957782Y-91594639D01*
X155097139Y-91455282D01*
X155206632Y-91291414D01*
X155211840Y-91278842D01*
X155275140Y-91126019D01*
X155282051Y-91109335D01*
X155299893Y-91019637D01*
X155320500Y-90916043D01*
X155320500Y-90507532D01*
X155340185Y-90440493D01*
X155392989Y-90394738D01*
X155462147Y-90384794D01*
X155513391Y-90404430D01*
X155520815Y-90409390D01*
X155520821Y-90409394D01*
X155520823Y-90409395D01*
X155520827Y-90409397D01*
X155666498Y-90469735D01*
X155666503Y-90469737D01*
X155821153Y-90500499D01*
X155821156Y-90500500D01*
X155821158Y-90500500D01*
X155978844Y-90500500D01*
X155978845Y-90500499D01*
X156133497Y-90469737D01*
X156279179Y-90409394D01*
X156410289Y-90321789D01*
X156521789Y-90210289D01*
X156609394Y-90079179D01*
X156669737Y-89933497D01*
X156700500Y-89778842D01*
X156700500Y-89621158D01*
X156700500Y-89621155D01*
X156700499Y-89621153D01*
X156700062Y-89618956D01*
X156669737Y-89466503D01*
X156652824Y-89425670D01*
X156609397Y-89320827D01*
X156609390Y-89320814D01*
X156521789Y-89189711D01*
X156521786Y-89189707D01*
X156410292Y-89078213D01*
X156410288Y-89078210D01*
X156279185Y-88990609D01*
X156279172Y-88990602D01*
X156133501Y-88930264D01*
X156133489Y-88930261D01*
X155978845Y-88899500D01*
X155978842Y-88899500D01*
X155821158Y-88899500D01*
X155821155Y-88899500D01*
X155666510Y-88930261D01*
X155666498Y-88930264D01*
X155520827Y-88990602D01*
X155520814Y-88990609D01*
X155389711Y-89078210D01*
X155320562Y-89147359D01*
X155259238Y-89180843D01*
X155189547Y-89175858D01*
X155133613Y-89133987D01*
X155129792Y-89128588D01*
X155097139Y-89079718D01*
X155097137Y-89079715D01*
X154957785Y-88940363D01*
X154957781Y-88940360D01*
X154793920Y-88830871D01*
X154793907Y-88830864D01*
X154611839Y-88755450D01*
X154611829Y-88755447D01*
X154418543Y-88717000D01*
X154418541Y-88717000D01*
X154221459Y-88717000D01*
X154221457Y-88717000D01*
X154028170Y-88755447D01*
X154028160Y-88755450D01*
X153846092Y-88830864D01*
X153846079Y-88830871D01*
X153682218Y-88940360D01*
X153682214Y-88940363D01*
X153542863Y-89079714D01*
X153542860Y-89079718D01*
X153433371Y-89243579D01*
X153433364Y-89243592D01*
X153357950Y-89425660D01*
X153357947Y-89425670D01*
X153319500Y-89618956D01*
X153319500Y-90166166D01*
X153299815Y-90233205D01*
X153247011Y-90278960D01*
X153177853Y-90288904D01*
X153133501Y-90273554D01*
X153112137Y-90261219D01*
X153007584Y-90233205D01*
X152965766Y-90222000D01*
X152814234Y-90222000D01*
X152667863Y-90261219D01*
X152536635Y-90336985D01*
X152536632Y-90336987D01*
X152429487Y-90444132D01*
X152429485Y-90444135D01*
X152353719Y-90575363D01*
X152323080Y-90689711D01*
X152314500Y-90721734D01*
X152314500Y-90873266D01*
X152325962Y-90916043D01*
X152353719Y-91019636D01*
X152373020Y-91053065D01*
X152429485Y-91150865D01*
X152536635Y-91258015D01*
X152667865Y-91333781D01*
X152814234Y-91373000D01*
X152814236Y-91373000D01*
X152965764Y-91373000D01*
X152965766Y-91373000D01*
X153112135Y-91333781D01*
X153243365Y-91258015D01*
X153243374Y-91258005D01*
X153249488Y-91253315D01*
X153314656Y-91228117D01*
X153383101Y-91242150D01*
X153429025Y-91286988D01*
X153429983Y-91286349D01*
X153433009Y-91290878D01*
X153433094Y-91290961D01*
X153433228Y-91291206D01*
X153542860Y-91455281D01*
X153542863Y-91455285D01*
X153682214Y-91594636D01*
X153682218Y-91594639D01*
X153846079Y-91704128D01*
X153846088Y-91704133D01*
X153899283Y-91726167D01*
X153953686Y-91770008D01*
X153975751Y-91836302D01*
X153958472Y-91904001D01*
X153939512Y-91928409D01*
X153878210Y-91989711D01*
X153790609Y-92120814D01*
X153790602Y-92120827D01*
X153730264Y-92266498D01*
X153730261Y-92266510D01*
X153699500Y-92421153D01*
X153699500Y-92578846D01*
X153730261Y-92733489D01*
X153730264Y-92733501D01*
X153790602Y-92879172D01*
X153790609Y-92879185D01*
X153878210Y-93010288D01*
X153878213Y-93010292D01*
X153914763Y-93046842D01*
X153948248Y-93108165D01*
X153943264Y-93177857D01*
X153901392Y-93233790D01*
X153874534Y-93249084D01*
X153846092Y-93260864D01*
X153846079Y-93260871D01*
X153682218Y-93370360D01*
X153682214Y-93370363D01*
X153542863Y-93509714D01*
X153542860Y-93509718D01*
X153433371Y-93673579D01*
X153433364Y-93673592D01*
X153357950Y-93855660D01*
X153357947Y-93855670D01*
X153319500Y-94048956D01*
X153319500Y-94163149D01*
X153299815Y-94230188D01*
X153247011Y-94275943D01*
X153177853Y-94285887D01*
X153148048Y-94277711D01*
X153094876Y-94255687D01*
X153033497Y-94230263D01*
X153033492Y-94230262D01*
X153033489Y-94230261D01*
X152878845Y-94199500D01*
X152878842Y-94199500D01*
X152721158Y-94199500D01*
X152721155Y-94199500D01*
X152566510Y-94230261D01*
X152566498Y-94230264D01*
X152420827Y-94290602D01*
X152420814Y-94290609D01*
X152289711Y-94378210D01*
X152289707Y-94378213D01*
X152178213Y-94489707D01*
X152178210Y-94489711D01*
X152090609Y-94620814D01*
X152090602Y-94620827D01*
X152030264Y-94766498D01*
X152030261Y-94766510D01*
X151999500Y-94921153D01*
X151999500Y-95078846D01*
X152030261Y-95233489D01*
X152030264Y-95233501D01*
X152090602Y-95379172D01*
X152090608Y-95379183D01*
X152109542Y-95407520D01*
X152130419Y-95474198D01*
X152111934Y-95541578D01*
X152059954Y-95588268D01*
X152006445Y-95600410D01*
X151293541Y-95600446D01*
X151226501Y-95580765D01*
X151180743Y-95527963D01*
X151170796Y-95458805D01*
X151190433Y-95407554D01*
X151209394Y-95379179D01*
X151269737Y-95233497D01*
X151300500Y-95078842D01*
X151300500Y-94921158D01*
X151300500Y-94921155D01*
X151300499Y-94921153D01*
X151269737Y-94766503D01*
X151269735Y-94766498D01*
X151209397Y-94620827D01*
X151209390Y-94620814D01*
X151121789Y-94489711D01*
X151121786Y-94489707D01*
X151010292Y-94378213D01*
X151010288Y-94378210D01*
X150879185Y-94290609D01*
X150879172Y-94290602D01*
X150733501Y-94230264D01*
X150733489Y-94230261D01*
X150578845Y-94199500D01*
X150578842Y-94199500D01*
X150421158Y-94199500D01*
X150421155Y-94199500D01*
X150266510Y-94230261D01*
X150266498Y-94230264D01*
X150120827Y-94290602D01*
X150120814Y-94290609D01*
X149989711Y-94378210D01*
X149989707Y-94378213D01*
X149878213Y-94489707D01*
X149878210Y-94489711D01*
X149790609Y-94620814D01*
X149790602Y-94620827D01*
X149730264Y-94766498D01*
X149730261Y-94766510D01*
X149699500Y-94921153D01*
X149699500Y-95078846D01*
X149730261Y-95233489D01*
X149730264Y-95233501D01*
X149790602Y-95379172D01*
X149790608Y-95379183D01*
X149809621Y-95407638D01*
X149830498Y-95474316D01*
X149812013Y-95541696D01*
X149760034Y-95588385D01*
X149706524Y-95600528D01*
X148693452Y-95600580D01*
X148626412Y-95580899D01*
X148580654Y-95528097D01*
X148570707Y-95458939D01*
X148590344Y-95407688D01*
X148609394Y-95379179D01*
X148669737Y-95233497D01*
X148700500Y-95078842D01*
X148700500Y-94921158D01*
X148700500Y-94921155D01*
X148700499Y-94921153D01*
X148669737Y-94766503D01*
X148669735Y-94766498D01*
X148609397Y-94620827D01*
X148609390Y-94620814D01*
X148521789Y-94489711D01*
X148521786Y-94489707D01*
X148410292Y-94378213D01*
X148410288Y-94378210D01*
X148279185Y-94290609D01*
X148279172Y-94290602D01*
X148133501Y-94230264D01*
X148133489Y-94230261D01*
X147978845Y-94199500D01*
X147978842Y-94199500D01*
X147821158Y-94199500D01*
X147821155Y-94199500D01*
X147666510Y-94230261D01*
X147666498Y-94230264D01*
X147520827Y-94290602D01*
X147520814Y-94290609D01*
X147389711Y-94378210D01*
X147389707Y-94378213D01*
X147278213Y-94489707D01*
X147278210Y-94489711D01*
X147190609Y-94620814D01*
X147190602Y-94620827D01*
X147130264Y-94766498D01*
X147130261Y-94766510D01*
X147099500Y-94921153D01*
X147099500Y-95078846D01*
X147130261Y-95233489D01*
X147130264Y-95233501D01*
X147190602Y-95379172D01*
X147190608Y-95379183D01*
X147209710Y-95407771D01*
X147230587Y-95474448D01*
X147212102Y-95541828D01*
X147160123Y-95588518D01*
X147106613Y-95600661D01*
X146541099Y-95600690D01*
X146474059Y-95581009D01*
X146428301Y-95528207D01*
X146418354Y-95459049D01*
X146447376Y-95395492D01*
X146453403Y-95389017D01*
X146457139Y-95385282D01*
X146566632Y-95221414D01*
X146642051Y-95039335D01*
X146680500Y-94846041D01*
X146680500Y-94048959D01*
X146680500Y-94048956D01*
X146642052Y-93855670D01*
X146642051Y-93855669D01*
X146642051Y-93855665D01*
X146642049Y-93855660D01*
X146566635Y-93673592D01*
X146566628Y-93673579D01*
X146457139Y-93509718D01*
X146457136Y-93509714D01*
X146317785Y-93370363D01*
X146317781Y-93370360D01*
X146153920Y-93260871D01*
X146153910Y-93260866D01*
X146054754Y-93219794D01*
X146000351Y-93175953D01*
X145978286Y-93109658D01*
X145995565Y-93041959D01*
X146014522Y-93017555D01*
X146121789Y-92910289D01*
X146209394Y-92779179D01*
X146269737Y-92633497D01*
X146272192Y-92621153D01*
X147199500Y-92621153D01*
X147199500Y-92778846D01*
X147230261Y-92933489D01*
X147230264Y-92933501D01*
X147290602Y-93079172D01*
X147290609Y-93079185D01*
X147378210Y-93210288D01*
X147378213Y-93210292D01*
X147489707Y-93321786D01*
X147489711Y-93321789D01*
X147620814Y-93409390D01*
X147620827Y-93409397D01*
X147746798Y-93461575D01*
X147766503Y-93469737D01*
X147921153Y-93500499D01*
X147921156Y-93500500D01*
X147921158Y-93500500D01*
X148078844Y-93500500D01*
X148078845Y-93500499D01*
X148233497Y-93469737D01*
X148379179Y-93409394D01*
X148510289Y-93321789D01*
X148621789Y-93210289D01*
X148709394Y-93079179D01*
X148717387Y-93059882D01*
X148733429Y-93021153D01*
X149299500Y-93021153D01*
X149299500Y-93178846D01*
X149330261Y-93333489D01*
X149330264Y-93333501D01*
X149390602Y-93479172D01*
X149390609Y-93479185D01*
X149478210Y-93610288D01*
X149478213Y-93610292D01*
X149589707Y-93721786D01*
X149589711Y-93721789D01*
X149720814Y-93809390D01*
X149720827Y-93809397D01*
X149832530Y-93855665D01*
X149866503Y-93869737D01*
X150021153Y-93900499D01*
X150021156Y-93900500D01*
X150021158Y-93900500D01*
X150178844Y-93900500D01*
X150178845Y-93900499D01*
X150333497Y-93869737D01*
X150479179Y-93809394D01*
X150610289Y-93721789D01*
X150721789Y-93610289D01*
X150809394Y-93479179D01*
X150869737Y-93333497D01*
X150900500Y-93178842D01*
X150900500Y-93021158D01*
X150900500Y-93021155D01*
X150884209Y-92939258D01*
X150884209Y-92939257D01*
X150880608Y-92921153D01*
X151599500Y-92921153D01*
X151599500Y-93078846D01*
X151630261Y-93233489D01*
X151630264Y-93233501D01*
X151690602Y-93379172D01*
X151690609Y-93379185D01*
X151778210Y-93510288D01*
X151778213Y-93510292D01*
X151889707Y-93621786D01*
X151889711Y-93621789D01*
X152020814Y-93709390D01*
X152020827Y-93709397D01*
X152166498Y-93769735D01*
X152166503Y-93769737D01*
X152321153Y-93800499D01*
X152321156Y-93800500D01*
X152321158Y-93800500D01*
X152478844Y-93800500D01*
X152478845Y-93800499D01*
X152633497Y-93769737D01*
X152779179Y-93709394D01*
X152910289Y-93621789D01*
X153021789Y-93510289D01*
X153109394Y-93379179D01*
X153169737Y-93233497D01*
X153200500Y-93078842D01*
X153200500Y-92921158D01*
X153200500Y-92921155D01*
X153200499Y-92921153D01*
X153189627Y-92866498D01*
X153169737Y-92766503D01*
X153150812Y-92720814D01*
X153109397Y-92620827D01*
X153109390Y-92620814D01*
X153021789Y-92489711D01*
X153021786Y-92489707D01*
X152910292Y-92378213D01*
X152910288Y-92378210D01*
X152779185Y-92290609D01*
X152779172Y-92290602D01*
X152633501Y-92230264D01*
X152633489Y-92230261D01*
X152478845Y-92199500D01*
X152478842Y-92199500D01*
X152321158Y-92199500D01*
X152321155Y-92199500D01*
X152166510Y-92230261D01*
X152166498Y-92230264D01*
X152020827Y-92290602D01*
X152020814Y-92290609D01*
X151889711Y-92378210D01*
X151889707Y-92378213D01*
X151778213Y-92489707D01*
X151778210Y-92489711D01*
X151690609Y-92620814D01*
X151690602Y-92620827D01*
X151630264Y-92766498D01*
X151630261Y-92766510D01*
X151599500Y-92921153D01*
X150880608Y-92921153D01*
X150878446Y-92910287D01*
X150869737Y-92866503D01*
X150833569Y-92779185D01*
X150809397Y-92720827D01*
X150809390Y-92720814D01*
X150721789Y-92589711D01*
X150721786Y-92589707D01*
X150610292Y-92478213D01*
X150610288Y-92478210D01*
X150479185Y-92390609D01*
X150479172Y-92390602D01*
X150333501Y-92330264D01*
X150333489Y-92330261D01*
X150178845Y-92299500D01*
X150178842Y-92299500D01*
X150021158Y-92299500D01*
X150021155Y-92299500D01*
X149866510Y-92330261D01*
X149866498Y-92330264D01*
X149720827Y-92390602D01*
X149720814Y-92390609D01*
X149589711Y-92478210D01*
X149589707Y-92478213D01*
X149478213Y-92589707D01*
X149478210Y-92589711D01*
X149390609Y-92720814D01*
X149390602Y-92720827D01*
X149330264Y-92866498D01*
X149330261Y-92866510D01*
X149299500Y-93021153D01*
X148733429Y-93021153D01*
X148755603Y-92967621D01*
X148755605Y-92967614D01*
X148769737Y-92933497D01*
X148800500Y-92778842D01*
X148800500Y-92621158D01*
X148800500Y-92621155D01*
X148800499Y-92621153D01*
X148794244Y-92589707D01*
X148769737Y-92466503D01*
X148750955Y-92421158D01*
X148709397Y-92320827D01*
X148709390Y-92320814D01*
X148621789Y-92189711D01*
X148621786Y-92189707D01*
X148510292Y-92078213D01*
X148510288Y-92078210D01*
X148379185Y-91990609D01*
X148379172Y-91990602D01*
X148233501Y-91930264D01*
X148233489Y-91930261D01*
X148078845Y-91899500D01*
X148078842Y-91899500D01*
X147921158Y-91899500D01*
X147921155Y-91899500D01*
X147766510Y-91930261D01*
X147766498Y-91930264D01*
X147620827Y-91990602D01*
X147620814Y-91990609D01*
X147489711Y-92078210D01*
X147489707Y-92078213D01*
X147378213Y-92189707D01*
X147378210Y-92189711D01*
X147290609Y-92320814D01*
X147290602Y-92320827D01*
X147230264Y-92466498D01*
X147230261Y-92466510D01*
X147199500Y-92621153D01*
X146272192Y-92621153D01*
X146272257Y-92620827D01*
X146278216Y-92590874D01*
X146278216Y-92590873D01*
X146300499Y-92478846D01*
X146300500Y-92478844D01*
X146300500Y-92321155D01*
X146300499Y-92321153D01*
X146282419Y-92230261D01*
X146269737Y-92166503D01*
X146238392Y-92090828D01*
X146209397Y-92020827D01*
X146209390Y-92020814D01*
X146121788Y-91889709D01*
X146121577Y-91889452D01*
X146121508Y-91889290D01*
X146118405Y-91884646D01*
X146119285Y-91884057D01*
X146094262Y-91825143D01*
X146106052Y-91756275D01*
X146149604Y-91708648D01*
X146148848Y-91707517D01*
X146317782Y-91594639D01*
X146457139Y-91455282D01*
X146570017Y-91286348D01*
X146571474Y-91287321D01*
X146614595Y-91243403D01*
X146682729Y-91227926D01*
X146748414Y-91251742D01*
X146750502Y-91253309D01*
X146756632Y-91258012D01*
X146756635Y-91258015D01*
X146887865Y-91333781D01*
X147034234Y-91373000D01*
X147034236Y-91373000D01*
X147185764Y-91373000D01*
X147185766Y-91373000D01*
X147332135Y-91333781D01*
X147463365Y-91258015D01*
X147570515Y-91150865D01*
X147587669Y-91121153D01*
X149499500Y-91121153D01*
X149499500Y-91278846D01*
X149530261Y-91433489D01*
X149530264Y-91433501D01*
X149590602Y-91579172D01*
X149590609Y-91579185D01*
X149678210Y-91710288D01*
X149678213Y-91710292D01*
X149789707Y-91821786D01*
X149789711Y-91821789D01*
X149920814Y-91909390D01*
X149920827Y-91909397D01*
X150023819Y-91952057D01*
X150066503Y-91969737D01*
X150196313Y-91995558D01*
X150221153Y-92000499D01*
X150221156Y-92000500D01*
X150221158Y-92000500D01*
X150378844Y-92000500D01*
X150378845Y-92000499D01*
X150533497Y-91969737D01*
X150679179Y-91909394D01*
X150810289Y-91821789D01*
X150921789Y-91710289D01*
X151009394Y-91579179D01*
X151069737Y-91433497D01*
X151100500Y-91278842D01*
X151100500Y-91121158D01*
X151100500Y-91121155D01*
X151100499Y-91121153D01*
X151080306Y-91019636D01*
X151069737Y-90966503D01*
X151048835Y-90916041D01*
X151009397Y-90820827D01*
X151009390Y-90820814D01*
X150921789Y-90689711D01*
X150921786Y-90689707D01*
X150810292Y-90578213D01*
X150810288Y-90578210D01*
X150679185Y-90490609D01*
X150679172Y-90490602D01*
X150533501Y-90430264D01*
X150533489Y-90430261D01*
X150378845Y-90399500D01*
X150378842Y-90399500D01*
X150221158Y-90399500D01*
X150221155Y-90399500D01*
X150066510Y-90430261D01*
X150066498Y-90430264D01*
X149920827Y-90490602D01*
X149920814Y-90490609D01*
X149789711Y-90578210D01*
X149789707Y-90578213D01*
X149678213Y-90689707D01*
X149678210Y-90689711D01*
X149590609Y-90820814D01*
X149590602Y-90820827D01*
X149530264Y-90966498D01*
X149530261Y-90966510D01*
X149499500Y-91121153D01*
X147587669Y-91121153D01*
X147646281Y-91019635D01*
X147685500Y-90873266D01*
X147685500Y-90721734D01*
X147646281Y-90575365D01*
X147570515Y-90444135D01*
X147463365Y-90336985D01*
X147380087Y-90288904D01*
X147332136Y-90261219D01*
X147227584Y-90233205D01*
X147185766Y-90222000D01*
X147034234Y-90222000D01*
X146887862Y-90261219D01*
X146866499Y-90273554D01*
X146798598Y-90290025D01*
X146732572Y-90267173D01*
X146689382Y-90212251D01*
X146680500Y-90166166D01*
X146680500Y-89618956D01*
X146642052Y-89425670D01*
X146642051Y-89425669D01*
X146642051Y-89425665D01*
X146580248Y-89276458D01*
X146566635Y-89243592D01*
X146566628Y-89243579D01*
X146457139Y-89079718D01*
X146457136Y-89079714D01*
X146317785Y-88940363D01*
X146317781Y-88940360D01*
X146153920Y-88830871D01*
X146153907Y-88830864D01*
X145971839Y-88755450D01*
X145971829Y-88755447D01*
X145778543Y-88717000D01*
X145778541Y-88717000D01*
X145581459Y-88717000D01*
X145581457Y-88717000D01*
X145388170Y-88755447D01*
X145388160Y-88755450D01*
X145206092Y-88830864D01*
X145206079Y-88830871D01*
X145042218Y-88940360D01*
X145042213Y-88940364D01*
X144993113Y-88989464D01*
X144931790Y-89022948D01*
X144862098Y-89017963D01*
X144806165Y-88976092D01*
X144781749Y-88910627D01*
X144781442Y-88900266D01*
X144798496Y-87521546D01*
X144819009Y-87454757D01*
X144872375Y-87409659D01*
X144921554Y-87399086D01*
X158100000Y-87300000D01*
X160700000Y-86507500D01*
X160719999Y-86490042D01*
X160720163Y-86490230D01*
X160740182Y-86467261D01*
X160787521Y-86449295D01*
X160816243Y-86444746D01*
X161018412Y-86379057D01*
X161207816Y-86282551D01*
X161229789Y-86266586D01*
X161379786Y-86157609D01*
X161379788Y-86157606D01*
X161379792Y-86157604D01*
X161530104Y-86007292D01*
X161530106Y-86007288D01*
X161530109Y-86007286D01*
X161655048Y-85835320D01*
X161655047Y-85835320D01*
X161655051Y-85835316D01*
X161751557Y-85645912D01*
X161817246Y-85443743D01*
X161850500Y-85233787D01*
X161850500Y-85021213D01*
X161817246Y-84811257D01*
X161751557Y-84609088D01*
X161685371Y-84479192D01*
X161672476Y-84410524D01*
X161683211Y-84371063D01*
X161868234Y-83969023D01*
X161914143Y-83916354D01*
X161975921Y-83896963D01*
X162598293Y-83872068D01*
X162641552Y-83878035D01*
X162723757Y-83904746D01*
X162933713Y-83938000D01*
X162933714Y-83938000D01*
X163146286Y-83938000D01*
X163146287Y-83938000D01*
X163356243Y-83904746D01*
X163526456Y-83849439D01*
X163596295Y-83847445D01*
X163656128Y-83883525D01*
G37*
%TD.AperFunction*%
%TD*%
%TA.AperFunction,Conductor*%
%TO.N,/VBAT*%
G36*
X120242822Y-56019685D02*
G01*
X120288577Y-56072489D01*
X120298521Y-56141647D01*
X120290344Y-56171452D01*
X120230264Y-56316498D01*
X120230261Y-56316510D01*
X120199500Y-56471153D01*
X120199500Y-56628846D01*
X120230261Y-56783489D01*
X120230264Y-56783501D01*
X120290602Y-56929172D01*
X120290609Y-56929185D01*
X120378210Y-57060288D01*
X120378213Y-57060292D01*
X120489707Y-57171786D01*
X120489711Y-57171789D01*
X120620814Y-57259390D01*
X120620827Y-57259397D01*
X120766498Y-57319735D01*
X120766503Y-57319737D01*
X120896962Y-57345687D01*
X120921153Y-57350499D01*
X120921156Y-57350500D01*
X120921158Y-57350500D01*
X121078844Y-57350500D01*
X121078845Y-57350499D01*
X121233497Y-57319737D01*
X121379179Y-57259394D01*
X121510289Y-57171789D01*
X121621789Y-57060289D01*
X121709394Y-56929179D01*
X121769737Y-56783497D01*
X121800500Y-56628842D01*
X121800500Y-56471158D01*
X121800500Y-56471155D01*
X121800499Y-56471153D01*
X121770596Y-56320821D01*
X121769737Y-56316503D01*
X121718536Y-56192891D01*
X121709656Y-56171452D01*
X121702187Y-56101983D01*
X121733462Y-56039504D01*
X121793552Y-56003852D01*
X121824217Y-56000000D01*
X125972984Y-56000000D01*
X126040023Y-56019685D01*
X126085778Y-56072489D01*
X126095722Y-56141647D01*
X126076086Y-56192891D01*
X125990609Y-56320814D01*
X125990602Y-56320827D01*
X125930264Y-56466498D01*
X125930261Y-56466510D01*
X125899500Y-56621153D01*
X125899500Y-56778846D01*
X125930261Y-56933489D01*
X125930264Y-56933501D01*
X125990602Y-57079172D01*
X125990609Y-57079185D01*
X126078210Y-57210288D01*
X126078213Y-57210292D01*
X126189707Y-57321786D01*
X126189711Y-57321789D01*
X126320814Y-57409390D01*
X126320827Y-57409397D01*
X126466498Y-57469735D01*
X126466503Y-57469737D01*
X126621153Y-57500499D01*
X126621156Y-57500500D01*
X126621158Y-57500500D01*
X126778844Y-57500500D01*
X126778845Y-57500499D01*
X126933497Y-57469737D01*
X127046166Y-57423067D01*
X127079172Y-57409397D01*
X127079172Y-57409396D01*
X127079179Y-57409394D01*
X127210289Y-57321789D01*
X127210925Y-57321153D01*
X127899500Y-57321153D01*
X127899500Y-57478846D01*
X127930261Y-57633489D01*
X127930264Y-57633501D01*
X127990602Y-57779172D01*
X127990609Y-57779185D01*
X128078210Y-57910288D01*
X128078213Y-57910292D01*
X128189707Y-58021786D01*
X128189711Y-58021789D01*
X128320814Y-58109390D01*
X128320827Y-58109397D01*
X128454997Y-58164971D01*
X128466503Y-58169737D01*
X128581005Y-58192513D01*
X128621153Y-58200499D01*
X128621156Y-58200500D01*
X128621158Y-58200500D01*
X128778844Y-58200500D01*
X128778845Y-58200499D01*
X128933497Y-58169737D01*
X129023606Y-58132413D01*
X129040284Y-58125505D01*
X129079173Y-58109397D01*
X129079176Y-58109395D01*
X129079179Y-58109394D01*
X129210289Y-58021789D01*
X129321789Y-57910289D01*
X129409394Y-57779179D01*
X129469737Y-57633497D01*
X129500500Y-57478842D01*
X129500500Y-57321158D01*
X129500500Y-57321155D01*
X129500499Y-57321153D01*
X129478447Y-57210292D01*
X129469737Y-57166503D01*
X129433569Y-57079185D01*
X129409397Y-57020827D01*
X129409390Y-57020814D01*
X129321789Y-56889711D01*
X129321786Y-56889707D01*
X129210292Y-56778213D01*
X129210288Y-56778210D01*
X129079185Y-56690609D01*
X129079172Y-56690602D01*
X128933501Y-56630264D01*
X128933489Y-56630261D01*
X128778845Y-56599500D01*
X128778842Y-56599500D01*
X128621158Y-56599500D01*
X128621155Y-56599500D01*
X128466510Y-56630261D01*
X128466498Y-56630264D01*
X128320827Y-56690602D01*
X128320814Y-56690609D01*
X128189711Y-56778210D01*
X128189707Y-56778213D01*
X128078213Y-56889707D01*
X128078210Y-56889711D01*
X127990609Y-57020814D01*
X127990602Y-57020827D01*
X127930264Y-57166498D01*
X127930261Y-57166510D01*
X127899500Y-57321153D01*
X127210925Y-57321153D01*
X127241476Y-57290602D01*
X127304694Y-57227385D01*
X127321786Y-57210292D01*
X127321789Y-57210289D01*
X127409394Y-57079179D01*
X127469737Y-56933497D01*
X127500500Y-56778842D01*
X127500500Y-56621158D01*
X127500500Y-56621155D01*
X127500499Y-56621153D01*
X127469738Y-56466510D01*
X127469737Y-56466503D01*
X127469735Y-56466498D01*
X127409397Y-56320827D01*
X127409390Y-56320814D01*
X127323914Y-56192891D01*
X127303036Y-56126214D01*
X127321520Y-56058833D01*
X127373499Y-56012143D01*
X127427016Y-56000000D01*
X137376000Y-56000000D01*
X137443039Y-56019685D01*
X137488794Y-56072489D01*
X137500000Y-56124000D01*
X137500000Y-95126000D01*
X137480315Y-95193039D01*
X137427511Y-95238794D01*
X137376000Y-95250000D01*
X134297658Y-95250000D01*
X134230619Y-95230315D01*
X134184864Y-95177511D01*
X134174920Y-95108353D01*
X134176041Y-95101809D01*
X134200499Y-94978846D01*
X134200500Y-94978844D01*
X134200500Y-94821155D01*
X134200499Y-94821153D01*
X134180734Y-94721789D01*
X134169737Y-94666503D01*
X134140327Y-94595500D01*
X134109397Y-94520827D01*
X134109390Y-94520814D01*
X134021789Y-94389711D01*
X134021786Y-94389707D01*
X133910292Y-94278213D01*
X133910288Y-94278210D01*
X133829219Y-94224041D01*
X133807932Y-94198570D01*
X133785921Y-94173755D01*
X133785629Y-94171883D01*
X133784414Y-94170429D01*
X133780277Y-94137494D01*
X133775176Y-94104716D01*
X133775943Y-94102983D01*
X133775707Y-94101104D01*
X133790024Y-94071178D01*
X133803462Y-94040828D01*
X133805206Y-94039446D01*
X133805862Y-94038076D01*
X133829865Y-94017408D01*
X133835638Y-94013602D01*
X133862690Y-93999819D01*
X133922775Y-93956164D01*
X133925124Y-93954616D01*
X133955944Y-93945176D01*
X133986289Y-93934349D01*
X133989135Y-93935011D01*
X133991931Y-93934155D01*
X134022956Y-93942875D01*
X134054343Y-93950174D01*
X134056837Y-93952398D01*
X134059194Y-93953061D01*
X134065302Y-93959947D01*
X134093685Y-93985259D01*
X134133020Y-94039399D01*
X134133022Y-94039401D01*
X134310606Y-94216985D01*
X134500722Y-94355109D01*
X134513776Y-94364594D01*
X134649600Y-94433800D01*
X134737535Y-94478606D01*
X134737537Y-94478606D01*
X134737540Y-94478608D01*
X134835044Y-94510289D01*
X134976385Y-94556214D01*
X135224426Y-94595500D01*
X135224431Y-94595500D01*
X135475574Y-94595500D01*
X135723614Y-94556214D01*
X135962460Y-94478608D01*
X136186224Y-94364594D01*
X136355668Y-94241487D01*
X136389393Y-94216985D01*
X136389395Y-94216982D01*
X136389399Y-94216980D01*
X136566980Y-94039399D01*
X136566982Y-94039395D01*
X136566985Y-94039393D01*
X136643303Y-93934349D01*
X136714594Y-93836224D01*
X136828608Y-93612460D01*
X136906214Y-93373614D01*
X136913080Y-93330261D01*
X136945500Y-93125574D01*
X136945500Y-92874425D01*
X136906214Y-92626385D01*
X136828606Y-92387535D01*
X136775659Y-92283623D01*
X136714594Y-92163776D01*
X136680262Y-92116521D01*
X136566985Y-91960606D01*
X136389393Y-91783014D01*
X136186227Y-91635408D01*
X136186226Y-91635407D01*
X136186224Y-91635406D01*
X136116347Y-91599801D01*
X135962464Y-91521393D01*
X135723614Y-91443785D01*
X135475574Y-91404500D01*
X135475569Y-91404500D01*
X135224431Y-91404500D01*
X135224426Y-91404500D01*
X134976385Y-91443785D01*
X134737535Y-91521393D01*
X134513772Y-91635408D01*
X134310606Y-91783014D01*
X134133022Y-91960598D01*
X134133019Y-91960602D01*
X134093685Y-92014739D01*
X134038354Y-92057404D01*
X133968740Y-92063382D01*
X133920483Y-92042170D01*
X133862690Y-92000181D01*
X133698740Y-91916645D01*
X133523742Y-91859784D01*
X133523740Y-91859783D01*
X133523739Y-91859783D01*
X133342006Y-91831000D01*
X133342002Y-91831000D01*
X133157998Y-91831000D01*
X133157994Y-91831000D01*
X132976261Y-91859783D01*
X132801257Y-91916646D01*
X132637309Y-92000181D01*
X132488445Y-92108338D01*
X132358338Y-92238445D01*
X132250181Y-92387309D01*
X132166646Y-92551257D01*
X132109783Y-92726261D01*
X132081000Y-92907993D01*
X132081000Y-93092006D01*
X132102898Y-93230264D01*
X132109784Y-93273742D01*
X132166645Y-93448740D01*
X132250181Y-93612690D01*
X132358337Y-93761553D01*
X132488447Y-93891663D01*
X132637310Y-93999819D01*
X132801260Y-94083355D01*
X132822644Y-94090303D01*
X132880317Y-94129738D01*
X132907517Y-94194096D01*
X132895603Y-94262943D01*
X132872007Y-94295914D01*
X132778210Y-94389711D01*
X132690609Y-94520814D01*
X132690602Y-94520827D01*
X132630264Y-94666498D01*
X132630261Y-94666510D01*
X132599500Y-94821153D01*
X132599500Y-94978846D01*
X132623959Y-95101809D01*
X132617732Y-95171400D01*
X132574869Y-95226578D01*
X132508979Y-95249822D01*
X132502342Y-95250000D01*
X130497658Y-95250000D01*
X130430619Y-95230315D01*
X130384864Y-95177511D01*
X130374920Y-95108353D01*
X130376041Y-95101809D01*
X130400499Y-94978846D01*
X130400500Y-94978844D01*
X130400500Y-94821155D01*
X130400499Y-94821153D01*
X130380734Y-94721789D01*
X130369737Y-94666503D01*
X130340327Y-94595500D01*
X130309397Y-94520827D01*
X130309390Y-94520814D01*
X130221789Y-94389711D01*
X130221786Y-94389707D01*
X130137952Y-94305873D01*
X130104467Y-94244550D01*
X130109451Y-94174858D01*
X130151323Y-94118925D01*
X130155932Y-94115964D01*
X130221931Y-94066555D01*
X130276046Y-94026046D01*
X130362296Y-93910831D01*
X130412591Y-93775983D01*
X130419000Y-93716373D01*
X130418999Y-92283628D01*
X130412591Y-92224017D01*
X130362296Y-92089169D01*
X130362295Y-92089168D01*
X130362293Y-92089164D01*
X130276047Y-91973955D01*
X130276044Y-91973952D01*
X130160835Y-91887706D01*
X130160828Y-91887702D01*
X130025982Y-91837408D01*
X130025983Y-91837408D01*
X129966383Y-91831001D01*
X129966381Y-91831000D01*
X129966373Y-91831000D01*
X129966364Y-91831000D01*
X128533629Y-91831000D01*
X128533623Y-91831001D01*
X128474015Y-91837409D01*
X128380994Y-91872103D01*
X128311303Y-91877087D01*
X128249981Y-91843602D01*
X128189393Y-91783014D01*
X127986227Y-91635408D01*
X127986226Y-91635407D01*
X127986224Y-91635406D01*
X127916347Y-91599801D01*
X127762464Y-91521393D01*
X127523614Y-91443785D01*
X127275574Y-91404500D01*
X127275569Y-91404500D01*
X127024431Y-91404500D01*
X127024426Y-91404500D01*
X126776385Y-91443785D01*
X126537535Y-91521393D01*
X126313772Y-91635408D01*
X126110606Y-91783014D01*
X125933014Y-91960606D01*
X125785408Y-92163772D01*
X125671393Y-92387535D01*
X125593785Y-92626385D01*
X125554500Y-92874425D01*
X125554500Y-93125574D01*
X125593785Y-93373614D01*
X125671393Y-93612464D01*
X125785408Y-93836227D01*
X125933014Y-94039393D01*
X126110606Y-94216985D01*
X126300722Y-94355109D01*
X126313776Y-94364594D01*
X126449600Y-94433800D01*
X126537535Y-94478606D01*
X126537537Y-94478606D01*
X126537540Y-94478608D01*
X126635044Y-94510289D01*
X126776385Y-94556214D01*
X127024426Y-94595500D01*
X127024431Y-94595500D01*
X127275574Y-94595500D01*
X127523614Y-94556214D01*
X127762460Y-94478608D01*
X127986224Y-94364594D01*
X128189399Y-94216980D01*
X128249983Y-94156395D01*
X128311303Y-94122912D01*
X128380994Y-94127895D01*
X128474017Y-94162591D01*
X128533627Y-94169000D01*
X128899560Y-94168999D01*
X128966598Y-94188683D01*
X129012353Y-94241487D01*
X129022297Y-94310646D01*
X128993272Y-94374201D01*
X128987244Y-94380677D01*
X128978210Y-94389710D01*
X128978210Y-94389711D01*
X128890609Y-94520814D01*
X128890602Y-94520827D01*
X128830264Y-94666498D01*
X128830261Y-94666510D01*
X128799500Y-94821153D01*
X128799500Y-94978846D01*
X128823959Y-95101809D01*
X128817732Y-95171400D01*
X128774869Y-95226578D01*
X128708979Y-95249822D01*
X128702342Y-95250000D01*
X115124000Y-95250000D01*
X115056961Y-95230315D01*
X115011206Y-95177511D01*
X115000000Y-95126000D01*
X115000000Y-94502690D01*
X115019685Y-94435651D01*
X115072489Y-94389896D01*
X115141647Y-94379952D01*
X115205203Y-94408977D01*
X115227102Y-94433800D01*
X115278207Y-94510284D01*
X115278213Y-94510292D01*
X115389707Y-94621786D01*
X115389711Y-94621789D01*
X115520814Y-94709390D01*
X115520827Y-94709397D01*
X115666498Y-94769735D01*
X115666503Y-94769737D01*
X115821153Y-94800499D01*
X115821156Y-94800500D01*
X115821158Y-94800500D01*
X115978844Y-94800500D01*
X115978845Y-94800499D01*
X116133497Y-94769737D01*
X116279179Y-94709394D01*
X116410289Y-94621789D01*
X116521789Y-94510289D01*
X116566804Y-94442919D01*
X116620414Y-94398116D01*
X116689739Y-94389408D01*
X116752767Y-94419562D01*
X116784465Y-94464355D01*
X116790604Y-94479176D01*
X116790609Y-94479185D01*
X116878210Y-94610288D01*
X116878213Y-94610292D01*
X116989707Y-94721786D01*
X116989711Y-94721789D01*
X117120814Y-94809390D01*
X117120827Y-94809397D01*
X117266498Y-94869735D01*
X117266503Y-94869737D01*
X117421153Y-94900499D01*
X117421156Y-94900500D01*
X117421158Y-94900500D01*
X117578844Y-94900500D01*
X117578845Y-94900499D01*
X117733497Y-94869737D01*
X117879179Y-94809394D01*
X118010289Y-94721789D01*
X118121789Y-94610289D01*
X118209394Y-94479179D01*
X118269737Y-94333497D01*
X118300500Y-94178842D01*
X118300500Y-94021158D01*
X118300500Y-94021155D01*
X118300499Y-94021153D01*
X118296255Y-93999818D01*
X118269737Y-93866503D01*
X118269735Y-93866498D01*
X118209397Y-93720827D01*
X118209390Y-93720814D01*
X118121789Y-93589711D01*
X118121786Y-93589707D01*
X118010292Y-93478213D01*
X118010288Y-93478210D01*
X117879185Y-93390609D01*
X117879172Y-93390602D01*
X117733501Y-93330264D01*
X117733489Y-93330261D01*
X117578845Y-93299500D01*
X117578842Y-93299500D01*
X117421158Y-93299500D01*
X117421155Y-93299500D01*
X117266510Y-93330261D01*
X117266498Y-93330264D01*
X117120827Y-93390602D01*
X117120814Y-93390609D01*
X116989711Y-93478210D01*
X116989707Y-93478213D01*
X116878213Y-93589707D01*
X116833196Y-93657080D01*
X116779583Y-93701884D01*
X116710258Y-93710591D01*
X116647231Y-93680436D01*
X116615533Y-93635642D01*
X116609394Y-93620821D01*
X116609392Y-93620818D01*
X116609390Y-93620814D01*
X116521789Y-93489711D01*
X116521786Y-93489707D01*
X116410292Y-93378213D01*
X116410288Y-93378210D01*
X116279185Y-93290609D01*
X116279172Y-93290602D01*
X116133501Y-93230264D01*
X116133489Y-93230261D01*
X115978845Y-93199500D01*
X115978842Y-93199500D01*
X115821158Y-93199500D01*
X115821155Y-93199500D01*
X115666510Y-93230261D01*
X115666498Y-93230264D01*
X115520827Y-93290602D01*
X115520814Y-93290609D01*
X115389711Y-93378210D01*
X115389707Y-93378213D01*
X115278213Y-93489707D01*
X115278210Y-93489711D01*
X115227102Y-93566200D01*
X115173490Y-93611005D01*
X115104165Y-93619712D01*
X115041137Y-93589557D01*
X115004418Y-93530114D01*
X115000000Y-93497309D01*
X115000000Y-90731441D01*
X115019685Y-90664402D01*
X115072489Y-90618647D01*
X115141647Y-90608703D01*
X115205203Y-90637728D01*
X115211681Y-90643760D01*
X115289707Y-90721786D01*
X115289711Y-90721789D01*
X115420814Y-90809390D01*
X115420827Y-90809397D01*
X115566498Y-90869735D01*
X115566503Y-90869737D01*
X115721153Y-90900499D01*
X115721156Y-90900500D01*
X115721158Y-90900500D01*
X115878844Y-90900500D01*
X115878845Y-90900499D01*
X116033497Y-90869737D01*
X116179179Y-90809394D01*
X116181600Y-90807775D01*
X116183063Y-90807317D01*
X116184554Y-90806521D01*
X116184704Y-90806803D01*
X116248275Y-90786892D01*
X116315657Y-90805371D01*
X116362352Y-90857345D01*
X116374500Y-90910872D01*
X116374500Y-90929110D01*
X116398535Y-91049944D01*
X116398538Y-91049954D01*
X116445687Y-91163783D01*
X116445692Y-91163792D01*
X116514141Y-91266232D01*
X116514144Y-91266236D01*
X116601263Y-91353355D01*
X116601267Y-91353358D01*
X116703707Y-91421807D01*
X116703713Y-91421810D01*
X116703714Y-91421811D01*
X116817548Y-91468963D01*
X116938389Y-91492999D01*
X116938393Y-91493000D01*
X116938394Y-91493000D01*
X117061607Y-91493000D01*
X117061608Y-91492999D01*
X117182452Y-91468963D01*
X117296286Y-91421811D01*
X117398733Y-91353358D01*
X117485858Y-91266233D01*
X117554311Y-91163786D01*
X117601463Y-91049952D01*
X117625500Y-90929106D01*
X117625500Y-90805894D01*
X117601463Y-90685048D01*
X117554311Y-90571214D01*
X117554310Y-90571213D01*
X117554307Y-90571207D01*
X117485858Y-90468767D01*
X117485855Y-90468763D01*
X117398736Y-90381644D01*
X117398732Y-90381641D01*
X117296292Y-90313192D01*
X117296283Y-90313187D01*
X117203477Y-90274746D01*
X117182452Y-90266037D01*
X117182448Y-90266036D01*
X117182444Y-90266035D01*
X117061610Y-90242000D01*
X117061606Y-90242000D01*
X116938394Y-90242000D01*
X116938389Y-90242000D01*
X116817555Y-90266035D01*
X116817541Y-90266039D01*
X116771952Y-90284923D01*
X116702483Y-90292392D01*
X116640004Y-90261117D01*
X116604352Y-90201027D01*
X116600500Y-90170362D01*
X116600500Y-90021155D01*
X116600499Y-90021153D01*
X116571601Y-89875871D01*
X116576497Y-89821153D01*
X127899500Y-89821153D01*
X127899500Y-89978846D01*
X127930261Y-90133489D01*
X127930264Y-90133501D01*
X127990602Y-90279172D01*
X127990609Y-90279185D01*
X128078210Y-90410288D01*
X128078213Y-90410292D01*
X128189707Y-90521786D01*
X128189711Y-90521789D01*
X128320814Y-90609390D01*
X128320827Y-90609397D01*
X128403788Y-90643760D01*
X128466503Y-90669737D01*
X128621153Y-90700499D01*
X128621156Y-90700500D01*
X128621158Y-90700500D01*
X128778844Y-90700500D01*
X128778845Y-90700499D01*
X128933497Y-90669737D01*
X129079179Y-90609394D01*
X129210289Y-90521789D01*
X129321789Y-90410289D01*
X129409394Y-90279179D01*
X129416876Y-90261117D01*
X129441765Y-90201027D01*
X129469737Y-90133497D01*
X129500500Y-89978842D01*
X129500500Y-89821158D01*
X129500500Y-89821155D01*
X129500499Y-89821153D01*
X131499500Y-89821153D01*
X131499500Y-89978846D01*
X131530261Y-90133489D01*
X131530264Y-90133501D01*
X131590602Y-90279172D01*
X131590609Y-90279185D01*
X131678210Y-90410288D01*
X131678213Y-90410292D01*
X131789707Y-90521786D01*
X131789711Y-90521789D01*
X131920814Y-90609390D01*
X131920827Y-90609397D01*
X132003788Y-90643760D01*
X132066503Y-90669737D01*
X132221153Y-90700499D01*
X132221156Y-90700500D01*
X132221158Y-90700500D01*
X132378844Y-90700500D01*
X132378845Y-90700499D01*
X132533497Y-90669737D01*
X132679179Y-90609394D01*
X132810289Y-90521789D01*
X132921789Y-90410289D01*
X133009394Y-90279179D01*
X133016876Y-90261117D01*
X133041765Y-90201027D01*
X133069737Y-90133497D01*
X133100500Y-89978842D01*
X133100500Y-89821158D01*
X133100500Y-89821155D01*
X133100499Y-89821153D01*
X135099500Y-89821153D01*
X135099500Y-89978846D01*
X135130261Y-90133489D01*
X135130264Y-90133501D01*
X135190602Y-90279172D01*
X135190609Y-90279185D01*
X135278210Y-90410288D01*
X135278213Y-90410292D01*
X135389707Y-90521786D01*
X135389711Y-90521789D01*
X135520814Y-90609390D01*
X135520827Y-90609397D01*
X135603788Y-90643760D01*
X135666503Y-90669737D01*
X135821153Y-90700499D01*
X135821156Y-90700500D01*
X135821158Y-90700500D01*
X135978844Y-90700500D01*
X135978845Y-90700499D01*
X136133497Y-90669737D01*
X136279179Y-90609394D01*
X136410289Y-90521789D01*
X136521789Y-90410289D01*
X136609394Y-90279179D01*
X136616876Y-90261117D01*
X136641765Y-90201027D01*
X136669737Y-90133497D01*
X136700500Y-89978842D01*
X136700500Y-89821158D01*
X136700500Y-89821155D01*
X136700499Y-89821153D01*
X136681941Y-89727858D01*
X136669737Y-89666503D01*
X136637929Y-89589711D01*
X136609397Y-89520827D01*
X136609390Y-89520814D01*
X136521789Y-89389711D01*
X136521786Y-89389707D01*
X136410292Y-89278213D01*
X136410288Y-89278210D01*
X136279185Y-89190609D01*
X136279172Y-89190602D01*
X136133501Y-89130264D01*
X136133489Y-89130261D01*
X135978845Y-89099500D01*
X135978842Y-89099500D01*
X135821158Y-89099500D01*
X135821155Y-89099500D01*
X135666510Y-89130261D01*
X135666498Y-89130264D01*
X135520827Y-89190602D01*
X135520814Y-89190609D01*
X135389711Y-89278210D01*
X135389707Y-89278213D01*
X135278213Y-89389707D01*
X135278210Y-89389711D01*
X135190609Y-89520814D01*
X135190602Y-89520827D01*
X135130264Y-89666498D01*
X135130261Y-89666510D01*
X135099500Y-89821153D01*
X133100499Y-89821153D01*
X133081941Y-89727858D01*
X133069737Y-89666503D01*
X133037929Y-89589711D01*
X133009397Y-89520827D01*
X133009390Y-89520814D01*
X132921789Y-89389711D01*
X132921786Y-89389707D01*
X132810292Y-89278213D01*
X132810288Y-89278210D01*
X132679185Y-89190609D01*
X132679172Y-89190602D01*
X132533501Y-89130264D01*
X132533489Y-89130261D01*
X132378845Y-89099500D01*
X132378842Y-89099500D01*
X132221158Y-89099500D01*
X132221155Y-89099500D01*
X132066510Y-89130261D01*
X132066498Y-89130264D01*
X131920827Y-89190602D01*
X131920814Y-89190609D01*
X131789711Y-89278210D01*
X131789707Y-89278213D01*
X131678213Y-89389707D01*
X131678210Y-89389711D01*
X131590609Y-89520814D01*
X131590602Y-89520827D01*
X131530264Y-89666498D01*
X131530261Y-89666510D01*
X131499500Y-89821153D01*
X129500499Y-89821153D01*
X129481941Y-89727858D01*
X129469737Y-89666503D01*
X129437929Y-89589711D01*
X129409397Y-89520827D01*
X129409390Y-89520814D01*
X129321789Y-89389711D01*
X129321786Y-89389707D01*
X129210292Y-89278213D01*
X129210288Y-89278210D01*
X129079185Y-89190609D01*
X129079172Y-89190602D01*
X128933501Y-89130264D01*
X128933489Y-89130261D01*
X128778845Y-89099500D01*
X128778842Y-89099500D01*
X128621158Y-89099500D01*
X128621155Y-89099500D01*
X128466510Y-89130261D01*
X128466498Y-89130264D01*
X128320827Y-89190602D01*
X128320814Y-89190609D01*
X128189711Y-89278210D01*
X128189707Y-89278213D01*
X128078213Y-89389707D01*
X128078210Y-89389711D01*
X127990609Y-89520814D01*
X127990602Y-89520827D01*
X127930264Y-89666498D01*
X127930261Y-89666510D01*
X127899500Y-89821153D01*
X116576497Y-89821153D01*
X116577828Y-89806280D01*
X116620691Y-89751102D01*
X116686581Y-89727858D01*
X116740670Y-89737118D01*
X116817548Y-89768963D01*
X116938389Y-89792999D01*
X116938393Y-89793000D01*
X116938394Y-89793000D01*
X117061607Y-89793000D01*
X117061608Y-89792999D01*
X117182452Y-89768963D01*
X117296286Y-89721811D01*
X117297768Y-89720821D01*
X117311024Y-89711964D01*
X117353643Y-89683485D01*
X117398733Y-89653358D01*
X117485858Y-89566233D01*
X117554311Y-89463786D01*
X117601463Y-89349952D01*
X117625500Y-89229106D01*
X117625500Y-89105894D01*
X117601463Y-88985048D01*
X117554311Y-88871214D01*
X117554310Y-88871213D01*
X117554307Y-88871207D01*
X117485858Y-88768767D01*
X117485855Y-88768763D01*
X117398736Y-88681644D01*
X117398732Y-88681641D01*
X117296292Y-88613192D01*
X117296283Y-88613187D01*
X117182454Y-88566038D01*
X117182455Y-88566038D01*
X117182452Y-88566037D01*
X117182448Y-88566036D01*
X117182444Y-88566035D01*
X117061610Y-88542000D01*
X117061606Y-88542000D01*
X116938394Y-88542000D01*
X116938389Y-88542000D01*
X116817555Y-88566035D01*
X116817545Y-88566038D01*
X116703716Y-88613187D01*
X116703707Y-88613192D01*
X116601267Y-88681641D01*
X116601263Y-88681644D01*
X116514144Y-88768763D01*
X116514141Y-88768767D01*
X116445692Y-88871207D01*
X116445687Y-88871216D01*
X116398538Y-88985045D01*
X116398535Y-88985055D01*
X116374500Y-89105889D01*
X116374500Y-89229106D01*
X116383084Y-89272265D01*
X116376855Y-89341857D01*
X116333991Y-89397033D01*
X116268101Y-89420276D01*
X116200104Y-89404207D01*
X116192576Y-89399557D01*
X116179183Y-89390608D01*
X116179172Y-89390602D01*
X116033501Y-89330264D01*
X116033489Y-89330261D01*
X115878845Y-89299500D01*
X115878842Y-89299500D01*
X115721158Y-89299500D01*
X115721155Y-89299500D01*
X115566510Y-89330261D01*
X115566498Y-89330264D01*
X115420827Y-89390602D01*
X115420814Y-89390609D01*
X115289711Y-89478210D01*
X115289707Y-89478213D01*
X115211681Y-89556240D01*
X115150358Y-89589725D01*
X115080666Y-89584741D01*
X115024733Y-89542869D01*
X115000316Y-89477405D01*
X115000000Y-89468559D01*
X115000000Y-87921153D01*
X126899500Y-87921153D01*
X126899500Y-88078846D01*
X126930261Y-88233489D01*
X126930264Y-88233501D01*
X126990602Y-88379172D01*
X126990609Y-88379185D01*
X127078210Y-88510288D01*
X127078213Y-88510292D01*
X127189707Y-88621786D01*
X127189711Y-88621789D01*
X127320814Y-88709390D01*
X127320827Y-88709397D01*
X127464161Y-88768767D01*
X127466503Y-88769737D01*
X127621153Y-88800499D01*
X127621156Y-88800500D01*
X127621158Y-88800500D01*
X127778844Y-88800500D01*
X127778845Y-88800499D01*
X127933497Y-88769737D01*
X128079179Y-88709394D01*
X128210289Y-88621789D01*
X128321789Y-88510289D01*
X128409394Y-88379179D01*
X128469737Y-88233497D01*
X128500500Y-88078842D01*
X128500500Y-87921158D01*
X128500500Y-87921155D01*
X128500499Y-87921153D01*
X130499500Y-87921153D01*
X130499500Y-88078846D01*
X130530261Y-88233489D01*
X130530264Y-88233501D01*
X130590602Y-88379172D01*
X130590609Y-88379185D01*
X130678210Y-88510288D01*
X130678213Y-88510292D01*
X130789707Y-88621786D01*
X130789711Y-88621789D01*
X130920814Y-88709390D01*
X130920827Y-88709397D01*
X131064161Y-88768767D01*
X131066503Y-88769737D01*
X131221153Y-88800499D01*
X131221156Y-88800500D01*
X131221158Y-88800500D01*
X131378844Y-88800500D01*
X131378845Y-88800499D01*
X131533497Y-88769737D01*
X131679179Y-88709394D01*
X131810289Y-88621789D01*
X131921789Y-88510289D01*
X132009394Y-88379179D01*
X132069737Y-88233497D01*
X132100500Y-88078842D01*
X132100500Y-87921158D01*
X132100500Y-87921155D01*
X132100499Y-87921153D01*
X134099500Y-87921153D01*
X134099500Y-88078846D01*
X134130261Y-88233489D01*
X134130264Y-88233501D01*
X134190602Y-88379172D01*
X134190609Y-88379185D01*
X134278210Y-88510288D01*
X134278213Y-88510292D01*
X134389707Y-88621786D01*
X134389711Y-88621789D01*
X134520814Y-88709390D01*
X134520827Y-88709397D01*
X134664161Y-88768767D01*
X134666503Y-88769737D01*
X134821153Y-88800499D01*
X134821156Y-88800500D01*
X134821158Y-88800500D01*
X134978844Y-88800500D01*
X134978845Y-88800499D01*
X135133497Y-88769737D01*
X135279179Y-88709394D01*
X135410289Y-88621789D01*
X135521789Y-88510289D01*
X135609394Y-88379179D01*
X135669737Y-88233497D01*
X135700500Y-88078842D01*
X135700500Y-87921158D01*
X135700500Y-87921155D01*
X135700499Y-87921153D01*
X135669738Y-87766510D01*
X135669737Y-87766503D01*
X135669735Y-87766498D01*
X135609397Y-87620827D01*
X135609390Y-87620814D01*
X135521789Y-87489711D01*
X135521786Y-87489707D01*
X135410292Y-87378213D01*
X135410288Y-87378210D01*
X135279185Y-87290609D01*
X135279172Y-87290602D01*
X135133501Y-87230264D01*
X135133489Y-87230261D01*
X134978845Y-87199500D01*
X134978842Y-87199500D01*
X134821158Y-87199500D01*
X134821155Y-87199500D01*
X134666510Y-87230261D01*
X134666498Y-87230264D01*
X134520827Y-87290602D01*
X134520814Y-87290609D01*
X134389711Y-87378210D01*
X134389707Y-87378213D01*
X134278213Y-87489707D01*
X134278210Y-87489711D01*
X134190609Y-87620814D01*
X134190602Y-87620827D01*
X134130264Y-87766498D01*
X134130261Y-87766510D01*
X134099500Y-87921153D01*
X132100499Y-87921153D01*
X132069738Y-87766510D01*
X132069737Y-87766503D01*
X132069735Y-87766498D01*
X132009397Y-87620827D01*
X132009390Y-87620814D01*
X131921789Y-87489711D01*
X131921786Y-87489707D01*
X131810292Y-87378213D01*
X131810288Y-87378210D01*
X131679185Y-87290609D01*
X131679172Y-87290602D01*
X131533501Y-87230264D01*
X131533489Y-87230261D01*
X131378845Y-87199500D01*
X131378842Y-87199500D01*
X131221158Y-87199500D01*
X131221155Y-87199500D01*
X131066510Y-87230261D01*
X131066498Y-87230264D01*
X130920827Y-87290602D01*
X130920814Y-87290609D01*
X130789711Y-87378210D01*
X130789707Y-87378213D01*
X130678213Y-87489707D01*
X130678210Y-87489711D01*
X130590609Y-87620814D01*
X130590602Y-87620827D01*
X130530264Y-87766498D01*
X130530261Y-87766510D01*
X130499500Y-87921153D01*
X128500499Y-87921153D01*
X128469738Y-87766510D01*
X128469737Y-87766503D01*
X128469735Y-87766498D01*
X128409397Y-87620827D01*
X128409390Y-87620814D01*
X128321789Y-87489711D01*
X128321786Y-87489707D01*
X128210292Y-87378213D01*
X128210288Y-87378210D01*
X128079185Y-87290609D01*
X128079172Y-87290602D01*
X127933501Y-87230264D01*
X127933489Y-87230261D01*
X127778845Y-87199500D01*
X127778842Y-87199500D01*
X127621158Y-87199500D01*
X127621155Y-87199500D01*
X127466510Y-87230261D01*
X127466498Y-87230264D01*
X127320827Y-87290602D01*
X127320814Y-87290609D01*
X127189711Y-87378210D01*
X127189707Y-87378213D01*
X127078213Y-87489707D01*
X127078210Y-87489711D01*
X126990609Y-87620814D01*
X126990602Y-87620827D01*
X126930264Y-87766498D01*
X126930261Y-87766510D01*
X126899500Y-87921153D01*
X115000000Y-87921153D01*
X115000000Y-87231441D01*
X115019685Y-87164402D01*
X115072489Y-87118647D01*
X115141647Y-87108703D01*
X115205203Y-87137728D01*
X115211681Y-87143760D01*
X115289707Y-87221786D01*
X115289711Y-87221789D01*
X115420814Y-87309390D01*
X115420827Y-87309397D01*
X115566498Y-87369735D01*
X115566503Y-87369737D01*
X115721153Y-87400499D01*
X115721156Y-87400500D01*
X115721158Y-87400500D01*
X115878844Y-87400500D01*
X115878845Y-87400499D01*
X116033497Y-87369737D01*
X116179179Y-87309394D01*
X116310289Y-87221789D01*
X116421789Y-87110289D01*
X116509394Y-86979179D01*
X116569737Y-86833497D01*
X116592083Y-86721158D01*
X116592084Y-86721153D01*
X116899500Y-86721153D01*
X116899500Y-86878846D01*
X116930261Y-87033489D01*
X116930264Y-87033501D01*
X116990602Y-87179172D01*
X116990609Y-87179185D01*
X117078210Y-87310288D01*
X117078213Y-87310292D01*
X117189707Y-87421786D01*
X117189711Y-87421789D01*
X117320814Y-87509390D01*
X117320827Y-87509397D01*
X117466498Y-87569735D01*
X117466503Y-87569737D01*
X117621153Y-87600499D01*
X117621156Y-87600500D01*
X117621158Y-87600500D01*
X117778844Y-87600500D01*
X117778845Y-87600499D01*
X117933497Y-87569737D01*
X118079179Y-87509394D01*
X118210289Y-87421789D01*
X118321789Y-87310289D01*
X118409394Y-87179179D01*
X118469737Y-87033497D01*
X118500500Y-86878842D01*
X118500500Y-86721158D01*
X118500500Y-86721155D01*
X118500499Y-86721153D01*
X118469738Y-86566510D01*
X118469737Y-86566503D01*
X118450955Y-86521158D01*
X118409397Y-86420827D01*
X118409390Y-86420814D01*
X118384763Y-86383957D01*
X118342798Y-86321153D01*
X120899500Y-86321153D01*
X120899500Y-86478846D01*
X120930261Y-86633489D01*
X120930264Y-86633501D01*
X120990602Y-86779172D01*
X120990609Y-86779185D01*
X121078210Y-86910288D01*
X121078213Y-86910292D01*
X121189707Y-87021786D01*
X121189711Y-87021789D01*
X121320814Y-87109390D01*
X121320827Y-87109397D01*
X121403788Y-87143760D01*
X121466503Y-87169737D01*
X121616131Y-87199500D01*
X121621153Y-87200499D01*
X121621156Y-87200500D01*
X121621158Y-87200500D01*
X121778844Y-87200500D01*
X121778845Y-87200499D01*
X121933497Y-87169737D01*
X122079179Y-87109394D01*
X122081110Y-87108103D01*
X122082276Y-87107737D01*
X122084546Y-87106525D01*
X122084776Y-87106955D01*
X122147786Y-87087226D01*
X122215166Y-87105710D01*
X122218850Y-87108077D01*
X122220821Y-87109394D01*
X122220824Y-87109395D01*
X122220827Y-87109397D01*
X122303788Y-87143760D01*
X122366503Y-87169737D01*
X122516131Y-87199500D01*
X122521153Y-87200499D01*
X122521156Y-87200500D01*
X122521158Y-87200500D01*
X122678844Y-87200500D01*
X122678845Y-87200499D01*
X122833497Y-87169737D01*
X122979179Y-87109394D01*
X123110289Y-87021789D01*
X123221789Y-86910289D01*
X123309394Y-86779179D01*
X123369737Y-86633497D01*
X123400500Y-86478842D01*
X123400500Y-86321158D01*
X123400500Y-86321155D01*
X123400499Y-86321153D01*
X123380543Y-86220827D01*
X123369737Y-86166503D01*
X123349371Y-86117335D01*
X123309397Y-86020827D01*
X123309390Y-86020814D01*
X123221789Y-85889711D01*
X123221786Y-85889707D01*
X123110292Y-85778213D01*
X123110288Y-85778210D01*
X122979185Y-85690609D01*
X122979172Y-85690602D01*
X122833501Y-85630264D01*
X122833489Y-85630261D01*
X122678845Y-85599500D01*
X122678842Y-85599500D01*
X122521158Y-85599500D01*
X122521155Y-85599500D01*
X122366510Y-85630261D01*
X122366498Y-85630264D01*
X122220822Y-85690604D01*
X122220820Y-85690605D01*
X122218885Y-85691899D01*
X122217717Y-85692264D01*
X122215451Y-85693476D01*
X122215221Y-85693045D01*
X122152206Y-85712773D01*
X122084827Y-85694285D01*
X122081115Y-85691899D01*
X122079179Y-85690605D01*
X122079177Y-85690604D01*
X121933501Y-85630264D01*
X121933489Y-85630261D01*
X121778845Y-85599500D01*
X121778842Y-85599500D01*
X121621158Y-85599500D01*
X121621155Y-85599500D01*
X121466510Y-85630261D01*
X121466498Y-85630264D01*
X121320827Y-85690602D01*
X121320814Y-85690609D01*
X121189711Y-85778210D01*
X121189707Y-85778213D01*
X121078213Y-85889707D01*
X121078210Y-85889711D01*
X120990609Y-86020814D01*
X120990602Y-86020827D01*
X120930264Y-86166498D01*
X120930261Y-86166510D01*
X120899500Y-86321153D01*
X118342798Y-86321153D01*
X118321789Y-86289711D01*
X118321786Y-86289707D01*
X118210292Y-86178213D01*
X118210288Y-86178210D01*
X118079185Y-86090609D01*
X118079172Y-86090602D01*
X117933501Y-86030264D01*
X117933489Y-86030261D01*
X117778845Y-85999500D01*
X117778842Y-85999500D01*
X117621158Y-85999500D01*
X117621155Y-85999500D01*
X117466510Y-86030261D01*
X117466498Y-86030264D01*
X117320827Y-86090602D01*
X117320814Y-86090609D01*
X117189711Y-86178210D01*
X117189707Y-86178213D01*
X117078213Y-86289707D01*
X117078210Y-86289711D01*
X116990609Y-86420814D01*
X116990602Y-86420827D01*
X116930264Y-86566498D01*
X116930261Y-86566510D01*
X116899500Y-86721153D01*
X116592084Y-86721153D01*
X116598107Y-86690875D01*
X116598107Y-86690874D01*
X116600500Y-86678844D01*
X116600500Y-86521155D01*
X116600499Y-86521153D01*
X116569737Y-86366503D01*
X116569735Y-86366498D01*
X116509397Y-86220827D01*
X116509390Y-86220814D01*
X116421789Y-86089711D01*
X116421786Y-86089707D01*
X116310292Y-85978213D01*
X116310288Y-85978210D01*
X116179185Y-85890609D01*
X116179172Y-85890602D01*
X116033501Y-85830264D01*
X116033489Y-85830261D01*
X115878845Y-85799500D01*
X115878842Y-85799500D01*
X115721158Y-85799500D01*
X115721155Y-85799500D01*
X115566510Y-85830261D01*
X115566498Y-85830264D01*
X115420827Y-85890602D01*
X115420814Y-85890609D01*
X115289711Y-85978210D01*
X115289707Y-85978213D01*
X115211681Y-86056240D01*
X115150358Y-86089725D01*
X115080666Y-86084741D01*
X115024733Y-86042869D01*
X115000316Y-85977405D01*
X115000000Y-85968559D01*
X115000000Y-82602135D01*
X115349500Y-82602135D01*
X115349500Y-84397870D01*
X115349501Y-84397876D01*
X115355908Y-84457483D01*
X115406202Y-84592328D01*
X115406206Y-84592335D01*
X115492452Y-84707544D01*
X115492455Y-84707547D01*
X115607664Y-84793793D01*
X115607671Y-84793797D01*
X115742517Y-84844091D01*
X115742516Y-84844091D01*
X115749444Y-84844835D01*
X115802127Y-84850500D01*
X117597872Y-84850499D01*
X117657483Y-84844091D01*
X117792331Y-84793796D01*
X117907546Y-84707546D01*
X117993796Y-84592331D01*
X118044091Y-84457483D01*
X118050500Y-84397873D01*
X118050499Y-83421153D01*
X119899500Y-83421153D01*
X119899500Y-83578846D01*
X119930261Y-83733489D01*
X119930264Y-83733501D01*
X119990602Y-83879172D01*
X119990609Y-83879185D01*
X120078210Y-84010288D01*
X120078213Y-84010292D01*
X120189707Y-84121786D01*
X120189711Y-84121789D01*
X120320814Y-84209390D01*
X120320827Y-84209397D01*
X120466498Y-84269735D01*
X120466503Y-84269737D01*
X120621153Y-84300499D01*
X120621156Y-84300500D01*
X120621158Y-84300500D01*
X120778844Y-84300500D01*
X120778845Y-84300499D01*
X120933497Y-84269737D01*
X121079179Y-84209394D01*
X121210289Y-84121789D01*
X121321789Y-84010289D01*
X121409394Y-83879179D01*
X121469737Y-83733497D01*
X121500500Y-83578842D01*
X121500500Y-83421158D01*
X121500500Y-83421155D01*
X121500499Y-83421153D01*
X121469738Y-83266510D01*
X121469737Y-83266503D01*
X121414546Y-83133259D01*
X121409397Y-83120827D01*
X121409390Y-83120814D01*
X121321789Y-82989711D01*
X121321786Y-82989707D01*
X121210292Y-82878213D01*
X121210288Y-82878210D01*
X121079185Y-82790609D01*
X121079172Y-82790602D01*
X120933501Y-82730264D01*
X120933489Y-82730261D01*
X120778845Y-82699500D01*
X120778842Y-82699500D01*
X120621158Y-82699500D01*
X120621155Y-82699500D01*
X120466510Y-82730261D01*
X120466498Y-82730264D01*
X120320827Y-82790602D01*
X120320814Y-82790609D01*
X120189711Y-82878210D01*
X120189707Y-82878213D01*
X120078213Y-82989707D01*
X120078210Y-82989711D01*
X119990609Y-83120814D01*
X119990602Y-83120827D01*
X119930264Y-83266498D01*
X119930261Y-83266510D01*
X119899500Y-83421153D01*
X118050499Y-83421153D01*
X118050499Y-82602128D01*
X118044091Y-82542517D01*
X118044091Y-82542516D01*
X117997342Y-82417174D01*
X117993797Y-82407672D01*
X117993797Y-82407671D01*
X117993796Y-82407669D01*
X117993794Y-82407666D01*
X117993793Y-82407664D01*
X117972120Y-82378713D01*
X124319500Y-82378713D01*
X124319500Y-82591286D01*
X124351069Y-82790609D01*
X124352754Y-82801243D01*
X124413991Y-82989711D01*
X124418444Y-83003414D01*
X124514951Y-83192820D01*
X124639890Y-83364786D01*
X124753430Y-83478326D01*
X124786915Y-83539649D01*
X124781931Y-83609341D01*
X124740059Y-83665274D01*
X124709083Y-83682189D01*
X124577669Y-83731203D01*
X124577664Y-83731206D01*
X124462455Y-83817452D01*
X124462452Y-83817455D01*
X124376206Y-83932664D01*
X124376202Y-83932671D01*
X124325908Y-84067517D01*
X124319501Y-84127116D01*
X124319500Y-84127135D01*
X124319500Y-85922870D01*
X124319501Y-85922876D01*
X124325908Y-85982483D01*
X124376202Y-86117328D01*
X124376206Y-86117335D01*
X124462452Y-86232544D01*
X124462455Y-86232547D01*
X124577664Y-86318793D01*
X124577671Y-86318797D01*
X124712517Y-86369091D01*
X124712516Y-86369091D01*
X124719444Y-86369835D01*
X124772127Y-86375500D01*
X126567872Y-86375499D01*
X126627483Y-86369091D01*
X126762331Y-86318796D01*
X126877546Y-86232546D01*
X126963796Y-86117331D01*
X127012810Y-85985916D01*
X127054681Y-85929984D01*
X127120145Y-85905566D01*
X127188418Y-85920417D01*
X127216673Y-85941569D01*
X127330213Y-86055109D01*
X127502179Y-86180048D01*
X127502181Y-86180049D01*
X127502184Y-86180051D01*
X127691588Y-86276557D01*
X127893757Y-86342246D01*
X128103713Y-86375500D01*
X128103714Y-86375500D01*
X128316286Y-86375500D01*
X128316287Y-86375500D01*
X128526243Y-86342246D01*
X128728412Y-86276557D01*
X128917816Y-86180051D01*
X129004138Y-86117335D01*
X129089786Y-86055109D01*
X129089788Y-86055106D01*
X129089792Y-86055104D01*
X129240104Y-85904792D01*
X129240106Y-85904788D01*
X129240109Y-85904786D01*
X129365048Y-85732820D01*
X129365047Y-85732820D01*
X129365051Y-85732816D01*
X129369514Y-85724054D01*
X129417488Y-85673259D01*
X129485308Y-85656463D01*
X129551444Y-85678999D01*
X129590486Y-85724056D01*
X129594951Y-85732820D01*
X129719890Y-85904786D01*
X129870213Y-86055109D01*
X130042179Y-86180048D01*
X130042181Y-86180049D01*
X130042184Y-86180051D01*
X130231588Y-86276557D01*
X130433757Y-86342246D01*
X130643713Y-86375500D01*
X130643714Y-86375500D01*
X130856286Y-86375500D01*
X130856287Y-86375500D01*
X131066243Y-86342246D01*
X131268412Y-86276557D01*
X131457816Y-86180051D01*
X131544138Y-86117335D01*
X131629786Y-86055109D01*
X131629788Y-86055106D01*
X131629792Y-86055104D01*
X131780104Y-85904792D01*
X131780106Y-85904788D01*
X131780109Y-85904786D01*
X131905048Y-85732820D01*
X131905047Y-85732820D01*
X131905051Y-85732816D01*
X131909514Y-85724054D01*
X131957488Y-85673259D01*
X132025308Y-85656463D01*
X132091444Y-85678999D01*
X132130486Y-85724056D01*
X132134951Y-85732820D01*
X132259890Y-85904786D01*
X132410213Y-86055109D01*
X132582179Y-86180048D01*
X132582181Y-86180049D01*
X132582184Y-86180051D01*
X132771588Y-86276557D01*
X132973757Y-86342246D01*
X133183713Y-86375500D01*
X133183714Y-86375500D01*
X133396286Y-86375500D01*
X133396287Y-86375500D01*
X133606243Y-86342246D01*
X133808412Y-86276557D01*
X133997816Y-86180051D01*
X134084138Y-86117335D01*
X134169786Y-86055109D01*
X134169788Y-86055106D01*
X134169792Y-86055104D01*
X134320104Y-85904792D01*
X134320106Y-85904788D01*
X134320109Y-85904786D01*
X134445048Y-85732820D01*
X134445047Y-85732820D01*
X134445051Y-85732816D01*
X134541557Y-85543412D01*
X134607246Y-85341243D01*
X134640500Y-85131287D01*
X134640500Y-84918713D01*
X134607246Y-84708757D01*
X134541557Y-84506588D01*
X134445051Y-84317184D01*
X134445049Y-84317181D01*
X134445048Y-84317179D01*
X134320109Y-84145213D01*
X134169786Y-83994890D01*
X133997820Y-83869951D01*
X133997115Y-83869591D01*
X133989054Y-83865485D01*
X133938259Y-83817512D01*
X133921463Y-83749692D01*
X133943999Y-83683556D01*
X133989054Y-83644515D01*
X133997816Y-83640051D01*
X134087554Y-83574853D01*
X134169786Y-83515109D01*
X134169788Y-83515106D01*
X134169792Y-83515104D01*
X134320104Y-83364792D01*
X134320106Y-83364788D01*
X134320109Y-83364786D01*
X134445048Y-83192820D01*
X134445047Y-83192820D01*
X134445051Y-83192816D01*
X134449514Y-83184054D01*
X134497488Y-83133259D01*
X134565308Y-83116463D01*
X134631444Y-83138999D01*
X134670486Y-83184056D01*
X134674951Y-83192820D01*
X134799890Y-83364786D01*
X134950213Y-83515109D01*
X135122179Y-83640048D01*
X135122181Y-83640049D01*
X135122184Y-83640051D01*
X135311588Y-83736557D01*
X135513757Y-83802246D01*
X135723713Y-83835500D01*
X135723714Y-83835500D01*
X135936286Y-83835500D01*
X135936287Y-83835500D01*
X136146243Y-83802246D01*
X136348412Y-83736557D01*
X136537816Y-83640051D01*
X136627554Y-83574853D01*
X136709786Y-83515109D01*
X136709788Y-83515106D01*
X136709792Y-83515104D01*
X136860104Y-83364792D01*
X136860106Y-83364788D01*
X136860109Y-83364786D01*
X136985048Y-83192820D01*
X136985047Y-83192820D01*
X136985051Y-83192816D01*
X137081557Y-83003412D01*
X137147246Y-82801243D01*
X137180500Y-82591287D01*
X137180500Y-82378713D01*
X137147246Y-82168757D01*
X137081557Y-81966588D01*
X136985051Y-81777184D01*
X136985049Y-81777181D01*
X136985048Y-81777179D01*
X136860109Y-81605213D01*
X136709786Y-81454890D01*
X136537820Y-81329951D01*
X136348414Y-81233444D01*
X136348413Y-81233443D01*
X136348412Y-81233443D01*
X136146243Y-81167754D01*
X136146241Y-81167753D01*
X136146240Y-81167753D01*
X135984957Y-81142208D01*
X135936287Y-81134500D01*
X135723713Y-81134500D01*
X135675042Y-81142208D01*
X135513760Y-81167753D01*
X135311585Y-81233444D01*
X135122179Y-81329951D01*
X134950213Y-81454890D01*
X134799890Y-81605213D01*
X134674949Y-81777182D01*
X134670484Y-81785946D01*
X134622509Y-81836742D01*
X134554688Y-81853536D01*
X134488553Y-81830998D01*
X134449516Y-81785946D01*
X134445050Y-81777182D01*
X134320109Y-81605213D01*
X134169786Y-81454890D01*
X133997820Y-81329951D01*
X133808414Y-81233444D01*
X133808413Y-81233443D01*
X133808412Y-81233443D01*
X133606243Y-81167754D01*
X133606241Y-81167753D01*
X133606240Y-81167753D01*
X133444957Y-81142208D01*
X133396287Y-81134500D01*
X133183713Y-81134500D01*
X133124800Y-81143831D01*
X132968945Y-81168516D01*
X132968711Y-81167042D01*
X132905557Y-81163885D01*
X132848739Y-81123223D01*
X132822924Y-81058297D01*
X132836309Y-80989721D01*
X132877499Y-80943699D01*
X132889734Y-80935523D01*
X132910289Y-80921789D01*
X133021789Y-80810289D01*
X133109394Y-80679179D01*
X133169737Y-80533497D01*
X133200500Y-80378842D01*
X133200500Y-80221158D01*
X133200500Y-80221155D01*
X133200499Y-80221153D01*
X133195868Y-80197870D01*
X133169737Y-80066503D01*
X133142398Y-80000500D01*
X133109397Y-79920827D01*
X133109390Y-79920814D01*
X133021789Y-79789711D01*
X133021786Y-79789707D01*
X132910292Y-79678213D01*
X132910288Y-79678210D01*
X132779185Y-79590609D01*
X132779172Y-79590602D01*
X132633501Y-79530264D01*
X132633489Y-79530261D01*
X132478845Y-79499500D01*
X132478842Y-79499500D01*
X132321158Y-79499500D01*
X132321155Y-79499500D01*
X132166510Y-79530261D01*
X132166498Y-79530264D01*
X132020827Y-79590602D01*
X132020814Y-79590609D01*
X131889711Y-79678210D01*
X131889707Y-79678213D01*
X131778213Y-79789707D01*
X131778210Y-79789711D01*
X131690609Y-79920814D01*
X131690602Y-79920827D01*
X131630264Y-80066498D01*
X131630261Y-80066510D01*
X131599500Y-80221153D01*
X131599500Y-80378846D01*
X131630261Y-80533489D01*
X131630264Y-80533501D01*
X131690602Y-80679172D01*
X131690609Y-80679185D01*
X131778210Y-80810288D01*
X131778213Y-80810292D01*
X131889707Y-80921786D01*
X131889711Y-80921789D01*
X132020814Y-81009390D01*
X132020827Y-81009397D01*
X132138884Y-81058297D01*
X132166503Y-81069737D01*
X132292211Y-81094742D01*
X132321153Y-81100499D01*
X132321156Y-81100500D01*
X132321158Y-81100500D01*
X132478843Y-81100500D01*
X132507790Y-81094742D01*
X132577381Y-81100969D01*
X132632559Y-81143831D01*
X132655804Y-81209721D01*
X132639737Y-81277718D01*
X132589458Y-81326234D01*
X132588282Y-81326841D01*
X132582183Y-81329948D01*
X132410213Y-81454890D01*
X132259890Y-81605213D01*
X132134949Y-81777182D01*
X132130484Y-81785946D01*
X132082509Y-81836742D01*
X132014688Y-81853536D01*
X131948553Y-81830998D01*
X131909516Y-81785946D01*
X131905050Y-81777182D01*
X131780109Y-81605213D01*
X131629786Y-81454890D01*
X131457820Y-81329951D01*
X131268414Y-81233444D01*
X131268413Y-81233443D01*
X131268412Y-81233443D01*
X131066243Y-81167754D01*
X131066241Y-81167753D01*
X131066240Y-81167753D01*
X130904957Y-81142208D01*
X130856287Y-81134500D01*
X130643713Y-81134500D01*
X130595042Y-81142208D01*
X130433760Y-81167753D01*
X130231585Y-81233444D01*
X130042179Y-81329951D01*
X129870213Y-81454890D01*
X129719890Y-81605213D01*
X129594949Y-81777182D01*
X129590484Y-81785946D01*
X129542509Y-81836742D01*
X129474688Y-81853536D01*
X129408553Y-81830998D01*
X129369516Y-81785946D01*
X129365050Y-81777182D01*
X129240109Y-81605213D01*
X129089786Y-81454890D01*
X128917820Y-81329951D01*
X128728414Y-81233444D01*
X128728413Y-81233443D01*
X128728412Y-81233443D01*
X128526243Y-81167754D01*
X128526241Y-81167753D01*
X128526240Y-81167753D01*
X128364957Y-81142208D01*
X128316287Y-81134500D01*
X128103713Y-81134500D01*
X128055042Y-81142208D01*
X127893760Y-81167753D01*
X127691585Y-81233444D01*
X127502179Y-81329951D01*
X127330213Y-81454890D01*
X127179890Y-81605213D01*
X127054949Y-81777182D01*
X127050484Y-81785946D01*
X127002509Y-81836742D01*
X126934688Y-81853536D01*
X126868553Y-81830998D01*
X126829516Y-81785946D01*
X126825050Y-81777182D01*
X126700109Y-81605213D01*
X126549786Y-81454890D01*
X126377820Y-81329951D01*
X126188414Y-81233444D01*
X126188413Y-81233443D01*
X126188412Y-81233443D01*
X125986243Y-81167754D01*
X125986241Y-81167753D01*
X125986240Y-81167753D01*
X125824957Y-81142208D01*
X125776287Y-81134500D01*
X125563713Y-81134500D01*
X125515042Y-81142208D01*
X125353760Y-81167753D01*
X125151585Y-81233444D01*
X124962179Y-81329951D01*
X124790213Y-81454890D01*
X124639890Y-81605213D01*
X124514951Y-81777179D01*
X124418444Y-81966585D01*
X124352753Y-82168760D01*
X124319500Y-82378713D01*
X117972120Y-82378713D01*
X117907547Y-82292455D01*
X117907544Y-82292452D01*
X117792335Y-82206206D01*
X117792328Y-82206202D01*
X117657482Y-82155908D01*
X117657483Y-82155908D01*
X117597883Y-82149501D01*
X117597881Y-82149500D01*
X117597873Y-82149500D01*
X117597864Y-82149500D01*
X115802129Y-82149500D01*
X115802123Y-82149501D01*
X115742516Y-82155908D01*
X115607671Y-82206202D01*
X115607664Y-82206206D01*
X115492455Y-82292452D01*
X115492452Y-82292455D01*
X115406206Y-82407664D01*
X115406202Y-82407671D01*
X115355908Y-82542517D01*
X115350665Y-82591287D01*
X115349501Y-82602123D01*
X115349500Y-82602135D01*
X115000000Y-82602135D01*
X115000000Y-81221153D01*
X119799500Y-81221153D01*
X119799500Y-81378846D01*
X119830261Y-81533489D01*
X119830264Y-81533501D01*
X119890602Y-81679172D01*
X119890609Y-81679185D01*
X119978210Y-81810288D01*
X119978213Y-81810292D01*
X120089707Y-81921786D01*
X120089711Y-81921789D01*
X120220814Y-82009390D01*
X120220827Y-82009397D01*
X120366498Y-82069735D01*
X120366503Y-82069737D01*
X120521153Y-82100499D01*
X120521156Y-82100500D01*
X120521158Y-82100500D01*
X120678844Y-82100500D01*
X120678845Y-82100499D01*
X120833497Y-82069737D01*
X120979179Y-82009394D01*
X121110289Y-81921789D01*
X121221789Y-81810289D01*
X121309394Y-81679179D01*
X121369737Y-81533497D01*
X121400500Y-81378842D01*
X121400500Y-81221158D01*
X121400500Y-81221155D01*
X121400499Y-81221153D01*
X121389877Y-81167753D01*
X121369737Y-81066503D01*
X121337933Y-80989721D01*
X121309397Y-80920827D01*
X121309390Y-80920814D01*
X121221789Y-80789711D01*
X121221786Y-80789707D01*
X121110292Y-80678213D01*
X121110288Y-80678210D01*
X120979185Y-80590609D01*
X120979172Y-80590602D01*
X120833501Y-80530264D01*
X120833489Y-80530261D01*
X120678845Y-80499500D01*
X120678842Y-80499500D01*
X120521158Y-80499500D01*
X120521155Y-80499500D01*
X120366510Y-80530261D01*
X120366498Y-80530264D01*
X120220827Y-80590602D01*
X120220814Y-80590609D01*
X120089711Y-80678210D01*
X120089707Y-80678213D01*
X119978213Y-80789707D01*
X119978210Y-80789711D01*
X119890609Y-80920814D01*
X119890602Y-80920827D01*
X119830264Y-81066498D01*
X119830261Y-81066510D01*
X119799500Y-81221153D01*
X115000000Y-81221153D01*
X115000000Y-78402135D01*
X115349500Y-78402135D01*
X115349500Y-80197870D01*
X115349501Y-80197876D01*
X115355908Y-80257483D01*
X115406202Y-80392328D01*
X115406206Y-80392335D01*
X115492452Y-80507544D01*
X115492455Y-80507547D01*
X115607664Y-80593793D01*
X115607671Y-80593797D01*
X115742517Y-80644091D01*
X115742516Y-80644091D01*
X115749444Y-80644835D01*
X115802127Y-80650500D01*
X117597872Y-80650499D01*
X117657483Y-80644091D01*
X117792331Y-80593796D01*
X117907546Y-80507546D01*
X117993796Y-80392331D01*
X118044091Y-80257483D01*
X118050500Y-80197873D01*
X118050499Y-79221153D01*
X119799500Y-79221153D01*
X119799500Y-79378846D01*
X119830261Y-79533489D01*
X119830264Y-79533501D01*
X119890602Y-79679172D01*
X119890609Y-79679185D01*
X119978210Y-79810288D01*
X119978213Y-79810292D01*
X120089707Y-79921786D01*
X120089711Y-79921789D01*
X120220814Y-80009390D01*
X120220827Y-80009397D01*
X120358683Y-80066498D01*
X120366503Y-80069737D01*
X120521153Y-80100499D01*
X120521156Y-80100500D01*
X120521158Y-80100500D01*
X120678844Y-80100500D01*
X120678845Y-80100499D01*
X120833497Y-80069737D01*
X120979179Y-80009394D01*
X121110289Y-79921789D01*
X121221789Y-79810289D01*
X121309394Y-79679179D01*
X121369737Y-79533497D01*
X121400500Y-79378842D01*
X121400500Y-79221158D01*
X121400500Y-79221155D01*
X121384209Y-79139258D01*
X121384209Y-79139257D01*
X121380608Y-79121153D01*
X123199500Y-79121153D01*
X123199500Y-79278846D01*
X123230261Y-79433489D01*
X123230264Y-79433501D01*
X123290602Y-79579172D01*
X123290609Y-79579185D01*
X123378210Y-79710288D01*
X123378213Y-79710292D01*
X123489707Y-79821786D01*
X123489711Y-79821789D01*
X123620814Y-79909390D01*
X123620827Y-79909397D01*
X123766498Y-79969735D01*
X123766503Y-79969737D01*
X123921153Y-80000499D01*
X123921156Y-80000500D01*
X123921158Y-80000500D01*
X124078844Y-80000500D01*
X124078845Y-80000499D01*
X124233497Y-79969737D01*
X124351592Y-79920821D01*
X124379172Y-79909397D01*
X124379172Y-79909396D01*
X124379179Y-79909394D01*
X124510289Y-79821789D01*
X124621789Y-79710289D01*
X124709394Y-79579179D01*
X124769737Y-79433497D01*
X124800500Y-79278842D01*
X124800500Y-79121158D01*
X124800500Y-79121155D01*
X124800499Y-79121153D01*
X124769738Y-78966510D01*
X124769737Y-78966503D01*
X124750812Y-78920814D01*
X124709397Y-78820827D01*
X124709390Y-78820814D01*
X124621789Y-78689711D01*
X124621786Y-78689707D01*
X124510292Y-78578213D01*
X124510288Y-78578210D01*
X124379185Y-78490609D01*
X124379172Y-78490602D01*
X124233501Y-78430264D01*
X124233489Y-78430261D01*
X124078845Y-78399500D01*
X124078842Y-78399500D01*
X123921158Y-78399500D01*
X123921155Y-78399500D01*
X123766510Y-78430261D01*
X123766498Y-78430264D01*
X123620827Y-78490602D01*
X123620814Y-78490609D01*
X123489711Y-78578210D01*
X123489707Y-78578213D01*
X123378213Y-78689707D01*
X123378210Y-78689711D01*
X123290609Y-78820814D01*
X123290602Y-78820827D01*
X123230264Y-78966498D01*
X123230261Y-78966510D01*
X123199500Y-79121153D01*
X121380608Y-79121153D01*
X121369738Y-79066510D01*
X121369737Y-79066503D01*
X121328314Y-78966498D01*
X121309397Y-78920827D01*
X121309390Y-78920814D01*
X121221789Y-78789711D01*
X121221786Y-78789707D01*
X121110292Y-78678213D01*
X121110288Y-78678210D01*
X120979185Y-78590609D01*
X120979172Y-78590602D01*
X120833501Y-78530264D01*
X120833489Y-78530261D01*
X120678845Y-78499500D01*
X120678842Y-78499500D01*
X120521158Y-78499500D01*
X120521155Y-78499500D01*
X120366510Y-78530261D01*
X120366498Y-78530264D01*
X120220827Y-78590602D01*
X120220814Y-78590609D01*
X120089711Y-78678210D01*
X120089707Y-78678213D01*
X119978213Y-78789707D01*
X119978210Y-78789711D01*
X119890609Y-78920814D01*
X119890602Y-78920827D01*
X119830264Y-79066498D01*
X119830261Y-79066510D01*
X119799500Y-79221153D01*
X118050499Y-79221153D01*
X118050499Y-78402128D01*
X118044091Y-78342517D01*
X117993796Y-78207669D01*
X117993795Y-78207668D01*
X117993793Y-78207664D01*
X117907547Y-78092455D01*
X117907544Y-78092452D01*
X117792335Y-78006206D01*
X117792328Y-78006202D01*
X117657482Y-77955908D01*
X117657483Y-77955908D01*
X117597883Y-77949501D01*
X117597881Y-77949500D01*
X117597873Y-77949500D01*
X117597864Y-77949500D01*
X115802129Y-77949500D01*
X115802123Y-77949501D01*
X115742516Y-77955908D01*
X115607671Y-78006202D01*
X115607664Y-78006206D01*
X115492455Y-78092452D01*
X115492452Y-78092455D01*
X115406206Y-78207664D01*
X115406202Y-78207671D01*
X115355908Y-78342517D01*
X115349782Y-78399500D01*
X115349501Y-78402123D01*
X115349500Y-78402135D01*
X115000000Y-78402135D01*
X115000000Y-75521153D01*
X116899500Y-75521153D01*
X116899500Y-75678846D01*
X116930261Y-75833489D01*
X116930264Y-75833501D01*
X116990602Y-75979172D01*
X116990609Y-75979185D01*
X117078210Y-76110288D01*
X117078213Y-76110292D01*
X117189707Y-76221786D01*
X117189711Y-76221789D01*
X117320814Y-76309390D01*
X117320827Y-76309397D01*
X117466498Y-76369735D01*
X117466503Y-76369737D01*
X117621153Y-76400499D01*
X117621156Y-76400500D01*
X117621158Y-76400500D01*
X117778844Y-76400500D01*
X117778845Y-76400499D01*
X117933497Y-76369737D01*
X118079179Y-76309394D01*
X118210289Y-76221789D01*
X118321789Y-76110289D01*
X118409394Y-75979179D01*
X118469737Y-75833497D01*
X118500500Y-75678842D01*
X118500500Y-75521158D01*
X118500500Y-75521155D01*
X118500499Y-75521153D01*
X118493631Y-75486624D01*
X118469737Y-75366503D01*
X118450955Y-75321158D01*
X118409397Y-75220827D01*
X118409390Y-75220814D01*
X118321789Y-75089711D01*
X118321786Y-75089707D01*
X118210292Y-74978213D01*
X118210288Y-74978210D01*
X118120429Y-74918168D01*
X118079185Y-74890609D01*
X118079172Y-74890602D01*
X117933501Y-74830264D01*
X117933489Y-74830261D01*
X117887701Y-74821153D01*
X119899500Y-74821153D01*
X119899500Y-74978846D01*
X119930261Y-75133489D01*
X119930264Y-75133501D01*
X119990602Y-75279172D01*
X119990609Y-75279185D01*
X120078210Y-75410288D01*
X120078213Y-75410292D01*
X120189707Y-75521786D01*
X120189711Y-75521789D01*
X120320814Y-75609390D01*
X120320827Y-75609397D01*
X120466498Y-75669735D01*
X120466503Y-75669737D01*
X120621153Y-75700499D01*
X120621156Y-75700500D01*
X120621158Y-75700500D01*
X120778844Y-75700500D01*
X120778845Y-75700499D01*
X120933497Y-75669737D01*
X121079179Y-75609394D01*
X121210289Y-75521789D01*
X121321789Y-75410289D01*
X121409394Y-75279179D01*
X121469737Y-75133497D01*
X121500500Y-74978842D01*
X121500500Y-74821158D01*
X121500500Y-74821155D01*
X121500499Y-74821153D01*
X121496192Y-74799500D01*
X121469737Y-74666503D01*
X121450955Y-74621158D01*
X121409397Y-74520827D01*
X121409390Y-74520814D01*
X121321789Y-74389711D01*
X121321786Y-74389707D01*
X121210292Y-74278213D01*
X121210288Y-74278210D01*
X121079185Y-74190609D01*
X121079172Y-74190602D01*
X120933501Y-74130264D01*
X120933489Y-74130261D01*
X120778845Y-74099500D01*
X120778842Y-74099500D01*
X120621158Y-74099500D01*
X120621155Y-74099500D01*
X120466510Y-74130261D01*
X120466498Y-74130264D01*
X120320827Y-74190602D01*
X120320814Y-74190609D01*
X120189711Y-74278210D01*
X120189707Y-74278213D01*
X120078213Y-74389707D01*
X120078210Y-74389711D01*
X119990609Y-74520814D01*
X119990602Y-74520827D01*
X119930264Y-74666498D01*
X119930261Y-74666510D01*
X119899500Y-74821153D01*
X117887701Y-74821153D01*
X117778845Y-74799500D01*
X117778842Y-74799500D01*
X117621158Y-74799500D01*
X117621155Y-74799500D01*
X117466510Y-74830261D01*
X117466498Y-74830264D01*
X117320827Y-74890602D01*
X117320814Y-74890609D01*
X117189711Y-74978210D01*
X117189707Y-74978213D01*
X117078213Y-75089707D01*
X117078210Y-75089711D01*
X116990609Y-75220814D01*
X116990602Y-75220827D01*
X116930264Y-75366498D01*
X116930261Y-75366510D01*
X116899500Y-75521153D01*
X115000000Y-75521153D01*
X115000000Y-73921153D01*
X125599500Y-73921153D01*
X125599500Y-74078846D01*
X125630260Y-74233488D01*
X125630262Y-74233493D01*
X125630263Y-74233497D01*
X125648784Y-74278211D01*
X125658865Y-74302549D01*
X125666333Y-74372018D01*
X125658865Y-74397447D01*
X125630263Y-74466503D01*
X125630262Y-74466506D01*
X125630260Y-74466511D01*
X125599500Y-74621153D01*
X125599500Y-74778846D01*
X125630260Y-74933488D01*
X125630262Y-74933493D01*
X125630263Y-74933497D01*
X125649046Y-74978844D01*
X125658865Y-75002549D01*
X125666333Y-75072018D01*
X125658865Y-75097447D01*
X125630263Y-75166503D01*
X125630262Y-75166506D01*
X125630260Y-75166511D01*
X125599500Y-75321153D01*
X125599500Y-75478846D01*
X125630260Y-75633488D01*
X125630262Y-75633493D01*
X125630263Y-75633497D01*
X125658016Y-75700500D01*
X125658865Y-75702549D01*
X125666333Y-75772018D01*
X125658865Y-75797447D01*
X125630263Y-75866503D01*
X125630262Y-75866506D01*
X125630260Y-75866511D01*
X125599500Y-76021153D01*
X125599500Y-76178846D01*
X125630261Y-76333489D01*
X125630264Y-76333501D01*
X125690602Y-76479172D01*
X125690609Y-76479185D01*
X125778210Y-76610288D01*
X125778213Y-76610292D01*
X125889707Y-76721786D01*
X125889711Y-76721789D01*
X126020814Y-76809390D01*
X126020827Y-76809397D01*
X126166498Y-76869735D01*
X126166503Y-76869737D01*
X126321153Y-76900499D01*
X126321156Y-76900500D01*
X126321158Y-76900500D01*
X126478844Y-76900500D01*
X126478845Y-76900499D01*
X126633497Y-76869737D01*
X126779179Y-76809394D01*
X126910289Y-76721789D01*
X127021789Y-76610289D01*
X127109394Y-76479179D01*
X127169737Y-76333497D01*
X127200500Y-76178842D01*
X127200500Y-76021158D01*
X127200500Y-76021155D01*
X127200499Y-76021153D01*
X127172192Y-75878846D01*
X127169737Y-75866503D01*
X127141134Y-75797450D01*
X127138663Y-75774468D01*
X127131720Y-75752421D01*
X127134633Y-75736985D01*
X127133666Y-75727984D01*
X127136059Y-75717395D01*
X127138124Y-75709817D01*
X127169737Y-75633497D01*
X127192083Y-75521153D01*
X128399500Y-75521153D01*
X128399500Y-75678846D01*
X128430261Y-75833489D01*
X128430264Y-75833501D01*
X128490602Y-75979172D01*
X128490609Y-75979185D01*
X128578210Y-76110288D01*
X128578213Y-76110292D01*
X128689707Y-76221786D01*
X128689711Y-76221789D01*
X128820814Y-76309390D01*
X128820827Y-76309397D01*
X128966498Y-76369735D01*
X128966503Y-76369737D01*
X129121153Y-76400499D01*
X129121156Y-76400500D01*
X129121158Y-76400500D01*
X129278844Y-76400500D01*
X129278845Y-76400499D01*
X129433497Y-76369737D01*
X129579179Y-76309394D01*
X129710289Y-76221789D01*
X129821789Y-76110289D01*
X129909394Y-75979179D01*
X129969737Y-75833497D01*
X130000500Y-75678842D01*
X130000500Y-75521158D01*
X130000500Y-75521155D01*
X130000499Y-75521153D01*
X129993631Y-75486624D01*
X129969737Y-75366503D01*
X129950955Y-75321158D01*
X129909397Y-75220827D01*
X129909392Y-75220818D01*
X129898523Y-75204552D01*
X129877644Y-75137875D01*
X129882231Y-75121153D01*
X133999500Y-75121153D01*
X133999500Y-75278846D01*
X134030260Y-75433488D01*
X134030262Y-75433493D01*
X134030263Y-75433497D01*
X134038155Y-75452550D01*
X134045623Y-75522018D01*
X134038156Y-75547446D01*
X134030263Y-75566503D01*
X134030262Y-75566506D01*
X134030260Y-75566511D01*
X133999500Y-75721153D01*
X133999500Y-75878846D01*
X134030261Y-76033489D01*
X134030264Y-76033501D01*
X134090602Y-76179172D01*
X134090609Y-76179185D01*
X134178210Y-76310288D01*
X134178213Y-76310292D01*
X134289707Y-76421786D01*
X134289711Y-76421789D01*
X134420814Y-76509390D01*
X134420827Y-76509397D01*
X134566498Y-76569735D01*
X134566503Y-76569737D01*
X134721153Y-76600499D01*
X134721156Y-76600500D01*
X134721158Y-76600500D01*
X134878844Y-76600500D01*
X134878845Y-76600499D01*
X135033497Y-76569737D01*
X135179179Y-76509394D01*
X135310289Y-76421789D01*
X135421789Y-76310289D01*
X135509394Y-76179179D01*
X135569737Y-76033497D01*
X135600500Y-75878842D01*
X135600500Y-75721158D01*
X135600500Y-75721155D01*
X135600499Y-75721153D01*
X135596391Y-75700499D01*
X135569737Y-75566503D01*
X135561845Y-75547452D01*
X135554377Y-75477984D01*
X135561846Y-75452547D01*
X135569737Y-75433497D01*
X135600500Y-75278842D01*
X135600500Y-75121158D01*
X135600500Y-75121155D01*
X135600499Y-75121153D01*
X135581135Y-75023803D01*
X135569737Y-74966503D01*
X135536961Y-74887373D01*
X135509397Y-74820827D01*
X135509390Y-74820814D01*
X135421789Y-74689711D01*
X135421786Y-74689707D01*
X135310292Y-74578213D01*
X135310288Y-74578210D01*
X135179185Y-74490609D01*
X135179172Y-74490602D01*
X135033501Y-74430264D01*
X135033489Y-74430261D01*
X134878845Y-74399500D01*
X134878842Y-74399500D01*
X134721158Y-74399500D01*
X134721155Y-74399500D01*
X134566510Y-74430261D01*
X134566498Y-74430264D01*
X134420827Y-74490602D01*
X134420814Y-74490609D01*
X134289711Y-74578210D01*
X134289707Y-74578213D01*
X134178213Y-74689707D01*
X134178210Y-74689711D01*
X134090609Y-74820814D01*
X134090602Y-74820827D01*
X134030264Y-74966498D01*
X134030261Y-74966510D01*
X133999500Y-75121153D01*
X129882231Y-75121153D01*
X129896127Y-75070495D01*
X129948105Y-75023803D01*
X130017075Y-75012625D01*
X130049076Y-75021098D01*
X130118853Y-75050000D01*
X130166503Y-75069737D01*
X130305830Y-75097451D01*
X130321153Y-75100499D01*
X130321156Y-75100500D01*
X130321158Y-75100500D01*
X130478844Y-75100500D01*
X130478845Y-75100499D01*
X130633497Y-75069737D01*
X130779179Y-75009394D01*
X130910289Y-74921789D01*
X131021789Y-74810289D01*
X131109394Y-74679179D01*
X131169737Y-74533497D01*
X131200500Y-74378842D01*
X131200500Y-74221158D01*
X131200500Y-74221155D01*
X131200499Y-74221153D01*
X131182419Y-74130261D01*
X131169737Y-74066503D01*
X131109534Y-73921158D01*
X131109397Y-73920827D01*
X131109390Y-73920814D01*
X131021789Y-73789711D01*
X131021786Y-73789707D01*
X130910292Y-73678213D01*
X130910288Y-73678210D01*
X130779185Y-73590609D01*
X130779172Y-73590602D01*
X130633501Y-73530264D01*
X130633489Y-73530261D01*
X130478845Y-73499500D01*
X130478842Y-73499500D01*
X130321158Y-73499500D01*
X130321155Y-73499500D01*
X130166510Y-73530261D01*
X130166498Y-73530264D01*
X130020827Y-73590602D01*
X130020814Y-73590609D01*
X129889711Y-73678210D01*
X129889707Y-73678213D01*
X129778213Y-73789707D01*
X129778210Y-73789711D01*
X129690609Y-73920814D01*
X129690602Y-73920827D01*
X129630264Y-74066498D01*
X129630261Y-74066510D01*
X129599500Y-74221153D01*
X129599500Y-74378846D01*
X129630261Y-74533489D01*
X129630264Y-74533501D01*
X129690602Y-74679172D01*
X129690610Y-74679187D01*
X129701476Y-74695448D01*
X129722355Y-74762125D01*
X129703871Y-74829505D01*
X129651893Y-74876196D01*
X129582923Y-74887373D01*
X129550923Y-74878901D01*
X129433501Y-74830264D01*
X129433489Y-74830261D01*
X129278845Y-74799500D01*
X129278842Y-74799500D01*
X129121158Y-74799500D01*
X129121155Y-74799500D01*
X128966510Y-74830261D01*
X128966498Y-74830264D01*
X128820827Y-74890602D01*
X128820814Y-74890609D01*
X128689711Y-74978210D01*
X128689707Y-74978213D01*
X128578213Y-75089707D01*
X128578210Y-75089711D01*
X128490609Y-75220814D01*
X128490602Y-75220827D01*
X128430264Y-75366498D01*
X128430261Y-75366510D01*
X128399500Y-75521153D01*
X127192083Y-75521153D01*
X127199135Y-75485701D01*
X127200500Y-75478844D01*
X127200500Y-75321155D01*
X127200499Y-75321153D01*
X127192148Y-75279172D01*
X127169737Y-75166503D01*
X127141134Y-75097450D01*
X127133666Y-75027984D01*
X127141133Y-75002552D01*
X127169737Y-74933497D01*
X127200500Y-74778842D01*
X127200500Y-74621158D01*
X127200500Y-74621155D01*
X127200499Y-74621153D01*
X127180543Y-74520827D01*
X127169737Y-74466503D01*
X127141134Y-74397450D01*
X127133666Y-74327984D01*
X127141133Y-74302552D01*
X127169737Y-74233497D01*
X127200500Y-74078842D01*
X127200500Y-73921158D01*
X127200500Y-73921155D01*
X127200499Y-73921153D01*
X127174353Y-73789711D01*
X127169737Y-73766503D01*
X127169735Y-73766498D01*
X127109397Y-73620827D01*
X127109390Y-73620814D01*
X127021789Y-73489711D01*
X127021786Y-73489707D01*
X126910292Y-73378213D01*
X126910288Y-73378210D01*
X126779185Y-73290609D01*
X126779172Y-73290602D01*
X126633501Y-73230264D01*
X126633489Y-73230261D01*
X126478845Y-73199500D01*
X126478842Y-73199500D01*
X126321158Y-73199500D01*
X126321155Y-73199500D01*
X126166510Y-73230261D01*
X126166498Y-73230264D01*
X126020827Y-73290602D01*
X126020814Y-73290609D01*
X125889711Y-73378210D01*
X125889707Y-73378213D01*
X125778213Y-73489707D01*
X125778210Y-73489711D01*
X125690609Y-73620814D01*
X125690602Y-73620827D01*
X125630264Y-73766498D01*
X125630261Y-73766510D01*
X125599500Y-73921153D01*
X115000000Y-73921153D01*
X115000000Y-72431441D01*
X115019685Y-72364402D01*
X115072489Y-72318647D01*
X115141647Y-72308703D01*
X115205203Y-72337728D01*
X115211681Y-72343760D01*
X115289707Y-72421786D01*
X115289711Y-72421789D01*
X115420814Y-72509390D01*
X115420827Y-72509397D01*
X115566498Y-72569735D01*
X115566503Y-72569737D01*
X115721153Y-72600499D01*
X115721156Y-72600500D01*
X115721158Y-72600500D01*
X115878844Y-72600500D01*
X115878845Y-72600499D01*
X116033497Y-72569737D01*
X116179179Y-72509394D01*
X116310289Y-72421789D01*
X116314849Y-72417228D01*
X116376166Y-72383738D01*
X116445858Y-72388714D01*
X116501797Y-72430579D01*
X116505639Y-72436009D01*
X116514139Y-72448729D01*
X116514144Y-72448736D01*
X116601263Y-72535855D01*
X116601267Y-72535858D01*
X116703707Y-72604307D01*
X116703713Y-72604310D01*
X116703714Y-72604311D01*
X116817548Y-72651463D01*
X116925348Y-72672905D01*
X116938389Y-72675499D01*
X116938393Y-72675500D01*
X116938394Y-72675500D01*
X117061607Y-72675500D01*
X117061608Y-72675499D01*
X117182452Y-72651463D01*
X117296286Y-72604311D01*
X117398733Y-72535858D01*
X117485858Y-72448733D01*
X117554311Y-72346286D01*
X117601463Y-72232452D01*
X117625500Y-72111606D01*
X117625500Y-71988394D01*
X117601463Y-71867548D01*
X117554311Y-71753714D01*
X117551679Y-71749776D01*
X117551678Y-71749772D01*
X117485858Y-71651267D01*
X117485855Y-71651263D01*
X117398736Y-71564144D01*
X117398732Y-71564141D01*
X117296292Y-71495692D01*
X117296283Y-71495687D01*
X117182454Y-71448538D01*
X117182455Y-71448538D01*
X117182452Y-71448537D01*
X117182448Y-71448536D01*
X117182444Y-71448535D01*
X117061610Y-71424500D01*
X117061606Y-71424500D01*
X116938394Y-71424500D01*
X116938389Y-71424500D01*
X116817555Y-71448535D01*
X116817545Y-71448538D01*
X116703716Y-71495687D01*
X116703705Y-71495693D01*
X116701422Y-71497219D01*
X116700045Y-71497649D01*
X116698339Y-71498562D01*
X116698165Y-71498238D01*
X116634742Y-71518088D01*
X116567364Y-71499594D01*
X116520681Y-71447608D01*
X116517983Y-71441558D01*
X116509394Y-71420821D01*
X116509390Y-71420814D01*
X116421789Y-71289711D01*
X116421786Y-71289707D01*
X116353232Y-71221153D01*
X117699500Y-71221153D01*
X117699500Y-71378846D01*
X117730261Y-71533489D01*
X117730264Y-71533501D01*
X117774984Y-71641466D01*
X117775000Y-71641502D01*
X117790606Y-71679179D01*
X117793235Y-71683113D01*
X117793237Y-71683118D01*
X117878210Y-71810288D01*
X117878213Y-71810292D01*
X117989707Y-71921786D01*
X117989711Y-71921789D01*
X118120814Y-72009390D01*
X118120827Y-72009397D01*
X118243536Y-72060224D01*
X118266503Y-72069737D01*
X118421153Y-72100499D01*
X118421156Y-72100500D01*
X118421158Y-72100500D01*
X118578844Y-72100500D01*
X118578845Y-72100499D01*
X118733497Y-72069737D01*
X118879179Y-72009394D01*
X119010289Y-71921789D01*
X119121789Y-71810289D01*
X119209394Y-71679179D01*
X119269737Y-71533497D01*
X119286637Y-71448535D01*
X119292084Y-71421153D01*
X126999500Y-71421153D01*
X126999500Y-71578846D01*
X127030261Y-71733489D01*
X127030264Y-71733501D01*
X127090602Y-71879172D01*
X127090609Y-71879184D01*
X127124558Y-71929992D01*
X127145436Y-71996669D01*
X127136018Y-72046334D01*
X127130263Y-72060228D01*
X127130261Y-72060231D01*
X127099500Y-72214879D01*
X127099500Y-72372572D01*
X127130261Y-72527215D01*
X127130264Y-72527227D01*
X127190602Y-72672898D01*
X127190609Y-72672911D01*
X127278210Y-72804014D01*
X127278213Y-72804018D01*
X127389707Y-72915512D01*
X127389711Y-72915515D01*
X127520814Y-73003116D01*
X127520827Y-73003123D01*
X127666498Y-73063461D01*
X127666503Y-73063463D01*
X127821153Y-73094225D01*
X127821156Y-73094226D01*
X127821158Y-73094226D01*
X127978844Y-73094226D01*
X127978845Y-73094225D01*
X128133497Y-73063463D01*
X128279179Y-73003120D01*
X128410289Y-72915515D01*
X128521789Y-72804015D01*
X128609394Y-72672905D01*
X128618276Y-72651463D01*
X128666160Y-72535858D01*
X128669737Y-72527223D01*
X128700500Y-72372568D01*
X128700500Y-72214884D01*
X128700500Y-72214881D01*
X128700499Y-72214879D01*
X128679957Y-72111607D01*
X128669737Y-72060229D01*
X128639980Y-71988389D01*
X128609397Y-71914553D01*
X128609393Y-71914546D01*
X128585765Y-71879184D01*
X128575440Y-71863732D01*
X128554563Y-71797057D01*
X128557711Y-71766993D01*
X128560029Y-71756931D01*
X128569737Y-71733497D01*
X128596875Y-71597061D01*
X128597295Y-71595243D01*
X128613537Y-71566349D01*
X128628895Y-71536990D01*
X128630581Y-71536029D01*
X128631533Y-71534337D01*
X128660821Y-71518809D01*
X128689610Y-71502416D01*
X128691547Y-71502519D01*
X128693264Y-71501610D01*
X128726293Y-71504381D01*
X128759380Y-71506155D01*
X128761788Y-71507360D01*
X128762889Y-71507453D01*
X128764603Y-71508769D01*
X128787018Y-71519990D01*
X128920814Y-71609390D01*
X128920827Y-71609397D01*
X128998250Y-71641466D01*
X129066503Y-71669737D01*
X129221153Y-71700499D01*
X129221156Y-71700500D01*
X129221158Y-71700500D01*
X129378844Y-71700500D01*
X129378845Y-71700499D01*
X129533497Y-71669737D01*
X129679179Y-71609394D01*
X129810289Y-71521789D01*
X129921789Y-71410289D01*
X130009394Y-71279179D01*
X130069737Y-71133497D01*
X130100500Y-70978842D01*
X130100500Y-70821158D01*
X130100500Y-70821155D01*
X130100499Y-70821153D01*
X130086094Y-70748736D01*
X130069737Y-70666503D01*
X130069735Y-70666498D01*
X130009397Y-70520827D01*
X130009390Y-70520814D01*
X129921789Y-70389711D01*
X129921786Y-70389707D01*
X129810292Y-70278213D01*
X129810288Y-70278210D01*
X129679185Y-70190609D01*
X129679172Y-70190602D01*
X129533501Y-70130264D01*
X129533489Y-70130261D01*
X129378845Y-70099500D01*
X129378842Y-70099500D01*
X129221158Y-70099500D01*
X129221155Y-70099500D01*
X129066510Y-70130261D01*
X129066498Y-70130264D01*
X128920827Y-70190602D01*
X128920814Y-70190609D01*
X128789711Y-70278210D01*
X128789707Y-70278213D01*
X128678213Y-70389707D01*
X128678210Y-70389711D01*
X128590609Y-70520814D01*
X128590602Y-70520827D01*
X128530264Y-70666498D01*
X128530261Y-70666508D01*
X128503489Y-70801099D01*
X128471104Y-70863010D01*
X128410388Y-70897584D01*
X128340618Y-70893843D01*
X128312981Y-70880009D01*
X128179185Y-70790609D01*
X128179172Y-70790602D01*
X128033501Y-70730264D01*
X128033489Y-70730261D01*
X127878845Y-70699500D01*
X127878842Y-70699500D01*
X127721158Y-70699500D01*
X127721155Y-70699500D01*
X127566510Y-70730261D01*
X127566498Y-70730264D01*
X127420827Y-70790602D01*
X127420814Y-70790609D01*
X127289711Y-70878210D01*
X127289707Y-70878213D01*
X127178213Y-70989707D01*
X127178210Y-70989711D01*
X127090609Y-71120814D01*
X127090602Y-71120827D01*
X127030264Y-71266498D01*
X127030261Y-71266510D01*
X126999500Y-71421153D01*
X119292084Y-71421153D01*
X119298107Y-71390875D01*
X119298107Y-71390874D01*
X119300500Y-71378844D01*
X119300500Y-71221155D01*
X119300499Y-71221153D01*
X119280543Y-71120827D01*
X119269737Y-71066503D01*
X119269735Y-71066498D01*
X119209397Y-70920827D01*
X119209390Y-70920814D01*
X119121789Y-70789711D01*
X119121786Y-70789707D01*
X119010292Y-70678213D01*
X119010288Y-70678210D01*
X118879185Y-70590609D01*
X118879172Y-70590602D01*
X118733501Y-70530264D01*
X118733489Y-70530261D01*
X118578845Y-70499500D01*
X118578842Y-70499500D01*
X118421158Y-70499500D01*
X118421155Y-70499500D01*
X118266510Y-70530261D01*
X118266498Y-70530264D01*
X118120827Y-70590602D01*
X118120814Y-70590609D01*
X117989711Y-70678210D01*
X117989707Y-70678213D01*
X117878213Y-70789707D01*
X117878210Y-70789711D01*
X117790609Y-70920814D01*
X117790602Y-70920827D01*
X117730264Y-71066498D01*
X117730261Y-71066510D01*
X117699500Y-71221153D01*
X116353232Y-71221153D01*
X116310292Y-71178213D01*
X116310288Y-71178210D01*
X116179185Y-71090609D01*
X116179172Y-71090602D01*
X116033501Y-71030264D01*
X116033489Y-71030261D01*
X115878845Y-70999500D01*
X115878842Y-70999500D01*
X115721158Y-70999500D01*
X115721155Y-70999500D01*
X115566510Y-71030261D01*
X115566498Y-71030264D01*
X115420827Y-71090602D01*
X115420814Y-71090609D01*
X115289711Y-71178210D01*
X115289707Y-71178213D01*
X115211681Y-71256240D01*
X115150358Y-71289725D01*
X115080666Y-71284741D01*
X115024733Y-71242869D01*
X115000316Y-71177405D01*
X115000000Y-71168559D01*
X115000000Y-70288389D01*
X116374500Y-70288389D01*
X116374500Y-70411610D01*
X116398535Y-70532444D01*
X116398538Y-70532454D01*
X116445687Y-70646283D01*
X116445692Y-70646292D01*
X116514141Y-70748732D01*
X116514144Y-70748736D01*
X116601263Y-70835855D01*
X116601267Y-70835858D01*
X116703707Y-70904307D01*
X116703713Y-70904310D01*
X116703714Y-70904311D01*
X116817548Y-70951463D01*
X116938389Y-70975499D01*
X116938393Y-70975500D01*
X116938394Y-70975500D01*
X117061607Y-70975500D01*
X117061608Y-70975499D01*
X117182452Y-70951463D01*
X117296286Y-70904311D01*
X117398733Y-70835858D01*
X117485858Y-70748733D01*
X117554311Y-70646286D01*
X117601463Y-70532452D01*
X117625500Y-70411606D01*
X117625500Y-70288394D01*
X117601463Y-70167548D01*
X117554311Y-70053714D01*
X117554310Y-70053713D01*
X117554307Y-70053707D01*
X117485858Y-69951267D01*
X117485855Y-69951263D01*
X117398736Y-69864144D01*
X117398732Y-69864141D01*
X117296292Y-69795692D01*
X117296283Y-69795687D01*
X117182454Y-69748538D01*
X117182455Y-69748538D01*
X117182452Y-69748537D01*
X117182448Y-69748536D01*
X117182444Y-69748535D01*
X117061610Y-69724500D01*
X117061606Y-69724500D01*
X116938394Y-69724500D01*
X116938389Y-69724500D01*
X116817555Y-69748535D01*
X116817545Y-69748538D01*
X116703716Y-69795687D01*
X116703707Y-69795692D01*
X116601267Y-69864141D01*
X116601263Y-69864144D01*
X116514144Y-69951263D01*
X116514141Y-69951267D01*
X116445692Y-70053707D01*
X116445687Y-70053716D01*
X116398538Y-70167545D01*
X116398535Y-70167555D01*
X116374500Y-70288389D01*
X115000000Y-70288389D01*
X115000000Y-67621153D01*
X118899500Y-67621153D01*
X118899500Y-67778846D01*
X118930261Y-67933489D01*
X118930264Y-67933501D01*
X118990602Y-68079172D01*
X118990609Y-68079185D01*
X119078210Y-68210288D01*
X119078213Y-68210292D01*
X119189707Y-68321786D01*
X119189711Y-68321789D01*
X119320814Y-68409390D01*
X119320827Y-68409397D01*
X119466498Y-68469735D01*
X119466503Y-68469737D01*
X119590140Y-68494330D01*
X119621153Y-68500499D01*
X119621156Y-68500500D01*
X119621158Y-68500500D01*
X119778843Y-68500500D01*
X119791374Y-68498007D01*
X119809860Y-68494330D01*
X119879450Y-68500556D01*
X119934628Y-68543419D01*
X119957874Y-68609308D01*
X119955670Y-68640136D01*
X119949500Y-68671157D01*
X119949500Y-68828846D01*
X119980261Y-68983489D01*
X119980264Y-68983501D01*
X120040602Y-69129172D01*
X120040609Y-69129185D01*
X120128210Y-69260288D01*
X120128213Y-69260292D01*
X120239707Y-69371786D01*
X120239711Y-69371789D01*
X120370814Y-69459390D01*
X120370827Y-69459397D01*
X120516498Y-69519735D01*
X120516503Y-69519737D01*
X120671153Y-69550499D01*
X120671156Y-69550500D01*
X120671158Y-69550500D01*
X120828844Y-69550500D01*
X120828845Y-69550499D01*
X120983497Y-69519737D01*
X121129179Y-69459394D01*
X121260289Y-69371789D01*
X121371789Y-69260289D01*
X121459394Y-69129179D01*
X121519737Y-68983497D01*
X121550500Y-68828842D01*
X121550500Y-68671158D01*
X121550500Y-68671157D01*
X121550500Y-68671155D01*
X121550499Y-68671153D01*
X121523117Y-68533497D01*
X121519737Y-68516503D01*
X121513132Y-68500556D01*
X121459397Y-68370827D01*
X121459390Y-68370814D01*
X121401354Y-68283957D01*
X121371789Y-68239711D01*
X121371786Y-68239707D01*
X121353232Y-68221153D01*
X127699500Y-68221153D01*
X127699500Y-68378846D01*
X127730261Y-68533489D01*
X127730264Y-68533501D01*
X127790602Y-68679172D01*
X127790609Y-68679185D01*
X127878210Y-68810288D01*
X127878213Y-68810292D01*
X127989707Y-68921786D01*
X127989711Y-68921789D01*
X128120814Y-69009390D01*
X128120827Y-69009397D01*
X128266498Y-69069735D01*
X128266503Y-69069737D01*
X128421153Y-69100499D01*
X128421156Y-69100500D01*
X128421158Y-69100500D01*
X128578844Y-69100500D01*
X128578845Y-69100499D01*
X128733497Y-69069737D01*
X128879179Y-69009394D01*
X129010289Y-68921789D01*
X129110925Y-68821153D01*
X129999500Y-68821153D01*
X129999500Y-68978846D01*
X130030261Y-69133489D01*
X130030264Y-69133501D01*
X130090602Y-69279172D01*
X130090609Y-69279185D01*
X130178210Y-69410288D01*
X130178213Y-69410292D01*
X130289707Y-69521786D01*
X130289711Y-69521789D01*
X130420814Y-69609390D01*
X130420827Y-69609397D01*
X130566498Y-69669735D01*
X130566503Y-69669737D01*
X130721153Y-69700499D01*
X130721156Y-69700500D01*
X130721158Y-69700500D01*
X130878844Y-69700500D01*
X130878845Y-69700499D01*
X131033497Y-69669737D01*
X131179179Y-69609394D01*
X131310289Y-69521789D01*
X131421789Y-69410289D01*
X131509394Y-69279179D01*
X131569737Y-69133497D01*
X131600500Y-68978842D01*
X131600500Y-68821158D01*
X131600500Y-68821155D01*
X131600499Y-68821153D01*
X131585585Y-68746175D01*
X131569737Y-68666503D01*
X131546046Y-68609308D01*
X131509397Y-68520827D01*
X131509390Y-68520814D01*
X131421789Y-68389711D01*
X131421786Y-68389707D01*
X131310292Y-68278213D01*
X131310288Y-68278210D01*
X131179185Y-68190609D01*
X131179172Y-68190602D01*
X131033501Y-68130264D01*
X131033489Y-68130261D01*
X130878845Y-68099500D01*
X130878842Y-68099500D01*
X130721158Y-68099500D01*
X130721155Y-68099500D01*
X130566510Y-68130261D01*
X130566498Y-68130264D01*
X130420827Y-68190602D01*
X130420814Y-68190609D01*
X130289711Y-68278210D01*
X130289707Y-68278213D01*
X130178213Y-68389707D01*
X130178210Y-68389711D01*
X130090609Y-68520814D01*
X130090602Y-68520827D01*
X130030264Y-68666498D01*
X130030261Y-68666510D01*
X129999500Y-68821153D01*
X129110925Y-68821153D01*
X129121789Y-68810289D01*
X129209394Y-68679179D01*
X129212719Y-68671153D01*
X129269735Y-68533501D01*
X129269737Y-68533497D01*
X129300500Y-68378842D01*
X129300500Y-68221158D01*
X129300500Y-68221155D01*
X129300499Y-68221153D01*
X129282012Y-68128213D01*
X129269737Y-68066503D01*
X129269735Y-68066498D01*
X129209397Y-67920827D01*
X129209390Y-67920814D01*
X129121789Y-67789711D01*
X129121786Y-67789707D01*
X129010292Y-67678213D01*
X129010288Y-67678210D01*
X128879185Y-67590609D01*
X128879172Y-67590602D01*
X128733501Y-67530264D01*
X128733489Y-67530261D01*
X128578845Y-67499500D01*
X128578842Y-67499500D01*
X128421158Y-67499500D01*
X128421155Y-67499500D01*
X128266510Y-67530261D01*
X128266498Y-67530264D01*
X128120827Y-67590602D01*
X128120814Y-67590609D01*
X127989711Y-67678210D01*
X127989707Y-67678213D01*
X127878213Y-67789707D01*
X127878210Y-67789711D01*
X127790609Y-67920814D01*
X127790602Y-67920827D01*
X127730264Y-68066498D01*
X127730261Y-68066510D01*
X127699500Y-68221153D01*
X121353232Y-68221153D01*
X121260292Y-68128213D01*
X121260288Y-68128210D01*
X121129185Y-68040609D01*
X121129172Y-68040602D01*
X120983501Y-67980264D01*
X120983489Y-67980261D01*
X120828845Y-67949500D01*
X120828842Y-67949500D01*
X120671158Y-67949500D01*
X120671157Y-67949500D01*
X120640136Y-67955670D01*
X120570545Y-67949441D01*
X120515368Y-67906577D01*
X120492125Y-67840687D01*
X120494330Y-67809859D01*
X120500500Y-67778842D01*
X120500500Y-67621155D01*
X120500499Y-67621153D01*
X120482419Y-67530261D01*
X120469737Y-67466503D01*
X120456062Y-67433489D01*
X120409397Y-67320827D01*
X120409390Y-67320814D01*
X120321790Y-67189712D01*
X120321784Y-67189705D01*
X120253232Y-67121153D01*
X133699500Y-67121153D01*
X133699500Y-67278846D01*
X133730261Y-67433489D01*
X133730264Y-67433501D01*
X133790602Y-67579172D01*
X133790609Y-67579185D01*
X133878210Y-67710288D01*
X133878213Y-67710292D01*
X133989707Y-67821786D01*
X133989711Y-67821789D01*
X134120814Y-67909390D01*
X134120827Y-67909397D01*
X134217646Y-67949500D01*
X134266503Y-67969737D01*
X134421153Y-68000499D01*
X134421156Y-68000500D01*
X134421158Y-68000500D01*
X134578844Y-68000500D01*
X134578845Y-68000499D01*
X134733497Y-67969737D01*
X134851592Y-67920821D01*
X134879172Y-67909397D01*
X134879172Y-67909396D01*
X134879179Y-67909394D01*
X135010289Y-67821789D01*
X135121789Y-67710289D01*
X135209394Y-67579179D01*
X135269737Y-67433497D01*
X135300500Y-67278842D01*
X135300500Y-67121158D01*
X135300500Y-67121155D01*
X135300499Y-67121153D01*
X135274531Y-66990606D01*
X135269737Y-66966503D01*
X135269735Y-66966498D01*
X135209397Y-66820827D01*
X135209390Y-66820814D01*
X135121789Y-66689711D01*
X135121786Y-66689707D01*
X135010292Y-66578213D01*
X135010288Y-66578210D01*
X134879185Y-66490609D01*
X134879172Y-66490602D01*
X134733501Y-66430264D01*
X134733489Y-66430261D01*
X134578845Y-66399500D01*
X134578842Y-66399500D01*
X134421158Y-66399500D01*
X134421155Y-66399500D01*
X134266510Y-66430261D01*
X134266498Y-66430264D01*
X134120827Y-66490602D01*
X134120814Y-66490609D01*
X133989711Y-66578210D01*
X133989707Y-66578213D01*
X133878213Y-66689707D01*
X133878210Y-66689711D01*
X133790609Y-66820814D01*
X133790602Y-66820827D01*
X133730264Y-66966498D01*
X133730261Y-66966510D01*
X133699500Y-67121153D01*
X120253232Y-67121153D01*
X120210292Y-67078213D01*
X120210288Y-67078210D01*
X120079185Y-66990609D01*
X120079172Y-66990602D01*
X119933501Y-66930264D01*
X119933489Y-66930261D01*
X119778845Y-66899500D01*
X119778842Y-66899500D01*
X119621158Y-66899500D01*
X119621155Y-66899500D01*
X119466510Y-66930261D01*
X119466498Y-66930264D01*
X119320827Y-66990602D01*
X119320814Y-66990609D01*
X119189711Y-67078210D01*
X119189707Y-67078213D01*
X119078213Y-67189707D01*
X119078210Y-67189711D01*
X118990609Y-67320814D01*
X118990602Y-67320827D01*
X118930264Y-67466498D01*
X118930261Y-67466510D01*
X118899500Y-67621153D01*
X115000000Y-67621153D01*
X115000000Y-66093834D01*
X115019685Y-66026795D01*
X115072489Y-65981040D01*
X115141647Y-65971096D01*
X115192890Y-65990731D01*
X115220821Y-66009394D01*
X115220823Y-66009395D01*
X115220827Y-66009397D01*
X115366498Y-66069735D01*
X115366503Y-66069737D01*
X115487646Y-66093834D01*
X115521153Y-66100499D01*
X115521156Y-66100500D01*
X115521158Y-66100500D01*
X115678844Y-66100500D01*
X115678845Y-66100499D01*
X115833497Y-66069737D01*
X115979179Y-66009394D01*
X116110289Y-65921789D01*
X116172462Y-65859615D01*
X116233783Y-65826132D01*
X116303475Y-65831116D01*
X116359409Y-65872987D01*
X116381759Y-65923106D01*
X116398535Y-66007445D01*
X116398536Y-66007449D01*
X116398537Y-66007452D01*
X116399343Y-66009397D01*
X116445687Y-66121283D01*
X116445692Y-66121292D01*
X116514141Y-66223732D01*
X116514144Y-66223736D01*
X116601263Y-66310855D01*
X116601267Y-66310858D01*
X116703707Y-66379307D01*
X116703713Y-66379310D01*
X116703714Y-66379311D01*
X116817548Y-66426463D01*
X116938389Y-66450499D01*
X116938393Y-66450500D01*
X116938394Y-66450500D01*
X117061607Y-66450500D01*
X117061608Y-66450499D01*
X117182452Y-66426463D01*
X117296286Y-66379311D01*
X117398733Y-66310858D01*
X117485858Y-66223733D01*
X117554311Y-66121286D01*
X117601463Y-66007452D01*
X117625500Y-65886606D01*
X117625500Y-65763394D01*
X117604483Y-65657731D01*
X117610710Y-65588141D01*
X117653573Y-65532963D01*
X117719463Y-65509719D01*
X117787460Y-65525787D01*
X117813781Y-65545860D01*
X117889707Y-65621786D01*
X117889711Y-65621789D01*
X118020814Y-65709390D01*
X118020827Y-65709397D01*
X118164279Y-65768816D01*
X118166503Y-65769737D01*
X118321153Y-65800499D01*
X118321156Y-65800500D01*
X118321158Y-65800500D01*
X118478844Y-65800500D01*
X118478845Y-65800499D01*
X118633497Y-65769737D01*
X118750790Y-65721153D01*
X127699500Y-65721153D01*
X127699500Y-65878846D01*
X127730261Y-66033489D01*
X127730264Y-66033501D01*
X127790602Y-66179172D01*
X127790609Y-66179185D01*
X127878210Y-66310288D01*
X127878213Y-66310292D01*
X127989707Y-66421786D01*
X127989711Y-66421789D01*
X128120814Y-66509390D01*
X128120827Y-66509397D01*
X128266498Y-66569735D01*
X128266503Y-66569737D01*
X128421153Y-66600499D01*
X128421156Y-66600500D01*
X128421158Y-66600500D01*
X128578844Y-66600500D01*
X128578845Y-66600499D01*
X128733497Y-66569737D01*
X128879179Y-66509394D01*
X129010289Y-66421789D01*
X129121789Y-66310289D01*
X129209394Y-66179179D01*
X129269737Y-66033497D01*
X129300500Y-65878842D01*
X129300500Y-65721158D01*
X129300500Y-65721155D01*
X129284209Y-65639258D01*
X129284209Y-65639257D01*
X129280608Y-65621153D01*
X129799500Y-65621153D01*
X129799500Y-65778846D01*
X129830261Y-65933489D01*
X129830264Y-65933501D01*
X129890602Y-66079172D01*
X129890609Y-66079185D01*
X129978210Y-66210288D01*
X129978213Y-66210292D01*
X130089707Y-66321786D01*
X130089711Y-66321789D01*
X130220814Y-66409390D01*
X130220827Y-66409397D01*
X130320060Y-66450500D01*
X130366503Y-66469737D01*
X130521153Y-66500499D01*
X130521156Y-66500500D01*
X130521158Y-66500500D01*
X130678844Y-66500500D01*
X130678845Y-66500499D01*
X130833497Y-66469737D01*
X130979179Y-66409394D01*
X131110289Y-66321789D01*
X131221789Y-66210289D01*
X131309394Y-66079179D01*
X131369737Y-65933497D01*
X131400500Y-65778842D01*
X131400500Y-65621158D01*
X131400500Y-65621155D01*
X131400499Y-65621153D01*
X131382957Y-65532963D01*
X131369737Y-65466503D01*
X131350812Y-65420814D01*
X131309397Y-65320827D01*
X131309390Y-65320814D01*
X131221789Y-65189711D01*
X131221786Y-65189707D01*
X131110292Y-65078213D01*
X131110288Y-65078210D01*
X130979185Y-64990609D01*
X130979172Y-64990602D01*
X130833501Y-64930264D01*
X130833489Y-64930261D01*
X130678845Y-64899500D01*
X130678842Y-64899500D01*
X130521158Y-64899500D01*
X130521155Y-64899500D01*
X130366510Y-64930261D01*
X130366498Y-64930264D01*
X130220827Y-64990602D01*
X130220814Y-64990609D01*
X130089711Y-65078210D01*
X130089707Y-65078213D01*
X129978213Y-65189707D01*
X129978210Y-65189711D01*
X129890609Y-65320814D01*
X129890602Y-65320827D01*
X129830264Y-65466498D01*
X129830261Y-65466510D01*
X129799500Y-65621153D01*
X129280608Y-65621153D01*
X129269738Y-65566510D01*
X129269737Y-65566503D01*
X129269735Y-65566498D01*
X129209397Y-65420827D01*
X129209390Y-65420814D01*
X129121789Y-65289711D01*
X129121786Y-65289707D01*
X129010292Y-65178213D01*
X129010288Y-65178210D01*
X128879185Y-65090609D01*
X128879172Y-65090602D01*
X128733501Y-65030264D01*
X128733489Y-65030261D01*
X128578845Y-64999500D01*
X128578842Y-64999500D01*
X128421158Y-64999500D01*
X128421155Y-64999500D01*
X128266510Y-65030261D01*
X128266498Y-65030264D01*
X128120827Y-65090602D01*
X128120814Y-65090609D01*
X127989711Y-65178210D01*
X127989707Y-65178213D01*
X127878213Y-65289707D01*
X127878210Y-65289711D01*
X127790609Y-65420814D01*
X127790602Y-65420827D01*
X127730264Y-65566498D01*
X127730261Y-65566510D01*
X127699500Y-65721153D01*
X118750790Y-65721153D01*
X118779179Y-65709394D01*
X118910289Y-65621789D01*
X119021789Y-65510289D01*
X119109394Y-65379179D01*
X119169737Y-65233497D01*
X119200500Y-65078842D01*
X119200500Y-64921158D01*
X119200500Y-64921155D01*
X119200499Y-64921153D01*
X119174353Y-64789711D01*
X119169737Y-64766503D01*
X119169735Y-64766498D01*
X119109397Y-64620827D01*
X119109390Y-64620814D01*
X119021789Y-64489711D01*
X119021786Y-64489707D01*
X118910292Y-64378213D01*
X118910288Y-64378210D01*
X118779185Y-64290609D01*
X118779172Y-64290602D01*
X118633501Y-64230264D01*
X118633489Y-64230261D01*
X118478845Y-64199500D01*
X118478842Y-64199500D01*
X118321158Y-64199500D01*
X118321155Y-64199500D01*
X118166510Y-64230261D01*
X118166498Y-64230264D01*
X118020827Y-64290602D01*
X118020814Y-64290609D01*
X117889711Y-64378210D01*
X117788409Y-64479512D01*
X117727086Y-64512996D01*
X117657394Y-64508012D01*
X117601461Y-64466140D01*
X117577044Y-64400675D01*
X117586167Y-64344378D01*
X117601463Y-64307452D01*
X117625500Y-64186606D01*
X117625500Y-64063394D01*
X117601463Y-63942548D01*
X117554311Y-63828714D01*
X117554310Y-63828713D01*
X117554307Y-63828707D01*
X117485858Y-63726267D01*
X117485855Y-63726263D01*
X117398736Y-63639144D01*
X117398732Y-63639141D01*
X117296292Y-63570692D01*
X117296283Y-63570687D01*
X117182454Y-63523538D01*
X117182455Y-63523538D01*
X117182452Y-63523537D01*
X117182448Y-63523536D01*
X117182444Y-63523535D01*
X117061610Y-63499500D01*
X117061606Y-63499500D01*
X116938394Y-63499500D01*
X116938389Y-63499500D01*
X116817555Y-63523535D01*
X116817545Y-63523538D01*
X116703716Y-63570687D01*
X116703707Y-63570692D01*
X116601267Y-63639141D01*
X116601263Y-63639144D01*
X116514144Y-63726263D01*
X116514141Y-63726267D01*
X116445692Y-63828707D01*
X116445687Y-63828716D01*
X116398538Y-63942545D01*
X116398535Y-63942555D01*
X116374500Y-64063389D01*
X116374500Y-64186610D01*
X116397154Y-64300499D01*
X116398537Y-64307452D01*
X116407246Y-64328477D01*
X116445687Y-64421283D01*
X116445692Y-64421292D01*
X116514141Y-64523732D01*
X116514144Y-64523736D01*
X116601263Y-64610855D01*
X116601267Y-64610858D01*
X116703707Y-64679307D01*
X116703713Y-64679310D01*
X116703714Y-64679311D01*
X116817548Y-64726463D01*
X116938389Y-64750499D01*
X116938393Y-64750500D01*
X116938394Y-64750500D01*
X117061607Y-64750500D01*
X117061608Y-64750499D01*
X117182452Y-64726463D01*
X117296286Y-64679311D01*
X117398733Y-64610858D01*
X117463233Y-64546357D01*
X117524554Y-64512874D01*
X117594246Y-64517858D01*
X117650180Y-64559729D01*
X117674597Y-64625193D01*
X117665475Y-64681491D01*
X117630263Y-64766503D01*
X117630261Y-64766510D01*
X117599500Y-64921153D01*
X117599500Y-65078846D01*
X117630261Y-65233489D01*
X117632031Y-65239324D01*
X117630824Y-65239690D01*
X117637588Y-65302627D01*
X117606310Y-65365105D01*
X117546219Y-65400755D01*
X117476394Y-65398258D01*
X117427878Y-65368286D01*
X117398736Y-65339144D01*
X117398732Y-65339141D01*
X117296292Y-65270692D01*
X117296283Y-65270687D01*
X117182454Y-65223538D01*
X117182455Y-65223538D01*
X117182452Y-65223537D01*
X117182448Y-65223536D01*
X117182444Y-65223535D01*
X117061610Y-65199500D01*
X117061606Y-65199500D01*
X116938394Y-65199500D01*
X116938389Y-65199500D01*
X116817555Y-65223535D01*
X116817545Y-65223538D01*
X116703716Y-65270687D01*
X116703707Y-65270692D01*
X116596202Y-65342526D01*
X116595171Y-65340983D01*
X116538831Y-65364899D01*
X116469965Y-65353094D01*
X116418415Y-65305932D01*
X116400500Y-65241730D01*
X116400500Y-65221155D01*
X116400499Y-65221153D01*
X116374531Y-65090606D01*
X116369737Y-65066503D01*
X116369735Y-65066498D01*
X116309397Y-64920827D01*
X116309390Y-64920814D01*
X116221789Y-64789711D01*
X116221786Y-64789707D01*
X116110292Y-64678213D01*
X116110288Y-64678210D01*
X115979185Y-64590609D01*
X115979172Y-64590602D01*
X115833501Y-64530264D01*
X115833489Y-64530261D01*
X115678845Y-64499500D01*
X115678842Y-64499500D01*
X115521158Y-64499500D01*
X115521155Y-64499500D01*
X115366510Y-64530261D01*
X115366498Y-64530264D01*
X115220827Y-64590602D01*
X115220816Y-64590608D01*
X115192890Y-64609268D01*
X115126212Y-64630145D01*
X115058832Y-64611660D01*
X115012142Y-64559680D01*
X115000000Y-64506165D01*
X115000000Y-61221153D01*
X119099500Y-61221153D01*
X119099500Y-61378846D01*
X119130261Y-61533489D01*
X119130264Y-61533501D01*
X119190602Y-61679172D01*
X119190609Y-61679185D01*
X119278210Y-61810288D01*
X119278213Y-61810292D01*
X119389707Y-61921786D01*
X119389711Y-61921789D01*
X119520814Y-62009390D01*
X119520827Y-62009397D01*
X119666498Y-62069735D01*
X119666503Y-62069737D01*
X119821153Y-62100499D01*
X119821156Y-62100500D01*
X119863445Y-62100500D01*
X119930484Y-62120185D01*
X119976239Y-62172989D01*
X119986183Y-62242147D01*
X119981159Y-62260411D01*
X119982031Y-62260676D01*
X119980261Y-62266510D01*
X119949500Y-62421153D01*
X119949500Y-62578846D01*
X119980261Y-62733489D01*
X119980264Y-62733501D01*
X120040602Y-62879172D01*
X120040609Y-62879185D01*
X120128210Y-63010288D01*
X120128213Y-63010292D01*
X120239707Y-63121786D01*
X120239711Y-63121789D01*
X120370814Y-63209390D01*
X120370827Y-63209397D01*
X120508683Y-63266498D01*
X120516503Y-63269737D01*
X120671153Y-63300499D01*
X120671156Y-63300500D01*
X120671158Y-63300500D01*
X120828844Y-63300500D01*
X120828845Y-63300499D01*
X120983497Y-63269737D01*
X121100790Y-63221153D01*
X127599500Y-63221153D01*
X127599500Y-63378846D01*
X127630261Y-63533489D01*
X127630264Y-63533501D01*
X127690602Y-63679172D01*
X127690609Y-63679185D01*
X127778210Y-63810288D01*
X127778213Y-63810292D01*
X127889707Y-63921786D01*
X127889711Y-63921789D01*
X128020814Y-64009390D01*
X128020827Y-64009397D01*
X128166498Y-64069735D01*
X128166503Y-64069737D01*
X128321153Y-64100499D01*
X128321156Y-64100500D01*
X128321158Y-64100500D01*
X128478844Y-64100500D01*
X128478845Y-64100499D01*
X128633497Y-64069737D01*
X128779179Y-64009394D01*
X128910289Y-63921789D01*
X129021789Y-63810289D01*
X129109394Y-63679179D01*
X129169737Y-63533497D01*
X129192083Y-63421158D01*
X129192084Y-63421153D01*
X130599500Y-63421153D01*
X130599500Y-63578846D01*
X130630261Y-63733489D01*
X130630264Y-63733501D01*
X130690602Y-63879172D01*
X130690609Y-63879185D01*
X130778210Y-64010288D01*
X130778213Y-64010292D01*
X130889707Y-64121786D01*
X130889711Y-64121789D01*
X131020814Y-64209390D01*
X131020827Y-64209397D01*
X131166498Y-64269735D01*
X131166503Y-64269737D01*
X131321153Y-64300499D01*
X131321156Y-64300500D01*
X131321158Y-64300500D01*
X131478844Y-64300500D01*
X131478845Y-64300499D01*
X131633497Y-64269737D01*
X131779179Y-64209394D01*
X131910289Y-64121789D01*
X132021789Y-64010289D01*
X132109394Y-63879179D01*
X132169737Y-63733497D01*
X132172192Y-63721153D01*
X133799500Y-63721153D01*
X133799500Y-63878846D01*
X133830261Y-64033489D01*
X133830264Y-64033501D01*
X133890602Y-64179172D01*
X133890609Y-64179185D01*
X133978210Y-64310288D01*
X133978213Y-64310292D01*
X134089707Y-64421786D01*
X134089711Y-64421789D01*
X134220814Y-64509390D01*
X134220827Y-64509397D01*
X134342223Y-64559680D01*
X134366503Y-64569737D01*
X134521153Y-64600499D01*
X134521156Y-64600500D01*
X134521158Y-64600500D01*
X134678844Y-64600500D01*
X134678845Y-64600499D01*
X134833497Y-64569737D01*
X134970483Y-64512996D01*
X134979172Y-64509397D01*
X134979172Y-64509396D01*
X134979179Y-64509394D01*
X135110289Y-64421789D01*
X135221789Y-64310289D01*
X135309394Y-64179179D01*
X135369737Y-64033497D01*
X135400500Y-63878842D01*
X135400500Y-63721158D01*
X135400500Y-63721155D01*
X135400499Y-63721153D01*
X135384186Y-63639142D01*
X135369737Y-63566503D01*
X135356062Y-63533489D01*
X135309397Y-63420827D01*
X135309390Y-63420814D01*
X135221789Y-63289711D01*
X135221786Y-63289707D01*
X135110292Y-63178213D01*
X135110288Y-63178210D01*
X134979185Y-63090609D01*
X134979172Y-63090602D01*
X134833501Y-63030264D01*
X134833489Y-63030261D01*
X134678845Y-62999500D01*
X134678842Y-62999500D01*
X134521158Y-62999500D01*
X134521155Y-62999500D01*
X134366510Y-63030261D01*
X134366498Y-63030264D01*
X134220827Y-63090602D01*
X134220814Y-63090609D01*
X134089711Y-63178210D01*
X134089707Y-63178213D01*
X133978213Y-63289707D01*
X133978210Y-63289711D01*
X133890609Y-63420814D01*
X133890602Y-63420827D01*
X133830264Y-63566498D01*
X133830261Y-63566510D01*
X133799500Y-63721153D01*
X132172192Y-63721153D01*
X132178216Y-63690874D01*
X132178216Y-63690873D01*
X132200499Y-63578846D01*
X132200500Y-63578844D01*
X132200500Y-63421155D01*
X132200499Y-63421153D01*
X132194476Y-63390874D01*
X132169737Y-63266503D01*
X132150955Y-63221158D01*
X132109397Y-63120827D01*
X132109390Y-63120814D01*
X132021789Y-62989711D01*
X132021786Y-62989707D01*
X131910292Y-62878213D01*
X131910288Y-62878210D01*
X131779185Y-62790609D01*
X131779172Y-62790602D01*
X131633501Y-62730264D01*
X131633489Y-62730261D01*
X131478845Y-62699500D01*
X131478842Y-62699500D01*
X131321158Y-62699500D01*
X131321155Y-62699500D01*
X131166510Y-62730261D01*
X131166498Y-62730264D01*
X131020827Y-62790602D01*
X131020814Y-62790609D01*
X130889711Y-62878210D01*
X130889707Y-62878213D01*
X130778213Y-62989707D01*
X130778210Y-62989711D01*
X130690609Y-63120814D01*
X130690602Y-63120827D01*
X130630264Y-63266498D01*
X130630261Y-63266510D01*
X130599500Y-63421153D01*
X129192084Y-63421153D01*
X129198107Y-63390875D01*
X129198107Y-63390874D01*
X129200500Y-63378844D01*
X129200500Y-63221155D01*
X129200499Y-63221153D01*
X129180734Y-63121788D01*
X129169737Y-63066503D01*
X129169735Y-63066498D01*
X129109397Y-62920827D01*
X129109390Y-62920814D01*
X129021789Y-62789711D01*
X129021786Y-62789707D01*
X128910292Y-62678213D01*
X128910288Y-62678210D01*
X128779185Y-62590609D01*
X128779172Y-62590602D01*
X128633501Y-62530264D01*
X128633489Y-62530261D01*
X128478845Y-62499500D01*
X128478842Y-62499500D01*
X128321158Y-62499500D01*
X128321155Y-62499500D01*
X128166510Y-62530261D01*
X128166498Y-62530264D01*
X128020827Y-62590602D01*
X128020814Y-62590609D01*
X127889711Y-62678210D01*
X127889707Y-62678213D01*
X127778213Y-62789707D01*
X127778210Y-62789711D01*
X127690609Y-62920814D01*
X127690602Y-62920827D01*
X127630264Y-63066498D01*
X127630261Y-63066510D01*
X127599500Y-63221153D01*
X121100790Y-63221153D01*
X121129179Y-63209394D01*
X121260289Y-63121789D01*
X121371789Y-63010289D01*
X121459394Y-62879179D01*
X121519737Y-62733497D01*
X121550500Y-62578842D01*
X121550500Y-62421158D01*
X121550500Y-62421155D01*
X121550499Y-62421153D01*
X121523474Y-62285292D01*
X121519737Y-62266503D01*
X121517214Y-62260411D01*
X121459397Y-62120827D01*
X121459390Y-62120814D01*
X121371789Y-61989711D01*
X121371786Y-61989707D01*
X121260292Y-61878213D01*
X121260288Y-61878210D01*
X121129185Y-61790609D01*
X121129172Y-61790602D01*
X120983501Y-61730264D01*
X120983489Y-61730261D01*
X120828845Y-61699500D01*
X120828842Y-61699500D01*
X120786555Y-61699500D01*
X120719516Y-61679815D01*
X120673761Y-61627011D01*
X120663817Y-61557853D01*
X120668840Y-61539588D01*
X120667969Y-61539324D01*
X120669731Y-61533509D01*
X120669737Y-61533497D01*
X120700500Y-61378842D01*
X120700500Y-61221158D01*
X120700500Y-61221155D01*
X120700499Y-61221153D01*
X120669737Y-61066503D01*
X120650955Y-61021158D01*
X120609397Y-60920827D01*
X120609390Y-60920814D01*
X120521789Y-60789711D01*
X120521786Y-60789707D01*
X120410292Y-60678213D01*
X120410288Y-60678210D01*
X120372296Y-60652824D01*
X123949500Y-60652824D01*
X123949500Y-60810517D01*
X123980261Y-60965160D01*
X123980264Y-60965172D01*
X124040602Y-61110843D01*
X124040609Y-61110856D01*
X124128210Y-61241959D01*
X124128213Y-61241963D01*
X124239707Y-61353457D01*
X124239711Y-61353460D01*
X124370814Y-61441061D01*
X124370827Y-61441068D01*
X124516498Y-61501406D01*
X124516503Y-61501408D01*
X124671153Y-61532170D01*
X124671156Y-61532171D01*
X124671158Y-61532171D01*
X124828844Y-61532171D01*
X124828845Y-61532170D01*
X124983497Y-61501408D01*
X125129179Y-61441065D01*
X125260289Y-61353460D01*
X125371789Y-61241960D01*
X125459394Y-61110850D01*
X125496547Y-61021155D01*
X125496548Y-61021153D01*
X130199500Y-61021153D01*
X130199500Y-61178846D01*
X130230261Y-61333489D01*
X130230264Y-61333501D01*
X130290602Y-61479172D01*
X130290609Y-61479185D01*
X130378210Y-61610288D01*
X130378213Y-61610292D01*
X130489707Y-61721786D01*
X130489711Y-61721789D01*
X130620814Y-61809390D01*
X130620827Y-61809397D01*
X130728138Y-61853846D01*
X130766503Y-61869737D01*
X130921153Y-61900499D01*
X130921156Y-61900500D01*
X130921158Y-61900500D01*
X131078844Y-61900500D01*
X131078845Y-61900499D01*
X131233497Y-61869737D01*
X131379179Y-61809394D01*
X131510289Y-61721789D01*
X131621789Y-61610289D01*
X131709394Y-61479179D01*
X131769737Y-61333497D01*
X131800500Y-61178842D01*
X131800500Y-61021158D01*
X131800500Y-61021155D01*
X131800499Y-61021153D01*
X131769739Y-60866512D01*
X131769738Y-60866509D01*
X131769737Y-60866503D01*
X131761308Y-60846153D01*
X133705972Y-60846153D01*
X133705972Y-61003846D01*
X133736733Y-61158489D01*
X133736736Y-61158501D01*
X133796402Y-61302548D01*
X133803871Y-61372017D01*
X133796402Y-61397452D01*
X133736736Y-61541498D01*
X133736733Y-61541510D01*
X133705972Y-61696153D01*
X133705972Y-61853846D01*
X133736733Y-62008489D01*
X133736736Y-62008501D01*
X133797074Y-62154172D01*
X133797081Y-62154185D01*
X133884682Y-62285288D01*
X133884685Y-62285292D01*
X133996179Y-62396786D01*
X133996183Y-62396789D01*
X134127286Y-62484390D01*
X134127299Y-62484397D01*
X134272970Y-62544735D01*
X134272975Y-62544737D01*
X134427625Y-62575499D01*
X134427628Y-62575500D01*
X134427630Y-62575500D01*
X134585316Y-62575500D01*
X134585317Y-62575499D01*
X134739969Y-62544737D01*
X134885651Y-62484394D01*
X135016761Y-62396789D01*
X135128261Y-62285289D01*
X135215866Y-62154179D01*
X135276209Y-62008497D01*
X135306972Y-61853842D01*
X135306972Y-61696158D01*
X135306972Y-61696155D01*
X135306971Y-61696153D01*
X135276210Y-61541510D01*
X135276209Y-61541503D01*
X135275416Y-61539588D01*
X135216542Y-61397452D01*
X135209073Y-61327983D01*
X135216542Y-61302548D01*
X135276207Y-61158501D01*
X135276209Y-61158497D01*
X135306972Y-61003842D01*
X135306972Y-60846158D01*
X135306972Y-60846155D01*
X135306971Y-60846153D01*
X135276209Y-60691503D01*
X135234418Y-60590609D01*
X135215869Y-60545827D01*
X135215862Y-60545814D01*
X135128261Y-60414711D01*
X135128258Y-60414707D01*
X135016764Y-60303213D01*
X135016760Y-60303210D01*
X134885657Y-60215609D01*
X134885644Y-60215602D01*
X134739973Y-60155264D01*
X134739961Y-60155261D01*
X134585317Y-60124500D01*
X134585314Y-60124500D01*
X134427630Y-60124500D01*
X134427627Y-60124500D01*
X134272982Y-60155261D01*
X134272970Y-60155264D01*
X134127299Y-60215602D01*
X134127286Y-60215609D01*
X133996183Y-60303210D01*
X133996179Y-60303213D01*
X133884685Y-60414707D01*
X133884682Y-60414711D01*
X133797081Y-60545814D01*
X133797074Y-60545827D01*
X133736736Y-60691498D01*
X133736733Y-60691510D01*
X133705972Y-60846153D01*
X131761308Y-60846153D01*
X131746546Y-60810515D01*
X131709397Y-60720827D01*
X131709390Y-60720814D01*
X131621789Y-60589711D01*
X131621786Y-60589707D01*
X131510292Y-60478213D01*
X131510288Y-60478210D01*
X131379185Y-60390609D01*
X131379172Y-60390602D01*
X131233501Y-60330264D01*
X131233489Y-60330261D01*
X131078845Y-60299500D01*
X131078842Y-60299500D01*
X130921158Y-60299500D01*
X130921155Y-60299500D01*
X130766510Y-60330261D01*
X130766498Y-60330264D01*
X130620827Y-60390602D01*
X130620814Y-60390609D01*
X130489711Y-60478210D01*
X130489707Y-60478213D01*
X130378213Y-60589707D01*
X130378210Y-60589711D01*
X130290609Y-60720814D01*
X130290602Y-60720827D01*
X130230264Y-60866498D01*
X130230261Y-60866510D01*
X130199500Y-61021153D01*
X125496548Y-61021153D01*
X125518724Y-60967614D01*
X125518724Y-60967613D01*
X125519737Y-60965168D01*
X125550500Y-60810513D01*
X125550500Y-60652829D01*
X125550500Y-60652826D01*
X125550499Y-60652824D01*
X125519737Y-60498174D01*
X125485164Y-60414707D01*
X125459397Y-60352498D01*
X125459390Y-60352485D01*
X125371789Y-60221382D01*
X125371786Y-60221378D01*
X125260292Y-60109884D01*
X125260288Y-60109881D01*
X125129185Y-60022280D01*
X125129172Y-60022273D01*
X124983501Y-59961935D01*
X124983489Y-59961932D01*
X124828845Y-59931171D01*
X124828842Y-59931171D01*
X124671158Y-59931171D01*
X124671155Y-59931171D01*
X124516510Y-59961932D01*
X124516498Y-59961935D01*
X124370827Y-60022273D01*
X124370814Y-60022280D01*
X124239711Y-60109881D01*
X124239707Y-60109884D01*
X124128213Y-60221378D01*
X124128210Y-60221382D01*
X124040609Y-60352485D01*
X124040602Y-60352498D01*
X123980264Y-60498169D01*
X123980261Y-60498181D01*
X123949500Y-60652824D01*
X120372296Y-60652824D01*
X120279185Y-60590609D01*
X120279172Y-60590602D01*
X120133501Y-60530264D01*
X120133489Y-60530261D01*
X119978845Y-60499500D01*
X119978842Y-60499500D01*
X119821158Y-60499500D01*
X119821155Y-60499500D01*
X119666510Y-60530261D01*
X119666498Y-60530264D01*
X119520827Y-60590602D01*
X119520814Y-60590609D01*
X119389711Y-60678210D01*
X119389707Y-60678213D01*
X119278213Y-60789707D01*
X119278210Y-60789711D01*
X119190609Y-60920814D01*
X119190602Y-60920827D01*
X119130264Y-61066498D01*
X119130261Y-61066510D01*
X119099500Y-61221153D01*
X115000000Y-61221153D01*
X115000000Y-59200983D01*
X115019685Y-59133944D01*
X115072489Y-59088189D01*
X115141647Y-59078245D01*
X115205203Y-59107270D01*
X115238561Y-59153531D01*
X115290602Y-59279172D01*
X115290609Y-59279185D01*
X115378210Y-59410288D01*
X115378213Y-59410292D01*
X115489707Y-59521786D01*
X115489711Y-59521789D01*
X115620814Y-59609390D01*
X115620827Y-59609397D01*
X115763635Y-59668549D01*
X115766503Y-59669737D01*
X115921153Y-59700499D01*
X115921156Y-59700500D01*
X115921158Y-59700500D01*
X116078844Y-59700500D01*
X116078845Y-59700499D01*
X116233497Y-59669737D01*
X116233507Y-59669732D01*
X116237065Y-59668654D01*
X116239033Y-59668636D01*
X116239472Y-59668549D01*
X116239488Y-59668632D01*
X116306932Y-59668022D01*
X116366049Y-59705263D01*
X116394691Y-59763118D01*
X116398535Y-59782445D01*
X116398538Y-59782454D01*
X116445687Y-59896283D01*
X116445692Y-59896292D01*
X116514141Y-59998732D01*
X116514144Y-59998736D01*
X116601263Y-60085855D01*
X116601267Y-60085858D01*
X116703707Y-60154307D01*
X116703716Y-60154312D01*
X116724739Y-60163020D01*
X116817548Y-60201463D01*
X116917671Y-60221378D01*
X116938389Y-60225499D01*
X116938393Y-60225500D01*
X116938394Y-60225500D01*
X117061607Y-60225500D01*
X117061608Y-60225499D01*
X117182452Y-60201463D01*
X117296286Y-60154311D01*
X117398733Y-60085858D01*
X117485858Y-59998733D01*
X117554311Y-59896286D01*
X117601463Y-59782452D01*
X117625500Y-59661606D01*
X117625500Y-59544054D01*
X117645185Y-59477015D01*
X117697989Y-59431260D01*
X117767147Y-59421316D01*
X117818389Y-59440951D01*
X117920821Y-59509394D01*
X117920823Y-59509395D01*
X117920827Y-59509397D01*
X118066498Y-59569735D01*
X118066503Y-59569737D01*
X118221153Y-59600499D01*
X118221156Y-59600500D01*
X118221158Y-59600500D01*
X118378844Y-59600500D01*
X118378845Y-59600499D01*
X118533497Y-59569737D01*
X118679179Y-59509394D01*
X118810289Y-59421789D01*
X118921789Y-59310289D01*
X119009394Y-59179179D01*
X119069737Y-59033497D01*
X119100500Y-58878842D01*
X119100500Y-58721158D01*
X119100500Y-58721155D01*
X119100499Y-58721153D01*
X119080734Y-58621789D01*
X119069737Y-58566503D01*
X119069735Y-58566498D01*
X119009397Y-58420827D01*
X119009390Y-58420814D01*
X118921789Y-58289711D01*
X118921786Y-58289707D01*
X118810292Y-58178213D01*
X118810288Y-58178210D01*
X118679185Y-58090609D01*
X118679172Y-58090602D01*
X118533501Y-58030264D01*
X118533489Y-58030261D01*
X118378845Y-57999500D01*
X118378842Y-57999500D01*
X118221158Y-57999500D01*
X118221155Y-57999500D01*
X118066510Y-58030261D01*
X118066498Y-58030264D01*
X117920827Y-58090602D01*
X117920814Y-58090609D01*
X117799551Y-58171635D01*
X117732873Y-58192513D01*
X117665493Y-58174028D01*
X117618803Y-58122049D01*
X117607627Y-58053079D01*
X117609040Y-58044354D01*
X117625500Y-57961606D01*
X117625500Y-57921153D01*
X124199500Y-57921153D01*
X124199500Y-58078846D01*
X124230261Y-58233489D01*
X124230264Y-58233501D01*
X124290602Y-58379172D01*
X124290609Y-58379185D01*
X124378210Y-58510288D01*
X124378213Y-58510292D01*
X124489707Y-58621786D01*
X124489711Y-58621789D01*
X124620814Y-58709390D01*
X124620827Y-58709397D01*
X124718853Y-58750000D01*
X124766503Y-58769737D01*
X124905835Y-58797452D01*
X124921153Y-58800499D01*
X124921156Y-58800500D01*
X124921158Y-58800500D01*
X125078843Y-58800500D01*
X125094677Y-58797350D01*
X125152048Y-58785938D01*
X125221638Y-58792165D01*
X125276816Y-58835027D01*
X125300061Y-58900916D01*
X125299643Y-58919697D01*
X125299500Y-58921150D01*
X125299500Y-59078846D01*
X125330261Y-59233489D01*
X125330264Y-59233501D01*
X125390602Y-59379172D01*
X125390609Y-59379185D01*
X125478210Y-59510288D01*
X125478213Y-59510292D01*
X125589707Y-59621786D01*
X125589711Y-59621789D01*
X125720814Y-59709390D01*
X125720827Y-59709397D01*
X125850523Y-59763118D01*
X125866503Y-59769737D01*
X126002487Y-59796786D01*
X126021153Y-59800499D01*
X126021156Y-59800500D01*
X126021158Y-59800500D01*
X126178844Y-59800500D01*
X126178845Y-59800499D01*
X126333497Y-59769737D01*
X126479179Y-59709394D01*
X126610289Y-59621789D01*
X126721789Y-59510289D01*
X126809394Y-59379179D01*
X126869737Y-59233497D01*
X126900500Y-59078842D01*
X126900500Y-58921158D01*
X126900500Y-58921155D01*
X126900499Y-58921153D01*
X126896474Y-58900916D01*
X126869737Y-58766503D01*
X126851692Y-58722937D01*
X126809397Y-58620827D01*
X126809390Y-58620814D01*
X126721789Y-58489711D01*
X126721786Y-58489707D01*
X126610292Y-58378213D01*
X126610288Y-58378210D01*
X126479185Y-58290609D01*
X126479172Y-58290602D01*
X126371861Y-58246153D01*
X131599500Y-58246153D01*
X131599500Y-58403846D01*
X131630261Y-58558489D01*
X131630264Y-58558501D01*
X131689930Y-58702548D01*
X131697399Y-58772017D01*
X131689930Y-58797452D01*
X131630264Y-58941498D01*
X131630261Y-58941510D01*
X131599500Y-59096153D01*
X131599500Y-59253846D01*
X131630261Y-59408489D01*
X131630264Y-59408501D01*
X131690602Y-59554172D01*
X131690609Y-59554185D01*
X131778210Y-59685288D01*
X131778213Y-59685292D01*
X131889707Y-59796786D01*
X131889711Y-59796789D01*
X132020814Y-59884390D01*
X132020827Y-59884397D01*
X132166498Y-59944735D01*
X132166503Y-59944737D01*
X132252948Y-59961932D01*
X132321153Y-59975499D01*
X132321156Y-59975500D01*
X132321158Y-59975500D01*
X132478844Y-59975500D01*
X132478845Y-59975499D01*
X132633497Y-59944737D01*
X132779179Y-59884394D01*
X132910289Y-59796789D01*
X133021789Y-59685289D01*
X133109394Y-59554179D01*
X133169737Y-59408497D01*
X133200500Y-59253842D01*
X133200500Y-59096158D01*
X133200500Y-59096155D01*
X133200499Y-59096153D01*
X133190461Y-59045689D01*
X133169737Y-58941503D01*
X133160705Y-58919697D01*
X133110070Y-58797452D01*
X133102601Y-58727983D01*
X133110070Y-58702548D01*
X133143925Y-58620814D01*
X133169737Y-58558497D01*
X133200500Y-58403842D01*
X133200500Y-58246158D01*
X133200500Y-58246155D01*
X133200499Y-58246153D01*
X133189829Y-58192513D01*
X133169737Y-58091503D01*
X133169367Y-58090609D01*
X133109397Y-57945827D01*
X133109390Y-57945814D01*
X133021789Y-57814711D01*
X133021786Y-57814707D01*
X132910292Y-57703213D01*
X132910288Y-57703210D01*
X132779185Y-57615609D01*
X132779172Y-57615602D01*
X132633501Y-57555264D01*
X132633489Y-57555261D01*
X132478845Y-57524500D01*
X132478842Y-57524500D01*
X132321158Y-57524500D01*
X132321155Y-57524500D01*
X132166510Y-57555261D01*
X132166498Y-57555264D01*
X132020827Y-57615602D01*
X132020814Y-57615609D01*
X131889711Y-57703210D01*
X131889707Y-57703213D01*
X131778213Y-57814707D01*
X131778210Y-57814711D01*
X131690609Y-57945814D01*
X131690602Y-57945827D01*
X131630264Y-58091498D01*
X131630261Y-58091510D01*
X131599500Y-58246153D01*
X126371861Y-58246153D01*
X126333501Y-58230264D01*
X126333489Y-58230261D01*
X126178845Y-58199500D01*
X126178842Y-58199500D01*
X126021158Y-58199500D01*
X126021153Y-58199500D01*
X125947951Y-58214061D01*
X125878360Y-58207834D01*
X125823182Y-58164971D01*
X125799938Y-58099081D01*
X125800358Y-58080285D01*
X125800500Y-58078843D01*
X125800500Y-57921155D01*
X125800499Y-57921153D01*
X125779325Y-57814707D01*
X125769737Y-57766503D01*
X125749462Y-57717555D01*
X125709397Y-57620827D01*
X125709390Y-57620814D01*
X125621789Y-57489711D01*
X125621786Y-57489707D01*
X125510292Y-57378213D01*
X125510288Y-57378210D01*
X125379185Y-57290609D01*
X125379172Y-57290602D01*
X125233501Y-57230264D01*
X125233489Y-57230261D01*
X125078845Y-57199500D01*
X125078842Y-57199500D01*
X124921158Y-57199500D01*
X124921155Y-57199500D01*
X124766510Y-57230261D01*
X124766498Y-57230264D01*
X124620827Y-57290602D01*
X124620814Y-57290609D01*
X124489711Y-57378210D01*
X124489707Y-57378213D01*
X124378213Y-57489707D01*
X124378210Y-57489711D01*
X124290609Y-57620814D01*
X124290602Y-57620827D01*
X124230264Y-57766498D01*
X124230261Y-57766510D01*
X124199500Y-57921153D01*
X117625500Y-57921153D01*
X117625500Y-57838394D01*
X117601463Y-57717548D01*
X117563020Y-57624739D01*
X117554312Y-57603716D01*
X117554307Y-57603707D01*
X117485858Y-57501267D01*
X117485855Y-57501263D01*
X117398736Y-57414144D01*
X117398732Y-57414141D01*
X117296292Y-57345692D01*
X117296283Y-57345687D01*
X117182454Y-57298538D01*
X117182455Y-57298538D01*
X117182452Y-57298537D01*
X117182448Y-57298536D01*
X117182444Y-57298535D01*
X117061610Y-57274500D01*
X117061606Y-57274500D01*
X116938394Y-57274500D01*
X116938389Y-57274500D01*
X116817555Y-57298535D01*
X116817545Y-57298538D01*
X116703716Y-57345687D01*
X116703707Y-57345692D01*
X116601267Y-57414141D01*
X116601263Y-57414144D01*
X116514144Y-57501263D01*
X116514141Y-57501267D01*
X116445692Y-57603707D01*
X116445687Y-57603716D01*
X116398538Y-57717545D01*
X116398535Y-57717555D01*
X116374500Y-57838389D01*
X116374500Y-57961606D01*
X116379034Y-57984402D01*
X116372805Y-58053993D01*
X116329941Y-58109170D01*
X116264051Y-58132413D01*
X116233225Y-58130208D01*
X116078846Y-58099500D01*
X116078842Y-58099500D01*
X115921158Y-58099500D01*
X115921155Y-58099500D01*
X115766510Y-58130261D01*
X115766498Y-58130264D01*
X115620827Y-58190602D01*
X115620814Y-58190609D01*
X115489711Y-58278210D01*
X115489707Y-58278213D01*
X115378213Y-58389707D01*
X115378210Y-58389711D01*
X115290609Y-58520814D01*
X115290604Y-58520823D01*
X115238561Y-58646469D01*
X115194720Y-58700872D01*
X115128426Y-58722937D01*
X115060727Y-58705658D01*
X115013116Y-58654521D01*
X115000000Y-58599016D01*
X115000000Y-56124000D01*
X115019685Y-56056961D01*
X115072489Y-56011206D01*
X115124000Y-56000000D01*
X120175783Y-56000000D01*
X120242822Y-56019685D01*
G37*
%TD.AperFunction*%
%TD*%
M02*
