%TF.GenerationSoftware,KiCad,Pcbnew,9.0.4*%
%TF.CreationDate,2025-09-28T00:45:50+02:00*%
%TF.ProjectId,BTM308-host,42544d33-3038-42d6-986f-73742e6b6963,rev?*%
%TF.SameCoordinates,Original*%
%TF.FileFunction,Legend,Top*%
%TF.FilePolarity,Positive*%
%FSLAX46Y46*%
G04 Gerber Fmt 4.6, Leading zero omitted, Abs format (unit mm)*
G04 Created by KiCad (PCBNEW 9.0.4) date 2025-09-28 00:45:50*
%MOMM*%
%LPD*%
G01*
G04 APERTURE LIST*
%ADD10C,0.150000*%
%ADD11C,0.250000*%
%ADD12C,0.100000*%
%ADD13C,0.127000*%
%ADD14C,0.120000*%
%ADD15C,0.200000*%
G04 APERTURE END LIST*
D10*
X116436779Y-86188866D02*
X117198684Y-86188866D01*
X116817731Y-86569819D02*
X116817731Y-85807914D01*
X119403990Y-76190474D02*
X119356371Y-76333331D01*
X119356371Y-76333331D02*
X119308752Y-76380950D01*
X119308752Y-76380950D02*
X119213514Y-76428569D01*
X119213514Y-76428569D02*
X119070657Y-76428569D01*
X119070657Y-76428569D02*
X118975419Y-76380950D01*
X118975419Y-76380950D02*
X118927800Y-76333331D01*
X118927800Y-76333331D02*
X118880180Y-76238093D01*
X118880180Y-76238093D02*
X118880180Y-75857141D01*
X118880180Y-75857141D02*
X119880180Y-75857141D01*
X119880180Y-75857141D02*
X119880180Y-76190474D01*
X119880180Y-76190474D02*
X119832561Y-76285712D01*
X119832561Y-76285712D02*
X119784942Y-76333331D01*
X119784942Y-76333331D02*
X119689704Y-76380950D01*
X119689704Y-76380950D02*
X119594466Y-76380950D01*
X119594466Y-76380950D02*
X119499228Y-76333331D01*
X119499228Y-76333331D02*
X119451609Y-76285712D01*
X119451609Y-76285712D02*
X119403990Y-76190474D01*
X119403990Y-76190474D02*
X119403990Y-75857141D01*
X118880180Y-77285712D02*
X119403990Y-77285712D01*
X119403990Y-77285712D02*
X119499228Y-77238093D01*
X119499228Y-77238093D02*
X119546847Y-77142855D01*
X119546847Y-77142855D02*
X119546847Y-76952379D01*
X119546847Y-76952379D02*
X119499228Y-76857141D01*
X118927800Y-77285712D02*
X118880180Y-77190474D01*
X118880180Y-77190474D02*
X118880180Y-76952379D01*
X118880180Y-76952379D02*
X118927800Y-76857141D01*
X118927800Y-76857141D02*
X119023038Y-76809522D01*
X119023038Y-76809522D02*
X119118276Y-76809522D01*
X119118276Y-76809522D02*
X119213514Y-76857141D01*
X119213514Y-76857141D02*
X119261133Y-76952379D01*
X119261133Y-76952379D02*
X119261133Y-77190474D01*
X119261133Y-77190474D02*
X119308752Y-77285712D01*
X119546847Y-77619046D02*
X119546847Y-77999998D01*
X119880180Y-77761903D02*
X119023038Y-77761903D01*
X119023038Y-77761903D02*
X118927800Y-77809522D01*
X118927800Y-77809522D02*
X118880180Y-77904760D01*
X118880180Y-77904760D02*
X118880180Y-77999998D01*
X119546847Y-78190475D02*
X119546847Y-78571427D01*
X119880180Y-78333332D02*
X119023038Y-78333332D01*
X119023038Y-78333332D02*
X118927800Y-78380951D01*
X118927800Y-78380951D02*
X118880180Y-78476189D01*
X118880180Y-78476189D02*
X118880180Y-78571427D01*
X118927800Y-79285713D02*
X118880180Y-79190475D01*
X118880180Y-79190475D02*
X118880180Y-78999999D01*
X118880180Y-78999999D02*
X118927800Y-78904761D01*
X118927800Y-78904761D02*
X119023038Y-78857142D01*
X119023038Y-78857142D02*
X119403990Y-78857142D01*
X119403990Y-78857142D02*
X119499228Y-78904761D01*
X119499228Y-78904761D02*
X119546847Y-78999999D01*
X119546847Y-78999999D02*
X119546847Y-79190475D01*
X119546847Y-79190475D02*
X119499228Y-79285713D01*
X119499228Y-79285713D02*
X119403990Y-79333332D01*
X119403990Y-79333332D02*
X119308752Y-79333332D01*
X119308752Y-79333332D02*
X119213514Y-78857142D01*
X118880180Y-79761904D02*
X119546847Y-79761904D01*
X119356371Y-79761904D02*
X119451609Y-79809523D01*
X119451609Y-79809523D02*
X119499228Y-79857142D01*
X119499228Y-79857142D02*
X119546847Y-79952380D01*
X119546847Y-79952380D02*
X119546847Y-80047618D01*
X119546847Y-80285714D02*
X118880180Y-80523809D01*
X119546847Y-80761904D02*
X118880180Y-80523809D01*
X118880180Y-80523809D02*
X118642085Y-80428571D01*
X118642085Y-80428571D02*
X118594466Y-80380952D01*
X118594466Y-80380952D02*
X118546847Y-80285714D01*
X118927800Y-81857143D02*
X118880180Y-82000000D01*
X118880180Y-82000000D02*
X118880180Y-82238095D01*
X118880180Y-82238095D02*
X118927800Y-82333333D01*
X118927800Y-82333333D02*
X118975419Y-82380952D01*
X118975419Y-82380952D02*
X119070657Y-82428571D01*
X119070657Y-82428571D02*
X119165895Y-82428571D01*
X119165895Y-82428571D02*
X119261133Y-82380952D01*
X119261133Y-82380952D02*
X119308752Y-82333333D01*
X119308752Y-82333333D02*
X119356371Y-82238095D01*
X119356371Y-82238095D02*
X119403990Y-82047619D01*
X119403990Y-82047619D02*
X119451609Y-81952381D01*
X119451609Y-81952381D02*
X119499228Y-81904762D01*
X119499228Y-81904762D02*
X119594466Y-81857143D01*
X119594466Y-81857143D02*
X119689704Y-81857143D01*
X119689704Y-81857143D02*
X119784942Y-81904762D01*
X119784942Y-81904762D02*
X119832561Y-81952381D01*
X119832561Y-81952381D02*
X119880180Y-82047619D01*
X119880180Y-82047619D02*
X119880180Y-82285714D01*
X119880180Y-82285714D02*
X119832561Y-82428571D01*
X119546847Y-82714286D02*
X119546847Y-83095238D01*
X119880180Y-82857143D02*
X119023038Y-82857143D01*
X119023038Y-82857143D02*
X118927800Y-82904762D01*
X118927800Y-82904762D02*
X118880180Y-83000000D01*
X118880180Y-83000000D02*
X118880180Y-83095238D01*
X118880180Y-83857143D02*
X119403990Y-83857143D01*
X119403990Y-83857143D02*
X119499228Y-83809524D01*
X119499228Y-83809524D02*
X119546847Y-83714286D01*
X119546847Y-83714286D02*
X119546847Y-83523810D01*
X119546847Y-83523810D02*
X119499228Y-83428572D01*
X118927800Y-83857143D02*
X118880180Y-83761905D01*
X118880180Y-83761905D02*
X118880180Y-83523810D01*
X118880180Y-83523810D02*
X118927800Y-83428572D01*
X118927800Y-83428572D02*
X119023038Y-83380953D01*
X119023038Y-83380953D02*
X119118276Y-83380953D01*
X119118276Y-83380953D02*
X119213514Y-83428572D01*
X119213514Y-83428572D02*
X119261133Y-83523810D01*
X119261133Y-83523810D02*
X119261133Y-83761905D01*
X119261133Y-83761905D02*
X119308752Y-83857143D01*
X119546847Y-84190477D02*
X119546847Y-84571429D01*
X119880180Y-84333334D02*
X119023038Y-84333334D01*
X119023038Y-84333334D02*
X118927800Y-84380953D01*
X118927800Y-84380953D02*
X118880180Y-84476191D01*
X118880180Y-84476191D02*
X118880180Y-84571429D01*
X119546847Y-85333334D02*
X118880180Y-85333334D01*
X119546847Y-84904763D02*
X119023038Y-84904763D01*
X119023038Y-84904763D02*
X118927800Y-84952382D01*
X118927800Y-84952382D02*
X118880180Y-85047620D01*
X118880180Y-85047620D02*
X118880180Y-85190477D01*
X118880180Y-85190477D02*
X118927800Y-85285715D01*
X118927800Y-85285715D02*
X118975419Y-85333334D01*
X118927800Y-85761906D02*
X118880180Y-85857144D01*
X118880180Y-85857144D02*
X118880180Y-86047620D01*
X118880180Y-86047620D02*
X118927800Y-86142858D01*
X118927800Y-86142858D02*
X119023038Y-86190477D01*
X119023038Y-86190477D02*
X119070657Y-86190477D01*
X119070657Y-86190477D02*
X119165895Y-86142858D01*
X119165895Y-86142858D02*
X119213514Y-86047620D01*
X119213514Y-86047620D02*
X119213514Y-85904763D01*
X119213514Y-85904763D02*
X119261133Y-85809525D01*
X119261133Y-85809525D02*
X119356371Y-85761906D01*
X119356371Y-85761906D02*
X119403990Y-85761906D01*
X119403990Y-85761906D02*
X119499228Y-85809525D01*
X119499228Y-85809525D02*
X119546847Y-85904763D01*
X119546847Y-85904763D02*
X119546847Y-86047620D01*
X119546847Y-86047620D02*
X119499228Y-86142858D01*
X116336779Y-76488866D02*
X117098684Y-76488866D01*
D11*
X163259336Y-88219666D02*
X161735527Y-88219666D01*
X162497431Y-87457761D02*
X162497431Y-88981571D01*
X163259336Y-94419666D02*
X161735527Y-94419666D01*
D12*
X128838095Y-62507419D02*
X128838095Y-63316942D01*
X128838095Y-63316942D02*
X128885714Y-63412180D01*
X128885714Y-63412180D02*
X128933333Y-63459800D01*
X128933333Y-63459800D02*
X129028571Y-63507419D01*
X129028571Y-63507419D02*
X129219047Y-63507419D01*
X129219047Y-63507419D02*
X129314285Y-63459800D01*
X129314285Y-63459800D02*
X129361904Y-63412180D01*
X129361904Y-63412180D02*
X129409523Y-63316942D01*
X129409523Y-63316942D02*
X129409523Y-62507419D01*
X130409523Y-63507419D02*
X129838095Y-63507419D01*
X130123809Y-63507419D02*
X130123809Y-62507419D01*
X130123809Y-62507419D02*
X130028571Y-62650276D01*
X130028571Y-62650276D02*
X129933333Y-62745514D01*
X129933333Y-62745514D02*
X129838095Y-62793133D01*
D10*
X157238095Y-66704819D02*
X157238095Y-67514342D01*
X157238095Y-67514342D02*
X157285714Y-67609580D01*
X157285714Y-67609580D02*
X157333333Y-67657200D01*
X157333333Y-67657200D02*
X157428571Y-67704819D01*
X157428571Y-67704819D02*
X157619047Y-67704819D01*
X157619047Y-67704819D02*
X157714285Y-67657200D01*
X157714285Y-67657200D02*
X157761904Y-67609580D01*
X157761904Y-67609580D02*
X157809523Y-67514342D01*
X157809523Y-67514342D02*
X157809523Y-66704819D01*
X158238095Y-66800057D02*
X158285714Y-66752438D01*
X158285714Y-66752438D02*
X158380952Y-66704819D01*
X158380952Y-66704819D02*
X158619047Y-66704819D01*
X158619047Y-66704819D02*
X158714285Y-66752438D01*
X158714285Y-66752438D02*
X158761904Y-66800057D01*
X158761904Y-66800057D02*
X158809523Y-66895295D01*
X158809523Y-66895295D02*
X158809523Y-66990533D01*
X158809523Y-66990533D02*
X158761904Y-67133390D01*
X158761904Y-67133390D02*
X158190476Y-67704819D01*
X158190476Y-67704819D02*
X158809523Y-67704819D01*
X160000595Y-58954819D02*
X160000595Y-59764342D01*
X160000595Y-59764342D02*
X160048214Y-59859580D01*
X160048214Y-59859580D02*
X160095833Y-59907200D01*
X160095833Y-59907200D02*
X160191071Y-59954819D01*
X160191071Y-59954819D02*
X160381547Y-59954819D01*
X160381547Y-59954819D02*
X160476785Y-59907200D01*
X160476785Y-59907200D02*
X160524404Y-59859580D01*
X160524404Y-59859580D02*
X160572023Y-59764342D01*
X160572023Y-59764342D02*
X160572023Y-58954819D01*
X160952976Y-58954819D02*
X161572023Y-58954819D01*
X161572023Y-58954819D02*
X161238690Y-59335771D01*
X161238690Y-59335771D02*
X161381547Y-59335771D01*
X161381547Y-59335771D02*
X161476785Y-59383390D01*
X161476785Y-59383390D02*
X161524404Y-59431009D01*
X161524404Y-59431009D02*
X161572023Y-59526247D01*
X161572023Y-59526247D02*
X161572023Y-59764342D01*
X161572023Y-59764342D02*
X161524404Y-59859580D01*
X161524404Y-59859580D02*
X161476785Y-59907200D01*
X161476785Y-59907200D02*
X161381547Y-59954819D01*
X161381547Y-59954819D02*
X161095833Y-59954819D01*
X161095833Y-59954819D02*
X161000595Y-59907200D01*
X161000595Y-59907200D02*
X160952976Y-59859580D01*
D13*
%TO.C,SW6*%
X119000000Y-92517500D02*
X119000000Y-92017500D01*
X119000000Y-88017500D02*
X119000000Y-87517500D01*
X119000000Y-87517500D02*
X117500000Y-87517500D01*
X117500000Y-92517500D02*
X119000000Y-92517500D01*
%TO.C,U1*%
D12*
X123100000Y-49300000D02*
X136100000Y-49300000D01*
X136100000Y-77800000D01*
X123100000Y-77800000D01*
X123100000Y-49300000D01*
D13*
%TO.C,SW1*%
X119000000Y-67475000D02*
X119000000Y-66975000D01*
X119000000Y-62975000D02*
X119000000Y-62475000D01*
X119000000Y-62475000D02*
X117500000Y-62475000D01*
X117500000Y-67475000D02*
X119000000Y-67475000D01*
D14*
%TO.C,R5*%
X121581667Y-88522936D02*
X121581667Y-88977064D01*
X120111667Y-88522936D02*
X120111667Y-88977064D01*
%TO.C,R1*%
X121185000Y-65227064D02*
X121185000Y-64772936D01*
X119715000Y-65227064D02*
X119715000Y-64772936D01*
%TO.C,J6*%
X118080000Y-84880000D02*
X116700000Y-84880000D01*
X118080000Y-83500000D02*
X118080000Y-84880000D01*
X118080000Y-82230000D02*
X118080000Y-82120000D01*
X118080000Y-82230000D02*
X115320000Y-82230000D01*
X118080000Y-82120000D02*
X115320000Y-82120000D01*
X115320000Y-82230000D02*
X115320000Y-82120000D01*
%TO.C,J7*%
X118080000Y-80680000D02*
X116700000Y-80680000D01*
X118080000Y-79300000D02*
X118080000Y-80680000D01*
X118080000Y-78030000D02*
X118080000Y-77920000D01*
X118080000Y-78030000D02*
X115320000Y-78030000D01*
X118080000Y-77920000D02*
X115320000Y-77920000D01*
X115320000Y-78030000D02*
X115320000Y-77920000D01*
%TO.C,R2*%
X121185000Y-71427064D02*
X121185000Y-70972936D01*
X119715000Y-71427064D02*
X119715000Y-70972936D01*
D15*
%TO.C,SW4*%
X126950000Y-90750000D02*
X135550000Y-90750000D01*
X126950000Y-91500000D02*
X126950000Y-90750000D01*
X126950000Y-95250000D02*
X126950000Y-94500000D01*
D12*
X129250000Y-90100000D02*
X129250000Y-90100000D01*
X129250000Y-90200000D02*
X129250000Y-90200000D01*
D15*
X129250000Y-95250000D02*
X129250000Y-100250000D01*
X129250000Y-100250000D02*
X131250000Y-100250000D01*
X131250000Y-100250000D02*
X131250000Y-95250000D01*
X135550000Y-90750000D02*
X135550000Y-91500000D01*
X135550000Y-94500000D02*
X135550000Y-95250000D01*
X135550000Y-95250000D02*
X126950000Y-95250000D01*
D12*
X129250000Y-90100000D02*
G75*
G02*
X129250000Y-90200000I0J-50000D01*
G01*
X129250000Y-90200000D02*
G75*
G02*
X129250000Y-90100000I0J50000D01*
G01*
D14*
%TO.C,D1*%
X119871667Y-91140000D02*
X119871667Y-94000000D01*
X121791667Y-91140000D02*
X119871667Y-91140000D01*
X121791667Y-94000000D02*
X121791667Y-91140000D01*
D13*
%TO.C,SW3*%
X119000000Y-61250000D02*
X119000000Y-60750000D01*
X119000000Y-56750000D02*
X119000000Y-56250000D01*
X119000000Y-56250000D02*
X117500000Y-56250000D01*
X117500000Y-61250000D02*
X119000000Y-61250000D01*
D14*
%TO.C,R4*%
X124148333Y-88522936D02*
X124148333Y-88977064D01*
X122678333Y-88522936D02*
X122678333Y-88977064D01*
D13*
%TO.C,SW2*%
X119000000Y-73700000D02*
X119000000Y-73200000D01*
X119000000Y-69200000D02*
X119000000Y-68700000D01*
X119000000Y-68700000D02*
X117500000Y-68700000D01*
X117500000Y-73700000D02*
X119000000Y-73700000D01*
D14*
%TO.C,D2*%
X124388333Y-94000000D02*
X124388333Y-91140000D01*
X124388333Y-91140000D02*
X122468333Y-91140000D01*
X122468333Y-91140000D02*
X122468333Y-94000000D01*
%TO.C,R3*%
X121185000Y-59027064D02*
X121185000Y-58572936D01*
X119715000Y-59027064D02*
X119715000Y-58572936D01*
%TO.C,J5*%
X124290000Y-81105000D02*
X137210000Y-81105000D01*
X126940000Y-83755000D02*
X124290000Y-83755000D01*
X124290000Y-83755000D02*
X124290000Y-81105000D01*
X137210000Y-86405000D02*
X137210000Y-81105000D01*
X126940000Y-86405000D02*
X126940000Y-83755000D01*
X126940000Y-86405000D02*
X137210000Y-86405000D01*
X125670000Y-86405000D02*
X124290000Y-86405000D01*
X124290000Y-86405000D02*
X124290000Y-85025000D01*
%TO.C,R21*%
X165465000Y-79127064D02*
X165465000Y-78672936D01*
X166935000Y-79127064D02*
X166935000Y-78672936D01*
%TO.C,R19*%
X163265000Y-66477064D02*
X163265000Y-66022936D01*
X164735000Y-66477064D02*
X164735000Y-66022936D01*
%TO.C,R14*%
X150022936Y-82735000D02*
X150477064Y-82735000D01*
X150022936Y-81265000D02*
X150477064Y-81265000D01*
%TO.C,R9*%
X154985000Y-72522936D02*
X154985000Y-72977064D01*
X153515000Y-72522936D02*
X153515000Y-72977064D01*
%TO.C,J1*%
X154040000Y-86507500D02*
X154040000Y-85127500D01*
X155420000Y-86507500D02*
X154040000Y-86507500D01*
X156690000Y-86507500D02*
X166960000Y-86507500D01*
X156690000Y-86507500D02*
X156690000Y-83857500D01*
X166960000Y-86507500D02*
X166960000Y-81207500D01*
X154040000Y-83857500D02*
X154040000Y-81207500D01*
X156690000Y-83857500D02*
X154040000Y-83857500D01*
X154040000Y-81207500D02*
X166960000Y-81207500D01*
%TO.C,C5*%
X148488748Y-69515000D02*
X149011252Y-69515000D01*
X148488748Y-70985000D02*
X149011252Y-70985000D01*
%TO.C,R20*%
X151265000Y-66477064D02*
X151265000Y-66022936D01*
X152735000Y-66477064D02*
X152735000Y-66022936D01*
%TO.C,R16*%
X151477064Y-87235000D02*
X151022936Y-87235000D01*
X151477064Y-85765000D02*
X151022936Y-85765000D01*
%TO.C,C4*%
X148451248Y-76515000D02*
X148973752Y-76515000D01*
X148451248Y-77985000D02*
X148973752Y-77985000D01*
%TO.C,R17*%
X145015000Y-85964564D02*
X145015000Y-85510436D01*
X146485000Y-85964564D02*
X146485000Y-85510436D01*
%TO.C,C3*%
X148451248Y-78765000D02*
X148973752Y-78765000D01*
X148451248Y-80235000D02*
X148973752Y-80235000D01*
%TO.C,C12*%
X150988748Y-84985000D02*
X151511252Y-84985000D01*
X150988748Y-83515000D02*
X151511252Y-83515000D01*
%TO.C,D3*%
X156350000Y-88227500D02*
X156350000Y-93737500D01*
X159650000Y-88227500D02*
X156350000Y-88227500D01*
X159650000Y-88227500D02*
X159650000Y-93737500D01*
%TO.C,U2*%
X155240000Y-64490000D02*
X155240000Y-64760000D01*
X155240000Y-70010000D02*
X155240000Y-69740000D01*
X158000000Y-64490000D02*
X155240000Y-64490000D01*
X158000000Y-64490000D02*
X160760000Y-64490000D01*
X158000000Y-70010000D02*
X155240000Y-70010000D01*
X158000000Y-70010000D02*
X160760000Y-70010000D01*
X160760000Y-64490000D02*
X160760000Y-64760000D01*
X160760000Y-70010000D02*
X160760000Y-69740000D01*
X154475000Y-64760000D02*
X154235000Y-64430000D01*
X154715000Y-64430000D01*
X154475000Y-64760000D01*
G36*
X154475000Y-64760000D02*
G01*
X154235000Y-64430000D01*
X154715000Y-64430000D01*
X154475000Y-64760000D01*
G37*
%TO.C,R6*%
X152735000Y-74477064D02*
X152735000Y-74022936D01*
X151265000Y-74477064D02*
X151265000Y-74022936D01*
%TO.C,R13*%
X162485000Y-72522936D02*
X162485000Y-72977064D01*
X161015000Y-72522936D02*
X161015000Y-72977064D01*
%TO.C,J4*%
X164020000Y-92530000D02*
X164020000Y-92420000D01*
X166780000Y-92420000D02*
X164020000Y-92420000D01*
X166780000Y-92530000D02*
X164020000Y-92530000D01*
X166780000Y-92530000D02*
X166780000Y-92420000D01*
X166780000Y-93800000D02*
X166780000Y-95180000D01*
X166780000Y-95180000D02*
X165400000Y-95180000D01*
%TO.C,R10*%
X164735000Y-74477064D02*
X164735000Y-74022936D01*
X163265000Y-74477064D02*
X163265000Y-74022936D01*
%TO.C,J3*%
X164020000Y-87630000D02*
X164020000Y-87520000D01*
X166780000Y-87520000D02*
X164020000Y-87520000D01*
X166780000Y-87630000D02*
X164020000Y-87630000D01*
X166780000Y-87630000D02*
X166780000Y-87520000D01*
X166780000Y-88900000D02*
X166780000Y-90280000D01*
X166780000Y-90280000D02*
X165400000Y-90280000D01*
%TO.C,C8*%
X157235000Y-77011252D02*
X157235000Y-76488748D01*
X155765000Y-77011252D02*
X155765000Y-76488748D01*
%TO.C,U3*%
X153200000Y-62800000D02*
X153200000Y-56200000D01*
X166200000Y-56200000D02*
X153200000Y-56200000D01*
X166200000Y-57000000D02*
X166200000Y-56200000D01*
X166200000Y-62000000D02*
X166200000Y-62800000D01*
X166200000Y-62800000D02*
X153200000Y-62800000D01*
X168200000Y-57000000D02*
X166200000Y-57000000D01*
X168200000Y-61700000D02*
X168200000Y-57000000D01*
X168200000Y-61700000D02*
X168200000Y-62000000D01*
X168200000Y-62000000D02*
X166200000Y-62000000D01*
%TO.C,C6*%
X161015000Y-77011252D02*
X161015000Y-76488748D01*
X162485000Y-77011252D02*
X162485000Y-76488748D01*
%TO.C,C10*%
X148488748Y-67265000D02*
X149011252Y-67265000D01*
X148488748Y-68735000D02*
X149011252Y-68735000D01*
%TO.C,R11*%
X160235000Y-72977064D02*
X160235000Y-72522936D01*
X158765000Y-72977064D02*
X158765000Y-72522936D01*
%TO.C,R15*%
X148522936Y-73235000D02*
X148977064Y-73235000D01*
X148522936Y-71765000D02*
X148977064Y-71765000D01*
%TO.C,C11*%
X146765000Y-65011252D02*
X146765000Y-64488748D01*
X148235000Y-65011252D02*
X148235000Y-64488748D01*
%TO.C,C1*%
X161515000Y-91088748D02*
X161515000Y-91611252D01*
X162985000Y-91088748D02*
X162985000Y-91611252D01*
%TO.C,C7*%
X153515000Y-77011252D02*
X153515000Y-76488748D01*
X154985000Y-77011252D02*
X154985000Y-76488748D01*
%TO.C,C13*%
X148973752Y-75485000D02*
X148451248Y-75485000D01*
X148973752Y-74015000D02*
X148451248Y-74015000D01*
%TO.C,R8*%
X151265000Y-70477064D02*
X151265000Y-70022936D01*
X152735000Y-70477064D02*
X152735000Y-70022936D01*
%TO.C,R12*%
X163265000Y-70477064D02*
X163265000Y-70022936D01*
X164735000Y-70477064D02*
X164735000Y-70022936D01*
%TO.C,C9*%
X160235000Y-77011252D02*
X160235000Y-76488748D01*
X158765000Y-77011252D02*
X158765000Y-76488748D01*
%TO.C,R18*%
X147265000Y-85964564D02*
X147265000Y-85510436D01*
X148735000Y-85964564D02*
X148735000Y-85510436D01*
%TO.C,J2*%
X145300000Y-91497500D02*
X145300000Y-93497500D01*
X145300000Y-95397500D02*
X145300000Y-97297500D01*
X145300000Y-97297500D02*
X154700000Y-97297500D01*
X154700000Y-91497500D02*
X154700000Y-93497500D01*
X154700000Y-95397500D02*
X154700000Y-97297500D01*
%TO.C,C2*%
X149015000Y-65048752D02*
X149015000Y-64526248D01*
X150485000Y-65048752D02*
X150485000Y-64526248D01*
%TO.C,R7*%
X155765000Y-72977064D02*
X155765000Y-72522936D01*
X157235000Y-72977064D02*
X157235000Y-72522936D01*
%TD*%
M02*
