%TF.GenerationSoftware,KiCad,Pcbnew,9.0.4*%
%TF.CreationDate,2025-09-28T00:50:50+02:00*%
%TF.ProjectId,BTM308-host-top,42544d33-3038-42d6-986f-73742d746f70,rev?*%
%TF.SameCoordinates,Original*%
%TF.FileFunction,Paste,Top*%
%TF.FilePolarity,Positive*%
%FSLAX46Y46*%
G04 Gerber Fmt 4.6, Leading zero omitted, Abs format (unit mm)*
G04 Created by KiCad (PCBNEW 9.0.4) date 2025-09-28 00:50:50*
%MOMM*%
%LPD*%
G01*
G04 APERTURE LIST*
G04 Aperture macros list*
%AMRoundRect*
0 Rectangle with rounded corners*
0 $1 Rounding radius*
0 $2 $3 $4 $5 $6 $7 $8 $9 X,Y pos of 4 corners*
0 Add a 4 corners polygon primitive as box body*
4,1,4,$2,$3,$4,$5,$6,$7,$8,$9,$2,$3,0*
0 Add four circle primitives for the rounded corners*
1,1,$1+$1,$2,$3*
1,1,$1+$1,$4,$5*
1,1,$1+$1,$6,$7*
1,1,$1+$1,$8,$9*
0 Add four rect primitives between the rounded corners*
20,1,$1+$1,$2,$3,$4,$5,0*
20,1,$1+$1,$4,$5,$6,$7,0*
20,1,$1+$1,$6,$7,$8,$9,0*
20,1,$1+$1,$8,$9,$2,$3,0*%
G04 Aperture macros list end*
%ADD10C,0.001000*%
%ADD11R,1.200000X0.600000*%
%ADD12R,2.000000X0.925000*%
%ADD13R,0.925000X2.000000*%
%ADD14RoundRect,0.250000X0.450000X-0.350000X0.450000X0.350000X-0.450000X0.350000X-0.450000X-0.350000X0*%
%ADD15RoundRect,0.250000X-0.450000X0.350000X-0.450000X-0.350000X0.450000X-0.350000X0.450000X0.350000X0*%
%ADD16RoundRect,0.250000X-0.450000X0.325000X-0.450000X-0.325000X0.450000X-0.325000X0.450000X0.325000X0*%
G04 APERTURE END LIST*
D10*
%TO.C,SW6*%
X117000000Y-88017500D02*
X116350000Y-88017500D01*
X116350000Y-88417500D01*
X115700000Y-88417500D01*
X115700000Y-87367500D01*
X117000000Y-87367500D01*
X117000000Y-88017500D01*
G36*
X117000000Y-88017500D02*
G01*
X116350000Y-88017500D01*
X116350000Y-88417500D01*
X115700000Y-88417500D01*
X115700000Y-87367500D01*
X117000000Y-87367500D01*
X117000000Y-88017500D01*
G37*
X116350000Y-92017500D02*
X117000000Y-92017500D01*
X117000000Y-92667500D01*
X115700000Y-92667500D01*
X115700000Y-91617500D01*
X116350000Y-91617500D01*
X116350000Y-92017500D01*
G36*
X116350000Y-92017500D02*
G01*
X117000000Y-92017500D01*
X117000000Y-92667500D01*
X115700000Y-92667500D01*
X115700000Y-91617500D01*
X116350000Y-91617500D01*
X116350000Y-92017500D01*
G37*
%TO.C,SW1*%
X117000000Y-62975000D02*
X116350000Y-62975000D01*
X116350000Y-63375000D01*
X115700000Y-63375000D01*
X115700000Y-62325000D01*
X117000000Y-62325000D01*
X117000000Y-62975000D01*
G36*
X117000000Y-62975000D02*
G01*
X116350000Y-62975000D01*
X116350000Y-63375000D01*
X115700000Y-63375000D01*
X115700000Y-62325000D01*
X117000000Y-62325000D01*
X117000000Y-62975000D01*
G37*
X116350000Y-66975000D02*
X117000000Y-66975000D01*
X117000000Y-67625000D01*
X115700000Y-67625000D01*
X115700000Y-66575000D01*
X116350000Y-66575000D01*
X116350000Y-66975000D01*
G36*
X116350000Y-66975000D02*
G01*
X117000000Y-66975000D01*
X117000000Y-67625000D01*
X115700000Y-67625000D01*
X115700000Y-66575000D01*
X116350000Y-66575000D01*
X116350000Y-66975000D01*
G37*
%TO.C,SW2*%
X117000000Y-69200000D02*
X116350000Y-69200000D01*
X116350000Y-69600000D01*
X115700000Y-69600000D01*
X115700000Y-68550000D01*
X117000000Y-68550000D01*
X117000000Y-69200000D01*
G36*
X117000000Y-69200000D02*
G01*
X116350000Y-69200000D01*
X116350000Y-69600000D01*
X115700000Y-69600000D01*
X115700000Y-68550000D01*
X117000000Y-68550000D01*
X117000000Y-69200000D01*
G37*
X116350000Y-73200000D02*
X117000000Y-73200000D01*
X117000000Y-73850000D01*
X115700000Y-73850000D01*
X115700000Y-72800000D01*
X116350000Y-72800000D01*
X116350000Y-73200000D01*
G36*
X116350000Y-73200000D02*
G01*
X117000000Y-73200000D01*
X117000000Y-73850000D01*
X115700000Y-73850000D01*
X115700000Y-72800000D01*
X116350000Y-72800000D01*
X116350000Y-73200000D01*
G37*
%TO.C,SW3*%
X117000000Y-56750000D02*
X116350000Y-56750000D01*
X116350000Y-57150000D01*
X115700000Y-57150000D01*
X115700000Y-56100000D01*
X117000000Y-56100000D01*
X117000000Y-56750000D01*
G36*
X117000000Y-56750000D02*
G01*
X116350000Y-56750000D01*
X116350000Y-57150000D01*
X115700000Y-57150000D01*
X115700000Y-56100000D01*
X117000000Y-56100000D01*
X117000000Y-56750000D01*
G37*
X116350000Y-60750000D02*
X117000000Y-60750000D01*
X117000000Y-61400000D01*
X115700000Y-61400000D01*
X115700000Y-60350000D01*
X116350000Y-60350000D01*
X116350000Y-60750000D01*
G36*
X116350000Y-60750000D02*
G01*
X117000000Y-60750000D01*
X117000000Y-61400000D01*
X115700000Y-61400000D01*
X115700000Y-60350000D01*
X116350000Y-60350000D01*
X116350000Y-60750000D01*
G37*
%TD*%
D11*
%TO.C,SW6*%
X118300000Y-91717500D03*
X118300000Y-88317500D03*
%TD*%
D12*
%TO.C,U1*%
X122850000Y-56800000D03*
X122850000Y-58100000D03*
X122850000Y-59400000D03*
X122850000Y-60700000D03*
X122850000Y-62000000D03*
X122850000Y-63300000D03*
X122850000Y-64600000D03*
X122850000Y-65900000D03*
X122850000Y-67200000D03*
X122850000Y-68500000D03*
X122850000Y-69800000D03*
X122850000Y-71100000D03*
X122850000Y-72400000D03*
X122850000Y-73700000D03*
X122850000Y-75000000D03*
X122850000Y-76300000D03*
D13*
X125100000Y-78050000D03*
X126400000Y-78050000D03*
X127700000Y-78050000D03*
X129000000Y-78050000D03*
X130300000Y-78050000D03*
X131600000Y-78050000D03*
X132900000Y-78050000D03*
X134200000Y-78050000D03*
D12*
X136350000Y-76300000D03*
X136350000Y-75000000D03*
X136350000Y-73700000D03*
X136350000Y-72400000D03*
X136350000Y-71100000D03*
X136350000Y-69800000D03*
X136350000Y-68500000D03*
X136350000Y-67200000D03*
X136350000Y-65900000D03*
X136350000Y-64600000D03*
X136350000Y-63300000D03*
X136350000Y-62000000D03*
X136350000Y-60700000D03*
X136350000Y-59400000D03*
X136350000Y-58100000D03*
X136350000Y-56800000D03*
%TD*%
D14*
%TO.C,R2*%
X120450000Y-72200000D03*
X120450000Y-70200000D03*
%TD*%
D11*
%TO.C,SW1*%
X118300000Y-66675000D03*
X118300000Y-63275000D03*
%TD*%
D15*
%TO.C,R5*%
X120846667Y-87750000D03*
X120846667Y-89750000D03*
%TD*%
D14*
%TO.C,R1*%
X120450000Y-66000000D03*
X120450000Y-64000000D03*
%TD*%
D11*
%TO.C,SW2*%
X118300000Y-72900000D03*
X118300000Y-69500000D03*
%TD*%
D15*
%TO.C,R4*%
X123413333Y-87750000D03*
X123413333Y-89750000D03*
%TD*%
D16*
%TO.C,D2*%
X123428333Y-91975000D03*
X123428333Y-94025000D03*
%TD*%
D11*
%TO.C,SW3*%
X118300000Y-60450000D03*
X118300000Y-57050000D03*
%TD*%
D14*
%TO.C,R3*%
X120450000Y-59800000D03*
X120450000Y-57800000D03*
%TD*%
D16*
%TO.C,D1*%
X120831667Y-91975000D03*
X120831667Y-94025000D03*
%TD*%
M02*
