%TF.GenerationSoftware,KiCad,Pcbnew,9.0.4*%
%TF.CreationDate,2025-09-28T00:50:50+02:00*%
%TF.ProjectId,BTM308-host-top,42544d33-3038-42d6-986f-73742d746f70,rev?*%
%TF.SameCoordinates,Original*%
%TF.FileFunction,Copper,L1,Top*%
%TF.FilePolarity,Positive*%
%FSLAX46Y46*%
G04 Gerber Fmt 4.6, Leading zero omitted, Abs format (unit mm)*
G04 Created by KiCad (PCBNEW 9.0.4) date 2025-09-28 00:50:50*
%MOMM*%
%LPD*%
G01*
G04 APERTURE LIST*
G04 Aperture macros list*
%AMRoundRect*
0 Rectangle with rounded corners*
0 $1 Rounding radius*
0 $2 $3 $4 $5 $6 $7 $8 $9 X,Y pos of 4 corners*
0 Add a 4 corners polygon primitive as box body*
4,1,4,$2,$3,$4,$5,$6,$7,$8,$9,$2,$3,0*
0 Add four circle primitives for the rounded corners*
1,1,$1+$1,$2,$3*
1,1,$1+$1,$4,$5*
1,1,$1+$1,$6,$7*
1,1,$1+$1,$8,$9*
0 Add four rect primitives between the rounded corners*
20,1,$1+$1,$2,$3,$4,$5,0*
20,1,$1+$1,$4,$5,$6,$7,0*
20,1,$1+$1,$6,$7,$8,$9,0*
20,1,$1+$1,$8,$9,$2,$3,0*%
G04 Aperture macros list end*
%TA.AperFunction,EtchedComponent*%
%ADD10C,0.001000*%
%TD*%
%TA.AperFunction,SMDPad,CuDef*%
%ADD11R,1.200000X0.600000*%
%TD*%
%TA.AperFunction,SMDPad,CuDef*%
%ADD12R,2.000000X0.925000*%
%TD*%
%TA.AperFunction,SMDPad,CuDef*%
%ADD13R,0.925000X2.000000*%
%TD*%
%TA.AperFunction,SMDPad,CuDef*%
%ADD14RoundRect,0.250000X0.450000X-0.350000X0.450000X0.350000X-0.450000X0.350000X-0.450000X-0.350000X0*%
%TD*%
%TA.AperFunction,ComponentPad*%
%ADD15R,1.700000X1.700000*%
%TD*%
%TA.AperFunction,SMDPad,CuDef*%
%ADD16RoundRect,0.250000X-0.450000X0.350000X-0.450000X-0.350000X0.450000X-0.350000X0.450000X0.350000X0*%
%TD*%
%TA.AperFunction,SMDPad,CuDef*%
%ADD17RoundRect,0.250000X-0.450000X0.325000X-0.450000X-0.325000X0.450000X-0.325000X0.450000X0.325000X0*%
%TD*%
%TA.AperFunction,ComponentPad*%
%ADD18C,1.700000*%
%TD*%
%TA.AperFunction,ComponentPad*%
%ADD19R,1.337000X1.337000*%
%TD*%
%TA.AperFunction,ComponentPad*%
%ADD20C,1.337000*%
%TD*%
%TA.AperFunction,ComponentPad*%
%ADD21C,2.190000*%
%TD*%
%TA.AperFunction,ViaPad*%
%ADD22C,0.600000*%
%TD*%
%TA.AperFunction,Conductor*%
%ADD23C,0.200000*%
%TD*%
%TA.AperFunction,Conductor*%
%ADD24C,0.400000*%
%TD*%
%TA.AperFunction,Conductor*%
%ADD25C,0.300000*%
%TD*%
%TA.AperFunction,Conductor*%
%ADD26C,1.000000*%
%TD*%
G04 APERTURE END LIST*
D10*
%TO.C,SW6*%
X117000000Y-88017500D02*
X116350000Y-88017500D01*
X116350000Y-88417500D01*
X115700000Y-88417500D01*
X115700000Y-87367500D01*
X117000000Y-87367500D01*
X117000000Y-88017500D01*
%TA.AperFunction,EtchedComponent*%
G36*
X117000000Y-88017500D02*
G01*
X116350000Y-88017500D01*
X116350000Y-88417500D01*
X115700000Y-88417500D01*
X115700000Y-87367500D01*
X117000000Y-87367500D01*
X117000000Y-88017500D01*
G37*
%TD.AperFunction*%
X116350000Y-92017500D02*
X117000000Y-92017500D01*
X117000000Y-92667500D01*
X115700000Y-92667500D01*
X115700000Y-91617500D01*
X116350000Y-91617500D01*
X116350000Y-92017500D01*
%TA.AperFunction,EtchedComponent*%
G36*
X116350000Y-92017500D02*
G01*
X117000000Y-92017500D01*
X117000000Y-92667500D01*
X115700000Y-92667500D01*
X115700000Y-91617500D01*
X116350000Y-91617500D01*
X116350000Y-92017500D01*
G37*
%TD.AperFunction*%
%TO.C,SW1*%
X117000000Y-62975000D02*
X116350000Y-62975000D01*
X116350000Y-63375000D01*
X115700000Y-63375000D01*
X115700000Y-62325000D01*
X117000000Y-62325000D01*
X117000000Y-62975000D01*
%TA.AperFunction,EtchedComponent*%
G36*
X117000000Y-62975000D02*
G01*
X116350000Y-62975000D01*
X116350000Y-63375000D01*
X115700000Y-63375000D01*
X115700000Y-62325000D01*
X117000000Y-62325000D01*
X117000000Y-62975000D01*
G37*
%TD.AperFunction*%
X116350000Y-66975000D02*
X117000000Y-66975000D01*
X117000000Y-67625000D01*
X115700000Y-67625000D01*
X115700000Y-66575000D01*
X116350000Y-66575000D01*
X116350000Y-66975000D01*
%TA.AperFunction,EtchedComponent*%
G36*
X116350000Y-66975000D02*
G01*
X117000000Y-66975000D01*
X117000000Y-67625000D01*
X115700000Y-67625000D01*
X115700000Y-66575000D01*
X116350000Y-66575000D01*
X116350000Y-66975000D01*
G37*
%TD.AperFunction*%
%TO.C,SW2*%
X117000000Y-69200000D02*
X116350000Y-69200000D01*
X116350000Y-69600000D01*
X115700000Y-69600000D01*
X115700000Y-68550000D01*
X117000000Y-68550000D01*
X117000000Y-69200000D01*
%TA.AperFunction,EtchedComponent*%
G36*
X117000000Y-69200000D02*
G01*
X116350000Y-69200000D01*
X116350000Y-69600000D01*
X115700000Y-69600000D01*
X115700000Y-68550000D01*
X117000000Y-68550000D01*
X117000000Y-69200000D01*
G37*
%TD.AperFunction*%
X116350000Y-73200000D02*
X117000000Y-73200000D01*
X117000000Y-73850000D01*
X115700000Y-73850000D01*
X115700000Y-72800000D01*
X116350000Y-72800000D01*
X116350000Y-73200000D01*
%TA.AperFunction,EtchedComponent*%
G36*
X116350000Y-73200000D02*
G01*
X117000000Y-73200000D01*
X117000000Y-73850000D01*
X115700000Y-73850000D01*
X115700000Y-72800000D01*
X116350000Y-72800000D01*
X116350000Y-73200000D01*
G37*
%TD.AperFunction*%
%TO.C,SW3*%
X117000000Y-56750000D02*
X116350000Y-56750000D01*
X116350000Y-57150000D01*
X115700000Y-57150000D01*
X115700000Y-56100000D01*
X117000000Y-56100000D01*
X117000000Y-56750000D01*
%TA.AperFunction,EtchedComponent*%
G36*
X117000000Y-56750000D02*
G01*
X116350000Y-56750000D01*
X116350000Y-57150000D01*
X115700000Y-57150000D01*
X115700000Y-56100000D01*
X117000000Y-56100000D01*
X117000000Y-56750000D01*
G37*
%TD.AperFunction*%
X116350000Y-60750000D02*
X117000000Y-60750000D01*
X117000000Y-61400000D01*
X115700000Y-61400000D01*
X115700000Y-60350000D01*
X116350000Y-60350000D01*
X116350000Y-60750000D01*
%TA.AperFunction,EtchedComponent*%
G36*
X116350000Y-60750000D02*
G01*
X117000000Y-60750000D01*
X117000000Y-61400000D01*
X115700000Y-61400000D01*
X115700000Y-60350000D01*
X116350000Y-60350000D01*
X116350000Y-60750000D01*
G37*
%TD.AperFunction*%
%TD*%
D11*
%TO.P,SW6,1,1*%
%TO.N,/VBAT*%
X118300000Y-91717500D03*
%TO.P,SW6,2,2*%
%TO.N,Net-(J6-Pin_1)*%
X118300000Y-88317500D03*
%TD*%
D12*
%TO.P,U1,0,PIO6*%
%TO.N,unconnected-(U1-PIO6-Pad0)*%
X122850000Y-56800000D03*
%TO.P,U1,1,PIO8*%
%TO.N,Net-(U1-PIO8)*%
X122850000Y-58100000D03*
%TO.P,U1,2,PIO1*%
%TO.N,Net-(U1-PIO1)*%
X122850000Y-59400000D03*
%TO.P,U1,3,PIO0*%
%TO.N,Net-(U1-PIO0)*%
X122850000Y-60700000D03*
%TO.P,U1,4,LED1*%
%TO.N,unconnected-(U1-LED1-Pad4)*%
X122850000Y-62000000D03*
%TO.P,U1,5,AIO0*%
%TO.N,unconnected-(U1-AIO0-Pad5)*%
X122850000Y-63300000D03*
%TO.P,U1,6,PIO17*%
%TO.N,unconnected-(U1-PIO17-Pad6)*%
X122850000Y-64600000D03*
%TO.P,U1,7,PIO9*%
%TO.N,unconnected-(U1-PIO9-Pad7)*%
X122850000Y-65900000D03*
%TO.P,U1,8,PIO7*%
%TO.N,unconnected-(U1-PIO7-Pad8)*%
X122850000Y-67200000D03*
%TO.P,U1,9,1V8*%
%TO.N,/1V8*%
X122850000Y-68500000D03*
%TO.P,U1,10,PIO16*%
%TO.N,unconnected-(U1-PIO16-Pad10)*%
X122850000Y-69800000D03*
%TO.P,U1,11,NC*%
%TO.N,unconnected-(U1-NC-Pad11)*%
X122850000Y-71100000D03*
%TO.P,U1,12,NC*%
%TO.N,unconnected-(U1-NC-Pad12)*%
X122850000Y-72400000D03*
%TO.P,U1,13,PIO21*%
%TO.N,unconnected-(U1-PIO21-Pad13)*%
X122850000Y-73700000D03*
%TO.P,U1,14,PIO18*%
%TO.N,unconnected-(U1-PIO18-Pad14)*%
X122850000Y-75000000D03*
%TO.P,U1,15,SPI_PCM*%
%TO.N,unconnected-(U1-SPI_PCM-Pad15)*%
X122850000Y-76300000D03*
D13*
%TO.P,U1,16,GND*%
%TO.N,GND*%
X125100000Y-78050000D03*
%TO.P,U1,17,USB_P*%
%TO.N,unconnected-(U1-USB_P-Pad17)*%
X126400000Y-78050000D03*
%TO.P,U1,18,USB_N*%
%TO.N,unconnected-(U1-USB_N-Pad18)*%
X127700000Y-78050000D03*
%TO.P,U1,19,RSTn*%
%TO.N,unconnected-(U1-RSTn-Pad19)*%
X129000000Y-78050000D03*
%TO.P,U1,20,MOSI*%
%TO.N,unconnected-(U1-MOSI-Pad20)*%
X130300000Y-78050000D03*
%TO.P,U1,21,CLK*%
%TO.N,unconnected-(U1-CLK-Pad21)*%
X131600000Y-78050000D03*
%TO.P,U1,22,CSB*%
%TO.N,unconnected-(U1-CSB-Pad22)*%
X132900000Y-78050000D03*
%TO.P,U1,23,MISO*%
%TO.N,unconnected-(U1-MISO-Pad23)*%
X134200000Y-78050000D03*
D12*
%TO.P,U1,24,VCHG*%
%TO.N,/VCHG*%
X136350000Y-76300000D03*
%TO.P,U1,25,GND*%
%TO.N,GND*%
X136350000Y-75000000D03*
%TO.P,U1,26,VBAT*%
%TO.N,/VBAT*%
X136350000Y-73700000D03*
%TO.P,U1,27,LED0*%
%TO.N,/LED0*%
X136350000Y-72400000D03*
%TO.P,U1,28,LED2*%
%TO.N,/LED2*%
X136350000Y-71100000D03*
%TO.P,U1,29,MFB*%
%TO.N,/MFB*%
X136350000Y-69800000D03*
%TO.P,U1,30,MIC_BIAS*%
%TO.N,unconnected-(U1-MIC_BIAS-Pad30)*%
X136350000Y-68500000D03*
%TO.P,U1,31,LINE_BP*%
%TO.N,unconnected-(U1-LINE_BP-Pad31)*%
X136350000Y-67200000D03*
%TO.P,U1,32,LINE_BN*%
%TO.N,unconnected-(U1-LINE_BN-Pad32)*%
X136350000Y-65900000D03*
%TO.P,U1,33,LINE/MIC_AP*%
%TO.N,unconnected-(U1-LINE{slash}MIC_AP-Pad33)*%
X136350000Y-64600000D03*
%TO.P,U1,34,LINE/MIC_AN*%
%TO.N,unconnected-(U1-LINE{slash}MIC_AN-Pad34)*%
X136350000Y-63300000D03*
%TO.P,U1,35,SPK_BN*%
%TO.N,/SPK_BN*%
X136350000Y-62000000D03*
%TO.P,U1,36,SPK_BP*%
%TO.N,/SPK_BP*%
X136350000Y-60700000D03*
%TO.P,U1,37,SPK_AN*%
%TO.N,/SPK_AN*%
X136350000Y-59400000D03*
%TO.P,U1,38,SPK_AP*%
%TO.N,/SPK_AP*%
X136350000Y-58100000D03*
%TO.P,U1,39,GND*%
%TO.N,AGND*%
X136350000Y-56800000D03*
%TD*%
D14*
%TO.P,R2,1*%
%TO.N,Net-(R2-Pad1)*%
X120450000Y-72200000D03*
%TO.P,R2,2*%
%TO.N,Net-(U1-PIO1)*%
X120450000Y-70200000D03*
%TD*%
D15*
%TO.P,J7,1,Pin_1*%
%TO.N,GND*%
X116700000Y-79300000D03*
%TD*%
D11*
%TO.P,SW1,1,1*%
%TO.N,/1V8*%
X118300000Y-66675000D03*
%TO.P,SW1,2,2*%
%TO.N,Net-(R1-Pad1)*%
X118300000Y-63275000D03*
%TD*%
D15*
%TO.P,J6,1,Pin_1*%
%TO.N,Net-(J6-Pin_1)*%
X116700000Y-83500000D03*
%TD*%
D16*
%TO.P,R5,1*%
%TO.N,/LED2*%
X120846667Y-87750000D03*
%TO.P,R5,2*%
%TO.N,Net-(D1-K)*%
X120846667Y-89750000D03*
%TD*%
D14*
%TO.P,R1,1*%
%TO.N,Net-(R1-Pad1)*%
X120450000Y-66000000D03*
%TO.P,R1,2*%
%TO.N,Net-(U1-PIO8)*%
X120450000Y-64000000D03*
%TD*%
D11*
%TO.P,SW2,1,1*%
%TO.N,/1V8*%
X118300000Y-72900000D03*
%TO.P,SW2,2,2*%
%TO.N,Net-(R2-Pad1)*%
X118300000Y-69500000D03*
%TD*%
D16*
%TO.P,R4,1*%
%TO.N,/LED0*%
X123413333Y-87750000D03*
%TO.P,R4,2*%
%TO.N,Net-(D2-K)*%
X123413333Y-89750000D03*
%TD*%
D17*
%TO.P,D2,1,K*%
%TO.N,Net-(D2-K)*%
X123428333Y-91975000D03*
%TO.P,D2,2,A*%
%TO.N,/VBAT*%
X123428333Y-94025000D03*
%TD*%
D11*
%TO.P,SW3,1,1*%
%TO.N,/1V8*%
X118300000Y-60450000D03*
%TO.P,SW3,2,2*%
%TO.N,Net-(R3-Pad1)*%
X118300000Y-57050000D03*
%TD*%
D14*
%TO.P,R3,1*%
%TO.N,Net-(R3-Pad1)*%
X120450000Y-59800000D03*
%TO.P,R3,2*%
%TO.N,Net-(U1-PIO0)*%
X120450000Y-57800000D03*
%TD*%
D15*
%TO.P,J5,1,Pin_1*%
%TO.N,AGND*%
X125670000Y-85025000D03*
D18*
%TO.P,J5,2,Pin_2*%
X125670000Y-82485000D03*
%TO.P,J5,3,Pin_3*%
X128210000Y-85025000D03*
%TO.P,J5,4,Pin_4*%
%TO.N,/SPK_AN*%
X128210000Y-82485000D03*
%TO.P,J5,5,Pin_5*%
%TO.N,GND*%
X130750000Y-85025000D03*
%TO.P,J5,6,Pin_6*%
%TO.N,/SPK_AP*%
X130750000Y-82485000D03*
%TO.P,J5,7,Pin_7*%
%TO.N,/VCHG*%
X133290000Y-85025000D03*
%TO.P,J5,8,Pin_8*%
%TO.N,/SPK_BP*%
X133290000Y-82485000D03*
%TO.P,J5,9,Pin_9*%
%TO.N,/VBAT*%
X135830000Y-85025000D03*
%TO.P,J5,10,Pin_10*%
%TO.N,/SPK_BN*%
X135830000Y-82485000D03*
%TD*%
D19*
%TO.P,SW4,1,A*%
%TO.N,/MFB*%
X129250000Y-93000000D03*
D20*
%TO.P,SW4,2,B*%
%TO.N,/VBAT*%
X131250000Y-93000000D03*
%TO.P,SW4,3*%
%TO.N,N/C*%
X133250000Y-93000000D03*
D21*
%TO.P,SW4,4*%
X127150000Y-93000000D03*
%TO.P,SW4,5*%
X135350000Y-93000000D03*
%TD*%
D17*
%TO.P,D1,1,K*%
%TO.N,Net-(D1-K)*%
X120831667Y-91975000D03*
%TO.P,D1,2,A*%
%TO.N,/VBAT*%
X120831667Y-94025000D03*
%TD*%
D22*
%TO.N,GND*%
X118400000Y-65000000D03*
X127700000Y-88000000D03*
X120600000Y-79300000D03*
X130600000Y-65700000D03*
X115600000Y-65300000D03*
X131000000Y-61100000D03*
X128400000Y-63300000D03*
X115800000Y-90100000D03*
X134800000Y-75200000D03*
X130800000Y-68900000D03*
X128700000Y-57400000D03*
X117700000Y-75600000D03*
X119700000Y-67700000D03*
X117700000Y-86800000D03*
X128500000Y-65800000D03*
X115800000Y-86600000D03*
X118300000Y-58800000D03*
X134600000Y-63800000D03*
X120700000Y-83500000D03*
X120600000Y-81300000D03*
X134800000Y-75800000D03*
X134500000Y-67200000D03*
X115900000Y-94000000D03*
X118500000Y-71300000D03*
X129200000Y-75600000D03*
X130400000Y-74300000D03*
X126700000Y-56700000D03*
X129600000Y-94900000D03*
X131300000Y-88000000D03*
X119900000Y-61300000D03*
X132400000Y-80300000D03*
X131400000Y-63500000D03*
X120700000Y-74900000D03*
X128700000Y-89900000D03*
X128500000Y-68300000D03*
X133400000Y-94900000D03*
X134900000Y-88000000D03*
X116000000Y-58900000D03*
X115800000Y-71800000D03*
X132300000Y-89900000D03*
X135900000Y-89900000D03*
X124000000Y-79200000D03*
X117500000Y-94100000D03*
%TO.N,/MFB*%
X129300000Y-70900000D03*
%TO.N,/SPK_AN*%
X132400000Y-59175000D03*
%TO.N,Net-(U1-PIO8)*%
X125000000Y-58000000D03*
X120750000Y-62500000D03*
%TO.N,/LED2*%
X121700000Y-86400000D03*
X127800000Y-71500000D03*
%TO.N,Net-(U1-PIO1)*%
X126100000Y-59000000D03*
X120750000Y-68750000D03*
%TO.N,/VBAT*%
X118600000Y-90800000D03*
X124900000Y-94500000D03*
X119400000Y-94400000D03*
X134700000Y-73000000D03*
X134800000Y-73900000D03*
%TO.N,/SPK_AP*%
X132400000Y-58325000D03*
%TO.N,Net-(U1-PIO0)*%
X121000000Y-56550000D03*
X124750000Y-60731671D03*
%TO.N,/SPK_BP*%
X134506472Y-60925000D03*
%TO.N,/LED0*%
X127900000Y-72293726D03*
X122600000Y-86400000D03*
%TO.N,/SPK_BN*%
X134506472Y-61775000D03*
%TO.N,AGND*%
X126400000Y-75400000D03*
X126400000Y-76100000D03*
X126400000Y-74700000D03*
X126400000Y-74000000D03*
%TD*%
D23*
%TO.N,GND*%
X125100000Y-78100000D02*
X124000000Y-79200000D01*
D24*
X134800000Y-75800000D02*
X134800000Y-75200000D01*
D23*
X125100000Y-78050000D02*
X125100000Y-78100000D01*
D24*
X135000000Y-75000000D02*
X134800000Y-75200000D01*
X136350000Y-75000000D02*
X135000000Y-75000000D01*
D25*
%TO.N,/VCHG*%
X137100000Y-85700000D02*
X136400000Y-86400000D01*
X134665000Y-86400000D02*
X133290000Y-85025000D01*
X137100000Y-77050000D02*
X137100000Y-85700000D01*
X136400000Y-86400000D02*
X134665000Y-86400000D01*
X136350000Y-76300000D02*
X137100000Y-77050000D01*
D23*
%TO.N,/MFB*%
X129400000Y-70800000D02*
X134100000Y-70800000D01*
X129300000Y-70900000D02*
X129400000Y-70800000D01*
X134100000Y-70800000D02*
X135100000Y-69800000D01*
X135100000Y-69800000D02*
X136350000Y-69800000D01*
%TO.N,/SPK_AN*%
X135925001Y-58975001D02*
X132599999Y-58975001D01*
X132599999Y-58975001D02*
X132400000Y-59175000D01*
X136350000Y-59400000D02*
X135925001Y-58975001D01*
%TO.N,Net-(U1-PIO8)*%
X125000000Y-58000000D02*
X124900000Y-58100000D01*
X120450000Y-62800000D02*
X120750000Y-62500000D01*
X120450000Y-64000000D02*
X120450000Y-62800000D01*
X124900000Y-58100000D02*
X122850000Y-58100000D01*
%TO.N,/LED2*%
X136050000Y-71400000D02*
X136350000Y-71100000D01*
X134501000Y-71999000D02*
X135100000Y-71400000D01*
X128800000Y-71500000D02*
X129299000Y-71999000D01*
X121700000Y-86400000D02*
X121700000Y-86896667D01*
X129299000Y-71999000D02*
X134501000Y-71999000D01*
X121700000Y-86896667D02*
X120846667Y-87750000D01*
X135100000Y-71400000D02*
X136050000Y-71400000D01*
X127800000Y-71500000D02*
X128800000Y-71500000D01*
%TO.N,Net-(U1-PIO1)*%
X120450000Y-69050000D02*
X120750000Y-68750000D01*
X126000000Y-59000000D02*
X125600000Y-59400000D01*
X126100000Y-59000000D02*
X126000000Y-59000000D01*
X120450000Y-70200000D02*
X120450000Y-69050000D01*
X125600000Y-59400000D02*
X122850000Y-59400000D01*
D24*
%TO.N,/VBAT*%
X134800000Y-73100000D02*
X134800000Y-73900000D01*
X135000000Y-73700000D02*
X134800000Y-73900000D01*
D23*
X120831667Y-94025000D02*
X119775000Y-94025000D01*
D24*
X136350000Y-73700000D02*
X135000000Y-73700000D01*
D23*
X119775000Y-94025000D02*
X119400000Y-94400000D01*
X123428333Y-94025000D02*
X124425000Y-94025000D01*
X118300000Y-91717500D02*
X118300000Y-91100000D01*
X118300000Y-91100000D02*
X118600000Y-90800000D01*
D24*
X134700000Y-73000000D02*
X134800000Y-73100000D01*
D23*
X124425000Y-94025000D02*
X124900000Y-94500000D01*
%TO.N,/SPK_AP*%
X135925001Y-58524999D02*
X132599999Y-58524999D01*
X136350000Y-58100000D02*
X135925001Y-58524999D01*
X132599999Y-58524999D02*
X132400000Y-58325000D01*
%TO.N,Net-(U1-PIO0)*%
X121000000Y-56550000D02*
X120750000Y-56550000D01*
X120750000Y-56550000D02*
X120450000Y-56850000D01*
X124750000Y-60731671D02*
X122881671Y-60731671D01*
X120450000Y-56850000D02*
X120450000Y-57800000D01*
X122881671Y-60731671D02*
X122850000Y-60700000D01*
%TO.N,/SPK_BP*%
X134706471Y-61124999D02*
X134506472Y-60925000D01*
X135925001Y-61124999D02*
X134706471Y-61124999D01*
X136350000Y-60700000D02*
X135925001Y-61124999D01*
%TO.N,/LED0*%
X127900000Y-72293726D02*
X129026626Y-72293726D01*
X129026626Y-72293726D02*
X129132900Y-72400000D01*
X122600000Y-86400000D02*
X122600000Y-86936667D01*
X122600000Y-86936667D02*
X123413333Y-87750000D01*
X136243726Y-72293726D02*
X136350000Y-72400000D01*
X129132900Y-72400000D02*
X134667100Y-72400000D01*
X134667100Y-72400000D02*
X134773374Y-72293726D01*
X134773374Y-72293726D02*
X136243726Y-72293726D01*
%TO.N,/SPK_BN*%
X134706471Y-61575001D02*
X134506472Y-61775000D01*
X136350000Y-62000000D02*
X135925001Y-61575001D01*
X135925001Y-61575001D02*
X134706471Y-61575001D01*
D26*
%TO.N,AGND*%
X126400000Y-74700000D02*
X126400000Y-74000000D01*
X126400000Y-76100000D02*
X126400000Y-75400000D01*
X131950000Y-56800000D02*
X136350000Y-56800000D01*
X126400000Y-75400000D02*
X126400000Y-74700000D01*
X126400000Y-74000000D02*
X126400000Y-62350000D01*
X126400000Y-62350000D02*
X131950000Y-56800000D01*
D23*
%TO.N,Net-(D1-K)*%
X120831667Y-91975000D02*
X120831667Y-89765000D01*
X120831667Y-89765000D02*
X120846667Y-89750000D01*
%TO.N,Net-(D2-K)*%
X123428333Y-89765000D02*
X123413333Y-89750000D01*
X123428333Y-91975000D02*
X123428333Y-89765000D01*
%TO.N,Net-(R1-Pad1)*%
X118300000Y-63275000D02*
X118300000Y-63850000D01*
X118300000Y-63850000D02*
X120450000Y-66000000D01*
%TO.N,Net-(R2-Pad1)*%
X118300000Y-69500000D02*
X118300000Y-70050000D01*
X118300000Y-70050000D02*
X120450000Y-72200000D01*
%TO.N,Net-(R3-Pad1)*%
X118300000Y-57650000D02*
X120450000Y-59800000D01*
X118300000Y-57050000D02*
X118300000Y-57650000D01*
%TO.N,Net-(J6-Pin_1)*%
X118300000Y-85100000D02*
X118300000Y-88317500D01*
X116700000Y-83500000D02*
X118300000Y-85100000D01*
%TO.N,/1V8*%
X116699281Y-71076000D02*
X115398500Y-69775219D01*
X122850000Y-68500000D02*
X122085500Y-68500000D01*
X118300000Y-67175000D02*
X118300000Y-66675000D01*
X115398500Y-68425115D02*
X115897115Y-67926500D01*
X122085500Y-68500000D02*
X121451000Y-69134500D01*
X118300000Y-72900000D02*
X118300000Y-72300000D01*
X115398500Y-63550219D02*
X115398500Y-62200115D01*
X115398500Y-69775219D02*
X115398500Y-68425115D01*
X115398500Y-62200115D02*
X115897115Y-61701500D01*
X118300000Y-72300000D02*
X117076000Y-71076000D01*
X118501000Y-73101000D02*
X118300000Y-72900000D01*
X121451000Y-72785160D02*
X121135160Y-73101000D01*
X118300000Y-66098281D02*
X117301719Y-65100000D01*
X121451000Y-69134500D02*
X121451000Y-72785160D01*
X117548500Y-67926500D02*
X118300000Y-67175000D01*
X118300000Y-60950000D02*
X118300000Y-60450000D01*
X116948281Y-65100000D02*
X115398500Y-63550219D01*
X117301719Y-65100000D02*
X116948281Y-65100000D01*
X121135160Y-73101000D02*
X118501000Y-73101000D01*
X115897115Y-67926500D02*
X117548500Y-67926500D01*
X117548500Y-61701500D02*
X118300000Y-60950000D01*
X118300000Y-66675000D02*
X118300000Y-66098281D01*
X115897115Y-61701500D02*
X117548500Y-61701500D01*
X117076000Y-71076000D02*
X116699281Y-71076000D01*
%TD*%
%TA.AperFunction,Conductor*%
%TO.N,GND*%
G36*
X119566593Y-92067809D02*
G01*
X119615999Y-92117214D01*
X119631167Y-92176641D01*
X119631167Y-92350000D01*
X119631168Y-92350019D01*
X119641667Y-92452796D01*
X119641668Y-92452799D01*
X119696852Y-92619331D01*
X119696854Y-92619336D01*
X119709806Y-92640335D01*
X119770978Y-92739511D01*
X119788956Y-92768657D01*
X119913013Y-92892714D01*
X119915849Y-92894463D01*
X119917384Y-92896170D01*
X119918678Y-92897193D01*
X119918503Y-92897414D01*
X119962572Y-92946411D01*
X119973793Y-93015374D01*
X119945949Y-93079456D01*
X119915849Y-93105537D01*
X119913013Y-93107285D01*
X119788956Y-93231342D01*
X119693062Y-93386813D01*
X119691316Y-93385736D01*
X119676847Y-93402168D01*
X119656815Y-93427236D01*
X119653350Y-93428851D01*
X119651884Y-93430517D01*
X119625319Y-93443163D01*
X119621572Y-93444426D01*
X119543215Y-93465423D01*
X119531221Y-93472348D01*
X119520546Y-93478510D01*
X119520543Y-93478512D01*
X119406287Y-93544477D01*
X119385336Y-93565428D01*
X119324012Y-93598912D01*
X119321848Y-93599362D01*
X119166508Y-93630261D01*
X119166498Y-93630264D01*
X119020827Y-93690602D01*
X119020814Y-93690609D01*
X118889711Y-93778210D01*
X118889707Y-93778213D01*
X118778213Y-93889707D01*
X118778210Y-93889711D01*
X118690609Y-94020814D01*
X118690602Y-94020827D01*
X118630264Y-94166498D01*
X118630261Y-94166510D01*
X118599500Y-94321153D01*
X118599500Y-94478846D01*
X118630261Y-94633489D01*
X118630264Y-94633501D01*
X118690602Y-94779172D01*
X118690609Y-94779185D01*
X118778210Y-94910288D01*
X118778213Y-94910292D01*
X118889707Y-95021786D01*
X118889711Y-95021789D01*
X119020814Y-95109390D01*
X119020827Y-95109397D01*
X119166498Y-95169735D01*
X119166503Y-95169737D01*
X119321153Y-95200499D01*
X119321156Y-95200500D01*
X119321158Y-95200500D01*
X119478844Y-95200500D01*
X119478845Y-95200499D01*
X119633497Y-95169737D01*
X119779179Y-95109394D01*
X119906925Y-95024036D01*
X119973601Y-95003159D01*
X120040909Y-95021600D01*
X120062333Y-95034814D01*
X120228870Y-95089999D01*
X120331658Y-95100500D01*
X121331675Y-95100499D01*
X121331683Y-95100498D01*
X121331686Y-95100498D01*
X121387969Y-95094748D01*
X121434464Y-95089999D01*
X121601001Y-95034814D01*
X121750323Y-94942712D01*
X121874379Y-94818656D01*
X121966481Y-94669334D01*
X122012294Y-94531077D01*
X122052065Y-94473635D01*
X122116581Y-94446811D01*
X122185357Y-94459126D01*
X122236557Y-94506668D01*
X122247705Y-94531078D01*
X122263534Y-94578846D01*
X122293519Y-94669334D01*
X122385621Y-94818656D01*
X122509677Y-94942712D01*
X122658999Y-95034814D01*
X122825536Y-95089999D01*
X122928324Y-95100500D01*
X123928341Y-95100499D01*
X123928349Y-95100498D01*
X123928352Y-95100498D01*
X123984635Y-95094748D01*
X124031130Y-95089999D01*
X124197667Y-95034814D01*
X124197668Y-95034813D01*
X124203982Y-95032721D01*
X124273810Y-95030319D01*
X124330667Y-95062746D01*
X124389707Y-95121786D01*
X124389711Y-95121789D01*
X124520814Y-95209390D01*
X124520827Y-95209397D01*
X124646469Y-95261439D01*
X124700873Y-95305280D01*
X124722938Y-95371574D01*
X124705659Y-95439273D01*
X124654522Y-95486884D01*
X124599017Y-95500000D01*
X115124000Y-95500000D01*
X115056961Y-95480315D01*
X115011206Y-95427511D01*
X115000000Y-95376000D01*
X115000000Y-92922792D01*
X115019685Y-92855753D01*
X115072489Y-92809998D01*
X115141647Y-92800054D01*
X115205203Y-92829079D01*
X115236794Y-92871280D01*
X115239727Y-92877703D01*
X115317587Y-92998855D01*
X115317589Y-92998857D01*
X115317591Y-92998860D01*
X115426436Y-93093174D01*
X115557443Y-93153003D01*
X115700000Y-93173500D01*
X115700001Y-93173500D01*
X117000000Y-93173500D01*
X117072011Y-93168350D01*
X117210200Y-93127774D01*
X117213624Y-93125574D01*
X117331355Y-93049912D01*
X117331354Y-93049912D01*
X117331360Y-93049909D01*
X117425674Y-92941064D01*
X117485503Y-92810057D01*
X117506000Y-92667500D01*
X117506000Y-92640335D01*
X117525685Y-92573296D01*
X117578489Y-92527541D01*
X117643256Y-92517046D01*
X117652127Y-92518000D01*
X118947872Y-92517999D01*
X119007483Y-92511591D01*
X119142331Y-92461296D01*
X119257546Y-92375046D01*
X119343796Y-92259831D01*
X119351770Y-92238453D01*
X119390985Y-92133310D01*
X119432855Y-92077376D01*
X119498320Y-92052958D01*
X119566593Y-92067809D01*
G37*
%TD.AperFunction*%
%TA.AperFunction,Conductor*%
G36*
X131102755Y-56019685D02*
G01*
X131148510Y-56072489D01*
X131158454Y-56141647D01*
X131129429Y-56205203D01*
X131123397Y-56211681D01*
X128413926Y-58921153D01*
X125762220Y-61572859D01*
X125762218Y-61572861D01*
X125716854Y-61618225D01*
X125622859Y-61712219D01*
X125513371Y-61876079D01*
X125513364Y-61876092D01*
X125437950Y-62058160D01*
X125437947Y-62058170D01*
X125399500Y-62251456D01*
X125399500Y-62251459D01*
X125399500Y-73901459D01*
X125399500Y-74601459D01*
X125399500Y-75301459D01*
X125399500Y-76198541D01*
X125399500Y-76198543D01*
X125399499Y-76198543D01*
X125437947Y-76391829D01*
X125437950Y-76391839D01*
X125513364Y-76573907D01*
X125513371Y-76573920D01*
X125537872Y-76610588D01*
X125558750Y-76677266D01*
X125540265Y-76744646D01*
X125534037Y-76753789D01*
X125493706Y-76807664D01*
X125493702Y-76807671D01*
X125443408Y-76942517D01*
X125437001Y-77002116D01*
X125437000Y-77002135D01*
X125437000Y-79097870D01*
X125437001Y-79097876D01*
X125443408Y-79157483D01*
X125493702Y-79292328D01*
X125493706Y-79292335D01*
X125579952Y-79407544D01*
X125579955Y-79407547D01*
X125695164Y-79493793D01*
X125695171Y-79493797D01*
X125830017Y-79544091D01*
X125830016Y-79544091D01*
X125836944Y-79544835D01*
X125889627Y-79550500D01*
X126910372Y-79550499D01*
X126969983Y-79544091D01*
X127006665Y-79530408D01*
X127076356Y-79525423D01*
X127093323Y-79530404D01*
X127130017Y-79544091D01*
X127189627Y-79550500D01*
X128210372Y-79550499D01*
X128269983Y-79544091D01*
X128306665Y-79530408D01*
X128376356Y-79525423D01*
X128393323Y-79530404D01*
X128430017Y-79544091D01*
X128489627Y-79550500D01*
X129510372Y-79550499D01*
X129569983Y-79544091D01*
X129606665Y-79530408D01*
X129676356Y-79525423D01*
X129693323Y-79530404D01*
X129730017Y-79544091D01*
X129789627Y-79550500D01*
X130810372Y-79550499D01*
X130869983Y-79544091D01*
X130906665Y-79530408D01*
X130976356Y-79525423D01*
X130993323Y-79530404D01*
X131030017Y-79544091D01*
X131089627Y-79550500D01*
X132110372Y-79550499D01*
X132169983Y-79544091D01*
X132206665Y-79530408D01*
X132276356Y-79525423D01*
X132293323Y-79530404D01*
X132330017Y-79544091D01*
X132389627Y-79550500D01*
X133410372Y-79550499D01*
X133469983Y-79544091D01*
X133506665Y-79530408D01*
X133576356Y-79525423D01*
X133593323Y-79530404D01*
X133630017Y-79544091D01*
X133689627Y-79550500D01*
X134710372Y-79550499D01*
X134769983Y-79544091D01*
X134904831Y-79493796D01*
X135020046Y-79407546D01*
X135106296Y-79292331D01*
X135156591Y-79157483D01*
X135163000Y-79097873D01*
X135162999Y-77386086D01*
X135182684Y-77319048D01*
X135235487Y-77273293D01*
X135298806Y-77263036D01*
X135298806Y-77263000D01*
X135298809Y-77262999D01*
X135298819Y-77262822D01*
X135299802Y-77262874D01*
X135300265Y-77262799D01*
X135302127Y-77263000D01*
X136325500Y-77262999D01*
X136392539Y-77282683D01*
X136438294Y-77335487D01*
X136449500Y-77386999D01*
X136449500Y-81095616D01*
X136429815Y-81162655D01*
X136377011Y-81208410D01*
X136307853Y-81218354D01*
X136287183Y-81213547D01*
X136146244Y-81167754D01*
X136146240Y-81167753D01*
X135984957Y-81142208D01*
X135936287Y-81134500D01*
X135723713Y-81134500D01*
X135675042Y-81142208D01*
X135513760Y-81167753D01*
X135311585Y-81233444D01*
X135122179Y-81329951D01*
X134950213Y-81454890D01*
X134799890Y-81605213D01*
X134674949Y-81777182D01*
X134670484Y-81785946D01*
X134622509Y-81836742D01*
X134554688Y-81853536D01*
X134488553Y-81830998D01*
X134449516Y-81785946D01*
X134445050Y-81777182D01*
X134320109Y-81605213D01*
X134169786Y-81454890D01*
X133997820Y-81329951D01*
X133808414Y-81233444D01*
X133808413Y-81233443D01*
X133808412Y-81233443D01*
X133606243Y-81167754D01*
X133606241Y-81167753D01*
X133606240Y-81167753D01*
X133444957Y-81142208D01*
X133396287Y-81134500D01*
X133183713Y-81134500D01*
X133135042Y-81142208D01*
X132973760Y-81167753D01*
X132771585Y-81233444D01*
X132582179Y-81329951D01*
X132410213Y-81454890D01*
X132259890Y-81605213D01*
X132134949Y-81777182D01*
X132130484Y-81785946D01*
X132082509Y-81836742D01*
X132014688Y-81853536D01*
X131948553Y-81830998D01*
X131909516Y-81785946D01*
X131905050Y-81777182D01*
X131780109Y-81605213D01*
X131629786Y-81454890D01*
X131457820Y-81329951D01*
X131268414Y-81233444D01*
X131268413Y-81233443D01*
X131268412Y-81233443D01*
X131066243Y-81167754D01*
X131066241Y-81167753D01*
X131066240Y-81167753D01*
X130904957Y-81142208D01*
X130856287Y-81134500D01*
X130643713Y-81134500D01*
X130595042Y-81142208D01*
X130433760Y-81167753D01*
X130231585Y-81233444D01*
X130042179Y-81329951D01*
X129870213Y-81454890D01*
X129719890Y-81605213D01*
X129594949Y-81777182D01*
X129590484Y-81785946D01*
X129542509Y-81836742D01*
X129474688Y-81853536D01*
X129408553Y-81830998D01*
X129369516Y-81785946D01*
X129365050Y-81777182D01*
X129240109Y-81605213D01*
X129089786Y-81454890D01*
X128917820Y-81329951D01*
X128728414Y-81233444D01*
X128728413Y-81233443D01*
X128728412Y-81233443D01*
X128526243Y-81167754D01*
X128526241Y-81167753D01*
X128526240Y-81167753D01*
X128364957Y-81142208D01*
X128316287Y-81134500D01*
X128103713Y-81134500D01*
X128055042Y-81142208D01*
X127893760Y-81167753D01*
X127691585Y-81233444D01*
X127502179Y-81329951D01*
X127330213Y-81454890D01*
X127179890Y-81605213D01*
X127054949Y-81777182D01*
X127050484Y-81785946D01*
X127002509Y-81836742D01*
X126934688Y-81853536D01*
X126868553Y-81830998D01*
X126829516Y-81785946D01*
X126825050Y-81777182D01*
X126700109Y-81605213D01*
X126549786Y-81454890D01*
X126377820Y-81329951D01*
X126188414Y-81233444D01*
X126188413Y-81233443D01*
X126188412Y-81233443D01*
X125986243Y-81167754D01*
X125986241Y-81167753D01*
X125986240Y-81167753D01*
X125824957Y-81142208D01*
X125776287Y-81134500D01*
X125563713Y-81134500D01*
X125515042Y-81142208D01*
X125353760Y-81167753D01*
X125151585Y-81233444D01*
X124962179Y-81329951D01*
X124790213Y-81454890D01*
X124639890Y-81605213D01*
X124514951Y-81777179D01*
X124418444Y-81966585D01*
X124352753Y-82168760D01*
X124319500Y-82378713D01*
X124319500Y-82591286D01*
X124352753Y-82801239D01*
X124418444Y-83003414D01*
X124514951Y-83192820D01*
X124639890Y-83364786D01*
X124753430Y-83478326D01*
X124786915Y-83539649D01*
X124781931Y-83609341D01*
X124740059Y-83665274D01*
X124709083Y-83682189D01*
X124577669Y-83731203D01*
X124577664Y-83731206D01*
X124462455Y-83817452D01*
X124462452Y-83817455D01*
X124376206Y-83932664D01*
X124376202Y-83932671D01*
X124325908Y-84067517D01*
X124319501Y-84127116D01*
X124319500Y-84127135D01*
X124319500Y-85922870D01*
X124319501Y-85922876D01*
X124325908Y-85982483D01*
X124376202Y-86117328D01*
X124376206Y-86117335D01*
X124462452Y-86232544D01*
X124462455Y-86232547D01*
X124577664Y-86318793D01*
X124577671Y-86318797D01*
X124712517Y-86369091D01*
X124712516Y-86369091D01*
X124719444Y-86369835D01*
X124772127Y-86375500D01*
X126567872Y-86375499D01*
X126627483Y-86369091D01*
X126762331Y-86318796D01*
X126877546Y-86232546D01*
X126963796Y-86117331D01*
X127012810Y-85985916D01*
X127054681Y-85929984D01*
X127120145Y-85905566D01*
X127188418Y-85920417D01*
X127216673Y-85941569D01*
X127330213Y-86055109D01*
X127502179Y-86180048D01*
X127502181Y-86180049D01*
X127502184Y-86180051D01*
X127691588Y-86276557D01*
X127893757Y-86342246D01*
X128103713Y-86375500D01*
X128103714Y-86375500D01*
X128316286Y-86375500D01*
X128316287Y-86375500D01*
X128526243Y-86342246D01*
X128728412Y-86276557D01*
X128917816Y-86180051D01*
X129004138Y-86117335D01*
X129089786Y-86055109D01*
X129089788Y-86055106D01*
X129089792Y-86055104D01*
X129240104Y-85904792D01*
X129240106Y-85904788D01*
X129240109Y-85904786D01*
X129365048Y-85732820D01*
X129365047Y-85732820D01*
X129365051Y-85732816D01*
X129461557Y-85543412D01*
X129527246Y-85341243D01*
X129560500Y-85131287D01*
X129560500Y-84918713D01*
X129527246Y-84708757D01*
X129461557Y-84506588D01*
X129365051Y-84317184D01*
X129365049Y-84317181D01*
X129365048Y-84317179D01*
X129240109Y-84145213D01*
X129089786Y-83994890D01*
X128917820Y-83869951D01*
X128917115Y-83869591D01*
X128909054Y-83865485D01*
X128858259Y-83817512D01*
X128841463Y-83749692D01*
X128863999Y-83683556D01*
X128909054Y-83644515D01*
X128917816Y-83640051D01*
X129007554Y-83574853D01*
X129089786Y-83515109D01*
X129089788Y-83515106D01*
X129089792Y-83515104D01*
X129240104Y-83364792D01*
X129240106Y-83364788D01*
X129240109Y-83364786D01*
X129365048Y-83192820D01*
X129365047Y-83192820D01*
X129365051Y-83192816D01*
X129369514Y-83184054D01*
X129417488Y-83133259D01*
X129485308Y-83116463D01*
X129551444Y-83138999D01*
X129590486Y-83184056D01*
X129594951Y-83192820D01*
X129719890Y-83364786D01*
X129870213Y-83515109D01*
X130042179Y-83640048D01*
X130042181Y-83640049D01*
X130042184Y-83640051D01*
X130231588Y-83736557D01*
X130433757Y-83802246D01*
X130643713Y-83835500D01*
X130643714Y-83835500D01*
X130856286Y-83835500D01*
X130856287Y-83835500D01*
X131066243Y-83802246D01*
X131268412Y-83736557D01*
X131457816Y-83640051D01*
X131547554Y-83574853D01*
X131629786Y-83515109D01*
X131629788Y-83515106D01*
X131629792Y-83515104D01*
X131780104Y-83364792D01*
X131780106Y-83364788D01*
X131780109Y-83364786D01*
X131905048Y-83192820D01*
X131905047Y-83192820D01*
X131905051Y-83192816D01*
X131909514Y-83184054D01*
X131957488Y-83133259D01*
X132025308Y-83116463D01*
X132091444Y-83138999D01*
X132130486Y-83184056D01*
X132134951Y-83192820D01*
X132259890Y-83364786D01*
X132410213Y-83515109D01*
X132582182Y-83640050D01*
X132590946Y-83644516D01*
X132641742Y-83692491D01*
X132658536Y-83760312D01*
X132635998Y-83826447D01*
X132590946Y-83865484D01*
X132582182Y-83869949D01*
X132410213Y-83994890D01*
X132259890Y-84145213D01*
X132134951Y-84317179D01*
X132038444Y-84506585D01*
X131972753Y-84708760D01*
X131959285Y-84793796D01*
X131939500Y-84918713D01*
X131939500Y-85131287D01*
X131972754Y-85341243D01*
X131975188Y-85348735D01*
X132038444Y-85543414D01*
X132134951Y-85732820D01*
X132259890Y-85904786D01*
X132410213Y-86055109D01*
X132582179Y-86180048D01*
X132582181Y-86180049D01*
X132582184Y-86180051D01*
X132771588Y-86276557D01*
X132973757Y-86342246D01*
X133183713Y-86375500D01*
X133183714Y-86375500D01*
X133396286Y-86375500D01*
X133396287Y-86375500D01*
X133506111Y-86358105D01*
X133611055Y-86341484D01*
X133611315Y-86343128D01*
X133673852Y-86346250D01*
X133720711Y-86375657D01*
X134250325Y-86905272D01*
X134250332Y-86905278D01*
X134356868Y-86976462D01*
X134356874Y-86976466D01*
X134426221Y-87005189D01*
X134475256Y-87025501D01*
X134475259Y-87025501D01*
X134475260Y-87025502D01*
X134600928Y-87050500D01*
X134600931Y-87050500D01*
X136464071Y-87050500D01*
X136548615Y-87033682D01*
X136589744Y-87025501D01*
X136708127Y-86976465D01*
X136709236Y-86975724D01*
X136814669Y-86905277D01*
X137288319Y-86431627D01*
X137349642Y-86398142D01*
X137419333Y-86403126D01*
X137475267Y-86444997D01*
X137499684Y-86510462D01*
X137500000Y-86519308D01*
X137500000Y-95376000D01*
X137480315Y-95443039D01*
X137427511Y-95488794D01*
X137376000Y-95500000D01*
X125200983Y-95500000D01*
X125133944Y-95480315D01*
X125088189Y-95427511D01*
X125078245Y-95358353D01*
X125107270Y-95294797D01*
X125153531Y-95261439D01*
X125279172Y-95209397D01*
X125279172Y-95209396D01*
X125279179Y-95209394D01*
X125410289Y-95121789D01*
X125521789Y-95010289D01*
X125609394Y-94879179D01*
X125669737Y-94733497D01*
X125700500Y-94578842D01*
X125700500Y-94421158D01*
X125700500Y-94421155D01*
X125700499Y-94421153D01*
X125696293Y-94400008D01*
X125669737Y-94266503D01*
X125649224Y-94216980D01*
X125609397Y-94120827D01*
X125609390Y-94120814D01*
X125521789Y-93989711D01*
X125521786Y-93989707D01*
X125410292Y-93878213D01*
X125410288Y-93878210D01*
X125279185Y-93790609D01*
X125279172Y-93790602D01*
X125133501Y-93730264D01*
X125133491Y-93730261D01*
X124978149Y-93699361D01*
X124961392Y-93690595D01*
X124942914Y-93686576D01*
X124917877Y-93667833D01*
X124916238Y-93666976D01*
X124914660Y-93665425D01*
X124912590Y-93663355D01*
X124912588Y-93663352D01*
X124793717Y-93544481D01*
X124793712Y-93544477D01*
X124675000Y-93475939D01*
X124674995Y-93475936D01*
X124668779Y-93472348D01*
X124656785Y-93465423D01*
X124640666Y-93461103D01*
X124632335Y-93457504D01*
X124612162Y-93440736D01*
X124589764Y-93427083D01*
X124584122Y-93417429D01*
X124578603Y-93412842D01*
X124575260Y-93402266D01*
X124566403Y-93387112D01*
X124566197Y-93387209D01*
X124565157Y-93384980D01*
X124563815Y-93382683D01*
X124563147Y-93380666D01*
X124471045Y-93231344D01*
X124346989Y-93107288D01*
X124344152Y-93105538D01*
X124342616Y-93103830D01*
X124341322Y-93102807D01*
X124341496Y-93102585D01*
X124297429Y-93053594D01*
X124286205Y-92984632D01*
X124314046Y-92920549D01*
X124323500Y-92910429D01*
X124332981Y-92901351D01*
X124346989Y-92892712D01*
X124365276Y-92874425D01*
X125554500Y-92874425D01*
X125554500Y-93125574D01*
X125593785Y-93373614D01*
X125671393Y-93612464D01*
X125731415Y-93730261D01*
X125769490Y-93804988D01*
X125785408Y-93836227D01*
X125933014Y-94039393D01*
X126110606Y-94216985D01*
X126300722Y-94355109D01*
X126313776Y-94364594D01*
X126383282Y-94400009D01*
X126537535Y-94478606D01*
X126537537Y-94478606D01*
X126537540Y-94478608D01*
X126611986Y-94502797D01*
X126776385Y-94556214D01*
X127024426Y-94595500D01*
X127024431Y-94595500D01*
X127275574Y-94595500D01*
X127523614Y-94556214D01*
X127600974Y-94531078D01*
X127762460Y-94478608D01*
X127986224Y-94364594D01*
X128189399Y-94216980D01*
X128249983Y-94156395D01*
X128311303Y-94122912D01*
X128380994Y-94127895D01*
X128457410Y-94156397D01*
X128474017Y-94162591D01*
X128474016Y-94162591D01*
X128480944Y-94163335D01*
X128533627Y-94169000D01*
X129966372Y-94168999D01*
X130025983Y-94162591D01*
X130160831Y-94112296D01*
X130276046Y-94026046D01*
X130342775Y-93936906D01*
X130398708Y-93895037D01*
X130468400Y-93890053D01*
X130514923Y-93910899D01*
X130637310Y-93999819D01*
X130801260Y-94083355D01*
X130976258Y-94140216D01*
X131036838Y-94149810D01*
X131157994Y-94169000D01*
X131157998Y-94169000D01*
X131342006Y-94169000D01*
X131432872Y-94154608D01*
X131523742Y-94140216D01*
X131698740Y-94083355D01*
X131862690Y-93999819D01*
X132011553Y-93891663D01*
X132141663Y-93761553D01*
X132149683Y-93750513D01*
X132205012Y-93707850D01*
X132274626Y-93701871D01*
X132336421Y-93734477D01*
X132350314Y-93750510D01*
X132358337Y-93761553D01*
X132488447Y-93891663D01*
X132637310Y-93999819D01*
X132801260Y-94083355D01*
X132976258Y-94140216D01*
X133036838Y-94149810D01*
X133157994Y-94169000D01*
X133157998Y-94169000D01*
X133342006Y-94169000D01*
X133432872Y-94154608D01*
X133523742Y-94140216D01*
X133698740Y-94083355D01*
X133862690Y-93999819D01*
X133920483Y-93957830D01*
X133986289Y-93934349D01*
X134054343Y-93950174D01*
X134093685Y-93985259D01*
X134133020Y-94039399D01*
X134133022Y-94039401D01*
X134310606Y-94216985D01*
X134500722Y-94355109D01*
X134513776Y-94364594D01*
X134583282Y-94400009D01*
X134737535Y-94478606D01*
X134737537Y-94478606D01*
X134737540Y-94478608D01*
X134811986Y-94502797D01*
X134976385Y-94556214D01*
X135224426Y-94595500D01*
X135224431Y-94595500D01*
X135475574Y-94595500D01*
X135723614Y-94556214D01*
X135800974Y-94531078D01*
X135962460Y-94478608D01*
X136186224Y-94364594D01*
X136321243Y-94266498D01*
X136389393Y-94216985D01*
X136389395Y-94216982D01*
X136389399Y-94216980D01*
X136566980Y-94039399D01*
X136566982Y-94039395D01*
X136566985Y-94039393D01*
X136671864Y-93895037D01*
X136714594Y-93836224D01*
X136828608Y-93612460D01*
X136906214Y-93373614D01*
X136945500Y-93125574D01*
X136945500Y-92874425D01*
X136906214Y-92626385D01*
X136840336Y-92423635D01*
X136828608Y-92387540D01*
X136828606Y-92387537D01*
X136828606Y-92387535D01*
X136766435Y-92265519D01*
X136714594Y-92163776D01*
X136692459Y-92133310D01*
X136566985Y-91960606D01*
X136389393Y-91783014D01*
X136186227Y-91635408D01*
X136186226Y-91635407D01*
X136186224Y-91635406D01*
X136077192Y-91579851D01*
X135962464Y-91521393D01*
X135723614Y-91443785D01*
X135475574Y-91404500D01*
X135475569Y-91404500D01*
X135224431Y-91404500D01*
X135224426Y-91404500D01*
X134976385Y-91443785D01*
X134737535Y-91521393D01*
X134513772Y-91635408D01*
X134310606Y-91783014D01*
X134133022Y-91960598D01*
X134133019Y-91960602D01*
X134093685Y-92014739D01*
X134038354Y-92057404D01*
X133968740Y-92063382D01*
X133920483Y-92042170D01*
X133862690Y-92000181D01*
X133698740Y-91916645D01*
X133523742Y-91859784D01*
X133523740Y-91859783D01*
X133523739Y-91859783D01*
X133342006Y-91831000D01*
X133342002Y-91831000D01*
X133157998Y-91831000D01*
X133157994Y-91831000D01*
X132976261Y-91859783D01*
X132801257Y-91916646D01*
X132637309Y-92000181D01*
X132488445Y-92108338D01*
X132358339Y-92238444D01*
X132358332Y-92238453D01*
X132350315Y-92249487D01*
X132294984Y-92292151D01*
X132225370Y-92298127D01*
X132163576Y-92265519D01*
X132149685Y-92249487D01*
X132141667Y-92238453D01*
X132141663Y-92238447D01*
X132011553Y-92108337D01*
X131862690Y-92000181D01*
X131698740Y-91916645D01*
X131523742Y-91859784D01*
X131523740Y-91859783D01*
X131523739Y-91859783D01*
X131342006Y-91831000D01*
X131342002Y-91831000D01*
X131157998Y-91831000D01*
X131157994Y-91831000D01*
X130976261Y-91859783D01*
X130801257Y-91916646D01*
X130637309Y-92000181D01*
X130514927Y-92089098D01*
X130449120Y-92112578D01*
X130381066Y-92096753D01*
X130342775Y-92063092D01*
X130306578Y-92014739D01*
X130276046Y-91973954D01*
X130276044Y-91973953D01*
X130276044Y-91973952D01*
X130160835Y-91887706D01*
X130160828Y-91887702D01*
X130025982Y-91837408D01*
X130025983Y-91837408D01*
X129966383Y-91831001D01*
X129966381Y-91831000D01*
X129966373Y-91831000D01*
X129966364Y-91831000D01*
X128533629Y-91831000D01*
X128533623Y-91831001D01*
X128474015Y-91837409D01*
X128380994Y-91872103D01*
X128311303Y-91877087D01*
X128249981Y-91843602D01*
X128189393Y-91783014D01*
X127986227Y-91635408D01*
X127986226Y-91635407D01*
X127986224Y-91635406D01*
X127877192Y-91579851D01*
X127762464Y-91521393D01*
X127523614Y-91443785D01*
X127275574Y-91404500D01*
X127275569Y-91404500D01*
X127024431Y-91404500D01*
X127024426Y-91404500D01*
X126776385Y-91443785D01*
X126537535Y-91521393D01*
X126313772Y-91635408D01*
X126110606Y-91783014D01*
X125933014Y-91960606D01*
X125785408Y-92163772D01*
X125671393Y-92387535D01*
X125593785Y-92626385D01*
X125554500Y-92874425D01*
X124365276Y-92874425D01*
X124471045Y-92768656D01*
X124563147Y-92619334D01*
X124618332Y-92452797D01*
X124628833Y-92350009D01*
X124628832Y-91599992D01*
X124618332Y-91497203D01*
X124563147Y-91330666D01*
X124471045Y-91181344D01*
X124346989Y-91057288D01*
X124215057Y-90975912D01*
X124168333Y-90923964D01*
X124157110Y-90855001D01*
X124184954Y-90790919D01*
X124215053Y-90764838D01*
X124331989Y-90692712D01*
X124456045Y-90568656D01*
X124548147Y-90419334D01*
X124603332Y-90252797D01*
X124613833Y-90150009D01*
X124613832Y-89349992D01*
X124603332Y-89247203D01*
X124548147Y-89080666D01*
X124456045Y-88931344D01*
X124362382Y-88837681D01*
X124328897Y-88776358D01*
X124333881Y-88706666D01*
X124362382Y-88662319D01*
X124403421Y-88621280D01*
X124456045Y-88568656D01*
X124548147Y-88419334D01*
X124603332Y-88252797D01*
X124613833Y-88150009D01*
X124613832Y-87349992D01*
X124608264Y-87295489D01*
X124603332Y-87247203D01*
X124603331Y-87247200D01*
X124573541Y-87157300D01*
X124548147Y-87080666D01*
X124456045Y-86931344D01*
X124331989Y-86807288D01*
X124182667Y-86715186D01*
X124016130Y-86660001D01*
X124016128Y-86660000D01*
X123913349Y-86649500D01*
X123913342Y-86649500D01*
X123517649Y-86649500D01*
X123450610Y-86629815D01*
X123404855Y-86577011D01*
X123394911Y-86507853D01*
X123396031Y-86501310D01*
X123400500Y-86478841D01*
X123400500Y-86321155D01*
X123400499Y-86321153D01*
X123369738Y-86166510D01*
X123369737Y-86166503D01*
X123349371Y-86117335D01*
X123309397Y-86020827D01*
X123309390Y-86020814D01*
X123221789Y-85889711D01*
X123221786Y-85889707D01*
X123110292Y-85778213D01*
X123110288Y-85778210D01*
X122979185Y-85690609D01*
X122979172Y-85690602D01*
X122833501Y-85630264D01*
X122833489Y-85630261D01*
X122678845Y-85599500D01*
X122678842Y-85599500D01*
X122521158Y-85599500D01*
X122521155Y-85599500D01*
X122366510Y-85630261D01*
X122366498Y-85630264D01*
X122220822Y-85690604D01*
X122220820Y-85690605D01*
X122218885Y-85691899D01*
X122217717Y-85692264D01*
X122215451Y-85693476D01*
X122215221Y-85693045D01*
X122152206Y-85712773D01*
X122084827Y-85694285D01*
X122081115Y-85691899D01*
X122079179Y-85690605D01*
X122079177Y-85690604D01*
X121933501Y-85630264D01*
X121933489Y-85630261D01*
X121778845Y-85599500D01*
X121778842Y-85599500D01*
X121621158Y-85599500D01*
X121621155Y-85599500D01*
X121466510Y-85630261D01*
X121466498Y-85630264D01*
X121320827Y-85690602D01*
X121320814Y-85690609D01*
X121189711Y-85778210D01*
X121189707Y-85778213D01*
X121078213Y-85889707D01*
X121078210Y-85889711D01*
X120990609Y-86020814D01*
X120990602Y-86020827D01*
X120930264Y-86166498D01*
X120930261Y-86166510D01*
X120899500Y-86321153D01*
X120899500Y-86478841D01*
X120903969Y-86501310D01*
X120897740Y-86570901D01*
X120854877Y-86626078D01*
X120788987Y-86649322D01*
X120782351Y-86649500D01*
X120346665Y-86649500D01*
X120346647Y-86649501D01*
X120243870Y-86660000D01*
X120243867Y-86660001D01*
X120077335Y-86715185D01*
X120077330Y-86715187D01*
X119928009Y-86807289D01*
X119803956Y-86931342D01*
X119711854Y-87080663D01*
X119711852Y-87080668D01*
X119701764Y-87111112D01*
X119656668Y-87247203D01*
X119656668Y-87247204D01*
X119656667Y-87247204D01*
X119646167Y-87349983D01*
X119646167Y-87940686D01*
X119646167Y-87940761D01*
X119646168Y-88150008D01*
X119648436Y-88172219D01*
X119648437Y-88172223D01*
X119656668Y-88252797D01*
X119656668Y-88252799D01*
X119711245Y-88417500D01*
X119711853Y-88419334D01*
X119792481Y-88550054D01*
X119803956Y-88568657D01*
X119897618Y-88662319D01*
X119931103Y-88723642D01*
X119926119Y-88793334D01*
X119897618Y-88837681D01*
X119803956Y-88931342D01*
X119711854Y-89080663D01*
X119711852Y-89080668D01*
X119703493Y-89105894D01*
X119656668Y-89247203D01*
X119656668Y-89247204D01*
X119656667Y-89247204D01*
X119646167Y-89349983D01*
X119646167Y-90150001D01*
X119646168Y-90150019D01*
X119656667Y-90252796D01*
X119656668Y-90252799D01*
X119699363Y-90381641D01*
X119711853Y-90419334D01*
X119803955Y-90568656D01*
X119928011Y-90692712D01*
X120044942Y-90764835D01*
X120091666Y-90816781D01*
X120102889Y-90885744D01*
X120075046Y-90949826D01*
X120044942Y-90975911D01*
X119913014Y-91057285D01*
X119913010Y-91057288D01*
X119788956Y-91181342D01*
X119696854Y-91330663D01*
X119696852Y-91330668D01*
X119683944Y-91369623D01*
X119642952Y-91493330D01*
X119642205Y-91495583D01*
X119602432Y-91553028D01*
X119537916Y-91579851D01*
X119469141Y-91567536D01*
X119417941Y-91519993D01*
X119400499Y-91456579D01*
X119400499Y-91369629D01*
X119400498Y-91369623D01*
X119397737Y-91343939D01*
X119394091Y-91310017D01*
X119345330Y-91179283D01*
X119340347Y-91109598D01*
X119346953Y-91088501D01*
X119359884Y-91057285D01*
X119369737Y-91033497D01*
X119400500Y-90878842D01*
X119400500Y-90721158D01*
X119400500Y-90721155D01*
X119400499Y-90721153D01*
X119370674Y-90571214D01*
X119369737Y-90566503D01*
X119329252Y-90468763D01*
X119309397Y-90420827D01*
X119309390Y-90420814D01*
X119221789Y-90289711D01*
X119221786Y-90289707D01*
X119110292Y-90178213D01*
X119110288Y-90178210D01*
X118979185Y-90090609D01*
X118979172Y-90090602D01*
X118833501Y-90030264D01*
X118833489Y-90030261D01*
X118678845Y-89999500D01*
X118678842Y-89999500D01*
X118521158Y-89999500D01*
X118521155Y-89999500D01*
X118366510Y-90030261D01*
X118366498Y-90030264D01*
X118220827Y-90090602D01*
X118220814Y-90090609D01*
X118089711Y-90178210D01*
X118089707Y-90178213D01*
X117978213Y-90289707D01*
X117978210Y-90289711D01*
X117890609Y-90420814D01*
X117890602Y-90420827D01*
X117830264Y-90566498D01*
X117830262Y-90566505D01*
X117819851Y-90618842D01*
X117787465Y-90680752D01*
X117726748Y-90715325D01*
X117656979Y-90711584D01*
X117600308Y-90670716D01*
X117583673Y-90642100D01*
X117554314Y-90571220D01*
X117554307Y-90571207D01*
X117485858Y-90468767D01*
X117485855Y-90468763D01*
X117398736Y-90381644D01*
X117398732Y-90381641D01*
X117296292Y-90313192D01*
X117296283Y-90313187D01*
X117182454Y-90266038D01*
X117182455Y-90266038D01*
X117182452Y-90266037D01*
X117182448Y-90266036D01*
X117182444Y-90266035D01*
X117061610Y-90242000D01*
X117061606Y-90242000D01*
X116938394Y-90242000D01*
X116938389Y-90242000D01*
X116817555Y-90266035D01*
X116817545Y-90266038D01*
X116703716Y-90313187D01*
X116703707Y-90313192D01*
X116601267Y-90381641D01*
X116601263Y-90381644D01*
X116514144Y-90468763D01*
X116514141Y-90468767D01*
X116445692Y-90571207D01*
X116445687Y-90571216D01*
X116398538Y-90685045D01*
X116398535Y-90685055D01*
X116374500Y-90805889D01*
X116374500Y-90929109D01*
X116381303Y-90963309D01*
X116375076Y-91032900D01*
X116332213Y-91088077D01*
X116266323Y-91111322D01*
X116259686Y-91111500D01*
X115699999Y-91111500D01*
X115627988Y-91116649D01*
X115489800Y-91157225D01*
X115489797Y-91157226D01*
X115368644Y-91235087D01*
X115368642Y-91235089D01*
X115274326Y-91343935D01*
X115274323Y-91343939D01*
X115236794Y-91426119D01*
X115191040Y-91478923D01*
X115124000Y-91498608D01*
X115056961Y-91478924D01*
X115011206Y-91426120D01*
X115000000Y-91374608D01*
X115000000Y-88672792D01*
X115019685Y-88605753D01*
X115072489Y-88559998D01*
X115141647Y-88550054D01*
X115205203Y-88579079D01*
X115236794Y-88621280D01*
X115239727Y-88627703D01*
X115317587Y-88748855D01*
X115317589Y-88748857D01*
X115317591Y-88748860D01*
X115426436Y-88843174D01*
X115557443Y-88903003D01*
X115700000Y-88923500D01*
X115700001Y-88923500D01*
X116259686Y-88923500D01*
X116326725Y-88943185D01*
X116372480Y-88995989D01*
X116382424Y-89065147D01*
X116381303Y-89071691D01*
X116374500Y-89105890D01*
X116374500Y-89229110D01*
X116398535Y-89349944D01*
X116398538Y-89349954D01*
X116445687Y-89463783D01*
X116445692Y-89463792D01*
X116514141Y-89566232D01*
X116514144Y-89566236D01*
X116601263Y-89653355D01*
X116601267Y-89653358D01*
X116703707Y-89721807D01*
X116703713Y-89721810D01*
X116703714Y-89721811D01*
X116817548Y-89768963D01*
X116938389Y-89792999D01*
X116938393Y-89793000D01*
X116938394Y-89793000D01*
X117061607Y-89793000D01*
X117061608Y-89792999D01*
X117182452Y-89768963D01*
X117296286Y-89721811D01*
X117398733Y-89653358D01*
X117485858Y-89566233D01*
X117554311Y-89463786D01*
X117601463Y-89349952D01*
X117614690Y-89283452D01*
X117626689Y-89223131D01*
X117628031Y-89223398D01*
X117651584Y-89165063D01*
X117708616Y-89124701D01*
X117748824Y-89117999D01*
X118947872Y-89117999D01*
X119007483Y-89111591D01*
X119142331Y-89061296D01*
X119257546Y-88975046D01*
X119343796Y-88859831D01*
X119394091Y-88724983D01*
X119400500Y-88665373D01*
X119400499Y-87969628D01*
X119394091Y-87910017D01*
X119343796Y-87775169D01*
X119343795Y-87775168D01*
X119343793Y-87775164D01*
X119257547Y-87659955D01*
X119257544Y-87659952D01*
X119142335Y-87573706D01*
X119142328Y-87573702D01*
X119007482Y-87523408D01*
X118999938Y-87521626D01*
X119000474Y-87519353D01*
X118946688Y-87497071D01*
X118906843Y-87439677D01*
X118900500Y-87400524D01*
X118900500Y-85189060D01*
X118900501Y-85189047D01*
X118900501Y-85020944D01*
X118873108Y-84918713D01*
X118859577Y-84868216D01*
X118816611Y-84793796D01*
X118780524Y-84731290D01*
X118780518Y-84731282D01*
X118086818Y-84037582D01*
X118053333Y-83976259D01*
X118050499Y-83949901D01*
X118050499Y-82602129D01*
X118050498Y-82602123D01*
X118050497Y-82602116D01*
X118044091Y-82542517D01*
X117993796Y-82407669D01*
X117993795Y-82407668D01*
X117993793Y-82407664D01*
X117907547Y-82292455D01*
X117907544Y-82292452D01*
X117792335Y-82206206D01*
X117792328Y-82206202D01*
X117657482Y-82155908D01*
X117657483Y-82155908D01*
X117597883Y-82149501D01*
X117597881Y-82149500D01*
X117597873Y-82149500D01*
X117597864Y-82149500D01*
X115802129Y-82149500D01*
X115802123Y-82149501D01*
X115742516Y-82155908D01*
X115607671Y-82206202D01*
X115607664Y-82206206D01*
X115492455Y-82292452D01*
X115492452Y-82292455D01*
X115406206Y-82407664D01*
X115406202Y-82407671D01*
X115355908Y-82542517D01*
X115350665Y-82591287D01*
X115349501Y-82602123D01*
X115349500Y-82602135D01*
X115349500Y-84397870D01*
X115349501Y-84397876D01*
X115355908Y-84457483D01*
X115406202Y-84592328D01*
X115406206Y-84592335D01*
X115492452Y-84707544D01*
X115492455Y-84707547D01*
X115607664Y-84793793D01*
X115607671Y-84793797D01*
X115742517Y-84844091D01*
X115742516Y-84844091D01*
X115749444Y-84844835D01*
X115802127Y-84850500D01*
X117149901Y-84850499D01*
X117216940Y-84870184D01*
X117237582Y-84886818D01*
X117663181Y-85312416D01*
X117696666Y-85373739D01*
X117699500Y-85400097D01*
X117699500Y-87111112D01*
X117679815Y-87178151D01*
X117627011Y-87223906D01*
X117557853Y-87233850D01*
X117494297Y-87204825D01*
X117462707Y-87162627D01*
X117460272Y-87157296D01*
X117382412Y-87036144D01*
X117382410Y-87036142D01*
X117382409Y-87036140D01*
X117273564Y-86941826D01*
X117142557Y-86881997D01*
X117142552Y-86881996D01*
X117072085Y-86871864D01*
X117000000Y-86861500D01*
X115700000Y-86861500D01*
X115699999Y-86861500D01*
X115627988Y-86866649D01*
X115489800Y-86907225D01*
X115489797Y-86907226D01*
X115368644Y-86985087D01*
X115368642Y-86985089D01*
X115274326Y-87093935D01*
X115274323Y-87093939D01*
X115236794Y-87176119D01*
X115191040Y-87228923D01*
X115124000Y-87248608D01*
X115056961Y-87228924D01*
X115011206Y-87176120D01*
X115000000Y-87124608D01*
X115000000Y-74105292D01*
X115019685Y-74038253D01*
X115072489Y-73992498D01*
X115141647Y-73982554D01*
X115205203Y-74011579D01*
X115236794Y-74053780D01*
X115239727Y-74060203D01*
X115317587Y-74181355D01*
X115317589Y-74181357D01*
X115317591Y-74181360D01*
X115426436Y-74275674D01*
X115557443Y-74335503D01*
X115700000Y-74356000D01*
X115700001Y-74356000D01*
X117000000Y-74356000D01*
X117072011Y-74350850D01*
X117210200Y-74310274D01*
X117215815Y-74306666D01*
X117331355Y-74232412D01*
X117331354Y-74232412D01*
X117331360Y-74232409D01*
X117425674Y-74123564D01*
X117485503Y-73992557D01*
X117506000Y-73850000D01*
X117506000Y-73822835D01*
X117525685Y-73755796D01*
X117578489Y-73710041D01*
X117643255Y-73699546D01*
X117652127Y-73700500D01*
X118406208Y-73700499D01*
X118406887Y-73700501D01*
X118418450Y-73700564D01*
X118421943Y-73701501D01*
X118580057Y-73701501D01*
X118580061Y-73701500D01*
X121048491Y-73701500D01*
X121048507Y-73701501D01*
X121222345Y-73701501D01*
X121222345Y-73704182D01*
X121278328Y-73712901D01*
X121330593Y-73759271D01*
X121349500Y-73825085D01*
X121349500Y-74210370D01*
X121349501Y-74210376D01*
X121355908Y-74269981D01*
X121369591Y-74306666D01*
X121374575Y-74376358D01*
X121369591Y-74393331D01*
X121355909Y-74430014D01*
X121355908Y-74430016D01*
X121349501Y-74489616D01*
X121349501Y-74489623D01*
X121349500Y-74489635D01*
X121349500Y-75510370D01*
X121349501Y-75510376D01*
X121355908Y-75569981D01*
X121355909Y-75569983D01*
X121365303Y-75595171D01*
X121369591Y-75606666D01*
X121374575Y-75676358D01*
X121369591Y-75693331D01*
X121355909Y-75730014D01*
X121355908Y-75730016D01*
X121349501Y-75789616D01*
X121349501Y-75789623D01*
X121349500Y-75789635D01*
X121349500Y-76810370D01*
X121349501Y-76810376D01*
X121355908Y-76869983D01*
X121406202Y-77004828D01*
X121406206Y-77004835D01*
X121492452Y-77120044D01*
X121492455Y-77120047D01*
X121607664Y-77206293D01*
X121607671Y-77206297D01*
X121742517Y-77256591D01*
X121742516Y-77256591D01*
X121749444Y-77257335D01*
X121802127Y-77263000D01*
X123897872Y-77262999D01*
X123957483Y-77256591D01*
X124092331Y-77206296D01*
X124207546Y-77120046D01*
X124293796Y-77004831D01*
X124344091Y-76869983D01*
X124350500Y-76810373D01*
X124350499Y-75789628D01*
X124344091Y-75730017D01*
X124344090Y-75730014D01*
X124330409Y-75693333D01*
X124325424Y-75623642D01*
X124330406Y-75606671D01*
X124344091Y-75569983D01*
X124350500Y-75510373D01*
X124350499Y-74489628D01*
X124344091Y-74430017D01*
X124336733Y-74410289D01*
X124330409Y-74393333D01*
X124325424Y-74323642D01*
X124330406Y-74306671D01*
X124344091Y-74269983D01*
X124350500Y-74210373D01*
X124350499Y-73189628D01*
X124344091Y-73130017D01*
X124330742Y-73094226D01*
X124330409Y-73093333D01*
X124325424Y-73023642D01*
X124330406Y-73006671D01*
X124344091Y-72969983D01*
X124350500Y-72910373D01*
X124350499Y-71889628D01*
X124344091Y-71830017D01*
X124340160Y-71819478D01*
X124330409Y-71793333D01*
X124325424Y-71723642D01*
X124330406Y-71706671D01*
X124344091Y-71669983D01*
X124350500Y-71610373D01*
X124350499Y-70589628D01*
X124344091Y-70530017D01*
X124342338Y-70525316D01*
X124330409Y-70493333D01*
X124325424Y-70423642D01*
X124330406Y-70406671D01*
X124344091Y-70369983D01*
X124350500Y-70310373D01*
X124350499Y-69289628D01*
X124344091Y-69230017D01*
X124340623Y-69220719D01*
X124330409Y-69193333D01*
X124325424Y-69123642D01*
X124330408Y-69106668D01*
X124344091Y-69069983D01*
X124350500Y-69010373D01*
X124350499Y-67989628D01*
X124344091Y-67930017D01*
X124344090Y-67930014D01*
X124330409Y-67893333D01*
X124325424Y-67823642D01*
X124330406Y-67806671D01*
X124344091Y-67769983D01*
X124350500Y-67710373D01*
X124350499Y-66689628D01*
X124344091Y-66630017D01*
X124344090Y-66630014D01*
X124330409Y-66593333D01*
X124325424Y-66523642D01*
X124330406Y-66506671D01*
X124344091Y-66469983D01*
X124350500Y-66410373D01*
X124350499Y-65389628D01*
X124344091Y-65330017D01*
X124344090Y-65330014D01*
X124330409Y-65293333D01*
X124325424Y-65223642D01*
X124330406Y-65206671D01*
X124344091Y-65169983D01*
X124350500Y-65110373D01*
X124350499Y-64089628D01*
X124344091Y-64030017D01*
X124344090Y-64030014D01*
X124330409Y-63993333D01*
X124325424Y-63923642D01*
X124330406Y-63906671D01*
X124344091Y-63869983D01*
X124350500Y-63810373D01*
X124350499Y-62789628D01*
X124344091Y-62730017D01*
X124344089Y-62730012D01*
X124330409Y-62693333D01*
X124325424Y-62623642D01*
X124330406Y-62606671D01*
X124344091Y-62569983D01*
X124350500Y-62510373D01*
X124350499Y-61618224D01*
X124370183Y-61551186D01*
X124422987Y-61505431D01*
X124492146Y-61495487D01*
X124510404Y-61500535D01*
X124510676Y-61499640D01*
X124516492Y-61501403D01*
X124516503Y-61501408D01*
X124671153Y-61532170D01*
X124671156Y-61532171D01*
X124671158Y-61532171D01*
X124828844Y-61532171D01*
X124828845Y-61532170D01*
X124983497Y-61501408D01*
X125129179Y-61441065D01*
X125260289Y-61353460D01*
X125371789Y-61241960D01*
X125459394Y-61110850D01*
X125519737Y-60965168D01*
X125550500Y-60810513D01*
X125550500Y-60652829D01*
X125550500Y-60652826D01*
X125550499Y-60652824D01*
X125519737Y-60498174D01*
X125485164Y-60414707D01*
X125459397Y-60352498D01*
X125459390Y-60352485D01*
X125371789Y-60221382D01*
X125371786Y-60221378D01*
X125362589Y-60212181D01*
X125351976Y-60192744D01*
X125337476Y-60176011D01*
X125335559Y-60162679D01*
X125329104Y-60150858D01*
X125330683Y-60128771D01*
X125327532Y-60106853D01*
X125333127Y-60094601D01*
X125334088Y-60081166D01*
X125347358Y-60063439D01*
X125356557Y-60043297D01*
X125367888Y-60036014D01*
X125375960Y-60025233D01*
X125396705Y-60017495D01*
X125415335Y-60005523D01*
X125437253Y-60002371D01*
X125441424Y-60000816D01*
X125450270Y-60000500D01*
X125513331Y-60000500D01*
X125513347Y-60000501D01*
X125520943Y-60000501D01*
X125679054Y-60000501D01*
X125679057Y-60000501D01*
X125831785Y-59959577D01*
X125892841Y-59924326D01*
X125968716Y-59880520D01*
X126018985Y-59830250D01*
X126026461Y-59824733D01*
X126050901Y-59815804D01*
X126073740Y-59803334D01*
X126089753Y-59801612D01*
X126092089Y-59800759D01*
X126093901Y-59801166D01*
X126100098Y-59800500D01*
X126178844Y-59800500D01*
X126178845Y-59800499D01*
X126333497Y-59769737D01*
X126479179Y-59709394D01*
X126610289Y-59621789D01*
X126721789Y-59510289D01*
X126809394Y-59379179D01*
X126869737Y-59233497D01*
X126900500Y-59078842D01*
X126900500Y-58921158D01*
X126900500Y-58921155D01*
X126900499Y-58921153D01*
X126876400Y-58800000D01*
X126869737Y-58766503D01*
X126859883Y-58742712D01*
X126809397Y-58620827D01*
X126809390Y-58620814D01*
X126721789Y-58489711D01*
X126721786Y-58489707D01*
X126610292Y-58378213D01*
X126610288Y-58378210D01*
X126479185Y-58290609D01*
X126479172Y-58290602D01*
X126333501Y-58230264D01*
X126333489Y-58230261D01*
X126178845Y-58199500D01*
X126178842Y-58199500D01*
X126021158Y-58199500D01*
X126021153Y-58199500D01*
X125947951Y-58214061D01*
X125878360Y-58207834D01*
X125823182Y-58164971D01*
X125799938Y-58099081D01*
X125800358Y-58080285D01*
X125800500Y-58078843D01*
X125800500Y-57921155D01*
X125800499Y-57921153D01*
X125786445Y-57850499D01*
X125769737Y-57766503D01*
X125763011Y-57750265D01*
X125709397Y-57620827D01*
X125709390Y-57620814D01*
X125621789Y-57489711D01*
X125621786Y-57489707D01*
X125510292Y-57378213D01*
X125510288Y-57378210D01*
X125379185Y-57290609D01*
X125379172Y-57290602D01*
X125233501Y-57230264D01*
X125233489Y-57230261D01*
X125078845Y-57199500D01*
X125078842Y-57199500D01*
X124921158Y-57199500D01*
X124921155Y-57199500D01*
X124766510Y-57230261D01*
X124766498Y-57230264D01*
X124620827Y-57290602D01*
X124620816Y-57290608D01*
X124543389Y-57342343D01*
X124476711Y-57363220D01*
X124409331Y-57344735D01*
X124362642Y-57292756D01*
X124350499Y-57239244D01*
X124350499Y-56289628D01*
X124344091Y-56230017D01*
X124334836Y-56205203D01*
X124320712Y-56167332D01*
X124315728Y-56097641D01*
X124349214Y-56036318D01*
X124410537Y-56002834D01*
X124436894Y-56000000D01*
X131035716Y-56000000D01*
X131102755Y-56019685D01*
G37*
%TD.AperFunction*%
%TA.AperFunction,Conductor*%
G36*
X128816698Y-72910838D02*
G01*
X128834572Y-72921158D01*
X128901115Y-72959577D01*
X129053843Y-73000500D01*
X133782152Y-73000500D01*
X133849191Y-73020185D01*
X133894946Y-73072989D01*
X133903769Y-73100308D01*
X133930261Y-73233491D01*
X133930264Y-73233501D01*
X133990602Y-73379172D01*
X133990612Y-73379190D01*
X134051732Y-73470663D01*
X134072610Y-73537340D01*
X134063192Y-73587004D01*
X134030262Y-73666506D01*
X134030260Y-73666511D01*
X133999500Y-73821153D01*
X133999500Y-73978846D01*
X134030261Y-74133489D01*
X134030264Y-74133501D01*
X134090602Y-74279172D01*
X134090609Y-74279185D01*
X134178210Y-74410288D01*
X134178213Y-74410292D01*
X134289707Y-74521786D01*
X134289711Y-74521789D01*
X134420814Y-74609390D01*
X134420827Y-74609397D01*
X134550233Y-74662998D01*
X134566503Y-74669737D01*
X134721153Y-74700499D01*
X134721156Y-74700500D01*
X134721158Y-74700500D01*
X134878844Y-74700500D01*
X134878845Y-74700499D01*
X135033497Y-74669737D01*
X135104159Y-74640467D01*
X135173626Y-74632999D01*
X135194939Y-74638845D01*
X135242517Y-74656591D01*
X135302127Y-74663000D01*
X137376000Y-74662999D01*
X137443039Y-74682684D01*
X137488794Y-74735487D01*
X137500000Y-74786999D01*
X137500000Y-75213000D01*
X137480315Y-75280039D01*
X137427511Y-75325794D01*
X137376000Y-75337000D01*
X135302129Y-75337000D01*
X135302123Y-75337001D01*
X135242516Y-75343408D01*
X135107671Y-75393702D01*
X135107664Y-75393706D01*
X134992455Y-75479952D01*
X134992452Y-75479955D01*
X134906206Y-75595164D01*
X134906202Y-75595171D01*
X134855908Y-75730017D01*
X134849501Y-75789616D01*
X134849501Y-75789623D01*
X134849500Y-75789635D01*
X134849500Y-76426412D01*
X134829815Y-76493451D01*
X134777011Y-76539206D01*
X134713694Y-76549467D01*
X134713694Y-76549500D01*
X134713690Y-76549500D01*
X134713681Y-76549678D01*
X134712716Y-76549626D01*
X134712250Y-76549701D01*
X134710373Y-76549500D01*
X134710369Y-76549500D01*
X133689629Y-76549500D01*
X133689623Y-76549501D01*
X133630016Y-76555908D01*
X133593332Y-76569591D01*
X133523640Y-76574575D01*
X133506667Y-76569591D01*
X133469982Y-76555908D01*
X133469983Y-76555908D01*
X133410383Y-76549501D01*
X133410381Y-76549500D01*
X133410373Y-76549500D01*
X133410364Y-76549500D01*
X132389629Y-76549500D01*
X132389623Y-76549501D01*
X132330016Y-76555908D01*
X132293332Y-76569591D01*
X132223640Y-76574575D01*
X132206667Y-76569591D01*
X132169982Y-76555908D01*
X132169983Y-76555908D01*
X132110383Y-76549501D01*
X132110381Y-76549500D01*
X132110373Y-76549500D01*
X132110364Y-76549500D01*
X131089629Y-76549500D01*
X131089623Y-76549501D01*
X131030016Y-76555908D01*
X130993332Y-76569591D01*
X130923640Y-76574575D01*
X130906667Y-76569591D01*
X130869982Y-76555908D01*
X130869983Y-76555908D01*
X130810383Y-76549501D01*
X130810381Y-76549500D01*
X130810373Y-76549500D01*
X130810364Y-76549500D01*
X129789629Y-76549500D01*
X129789623Y-76549501D01*
X129730016Y-76555908D01*
X129693332Y-76569591D01*
X129623640Y-76574575D01*
X129606667Y-76569591D01*
X129569982Y-76555908D01*
X129569983Y-76555908D01*
X129510383Y-76549501D01*
X129510381Y-76549500D01*
X129510373Y-76549500D01*
X129510364Y-76549500D01*
X128489629Y-76549500D01*
X128489623Y-76549501D01*
X128430016Y-76555908D01*
X128393332Y-76569591D01*
X128323640Y-76574575D01*
X128306667Y-76569591D01*
X128269982Y-76555908D01*
X128269983Y-76555908D01*
X128210383Y-76549501D01*
X128210381Y-76549500D01*
X128210373Y-76549500D01*
X128210365Y-76549500D01*
X127481419Y-76549500D01*
X127414380Y-76529815D01*
X127368625Y-76477011D01*
X127358681Y-76407853D01*
X127360910Y-76397818D01*
X127360863Y-76397809D01*
X127400500Y-76198543D01*
X127400500Y-73138860D01*
X127420185Y-73071821D01*
X127472989Y-73026066D01*
X127542147Y-73016122D01*
X127571950Y-73024298D01*
X127666503Y-73063463D01*
X127816669Y-73093333D01*
X127821153Y-73094225D01*
X127821156Y-73094226D01*
X127821158Y-73094226D01*
X127978844Y-73094226D01*
X127978845Y-73094225D01*
X128133497Y-73063463D01*
X128279179Y-73003120D01*
X128328772Y-72969983D01*
X128410875Y-72915124D01*
X128477553Y-72894246D01*
X128479766Y-72894226D01*
X128754699Y-72894226D01*
X128816698Y-72910838D01*
G37*
%TD.AperFunction*%
%TA.AperFunction,Conductor*%
G36*
X115205203Y-70431603D02*
G01*
X115211681Y-70437635D01*
X116214420Y-71440374D01*
X116214430Y-71440385D01*
X116330566Y-71556521D01*
X116395210Y-71593842D01*
X116443426Y-71644409D01*
X116456650Y-71713016D01*
X116447772Y-71748682D01*
X116398539Y-71867541D01*
X116398535Y-71867555D01*
X116374500Y-71988389D01*
X116374500Y-72111609D01*
X116381303Y-72145809D01*
X116375076Y-72215400D01*
X116332213Y-72270577D01*
X116266323Y-72293822D01*
X116259686Y-72294000D01*
X115699999Y-72294000D01*
X115627988Y-72299149D01*
X115489800Y-72339725D01*
X115489797Y-72339726D01*
X115368644Y-72417587D01*
X115368642Y-72417589D01*
X115274326Y-72526435D01*
X115274323Y-72526439D01*
X115236794Y-72608619D01*
X115191040Y-72661423D01*
X115124000Y-72681108D01*
X115056961Y-72661424D01*
X115011206Y-72608620D01*
X115000000Y-72557108D01*
X115000000Y-70525316D01*
X115019685Y-70458277D01*
X115072489Y-70412522D01*
X115141647Y-70402578D01*
X115205203Y-70431603D01*
G37*
%TD.AperFunction*%
%TA.AperFunction,Conductor*%
G36*
X117746352Y-70389034D02*
G01*
X117774112Y-70390522D01*
X117781530Y-70395196D01*
X117787801Y-70396295D01*
X117797589Y-70405315D01*
X117820543Y-70419779D01*
X117938349Y-70537585D01*
X117938355Y-70537590D01*
X119213181Y-71812416D01*
X119246666Y-71873739D01*
X119249500Y-71900097D01*
X119249500Y-72017581D01*
X119229815Y-72084620D01*
X119177011Y-72130375D01*
X119107853Y-72140319D01*
X119082168Y-72133763D01*
X119007485Y-72105909D01*
X119007483Y-72105908D01*
X118947883Y-72099501D01*
X118947881Y-72099500D01*
X118947873Y-72099500D01*
X118947864Y-72099500D01*
X118944548Y-72099322D01*
X118944611Y-72098143D01*
X118882191Y-72079815D01*
X118841843Y-72037500D01*
X118780520Y-71931284D01*
X118668716Y-71819480D01*
X118664385Y-71815149D01*
X118664374Y-71815139D01*
X117595678Y-70746443D01*
X117588324Y-70732976D01*
X117577041Y-70722578D01*
X117571920Y-70702934D01*
X117562193Y-70685120D01*
X117563025Y-70668811D01*
X117559417Y-70654968D01*
X117565077Y-70628625D01*
X117565507Y-70620203D01*
X117566980Y-70615699D01*
X117601463Y-70532452D01*
X117612698Y-70475966D01*
X117615010Y-70468901D01*
X117630745Y-70445989D01*
X117643628Y-70421360D01*
X117650250Y-70417588D01*
X117654565Y-70411306D01*
X117680187Y-70400539D01*
X117704342Y-70386784D01*
X117711954Y-70387191D01*
X117718979Y-70384240D01*
X117746352Y-70389034D01*
G37*
%TD.AperFunction*%
%TA.AperFunction,Conductor*%
G36*
X131608158Y-58659275D02*
G01*
X131664091Y-58701147D01*
X131688508Y-58766611D01*
X131679385Y-58822909D01*
X131630264Y-58941498D01*
X131630261Y-58941510D01*
X131599500Y-59096153D01*
X131599500Y-59253846D01*
X131630261Y-59408489D01*
X131630264Y-59408501D01*
X131690602Y-59554172D01*
X131690609Y-59554185D01*
X131778210Y-59685288D01*
X131778213Y-59685292D01*
X131889707Y-59796786D01*
X131889711Y-59796789D01*
X132020814Y-59884390D01*
X132020827Y-59884397D01*
X132166498Y-59944735D01*
X132166503Y-59944737D01*
X132321153Y-59975499D01*
X132321156Y-59975500D01*
X132321158Y-59975500D01*
X132478844Y-59975500D01*
X132478845Y-59975499D01*
X132633497Y-59944737D01*
X132779179Y-59884394D01*
X132910289Y-59796789D01*
X133021789Y-59685289D01*
X133058324Y-59630609D01*
X133111935Y-59585806D01*
X133161426Y-59575501D01*
X134725501Y-59575501D01*
X134792540Y-59595186D01*
X134838295Y-59647990D01*
X134849501Y-59699501D01*
X134849501Y-59910376D01*
X134855908Y-59969983D01*
X134862141Y-59986693D01*
X134867125Y-60056385D01*
X134833639Y-60117707D01*
X134772316Y-60151192D01*
X134721768Y-60151642D01*
X134585317Y-60124500D01*
X134585314Y-60124500D01*
X134427630Y-60124500D01*
X134427627Y-60124500D01*
X134272982Y-60155261D01*
X134272970Y-60155264D01*
X134127299Y-60215602D01*
X134127286Y-60215609D01*
X133996183Y-60303210D01*
X133996179Y-60303213D01*
X133884685Y-60414707D01*
X133884682Y-60414711D01*
X133797081Y-60545814D01*
X133797074Y-60545827D01*
X133736736Y-60691498D01*
X133736733Y-60691510D01*
X133705972Y-60846153D01*
X133705972Y-61003846D01*
X133736733Y-61158489D01*
X133736736Y-61158501D01*
X133796402Y-61302548D01*
X133803871Y-61372017D01*
X133796402Y-61397452D01*
X133736736Y-61541498D01*
X133736733Y-61541510D01*
X133705972Y-61696153D01*
X133705972Y-61853846D01*
X133736733Y-62008489D01*
X133736736Y-62008501D01*
X133797074Y-62154172D01*
X133797081Y-62154185D01*
X133884682Y-62285288D01*
X133884685Y-62285292D01*
X133996179Y-62396786D01*
X133996183Y-62396789D01*
X134127286Y-62484390D01*
X134127299Y-62484397D01*
X134240298Y-62531202D01*
X134272975Y-62544737D01*
X134427625Y-62575499D01*
X134427628Y-62575500D01*
X134427630Y-62575500D01*
X134585316Y-62575500D01*
X134721766Y-62548358D01*
X134791358Y-62554585D01*
X134846535Y-62597448D01*
X134869780Y-62663338D01*
X134862141Y-62713304D01*
X134855909Y-62730012D01*
X134855908Y-62730016D01*
X134852210Y-62764420D01*
X134849501Y-62789623D01*
X134849500Y-62789635D01*
X134849500Y-63810370D01*
X134849501Y-63810376D01*
X134855908Y-63869981D01*
X134869591Y-63906666D01*
X134874575Y-63976358D01*
X134869591Y-63993331D01*
X134855909Y-64030014D01*
X134855908Y-64030016D01*
X134850343Y-64081785D01*
X134849501Y-64089623D01*
X134849500Y-64089635D01*
X134849500Y-65110370D01*
X134849501Y-65110376D01*
X134855908Y-65169981D01*
X134869591Y-65206666D01*
X134874575Y-65276358D01*
X134869591Y-65293331D01*
X134855909Y-65330014D01*
X134855908Y-65330016D01*
X134849501Y-65389616D01*
X134849501Y-65389623D01*
X134849500Y-65389635D01*
X134849500Y-66410370D01*
X134849501Y-66410376D01*
X134855908Y-66469981D01*
X134869591Y-66506666D01*
X134874575Y-66576358D01*
X134869591Y-66593331D01*
X134855909Y-66630014D01*
X134855908Y-66630016D01*
X134849501Y-66689616D01*
X134849501Y-66689623D01*
X134849500Y-66689635D01*
X134849500Y-67710370D01*
X134849501Y-67710376D01*
X134855908Y-67769981D01*
X134869591Y-67806666D01*
X134874575Y-67876358D01*
X134869591Y-67893331D01*
X134855909Y-67930014D01*
X134855908Y-67930016D01*
X134849901Y-67985899D01*
X134849501Y-67989623D01*
X134849500Y-67989635D01*
X134849500Y-69010370D01*
X134849501Y-69010376D01*
X134855908Y-69069983D01*
X134869591Y-69106668D01*
X134871475Y-69133024D01*
X134877093Y-69158846D01*
X134874255Y-69171890D01*
X134874575Y-69176360D01*
X134869591Y-69193333D01*
X134869591Y-69193334D01*
X134863163Y-69210568D01*
X134821291Y-69266501D01*
X134808982Y-69274621D01*
X134731284Y-69319480D01*
X134731281Y-69319482D01*
X133887584Y-70163181D01*
X133826261Y-70196666D01*
X133799903Y-70199500D01*
X129725316Y-70199500D01*
X129677864Y-70190061D01*
X129533501Y-70130264D01*
X129533489Y-70130261D01*
X129378845Y-70099500D01*
X129378842Y-70099500D01*
X129221158Y-70099500D01*
X129221155Y-70099500D01*
X129066510Y-70130261D01*
X129066498Y-70130264D01*
X128920827Y-70190602D01*
X128920814Y-70190609D01*
X128789711Y-70278210D01*
X128789707Y-70278213D01*
X128678213Y-70389707D01*
X128678210Y-70389711D01*
X128590609Y-70520814D01*
X128590602Y-70520827D01*
X128530264Y-70666498D01*
X128530261Y-70666508D01*
X128503769Y-70799692D01*
X128489054Y-70827822D01*
X128475865Y-70856703D01*
X128472975Y-70858559D01*
X128471384Y-70861603D01*
X128443791Y-70877315D01*
X128417087Y-70894477D01*
X128412493Y-70895137D01*
X128410668Y-70896177D01*
X128382152Y-70899500D01*
X128379766Y-70899500D01*
X128312727Y-70879815D01*
X128310875Y-70878602D01*
X128179185Y-70790609D01*
X128179172Y-70790602D01*
X128033501Y-70730264D01*
X128033489Y-70730261D01*
X127878845Y-70699500D01*
X127878842Y-70699500D01*
X127721158Y-70699500D01*
X127721155Y-70699500D01*
X127566510Y-70730261D01*
X127560676Y-70732031D01*
X127559873Y-70729385D01*
X127502056Y-70735396D01*
X127439687Y-70703902D01*
X127404245Y-70643689D01*
X127400500Y-70613444D01*
X127400500Y-62815782D01*
X127420185Y-62748743D01*
X127436819Y-62728101D01*
X129422208Y-60742712D01*
X131477145Y-58687774D01*
X131538466Y-58654291D01*
X131608158Y-58659275D01*
G37*
%TD.AperFunction*%
%TA.AperFunction,Conductor*%
G36*
X119584081Y-66975240D02*
G01*
X119680666Y-67034814D01*
X119847203Y-67089999D01*
X119949991Y-67100500D01*
X120950008Y-67100499D01*
X120950016Y-67100498D01*
X120950019Y-67100498D01*
X121006302Y-67094748D01*
X121052797Y-67089999D01*
X121186497Y-67045694D01*
X121256324Y-67043293D01*
X121316366Y-67079024D01*
X121347559Y-67141545D01*
X121349500Y-67163401D01*
X121349500Y-67710370D01*
X121349501Y-67710376D01*
X121355908Y-67769981D01*
X121369591Y-67806666D01*
X121370930Y-67825394D01*
X121377216Y-67843086D01*
X121373803Y-67865571D01*
X121374575Y-67876358D01*
X121374149Y-67878247D01*
X121372350Y-67885934D01*
X121355909Y-67930017D01*
X121350698Y-67978482D01*
X121348963Y-67985899D01*
X121335344Y-68009939D01*
X121324773Y-68035459D01*
X121318367Y-68039906D01*
X121314524Y-68046691D01*
X121290073Y-68059550D01*
X121267380Y-68075306D01*
X121259586Y-68075584D01*
X121252685Y-68079214D01*
X121225164Y-68076813D01*
X121197555Y-68077799D01*
X121188093Y-68073579D01*
X121183080Y-68073142D01*
X121177585Y-68068893D01*
X121159332Y-68060753D01*
X121129185Y-68040609D01*
X121129172Y-68040602D01*
X120983501Y-67980264D01*
X120983489Y-67980261D01*
X120828845Y-67949500D01*
X120828842Y-67949500D01*
X120671158Y-67949500D01*
X120671155Y-67949500D01*
X120516510Y-67980261D01*
X120516498Y-67980264D01*
X120370827Y-68040602D01*
X120370814Y-68040609D01*
X120239711Y-68128210D01*
X120239707Y-68128213D01*
X120128213Y-68239707D01*
X120128210Y-68239711D01*
X120040609Y-68370814D01*
X120040602Y-68370827D01*
X119980264Y-68516498D01*
X119980261Y-68516510D01*
X119949500Y-68671153D01*
X119949500Y-68682665D01*
X119932887Y-68744665D01*
X119890424Y-68818211D01*
X119890423Y-68818215D01*
X119849499Y-68970943D01*
X119849499Y-68970945D01*
X119849499Y-69019699D01*
X119844807Y-69035677D01*
X119845129Y-69052329D01*
X119835166Y-69068510D01*
X119829814Y-69086738D01*
X119816940Y-69098112D01*
X119808497Y-69111826D01*
X119787799Y-69123860D01*
X119779179Y-69131477D01*
X119772025Y-69134912D01*
X119680666Y-69165186D01*
X119581071Y-69226615D01*
X119575189Y-69229441D01*
X119546882Y-69234070D01*
X119519212Y-69241642D01*
X119512833Y-69239639D01*
X119506236Y-69240719D01*
X119479917Y-69229309D01*
X119452549Y-69220719D01*
X119448265Y-69215586D01*
X119442131Y-69212927D01*
X119426158Y-69189096D01*
X119407780Y-69167076D01*
X119405423Y-69158162D01*
X119403229Y-69154889D01*
X119403124Y-69149468D01*
X119398219Y-69130917D01*
X119397437Y-69123642D01*
X119394091Y-69092517D01*
X119343796Y-68957669D01*
X119343795Y-68957668D01*
X119343793Y-68957664D01*
X119257547Y-68842455D01*
X119257544Y-68842452D01*
X119142335Y-68756206D01*
X119142328Y-68756202D01*
X119007482Y-68705908D01*
X119007483Y-68705908D01*
X118947883Y-68699501D01*
X118947881Y-68699500D01*
X118947873Y-68699500D01*
X118947865Y-68699500D01*
X117873398Y-68699500D01*
X117806359Y-68679815D01*
X117760604Y-68627011D01*
X117750660Y-68557853D01*
X117779685Y-68494297D01*
X117811391Y-68468117D01*
X117856848Y-68441873D01*
X117856850Y-68441871D01*
X117856853Y-68441871D01*
X117917209Y-68407024D01*
X117917208Y-68407024D01*
X117917216Y-68407020D01*
X118029020Y-68295216D01*
X118029020Y-68295214D01*
X118039224Y-68285011D01*
X118039228Y-68285006D01*
X118668713Y-67655521D01*
X118668716Y-67655520D01*
X118780520Y-67543716D01*
X118791365Y-67524929D01*
X118801333Y-67514373D01*
X118819474Y-67503779D01*
X118834678Y-67489283D01*
X118851136Y-67485290D01*
X118861669Y-67479140D01*
X118874270Y-67479677D01*
X118891497Y-67475499D01*
X118947871Y-67475499D01*
X118947872Y-67475499D01*
X119007483Y-67469091D01*
X119142331Y-67418796D01*
X119257546Y-67332546D01*
X119343796Y-67217331D01*
X119394091Y-67082483D01*
X119395699Y-67067523D01*
X119422436Y-67002976D01*
X119479827Y-66963127D01*
X119549653Y-66960632D01*
X119584081Y-66975240D01*
G37*
%TD.AperFunction*%
%TA.AperFunction,Conductor*%
G36*
X115205203Y-64206603D02*
G01*
X115211681Y-64212635D01*
X116411140Y-65412094D01*
X116444625Y-65473417D01*
X116439641Y-65543109D01*
X116438020Y-65547228D01*
X116398538Y-65642545D01*
X116398535Y-65642555D01*
X116374500Y-65763389D01*
X116374500Y-65886609D01*
X116381303Y-65920809D01*
X116375076Y-65990400D01*
X116332213Y-66045577D01*
X116266323Y-66068822D01*
X116259686Y-66069000D01*
X115699999Y-66069000D01*
X115627988Y-66074149D01*
X115489800Y-66114725D01*
X115489797Y-66114726D01*
X115368644Y-66192587D01*
X115368642Y-66192589D01*
X115274326Y-66301435D01*
X115274323Y-66301439D01*
X115236794Y-66383619D01*
X115191040Y-66436423D01*
X115124000Y-66456108D01*
X115056961Y-66436424D01*
X115011206Y-66383620D01*
X115000000Y-66332108D01*
X115000000Y-64300316D01*
X115019685Y-64233277D01*
X115072489Y-64187522D01*
X115141647Y-64177578D01*
X115205203Y-64206603D01*
G37*
%TD.AperFunction*%
%TA.AperFunction,Conductor*%
G36*
X117744144Y-64184992D02*
G01*
X117769966Y-64186376D01*
X117779471Y-64192365D01*
X117787222Y-64193983D01*
X117796470Y-64203076D01*
X117816396Y-64215632D01*
X117938349Y-64337585D01*
X117938355Y-64337590D01*
X119213181Y-65612416D01*
X119246666Y-65673739D01*
X119249500Y-65700097D01*
X119249500Y-65792581D01*
X119229815Y-65859620D01*
X119177011Y-65905375D01*
X119107853Y-65915319D01*
X119082168Y-65908763D01*
X119007485Y-65880909D01*
X119007483Y-65880908D01*
X118947883Y-65874501D01*
X118947881Y-65874500D01*
X118947873Y-65874500D01*
X118947865Y-65874500D01*
X118935790Y-65874500D01*
X118868751Y-65854815D01*
X118828403Y-65812500D01*
X118780522Y-65729568D01*
X118780518Y-65729563D01*
X117789309Y-64738355D01*
X117789307Y-64738352D01*
X117670436Y-64619481D01*
X117670431Y-64619477D01*
X117604647Y-64581497D01*
X117581867Y-64557606D01*
X117558320Y-64534453D01*
X117557862Y-64532431D01*
X117556431Y-64530930D01*
X117550179Y-64498494D01*
X117542893Y-64466308D01*
X117543484Y-64463757D01*
X117543208Y-64462323D01*
X117550104Y-64431758D01*
X117553430Y-64422603D01*
X117554311Y-64421286D01*
X117601463Y-64307452D01*
X117608942Y-64269846D01*
X117612172Y-64260961D01*
X117627495Y-64240127D01*
X117639482Y-64217212D01*
X117647857Y-64212442D01*
X117653570Y-64204676D01*
X117677725Y-64195433D01*
X117700197Y-64182637D01*
X117709822Y-64183152D01*
X117718826Y-64179708D01*
X117744144Y-64184992D01*
G37*
%TD.AperFunction*%
%TA.AperFunction,Conductor*%
G36*
X119561772Y-60763779D02*
G01*
X119581467Y-60773628D01*
X119680666Y-60834814D01*
X119847203Y-60889999D01*
X119949991Y-60900500D01*
X120950008Y-60900499D01*
X120950016Y-60900498D01*
X120950019Y-60900498D01*
X121006302Y-60894748D01*
X121052797Y-60889999D01*
X121186497Y-60845694D01*
X121256324Y-60843293D01*
X121316366Y-60879024D01*
X121347559Y-60941545D01*
X121349500Y-60963401D01*
X121349500Y-61210369D01*
X121349501Y-61210376D01*
X121355908Y-61269981D01*
X121369591Y-61306666D01*
X121374575Y-61376358D01*
X121369591Y-61393331D01*
X121355909Y-61430014D01*
X121355908Y-61430016D01*
X121349501Y-61489616D01*
X121349500Y-61489635D01*
X121349500Y-61705831D01*
X121329815Y-61772870D01*
X121277011Y-61818625D01*
X121207853Y-61828569D01*
X121156610Y-61808934D01*
X121129183Y-61790608D01*
X121129172Y-61790602D01*
X120983501Y-61730264D01*
X120983489Y-61730261D01*
X120828845Y-61699500D01*
X120828842Y-61699500D01*
X120671158Y-61699500D01*
X120671155Y-61699500D01*
X120516510Y-61730261D01*
X120516498Y-61730264D01*
X120370827Y-61790602D01*
X120370814Y-61790609D01*
X120239711Y-61878210D01*
X120239707Y-61878213D01*
X120128213Y-61989707D01*
X120128210Y-61989711D01*
X120040609Y-62120814D01*
X120040602Y-62120827D01*
X119980264Y-62266498D01*
X119980261Y-62266510D01*
X119949500Y-62421153D01*
X119949500Y-62432664D01*
X119945350Y-62448150D01*
X119946006Y-62461892D01*
X119932890Y-62494659D01*
X119923822Y-62510367D01*
X119923818Y-62510373D01*
X119890425Y-62568209D01*
X119890424Y-62568210D01*
X119889949Y-62569983D01*
X119849499Y-62720943D01*
X119849499Y-62720945D01*
X119849499Y-62819699D01*
X119844783Y-62835759D01*
X119845083Y-62852495D01*
X119835143Y-62868589D01*
X119829814Y-62886738D01*
X119816893Y-62898138D01*
X119808369Y-62911941D01*
X119787558Y-62924021D01*
X119779024Y-62931552D01*
X119771948Y-62934938D01*
X119680666Y-62965186D01*
X119583510Y-63025111D01*
X119577554Y-63027962D01*
X119549323Y-63032538D01*
X119521733Y-63040088D01*
X119515269Y-63038059D01*
X119508585Y-63039143D01*
X119482359Y-63027730D01*
X119455069Y-63019165D01*
X119450729Y-63013965D01*
X119444519Y-63011263D01*
X119428625Y-62987480D01*
X119410300Y-62965523D01*
X119407909Y-62956481D01*
X119405697Y-62953171D01*
X119405599Y-62947746D01*
X119400739Y-62929362D01*
X119394091Y-62867516D01*
X119343797Y-62732671D01*
X119343793Y-62732664D01*
X119257547Y-62617455D01*
X119257544Y-62617452D01*
X119142335Y-62531206D01*
X119142328Y-62531202D01*
X119007482Y-62480908D01*
X119007483Y-62480908D01*
X118947883Y-62474501D01*
X118947881Y-62474500D01*
X118947873Y-62474500D01*
X118947865Y-62474500D01*
X117873397Y-62474500D01*
X117870466Y-62473639D01*
X117867497Y-62474360D01*
X117837144Y-62463855D01*
X117806358Y-62454815D01*
X117804358Y-62452507D01*
X117801470Y-62451508D01*
X117781618Y-62426264D01*
X117760603Y-62402011D01*
X117760168Y-62398987D01*
X117758280Y-62396586D01*
X117755228Y-62364634D01*
X117750659Y-62332853D01*
X117751928Y-62330073D01*
X117751638Y-62327033D01*
X117766346Y-62298502D01*
X117779684Y-62269297D01*
X117782676Y-62266826D01*
X117783654Y-62264930D01*
X117811378Y-62243128D01*
X117811391Y-62243117D01*
X117831021Y-62231784D01*
X117917216Y-62182020D01*
X118029020Y-62070216D01*
X118029020Y-62070214D01*
X118039224Y-62060011D01*
X118039228Y-62060006D01*
X118668713Y-61430521D01*
X118668716Y-61430520D01*
X118780520Y-61318716D01*
X118791365Y-61299929D01*
X118801333Y-61289373D01*
X118819474Y-61278779D01*
X118834678Y-61264283D01*
X118851136Y-61260290D01*
X118861669Y-61254140D01*
X118874270Y-61254677D01*
X118891497Y-61250499D01*
X118947871Y-61250499D01*
X118947872Y-61250499D01*
X119007483Y-61244091D01*
X119142331Y-61193796D01*
X119257546Y-61107546D01*
X119343796Y-60992331D01*
X119394091Y-60857483D01*
X119394092Y-60857472D01*
X119395701Y-60850664D01*
X119430271Y-60789946D01*
X119492180Y-60757556D01*
X119561772Y-60763779D01*
G37*
%TD.AperFunction*%
%TA.AperFunction,Conductor*%
G36*
X115205203Y-57311579D02*
G01*
X115236794Y-57353780D01*
X115239727Y-57360203D01*
X115317587Y-57481355D01*
X115317589Y-57481357D01*
X115317591Y-57481360D01*
X115426436Y-57575674D01*
X115557443Y-57635503D01*
X115700000Y-57656000D01*
X115700001Y-57656000D01*
X116259686Y-57656000D01*
X116326725Y-57675685D01*
X116372480Y-57728489D01*
X116382424Y-57797647D01*
X116381303Y-57804191D01*
X116374500Y-57838390D01*
X116374500Y-57961610D01*
X116398535Y-58082444D01*
X116398538Y-58082454D01*
X116445687Y-58196283D01*
X116445692Y-58196292D01*
X116514141Y-58298732D01*
X116514144Y-58298736D01*
X116601263Y-58385855D01*
X116601267Y-58385858D01*
X116703707Y-58454307D01*
X116703713Y-58454310D01*
X116703714Y-58454311D01*
X116817548Y-58501463D01*
X116938389Y-58525499D01*
X116938393Y-58525500D01*
X116938394Y-58525500D01*
X117061607Y-58525500D01*
X117061608Y-58525499D01*
X117182452Y-58501463D01*
X117296286Y-58454311D01*
X117398733Y-58385858D01*
X117485858Y-58298733D01*
X117554311Y-58196286D01*
X117601463Y-58082452D01*
X117603020Y-58074619D01*
X117607779Y-58065520D01*
X117608530Y-58055278D01*
X117623696Y-58035089D01*
X117635401Y-58012711D01*
X117644326Y-58007627D01*
X117650496Y-57999415D01*
X117674172Y-57990629D01*
X117696115Y-57978133D01*
X117706371Y-57978682D01*
X117716001Y-57975109D01*
X117740668Y-57980518D01*
X117765885Y-57981869D01*
X117776030Y-57988273D01*
X117784249Y-57990076D01*
X117799218Y-58002911D01*
X117812467Y-58011275D01*
X117818925Y-58017755D01*
X117819480Y-58018716D01*
X117931284Y-58130520D01*
X117931286Y-58130521D01*
X117938355Y-58137590D01*
X119213181Y-59412416D01*
X119246666Y-59473739D01*
X119249500Y-59500097D01*
X119249500Y-59567581D01*
X119229815Y-59634620D01*
X119177011Y-59680375D01*
X119107853Y-59690319D01*
X119082168Y-59683763D01*
X119007485Y-59655909D01*
X119007483Y-59655908D01*
X118947883Y-59649501D01*
X118947881Y-59649500D01*
X118947873Y-59649500D01*
X118947865Y-59649500D01*
X117748830Y-59649500D01*
X117681791Y-59629815D01*
X117636036Y-59577011D01*
X117627210Y-59544265D01*
X117626689Y-59544369D01*
X117601464Y-59417555D01*
X117601463Y-59417548D01*
X117554311Y-59303714D01*
X117554310Y-59303713D01*
X117554307Y-59303707D01*
X117485858Y-59201267D01*
X117485855Y-59201263D01*
X117398736Y-59114144D01*
X117398732Y-59114141D01*
X117296292Y-59045692D01*
X117296283Y-59045687D01*
X117182454Y-58998538D01*
X117182455Y-58998538D01*
X117182452Y-58998537D01*
X117182448Y-58998536D01*
X117182444Y-58998535D01*
X117061610Y-58974500D01*
X117061606Y-58974500D01*
X116938394Y-58974500D01*
X116938389Y-58974500D01*
X116817555Y-58998535D01*
X116817545Y-58998538D01*
X116703716Y-59045687D01*
X116703707Y-59045692D01*
X116601267Y-59114141D01*
X116601263Y-59114144D01*
X116514144Y-59201263D01*
X116514141Y-59201267D01*
X116445692Y-59303707D01*
X116445687Y-59303716D01*
X116398538Y-59417545D01*
X116398535Y-59417555D01*
X116374500Y-59538389D01*
X116374500Y-59661609D01*
X116381303Y-59695809D01*
X116375076Y-59765400D01*
X116332213Y-59820577D01*
X116266323Y-59843822D01*
X116259686Y-59844000D01*
X115699999Y-59844000D01*
X115627988Y-59849149D01*
X115489800Y-59889725D01*
X115489797Y-59889726D01*
X115368644Y-59967587D01*
X115368642Y-59967589D01*
X115368640Y-59967590D01*
X115368640Y-59967591D01*
X115361788Y-59975499D01*
X115274326Y-60076435D01*
X115274323Y-60076439D01*
X115236794Y-60158619D01*
X115191040Y-60211423D01*
X115124000Y-60231108D01*
X115056961Y-60211424D01*
X115011206Y-60158620D01*
X115000000Y-60107108D01*
X115000000Y-57405292D01*
X115019685Y-57338253D01*
X115072489Y-57292498D01*
X115141647Y-57282554D01*
X115205203Y-57311579D01*
G37*
%TD.AperFunction*%
%TD*%
M02*
