%TF.GenerationSoftware,KiCad,Pcbnew,9.0.4*%
%TF.CreationDate,2025-09-28T00:50:50+02:00*%
%TF.ProjectId,BTM308-host-top,42544d33-3038-42d6-986f-73742d746f70,rev?*%
%TF.SameCoordinates,Original*%
%TF.FileFunction,Copper,L2,Inr*%
%TF.FilePolarity,Positive*%
%FSLAX46Y46*%
G04 Gerber Fmt 4.6, Leading zero omitted, Abs format (unit mm)*
G04 Created by KiCad (PCBNEW 9.0.4) date 2025-09-28 00:50:50*
%MOMM*%
%LPD*%
G01*
G04 APERTURE LIST*
%TA.AperFunction,ComponentPad*%
%ADD10R,1.700000X1.700000*%
%TD*%
%TA.AperFunction,ComponentPad*%
%ADD11C,1.700000*%
%TD*%
%TA.AperFunction,ComponentPad*%
%ADD12R,1.337000X1.337000*%
%TD*%
%TA.AperFunction,ComponentPad*%
%ADD13C,1.337000*%
%TD*%
%TA.AperFunction,ComponentPad*%
%ADD14C,2.190000*%
%TD*%
%TA.AperFunction,ViaPad*%
%ADD15C,0.600000*%
%TD*%
G04 APERTURE END LIST*
D10*
%TO.N,GND*%
%TO.C,J7*%
X116700000Y-79300000D03*
%TD*%
%TO.N,Net-(J6-Pin_1)*%
%TO.C,J6*%
X116700000Y-83500000D03*
%TD*%
%TO.N,AGND*%
%TO.C,J5*%
X125670000Y-85025000D03*
D11*
X125670000Y-82485000D03*
X128210000Y-85025000D03*
%TO.N,/SPK_AN*%
X128210000Y-82485000D03*
%TO.N,GND*%
X130750000Y-85025000D03*
%TO.N,/SPK_AP*%
X130750000Y-82485000D03*
%TO.N,/VCHG*%
X133290000Y-85025000D03*
%TO.N,/SPK_BP*%
X133290000Y-82485000D03*
%TO.N,/VBAT*%
X135830000Y-85025000D03*
%TO.N,/SPK_BN*%
X135830000Y-82485000D03*
%TD*%
D12*
%TO.N,/MFB*%
%TO.C,SW4*%
X129250000Y-93000000D03*
D13*
%TO.N,/VBAT*%
X131250000Y-93000000D03*
%TO.N,N/C*%
X133250000Y-93000000D03*
D14*
X127150000Y-93000000D03*
X135350000Y-93000000D03*
%TD*%
D15*
%TO.N,GND*%
X118400000Y-65000000D03*
X127700000Y-88000000D03*
X120600000Y-79300000D03*
X130600000Y-65700000D03*
X115600000Y-65300000D03*
X131000000Y-61100000D03*
X128400000Y-63300000D03*
X115800000Y-90100000D03*
X134800000Y-75200000D03*
X130800000Y-68900000D03*
X128700000Y-57400000D03*
X117700000Y-75600000D03*
X119700000Y-67700000D03*
X117700000Y-86800000D03*
X128500000Y-65800000D03*
X115800000Y-86600000D03*
X118300000Y-58800000D03*
X134600000Y-63800000D03*
X120700000Y-83500000D03*
X120600000Y-81300000D03*
X134800000Y-75800000D03*
X134500000Y-67200000D03*
X115900000Y-94000000D03*
X118500000Y-71300000D03*
X129200000Y-75600000D03*
X130400000Y-74300000D03*
X126700000Y-56700000D03*
X129600000Y-94900000D03*
X131300000Y-88000000D03*
X119900000Y-61300000D03*
X132400000Y-80300000D03*
X131400000Y-63500000D03*
X120700000Y-74900000D03*
X128700000Y-89900000D03*
X128500000Y-68300000D03*
X133400000Y-94900000D03*
X134900000Y-88000000D03*
X116000000Y-58900000D03*
X115800000Y-71800000D03*
X132300000Y-89900000D03*
X135900000Y-89900000D03*
X124000000Y-79200000D03*
X117500000Y-94100000D03*
%TO.N,/MFB*%
X129300000Y-70900000D03*
%TO.N,/SPK_AN*%
X132400000Y-59175000D03*
%TO.N,Net-(U1-PIO8)*%
X125000000Y-58000000D03*
X120750000Y-62500000D03*
%TO.N,/LED2*%
X121700000Y-86400000D03*
X127800000Y-71500000D03*
%TO.N,Net-(U1-PIO1)*%
X126100000Y-59000000D03*
X120750000Y-68750000D03*
%TO.N,/VBAT*%
X118600000Y-90800000D03*
X124900000Y-94500000D03*
X119400000Y-94400000D03*
X134700000Y-73000000D03*
X134800000Y-73900000D03*
%TO.N,/SPK_AP*%
X132400000Y-58325000D03*
%TO.N,Net-(U1-PIO0)*%
X121000000Y-56550000D03*
X124750000Y-60731671D03*
%TO.N,/SPK_BP*%
X134506472Y-60925000D03*
%TO.N,/LED0*%
X127900000Y-72293726D03*
X122600000Y-86400000D03*
%TO.N,/SPK_BN*%
X134506472Y-61775000D03*
%TO.N,AGND*%
X126400000Y-75400000D03*
X126400000Y-76100000D03*
X126400000Y-74700000D03*
X126400000Y-74000000D03*
%TD*%
%TA.AperFunction,Conductor*%
%TO.N,GND*%
G36*
X120242822Y-56019685D02*
G01*
X120288577Y-56072489D01*
X120298521Y-56141647D01*
X120290344Y-56171452D01*
X120230264Y-56316498D01*
X120230261Y-56316510D01*
X120199500Y-56471153D01*
X120199500Y-56628846D01*
X120230261Y-56783489D01*
X120230264Y-56783501D01*
X120290602Y-56929172D01*
X120290609Y-56929185D01*
X120378210Y-57060288D01*
X120378213Y-57060292D01*
X120489707Y-57171786D01*
X120489711Y-57171789D01*
X120620814Y-57259390D01*
X120620827Y-57259397D01*
X120766498Y-57319735D01*
X120766503Y-57319737D01*
X120896962Y-57345687D01*
X120921153Y-57350499D01*
X120921156Y-57350500D01*
X120921158Y-57350500D01*
X121078844Y-57350500D01*
X121078845Y-57350499D01*
X121233497Y-57319737D01*
X121379179Y-57259394D01*
X121510289Y-57171789D01*
X121621789Y-57060289D01*
X121709394Y-56929179D01*
X121769737Y-56783497D01*
X121800500Y-56628842D01*
X121800500Y-56471158D01*
X121800500Y-56471155D01*
X121800499Y-56471153D01*
X121769738Y-56316510D01*
X121769737Y-56316503D01*
X121769735Y-56316498D01*
X121709656Y-56171452D01*
X121702187Y-56101983D01*
X121733462Y-56039504D01*
X121793552Y-56003852D01*
X121824217Y-56000000D01*
X137376000Y-56000000D01*
X137443039Y-56019685D01*
X137488794Y-56072489D01*
X137500000Y-56124000D01*
X137500000Y-95376000D01*
X137480315Y-95443039D01*
X137427511Y-95488794D01*
X137376000Y-95500000D01*
X125200983Y-95500000D01*
X125133944Y-95480315D01*
X125088189Y-95427511D01*
X125078245Y-95358353D01*
X125107270Y-95294797D01*
X125153531Y-95261439D01*
X125279172Y-95209397D01*
X125279172Y-95209396D01*
X125279179Y-95209394D01*
X125410289Y-95121789D01*
X125521789Y-95010289D01*
X125609394Y-94879179D01*
X125669737Y-94733497D01*
X125700500Y-94578842D01*
X125700500Y-94421158D01*
X125700500Y-94421155D01*
X125700499Y-94421153D01*
X125669737Y-94266503D01*
X125649224Y-94216980D01*
X125609397Y-94120827D01*
X125609390Y-94120814D01*
X125521789Y-93989711D01*
X125521786Y-93989707D01*
X125410292Y-93878213D01*
X125410288Y-93878210D01*
X125279185Y-93790609D01*
X125279172Y-93790602D01*
X125133501Y-93730264D01*
X125133489Y-93730261D01*
X124978845Y-93699500D01*
X124978842Y-93699500D01*
X124821158Y-93699500D01*
X124821155Y-93699500D01*
X124666510Y-93730261D01*
X124666498Y-93730264D01*
X124520827Y-93790602D01*
X124520814Y-93790609D01*
X124389711Y-93878210D01*
X124389707Y-93878213D01*
X124278213Y-93989707D01*
X124278210Y-93989711D01*
X124190609Y-94120814D01*
X124190602Y-94120827D01*
X124130264Y-94266498D01*
X124130261Y-94266510D01*
X124099500Y-94421153D01*
X124099500Y-94578846D01*
X124130261Y-94733489D01*
X124130264Y-94733501D01*
X124190602Y-94879172D01*
X124190609Y-94879185D01*
X124278210Y-95010288D01*
X124278213Y-95010292D01*
X124389707Y-95121786D01*
X124389711Y-95121789D01*
X124520814Y-95209390D01*
X124520827Y-95209397D01*
X124646469Y-95261439D01*
X124700873Y-95305280D01*
X124722938Y-95371574D01*
X124705659Y-95439273D01*
X124654522Y-95486884D01*
X124599017Y-95500000D01*
X115124000Y-95500000D01*
X115056961Y-95480315D01*
X115011206Y-95427511D01*
X115000000Y-95376000D01*
X115000000Y-94321153D01*
X118599500Y-94321153D01*
X118599500Y-94478846D01*
X118630261Y-94633489D01*
X118630264Y-94633501D01*
X118690602Y-94779172D01*
X118690609Y-94779185D01*
X118778210Y-94910288D01*
X118778213Y-94910292D01*
X118889707Y-95021786D01*
X118889711Y-95021789D01*
X119020814Y-95109390D01*
X119020827Y-95109397D01*
X119166498Y-95169735D01*
X119166503Y-95169737D01*
X119321153Y-95200499D01*
X119321156Y-95200500D01*
X119321158Y-95200500D01*
X119478844Y-95200500D01*
X119478845Y-95200499D01*
X119633497Y-95169737D01*
X119779179Y-95109394D01*
X119910289Y-95021789D01*
X120021789Y-94910289D01*
X120109394Y-94779179D01*
X120169737Y-94633497D01*
X120200500Y-94478842D01*
X120200500Y-94321158D01*
X120200500Y-94321155D01*
X120200499Y-94321153D01*
X120189627Y-94266498D01*
X120169737Y-94166503D01*
X120150812Y-94120814D01*
X120109397Y-94020827D01*
X120109390Y-94020814D01*
X120021789Y-93889711D01*
X120021786Y-93889707D01*
X119910292Y-93778213D01*
X119910288Y-93778210D01*
X119779185Y-93690609D01*
X119779172Y-93690602D01*
X119633501Y-93630264D01*
X119633489Y-93630261D01*
X119478845Y-93599500D01*
X119478842Y-93599500D01*
X119321158Y-93599500D01*
X119321155Y-93599500D01*
X119166510Y-93630261D01*
X119166498Y-93630264D01*
X119020827Y-93690602D01*
X119020814Y-93690609D01*
X118889711Y-93778210D01*
X118889707Y-93778213D01*
X118778213Y-93889707D01*
X118778210Y-93889711D01*
X118690609Y-94020814D01*
X118690602Y-94020827D01*
X118630264Y-94166498D01*
X118630261Y-94166510D01*
X118599500Y-94321153D01*
X115000000Y-94321153D01*
X115000000Y-92874425D01*
X125554500Y-92874425D01*
X125554500Y-93125574D01*
X125593785Y-93373614D01*
X125671393Y-93612464D01*
X125731415Y-93730261D01*
X125769490Y-93804988D01*
X125785408Y-93836227D01*
X125933014Y-94039393D01*
X126110606Y-94216985D01*
X126300722Y-94355109D01*
X126313776Y-94364594D01*
X126424779Y-94421153D01*
X126537535Y-94478606D01*
X126537537Y-94478606D01*
X126537540Y-94478608D01*
X126665567Y-94520206D01*
X126776385Y-94556214D01*
X127024426Y-94595500D01*
X127024431Y-94595500D01*
X127275574Y-94595500D01*
X127523614Y-94556214D01*
X127762460Y-94478608D01*
X127986224Y-94364594D01*
X128189399Y-94216980D01*
X128249983Y-94156395D01*
X128311303Y-94122912D01*
X128380994Y-94127895D01*
X128457410Y-94156397D01*
X128474017Y-94162591D01*
X128474016Y-94162591D01*
X128480944Y-94163335D01*
X128533627Y-94169000D01*
X129966372Y-94168999D01*
X130025983Y-94162591D01*
X130160831Y-94112296D01*
X130276046Y-94026046D01*
X130342775Y-93936906D01*
X130398708Y-93895037D01*
X130468400Y-93890053D01*
X130514923Y-93910899D01*
X130637310Y-93999819D01*
X130801260Y-94083355D01*
X130976258Y-94140216D01*
X131036838Y-94149810D01*
X131157994Y-94169000D01*
X131157998Y-94169000D01*
X131342006Y-94169000D01*
X131432872Y-94154608D01*
X131523742Y-94140216D01*
X131698740Y-94083355D01*
X131862690Y-93999819D01*
X132011553Y-93891663D01*
X132141663Y-93761553D01*
X132149683Y-93750513D01*
X132205012Y-93707850D01*
X132274626Y-93701871D01*
X132336421Y-93734477D01*
X132350314Y-93750510D01*
X132358337Y-93761553D01*
X132488447Y-93891663D01*
X132637310Y-93999819D01*
X132801260Y-94083355D01*
X132976258Y-94140216D01*
X133036838Y-94149810D01*
X133157994Y-94169000D01*
X133157998Y-94169000D01*
X133342006Y-94169000D01*
X133432872Y-94154608D01*
X133523742Y-94140216D01*
X133698740Y-94083355D01*
X133862690Y-93999819D01*
X133920483Y-93957830D01*
X133986289Y-93934349D01*
X134054343Y-93950174D01*
X134093685Y-93985259D01*
X134133020Y-94039399D01*
X134133022Y-94039401D01*
X134310606Y-94216985D01*
X134500722Y-94355109D01*
X134513776Y-94364594D01*
X134624779Y-94421153D01*
X134737535Y-94478606D01*
X134737537Y-94478606D01*
X134737540Y-94478608D01*
X134865567Y-94520206D01*
X134976385Y-94556214D01*
X135224426Y-94595500D01*
X135224431Y-94595500D01*
X135475574Y-94595500D01*
X135723614Y-94556214D01*
X135962460Y-94478608D01*
X136186224Y-94364594D01*
X136321243Y-94266498D01*
X136389393Y-94216985D01*
X136389395Y-94216982D01*
X136389399Y-94216980D01*
X136566980Y-94039399D01*
X136566982Y-94039395D01*
X136566985Y-94039393D01*
X136671864Y-93895037D01*
X136714594Y-93836224D01*
X136828608Y-93612460D01*
X136906214Y-93373614D01*
X136945500Y-93125574D01*
X136945500Y-92874425D01*
X136906214Y-92626385D01*
X136870206Y-92515567D01*
X136828608Y-92387540D01*
X136828606Y-92387537D01*
X136828606Y-92387535D01*
X136752644Y-92238453D01*
X136714594Y-92163776D01*
X136677397Y-92112578D01*
X136566985Y-91960606D01*
X136389393Y-91783014D01*
X136186227Y-91635408D01*
X136186226Y-91635407D01*
X136186224Y-91635406D01*
X136116347Y-91599801D01*
X135962464Y-91521393D01*
X135723614Y-91443785D01*
X135475574Y-91404500D01*
X135475569Y-91404500D01*
X135224431Y-91404500D01*
X135224426Y-91404500D01*
X134976385Y-91443785D01*
X134737535Y-91521393D01*
X134513772Y-91635408D01*
X134310606Y-91783014D01*
X134133022Y-91960598D01*
X134133019Y-91960602D01*
X134093685Y-92014739D01*
X134038354Y-92057404D01*
X133968740Y-92063382D01*
X133920483Y-92042170D01*
X133862690Y-92000181D01*
X133698740Y-91916645D01*
X133523742Y-91859784D01*
X133523740Y-91859783D01*
X133523739Y-91859783D01*
X133342006Y-91831000D01*
X133342002Y-91831000D01*
X133157998Y-91831000D01*
X133157994Y-91831000D01*
X132976261Y-91859783D01*
X132801257Y-91916646D01*
X132637309Y-92000181D01*
X132488445Y-92108338D01*
X132358339Y-92238444D01*
X132358332Y-92238453D01*
X132350315Y-92249487D01*
X132294984Y-92292151D01*
X132225370Y-92298127D01*
X132163576Y-92265519D01*
X132149685Y-92249487D01*
X132141667Y-92238453D01*
X132141663Y-92238447D01*
X132011553Y-92108337D01*
X131862690Y-92000181D01*
X131698740Y-91916645D01*
X131523742Y-91859784D01*
X131523740Y-91859783D01*
X131523739Y-91859783D01*
X131342006Y-91831000D01*
X131342002Y-91831000D01*
X131157998Y-91831000D01*
X131157994Y-91831000D01*
X130976261Y-91859783D01*
X130801257Y-91916646D01*
X130637309Y-92000181D01*
X130514927Y-92089098D01*
X130449120Y-92112578D01*
X130381066Y-92096753D01*
X130342775Y-92063092D01*
X130306578Y-92014739D01*
X130276046Y-91973954D01*
X130276044Y-91973953D01*
X130276044Y-91973952D01*
X130160835Y-91887706D01*
X130160828Y-91887702D01*
X130025982Y-91837408D01*
X130025983Y-91837408D01*
X129966383Y-91831001D01*
X129966381Y-91831000D01*
X129966373Y-91831000D01*
X129966364Y-91831000D01*
X128533629Y-91831000D01*
X128533623Y-91831001D01*
X128474015Y-91837409D01*
X128380994Y-91872103D01*
X128311303Y-91877087D01*
X128249981Y-91843602D01*
X128189393Y-91783014D01*
X127986227Y-91635408D01*
X127986226Y-91635407D01*
X127986224Y-91635406D01*
X127916347Y-91599801D01*
X127762464Y-91521393D01*
X127523614Y-91443785D01*
X127275574Y-91404500D01*
X127275569Y-91404500D01*
X127024431Y-91404500D01*
X127024426Y-91404500D01*
X126776385Y-91443785D01*
X126537535Y-91521393D01*
X126313772Y-91635408D01*
X126110606Y-91783014D01*
X125933014Y-91960606D01*
X125785408Y-92163772D01*
X125671393Y-92387535D01*
X125593785Y-92626385D01*
X125554500Y-92874425D01*
X115000000Y-92874425D01*
X115000000Y-90805889D01*
X116374500Y-90805889D01*
X116374500Y-90929110D01*
X116398535Y-91049944D01*
X116398538Y-91049954D01*
X116445687Y-91163783D01*
X116445692Y-91163792D01*
X116514141Y-91266232D01*
X116514144Y-91266236D01*
X116601263Y-91353355D01*
X116601267Y-91353358D01*
X116703707Y-91421807D01*
X116703713Y-91421810D01*
X116703714Y-91421811D01*
X116817548Y-91468963D01*
X116938389Y-91492999D01*
X116938393Y-91493000D01*
X116938394Y-91493000D01*
X117061607Y-91493000D01*
X117061608Y-91492999D01*
X117182452Y-91468963D01*
X117296286Y-91421811D01*
X117398733Y-91353358D01*
X117485858Y-91266233D01*
X117554311Y-91163786D01*
X117601463Y-91049952D01*
X117601463Y-91049950D01*
X117603794Y-91044324D01*
X117605772Y-91045143D01*
X117638751Y-90994803D01*
X117702559Y-90966336D01*
X117771627Y-90976885D01*
X117824028Y-91023101D01*
X117833690Y-91041772D01*
X117890602Y-91179172D01*
X117890609Y-91179185D01*
X117978210Y-91310288D01*
X117978213Y-91310292D01*
X118089707Y-91421786D01*
X118089711Y-91421789D01*
X118220814Y-91509390D01*
X118220827Y-91509397D01*
X118366498Y-91569735D01*
X118366503Y-91569737D01*
X118521153Y-91600499D01*
X118521156Y-91600500D01*
X118521158Y-91600500D01*
X118678844Y-91600500D01*
X118678845Y-91600499D01*
X118833497Y-91569737D01*
X118979179Y-91509394D01*
X119110289Y-91421789D01*
X119221789Y-91310289D01*
X119309394Y-91179179D01*
X119315768Y-91163792D01*
X119369735Y-91033501D01*
X119369737Y-91033497D01*
X119400500Y-90878842D01*
X119400500Y-90721158D01*
X119400500Y-90721155D01*
X119400499Y-90721153D01*
X119370674Y-90571214D01*
X119369737Y-90566503D01*
X119329252Y-90468763D01*
X119309397Y-90420827D01*
X119309390Y-90420814D01*
X119221789Y-90289711D01*
X119221786Y-90289707D01*
X119110292Y-90178213D01*
X119110288Y-90178210D01*
X118979185Y-90090609D01*
X118979172Y-90090602D01*
X118833501Y-90030264D01*
X118833489Y-90030261D01*
X118678845Y-89999500D01*
X118678842Y-89999500D01*
X118521158Y-89999500D01*
X118521155Y-89999500D01*
X118366510Y-90030261D01*
X118366498Y-90030264D01*
X118220827Y-90090602D01*
X118220814Y-90090609D01*
X118089711Y-90178210D01*
X118089707Y-90178213D01*
X117978213Y-90289707D01*
X117978210Y-90289711D01*
X117890609Y-90420814D01*
X117890602Y-90420827D01*
X117830264Y-90566498D01*
X117830262Y-90566505D01*
X117819851Y-90618842D01*
X117787465Y-90680752D01*
X117726748Y-90715325D01*
X117656979Y-90711584D01*
X117600308Y-90670716D01*
X117583673Y-90642100D01*
X117554314Y-90571220D01*
X117554307Y-90571207D01*
X117485858Y-90468767D01*
X117485855Y-90468763D01*
X117398736Y-90381644D01*
X117398732Y-90381641D01*
X117296292Y-90313192D01*
X117296283Y-90313187D01*
X117182454Y-90266038D01*
X117182455Y-90266038D01*
X117182452Y-90266037D01*
X117182448Y-90266036D01*
X117182444Y-90266035D01*
X117061610Y-90242000D01*
X117061606Y-90242000D01*
X116938394Y-90242000D01*
X116938389Y-90242000D01*
X116817555Y-90266035D01*
X116817545Y-90266038D01*
X116703716Y-90313187D01*
X116703707Y-90313192D01*
X116601267Y-90381641D01*
X116601263Y-90381644D01*
X116514144Y-90468763D01*
X116514141Y-90468767D01*
X116445692Y-90571207D01*
X116445687Y-90571216D01*
X116398538Y-90685045D01*
X116398535Y-90685055D01*
X116374500Y-90805889D01*
X115000000Y-90805889D01*
X115000000Y-89105889D01*
X116374500Y-89105889D01*
X116374500Y-89229110D01*
X116398535Y-89349944D01*
X116398538Y-89349954D01*
X116445687Y-89463783D01*
X116445692Y-89463792D01*
X116514141Y-89566232D01*
X116514144Y-89566236D01*
X116601263Y-89653355D01*
X116601267Y-89653358D01*
X116703707Y-89721807D01*
X116703713Y-89721810D01*
X116703714Y-89721811D01*
X116817548Y-89768963D01*
X116938389Y-89792999D01*
X116938393Y-89793000D01*
X116938394Y-89793000D01*
X117061607Y-89793000D01*
X117061608Y-89792999D01*
X117182452Y-89768963D01*
X117296286Y-89721811D01*
X117398733Y-89653358D01*
X117485858Y-89566233D01*
X117554311Y-89463786D01*
X117601463Y-89349952D01*
X117625500Y-89229106D01*
X117625500Y-89105894D01*
X117601463Y-88985048D01*
X117554311Y-88871214D01*
X117554310Y-88871213D01*
X117554307Y-88871207D01*
X117485858Y-88768767D01*
X117485855Y-88768763D01*
X117398736Y-88681644D01*
X117398732Y-88681641D01*
X117296292Y-88613192D01*
X117296283Y-88613187D01*
X117182454Y-88566038D01*
X117182455Y-88566038D01*
X117182452Y-88566037D01*
X117182448Y-88566036D01*
X117182444Y-88566035D01*
X117061610Y-88542000D01*
X117061606Y-88542000D01*
X116938394Y-88542000D01*
X116938389Y-88542000D01*
X116817555Y-88566035D01*
X116817545Y-88566038D01*
X116703716Y-88613187D01*
X116703707Y-88613192D01*
X116601267Y-88681641D01*
X116601263Y-88681644D01*
X116514144Y-88768763D01*
X116514141Y-88768767D01*
X116445692Y-88871207D01*
X116445687Y-88871216D01*
X116398538Y-88985045D01*
X116398535Y-88985055D01*
X116374500Y-89105889D01*
X115000000Y-89105889D01*
X115000000Y-86321153D01*
X120899500Y-86321153D01*
X120899500Y-86478846D01*
X120930261Y-86633489D01*
X120930264Y-86633501D01*
X120990602Y-86779172D01*
X120990609Y-86779185D01*
X121078210Y-86910288D01*
X121078213Y-86910292D01*
X121189707Y-87021786D01*
X121189711Y-87021789D01*
X121320814Y-87109390D01*
X121320827Y-87109397D01*
X121466498Y-87169735D01*
X121466503Y-87169737D01*
X121621153Y-87200499D01*
X121621156Y-87200500D01*
X121621158Y-87200500D01*
X121778844Y-87200500D01*
X121778845Y-87200499D01*
X121933497Y-87169737D01*
X122079179Y-87109394D01*
X122081110Y-87108103D01*
X122082276Y-87107737D01*
X122084546Y-87106525D01*
X122084776Y-87106955D01*
X122147786Y-87087226D01*
X122215166Y-87105710D01*
X122218850Y-87108077D01*
X122220821Y-87109394D01*
X122220824Y-87109395D01*
X122220827Y-87109397D01*
X122366498Y-87169735D01*
X122366503Y-87169737D01*
X122521153Y-87200499D01*
X122521156Y-87200500D01*
X122521158Y-87200500D01*
X122678844Y-87200500D01*
X122678845Y-87200499D01*
X122833497Y-87169737D01*
X122979179Y-87109394D01*
X123110289Y-87021789D01*
X123221789Y-86910289D01*
X123309394Y-86779179D01*
X123369737Y-86633497D01*
X123400500Y-86478842D01*
X123400500Y-86321158D01*
X123400500Y-86321155D01*
X123400499Y-86321153D01*
X123369738Y-86166510D01*
X123369737Y-86166503D01*
X123349371Y-86117335D01*
X123309397Y-86020827D01*
X123309390Y-86020814D01*
X123221789Y-85889711D01*
X123221786Y-85889707D01*
X123110292Y-85778213D01*
X123110288Y-85778210D01*
X122979185Y-85690609D01*
X122979172Y-85690602D01*
X122833501Y-85630264D01*
X122833489Y-85630261D01*
X122678845Y-85599500D01*
X122678842Y-85599500D01*
X122521158Y-85599500D01*
X122521155Y-85599500D01*
X122366510Y-85630261D01*
X122366498Y-85630264D01*
X122220822Y-85690604D01*
X122220820Y-85690605D01*
X122218885Y-85691899D01*
X122217717Y-85692264D01*
X122215451Y-85693476D01*
X122215221Y-85693045D01*
X122152206Y-85712773D01*
X122084827Y-85694285D01*
X122081115Y-85691899D01*
X122079179Y-85690605D01*
X122079177Y-85690604D01*
X121933501Y-85630264D01*
X121933489Y-85630261D01*
X121778845Y-85599500D01*
X121778842Y-85599500D01*
X121621158Y-85599500D01*
X121621155Y-85599500D01*
X121466510Y-85630261D01*
X121466498Y-85630264D01*
X121320827Y-85690602D01*
X121320814Y-85690609D01*
X121189711Y-85778210D01*
X121189707Y-85778213D01*
X121078213Y-85889707D01*
X121078210Y-85889711D01*
X120990609Y-86020814D01*
X120990602Y-86020827D01*
X120930264Y-86166498D01*
X120930261Y-86166510D01*
X120899500Y-86321153D01*
X115000000Y-86321153D01*
X115000000Y-82602135D01*
X115349500Y-82602135D01*
X115349500Y-84397870D01*
X115349501Y-84397876D01*
X115355908Y-84457483D01*
X115406202Y-84592328D01*
X115406206Y-84592335D01*
X115492452Y-84707544D01*
X115492455Y-84707547D01*
X115607664Y-84793793D01*
X115607671Y-84793797D01*
X115742517Y-84844091D01*
X115742516Y-84844091D01*
X115749444Y-84844835D01*
X115802127Y-84850500D01*
X117597872Y-84850499D01*
X117657483Y-84844091D01*
X117792331Y-84793796D01*
X117907546Y-84707546D01*
X117993796Y-84592331D01*
X118044091Y-84457483D01*
X118050500Y-84397873D01*
X118050499Y-82602128D01*
X118044091Y-82542517D01*
X118044091Y-82542516D01*
X117997342Y-82417174D01*
X117993797Y-82407672D01*
X117993797Y-82407671D01*
X117993796Y-82407669D01*
X117993794Y-82407666D01*
X117993793Y-82407664D01*
X117972120Y-82378713D01*
X124319500Y-82378713D01*
X124319500Y-82591286D01*
X124352753Y-82801239D01*
X124418444Y-83003414D01*
X124514951Y-83192820D01*
X124639890Y-83364786D01*
X124753430Y-83478326D01*
X124786915Y-83539649D01*
X124781931Y-83609341D01*
X124740059Y-83665274D01*
X124709083Y-83682189D01*
X124577669Y-83731203D01*
X124577664Y-83731206D01*
X124462455Y-83817452D01*
X124462452Y-83817455D01*
X124376206Y-83932664D01*
X124376202Y-83932671D01*
X124325908Y-84067517D01*
X124319501Y-84127116D01*
X124319500Y-84127135D01*
X124319500Y-85922870D01*
X124319501Y-85922876D01*
X124325908Y-85982483D01*
X124376202Y-86117328D01*
X124376206Y-86117335D01*
X124462452Y-86232544D01*
X124462455Y-86232547D01*
X124577664Y-86318793D01*
X124577671Y-86318797D01*
X124712517Y-86369091D01*
X124712516Y-86369091D01*
X124719444Y-86369835D01*
X124772127Y-86375500D01*
X126567872Y-86375499D01*
X126627483Y-86369091D01*
X126762331Y-86318796D01*
X126877546Y-86232546D01*
X126963796Y-86117331D01*
X127012810Y-85985916D01*
X127054681Y-85929984D01*
X127120145Y-85905566D01*
X127188418Y-85920417D01*
X127216673Y-85941569D01*
X127330213Y-86055109D01*
X127502179Y-86180048D01*
X127502181Y-86180049D01*
X127502184Y-86180051D01*
X127691588Y-86276557D01*
X127893757Y-86342246D01*
X128103713Y-86375500D01*
X128103714Y-86375500D01*
X128316286Y-86375500D01*
X128316287Y-86375500D01*
X128526243Y-86342246D01*
X128728412Y-86276557D01*
X128917816Y-86180051D01*
X129004138Y-86117335D01*
X129089786Y-86055109D01*
X129089788Y-86055106D01*
X129089792Y-86055104D01*
X129240104Y-85904792D01*
X129240106Y-85904788D01*
X129240109Y-85904786D01*
X129365048Y-85732820D01*
X129365047Y-85732820D01*
X129365051Y-85732816D01*
X129461557Y-85543412D01*
X129527246Y-85341243D01*
X129560500Y-85131287D01*
X129560500Y-84918713D01*
X129527246Y-84708757D01*
X129461557Y-84506588D01*
X129365051Y-84317184D01*
X129365049Y-84317181D01*
X129365048Y-84317179D01*
X129240109Y-84145213D01*
X129089786Y-83994890D01*
X128917820Y-83869951D01*
X128917115Y-83869591D01*
X128909054Y-83865485D01*
X128858259Y-83817512D01*
X128841463Y-83749692D01*
X128863999Y-83683556D01*
X128909054Y-83644515D01*
X128917816Y-83640051D01*
X129007554Y-83574853D01*
X129089786Y-83515109D01*
X129089788Y-83515106D01*
X129089792Y-83515104D01*
X129240104Y-83364792D01*
X129240106Y-83364788D01*
X129240109Y-83364786D01*
X129365048Y-83192820D01*
X129365047Y-83192820D01*
X129365051Y-83192816D01*
X129369514Y-83184054D01*
X129417488Y-83133259D01*
X129485308Y-83116463D01*
X129551444Y-83138999D01*
X129590486Y-83184056D01*
X129594951Y-83192820D01*
X129719890Y-83364786D01*
X129870213Y-83515109D01*
X130042179Y-83640048D01*
X130042181Y-83640049D01*
X130042184Y-83640051D01*
X130231588Y-83736557D01*
X130433757Y-83802246D01*
X130643713Y-83835500D01*
X130643714Y-83835500D01*
X130856286Y-83835500D01*
X130856287Y-83835500D01*
X131066243Y-83802246D01*
X131268412Y-83736557D01*
X131457816Y-83640051D01*
X131547554Y-83574853D01*
X131629786Y-83515109D01*
X131629788Y-83515106D01*
X131629792Y-83515104D01*
X131780104Y-83364792D01*
X131780106Y-83364788D01*
X131780109Y-83364786D01*
X131905048Y-83192820D01*
X131905047Y-83192820D01*
X131905051Y-83192816D01*
X131909514Y-83184054D01*
X131957488Y-83133259D01*
X132025308Y-83116463D01*
X132091444Y-83138999D01*
X132130486Y-83184056D01*
X132134951Y-83192820D01*
X132259890Y-83364786D01*
X132410213Y-83515109D01*
X132582182Y-83640050D01*
X132590946Y-83644516D01*
X132641742Y-83692491D01*
X132658536Y-83760312D01*
X132635998Y-83826447D01*
X132590946Y-83865484D01*
X132582182Y-83869949D01*
X132410213Y-83994890D01*
X132259890Y-84145213D01*
X132134951Y-84317179D01*
X132038444Y-84506585D01*
X131972753Y-84708760D01*
X131939500Y-84918713D01*
X131939500Y-85131286D01*
X131972753Y-85341239D01*
X132038444Y-85543414D01*
X132134951Y-85732820D01*
X132259890Y-85904786D01*
X132410213Y-86055109D01*
X132582179Y-86180048D01*
X132582181Y-86180049D01*
X132582184Y-86180051D01*
X132771588Y-86276557D01*
X132973757Y-86342246D01*
X133183713Y-86375500D01*
X133183714Y-86375500D01*
X133396286Y-86375500D01*
X133396287Y-86375500D01*
X133606243Y-86342246D01*
X133808412Y-86276557D01*
X133997816Y-86180051D01*
X134084138Y-86117335D01*
X134169786Y-86055109D01*
X134169788Y-86055106D01*
X134169792Y-86055104D01*
X134320104Y-85904792D01*
X134320106Y-85904788D01*
X134320109Y-85904786D01*
X134445048Y-85732820D01*
X134445047Y-85732820D01*
X134445051Y-85732816D01*
X134449514Y-85724054D01*
X134497488Y-85673259D01*
X134565308Y-85656463D01*
X134631444Y-85678999D01*
X134670486Y-85724056D01*
X134674951Y-85732820D01*
X134799890Y-85904786D01*
X134950213Y-86055109D01*
X135122179Y-86180048D01*
X135122181Y-86180049D01*
X135122184Y-86180051D01*
X135311588Y-86276557D01*
X135513757Y-86342246D01*
X135723713Y-86375500D01*
X135723714Y-86375500D01*
X135936286Y-86375500D01*
X135936287Y-86375500D01*
X136146243Y-86342246D01*
X136348412Y-86276557D01*
X136537816Y-86180051D01*
X136624138Y-86117335D01*
X136709786Y-86055109D01*
X136709788Y-86055106D01*
X136709792Y-86055104D01*
X136860104Y-85904792D01*
X136860106Y-85904788D01*
X136860109Y-85904786D01*
X136985048Y-85732820D01*
X136985047Y-85732820D01*
X136985051Y-85732816D01*
X137081557Y-85543412D01*
X137147246Y-85341243D01*
X137180500Y-85131287D01*
X137180500Y-84918713D01*
X137147246Y-84708757D01*
X137081557Y-84506588D01*
X136985051Y-84317184D01*
X136985049Y-84317181D01*
X136985048Y-84317179D01*
X136860109Y-84145213D01*
X136709786Y-83994890D01*
X136537820Y-83869951D01*
X136537115Y-83869591D01*
X136529054Y-83865485D01*
X136478259Y-83817512D01*
X136461463Y-83749692D01*
X136483999Y-83683556D01*
X136529054Y-83644515D01*
X136537816Y-83640051D01*
X136627554Y-83574853D01*
X136709786Y-83515109D01*
X136709788Y-83515106D01*
X136709792Y-83515104D01*
X136860104Y-83364792D01*
X136860106Y-83364788D01*
X136860109Y-83364786D01*
X136985048Y-83192820D01*
X136985047Y-83192820D01*
X136985051Y-83192816D01*
X137081557Y-83003412D01*
X137147246Y-82801243D01*
X137180500Y-82591287D01*
X137180500Y-82378713D01*
X137147246Y-82168757D01*
X137081557Y-81966588D01*
X136985051Y-81777184D01*
X136985049Y-81777181D01*
X136985048Y-81777179D01*
X136860109Y-81605213D01*
X136709786Y-81454890D01*
X136537820Y-81329951D01*
X136348414Y-81233444D01*
X136348413Y-81233443D01*
X136348412Y-81233443D01*
X136146243Y-81167754D01*
X136146241Y-81167753D01*
X136146240Y-81167753D01*
X135984957Y-81142208D01*
X135936287Y-81134500D01*
X135723713Y-81134500D01*
X135675042Y-81142208D01*
X135513760Y-81167753D01*
X135311585Y-81233444D01*
X135122179Y-81329951D01*
X134950213Y-81454890D01*
X134799890Y-81605213D01*
X134674949Y-81777182D01*
X134670484Y-81785946D01*
X134622509Y-81836742D01*
X134554688Y-81853536D01*
X134488553Y-81830998D01*
X134449516Y-81785946D01*
X134445050Y-81777182D01*
X134320109Y-81605213D01*
X134169786Y-81454890D01*
X133997820Y-81329951D01*
X133808414Y-81233444D01*
X133808413Y-81233443D01*
X133808412Y-81233443D01*
X133606243Y-81167754D01*
X133606241Y-81167753D01*
X133606240Y-81167753D01*
X133444957Y-81142208D01*
X133396287Y-81134500D01*
X133183713Y-81134500D01*
X133135042Y-81142208D01*
X132973760Y-81167753D01*
X132771585Y-81233444D01*
X132582179Y-81329951D01*
X132410213Y-81454890D01*
X132259890Y-81605213D01*
X132134949Y-81777182D01*
X132130484Y-81785946D01*
X132082509Y-81836742D01*
X132014688Y-81853536D01*
X131948553Y-81830998D01*
X131909516Y-81785946D01*
X131905050Y-81777182D01*
X131780109Y-81605213D01*
X131629786Y-81454890D01*
X131457820Y-81329951D01*
X131268414Y-81233444D01*
X131268413Y-81233443D01*
X131268412Y-81233443D01*
X131066243Y-81167754D01*
X131066241Y-81167753D01*
X131066240Y-81167753D01*
X130904957Y-81142208D01*
X130856287Y-81134500D01*
X130643713Y-81134500D01*
X130595042Y-81142208D01*
X130433760Y-81167753D01*
X130231585Y-81233444D01*
X130042179Y-81329951D01*
X129870213Y-81454890D01*
X129719890Y-81605213D01*
X129594949Y-81777182D01*
X129590484Y-81785946D01*
X129542509Y-81836742D01*
X129474688Y-81853536D01*
X129408553Y-81830998D01*
X129369516Y-81785946D01*
X129365050Y-81777182D01*
X129240109Y-81605213D01*
X129089786Y-81454890D01*
X128917820Y-81329951D01*
X128728414Y-81233444D01*
X128728413Y-81233443D01*
X128728412Y-81233443D01*
X128526243Y-81167754D01*
X128526241Y-81167753D01*
X128526240Y-81167753D01*
X128364957Y-81142208D01*
X128316287Y-81134500D01*
X128103713Y-81134500D01*
X128055042Y-81142208D01*
X127893760Y-81167753D01*
X127691585Y-81233444D01*
X127502179Y-81329951D01*
X127330213Y-81454890D01*
X127179890Y-81605213D01*
X127054949Y-81777182D01*
X127050484Y-81785946D01*
X127002509Y-81836742D01*
X126934688Y-81853536D01*
X126868553Y-81830998D01*
X126829516Y-81785946D01*
X126825050Y-81777182D01*
X126700109Y-81605213D01*
X126549786Y-81454890D01*
X126377820Y-81329951D01*
X126188414Y-81233444D01*
X126188413Y-81233443D01*
X126188412Y-81233443D01*
X125986243Y-81167754D01*
X125986241Y-81167753D01*
X125986240Y-81167753D01*
X125824957Y-81142208D01*
X125776287Y-81134500D01*
X125563713Y-81134500D01*
X125515042Y-81142208D01*
X125353760Y-81167753D01*
X125151585Y-81233444D01*
X124962179Y-81329951D01*
X124790213Y-81454890D01*
X124639890Y-81605213D01*
X124514951Y-81777179D01*
X124418444Y-81966585D01*
X124352753Y-82168760D01*
X124319500Y-82378713D01*
X117972120Y-82378713D01*
X117907547Y-82292455D01*
X117907544Y-82292452D01*
X117792335Y-82206206D01*
X117792328Y-82206202D01*
X117657482Y-82155908D01*
X117657483Y-82155908D01*
X117597883Y-82149501D01*
X117597881Y-82149500D01*
X117597873Y-82149500D01*
X117597864Y-82149500D01*
X115802129Y-82149500D01*
X115802123Y-82149501D01*
X115742516Y-82155908D01*
X115607671Y-82206202D01*
X115607664Y-82206206D01*
X115492455Y-82292452D01*
X115492452Y-82292455D01*
X115406206Y-82407664D01*
X115406202Y-82407671D01*
X115355908Y-82542517D01*
X115350665Y-82591287D01*
X115349501Y-82602123D01*
X115349500Y-82602135D01*
X115000000Y-82602135D01*
X115000000Y-73921153D01*
X125599500Y-73921153D01*
X125599500Y-74078846D01*
X125630260Y-74233488D01*
X125630262Y-74233493D01*
X125630263Y-74233497D01*
X125658864Y-74302547D01*
X125658865Y-74302549D01*
X125666333Y-74372018D01*
X125658865Y-74397447D01*
X125630263Y-74466503D01*
X125630262Y-74466506D01*
X125630260Y-74466511D01*
X125599500Y-74621153D01*
X125599500Y-74778846D01*
X125630260Y-74933488D01*
X125630262Y-74933493D01*
X125630263Y-74933497D01*
X125658864Y-75002547D01*
X125658865Y-75002549D01*
X125666333Y-75072018D01*
X125658865Y-75097447D01*
X125630263Y-75166503D01*
X125630262Y-75166506D01*
X125630260Y-75166511D01*
X125599500Y-75321153D01*
X125599500Y-75478846D01*
X125630260Y-75633488D01*
X125630262Y-75633493D01*
X125630263Y-75633497D01*
X125658864Y-75702547D01*
X125658865Y-75702549D01*
X125666333Y-75772018D01*
X125658865Y-75797447D01*
X125630263Y-75866503D01*
X125630262Y-75866506D01*
X125630260Y-75866511D01*
X125599500Y-76021153D01*
X125599500Y-76178846D01*
X125630261Y-76333489D01*
X125630264Y-76333501D01*
X125690602Y-76479172D01*
X125690609Y-76479185D01*
X125778210Y-76610288D01*
X125778213Y-76610292D01*
X125889707Y-76721786D01*
X125889711Y-76721789D01*
X126020814Y-76809390D01*
X126020827Y-76809397D01*
X126166498Y-76869735D01*
X126166503Y-76869737D01*
X126321153Y-76900499D01*
X126321156Y-76900500D01*
X126321158Y-76900500D01*
X126478844Y-76900500D01*
X126478845Y-76900499D01*
X126633497Y-76869737D01*
X126779179Y-76809394D01*
X126910289Y-76721789D01*
X127021789Y-76610289D01*
X127109394Y-76479179D01*
X127169737Y-76333497D01*
X127200500Y-76178842D01*
X127200500Y-76021158D01*
X127200500Y-76021155D01*
X127200499Y-76021153D01*
X127169737Y-75866503D01*
X127141134Y-75797450D01*
X127133666Y-75727984D01*
X127141133Y-75702552D01*
X127169737Y-75633497D01*
X127200500Y-75478842D01*
X127200500Y-75321158D01*
X127200500Y-75321155D01*
X127200499Y-75321153D01*
X127169737Y-75166503D01*
X127141134Y-75097450D01*
X127133666Y-75027984D01*
X127141133Y-75002552D01*
X127169737Y-74933497D01*
X127200500Y-74778842D01*
X127200500Y-74621158D01*
X127200500Y-74621155D01*
X127200499Y-74621153D01*
X127180734Y-74521789D01*
X127169737Y-74466503D01*
X127141134Y-74397450D01*
X127133666Y-74327984D01*
X127141133Y-74302552D01*
X127169737Y-74233497D01*
X127200500Y-74078842D01*
X127200500Y-73921158D01*
X127200500Y-73921155D01*
X127200499Y-73921153D01*
X127169737Y-73766503D01*
X127169735Y-73766498D01*
X127109397Y-73620827D01*
X127109390Y-73620814D01*
X127021789Y-73489711D01*
X127021786Y-73489707D01*
X126910292Y-73378213D01*
X126910288Y-73378210D01*
X126779185Y-73290609D01*
X126779172Y-73290602D01*
X126633501Y-73230264D01*
X126633489Y-73230261D01*
X126478845Y-73199500D01*
X126478842Y-73199500D01*
X126321158Y-73199500D01*
X126321155Y-73199500D01*
X126166510Y-73230261D01*
X126166498Y-73230264D01*
X126020827Y-73290602D01*
X126020814Y-73290609D01*
X125889711Y-73378210D01*
X125889707Y-73378213D01*
X125778213Y-73489707D01*
X125778210Y-73489711D01*
X125690609Y-73620814D01*
X125690602Y-73620827D01*
X125630264Y-73766498D01*
X125630261Y-73766510D01*
X125599500Y-73921153D01*
X115000000Y-73921153D01*
X115000000Y-71988389D01*
X116374500Y-71988389D01*
X116374500Y-72111610D01*
X116398535Y-72232444D01*
X116398538Y-72232454D01*
X116445687Y-72346283D01*
X116445692Y-72346292D01*
X116514141Y-72448732D01*
X116514144Y-72448736D01*
X116601263Y-72535855D01*
X116601267Y-72535858D01*
X116703707Y-72604307D01*
X116703713Y-72604310D01*
X116703714Y-72604311D01*
X116817548Y-72651463D01*
X116925348Y-72672905D01*
X116938389Y-72675499D01*
X116938393Y-72675500D01*
X116938394Y-72675500D01*
X117061607Y-72675500D01*
X117061608Y-72675499D01*
X117182452Y-72651463D01*
X117296286Y-72604311D01*
X117398733Y-72535858D01*
X117485858Y-72448733D01*
X117554311Y-72346286D01*
X117601463Y-72232452D01*
X117625500Y-72111606D01*
X117625500Y-71988394D01*
X117601463Y-71867548D01*
X117554311Y-71753714D01*
X117554310Y-71753713D01*
X117554307Y-71753707D01*
X117485858Y-71651267D01*
X117485855Y-71651263D01*
X117398736Y-71564144D01*
X117398732Y-71564141D01*
X117329929Y-71518168D01*
X117296292Y-71495692D01*
X117296283Y-71495687D01*
X117182454Y-71448538D01*
X117182455Y-71448538D01*
X117182452Y-71448537D01*
X117182448Y-71448536D01*
X117182444Y-71448535D01*
X117061610Y-71424500D01*
X117061606Y-71424500D01*
X116938394Y-71424500D01*
X116938389Y-71424500D01*
X116817555Y-71448535D01*
X116817545Y-71448538D01*
X116703716Y-71495687D01*
X116703707Y-71495692D01*
X116601267Y-71564141D01*
X116601263Y-71564144D01*
X116514144Y-71651263D01*
X116514141Y-71651267D01*
X116445692Y-71753707D01*
X116445687Y-71753716D01*
X116398538Y-71867545D01*
X116398535Y-71867555D01*
X116374500Y-71988389D01*
X115000000Y-71988389D01*
X115000000Y-71421153D01*
X126999500Y-71421153D01*
X126999500Y-71578846D01*
X127030261Y-71733489D01*
X127030264Y-71733501D01*
X127090602Y-71879172D01*
X127090609Y-71879184D01*
X127124558Y-71929992D01*
X127145436Y-71996669D01*
X127136018Y-72046334D01*
X127130263Y-72060228D01*
X127130261Y-72060231D01*
X127099500Y-72214879D01*
X127099500Y-72372572D01*
X127130261Y-72527215D01*
X127130264Y-72527227D01*
X127190602Y-72672898D01*
X127190609Y-72672911D01*
X127278210Y-72804014D01*
X127278213Y-72804018D01*
X127389707Y-72915512D01*
X127389711Y-72915515D01*
X127520814Y-73003116D01*
X127520827Y-73003123D01*
X127666498Y-73063461D01*
X127666503Y-73063463D01*
X127821153Y-73094225D01*
X127821156Y-73094226D01*
X127821158Y-73094226D01*
X127978844Y-73094226D01*
X127978845Y-73094225D01*
X128133497Y-73063463D01*
X128279179Y-73003120D01*
X128401851Y-72921153D01*
X133899500Y-72921153D01*
X133899500Y-73078846D01*
X133930261Y-73233489D01*
X133930264Y-73233501D01*
X133990602Y-73379172D01*
X133990612Y-73379190D01*
X134051732Y-73470663D01*
X134072610Y-73537340D01*
X134063192Y-73587004D01*
X134030262Y-73666506D01*
X134030260Y-73666511D01*
X133999500Y-73821153D01*
X133999500Y-73978846D01*
X134030261Y-74133489D01*
X134030264Y-74133501D01*
X134090602Y-74279172D01*
X134090609Y-74279185D01*
X134178210Y-74410288D01*
X134178213Y-74410292D01*
X134289707Y-74521786D01*
X134289711Y-74521789D01*
X134420814Y-74609390D01*
X134420827Y-74609397D01*
X134566498Y-74669735D01*
X134566503Y-74669737D01*
X134721153Y-74700499D01*
X134721156Y-74700500D01*
X134721158Y-74700500D01*
X134878844Y-74700500D01*
X134878845Y-74700499D01*
X135033497Y-74669737D01*
X135179179Y-74609394D01*
X135310289Y-74521789D01*
X135421789Y-74410289D01*
X135509394Y-74279179D01*
X135569737Y-74133497D01*
X135600500Y-73978842D01*
X135600500Y-73821158D01*
X135600500Y-73821155D01*
X135600499Y-73821153D01*
X135589627Y-73766498D01*
X135569737Y-73666503D01*
X135536808Y-73587004D01*
X135509397Y-73520827D01*
X135509390Y-73520814D01*
X135448267Y-73429337D01*
X135427389Y-73362659D01*
X135436808Y-73312993D01*
X135446083Y-73290602D01*
X135469737Y-73233497D01*
X135500500Y-73078842D01*
X135500500Y-72921158D01*
X135500500Y-72921155D01*
X135500499Y-72921153D01*
X135477199Y-72804018D01*
X135469737Y-72766503D01*
X135432043Y-72675500D01*
X135409397Y-72620827D01*
X135409390Y-72620814D01*
X135321789Y-72489711D01*
X135321786Y-72489707D01*
X135210292Y-72378213D01*
X135210288Y-72378210D01*
X135079185Y-72290609D01*
X135079172Y-72290602D01*
X134933501Y-72230264D01*
X134933489Y-72230261D01*
X134778845Y-72199500D01*
X134778842Y-72199500D01*
X134621158Y-72199500D01*
X134621155Y-72199500D01*
X134466510Y-72230261D01*
X134466498Y-72230264D01*
X134320827Y-72290602D01*
X134320814Y-72290609D01*
X134189711Y-72378210D01*
X134189707Y-72378213D01*
X134078213Y-72489707D01*
X134078210Y-72489711D01*
X133990609Y-72620814D01*
X133990602Y-72620827D01*
X133930264Y-72766498D01*
X133930261Y-72766510D01*
X133899500Y-72921153D01*
X128401851Y-72921153D01*
X128410289Y-72915515D01*
X128410292Y-72915512D01*
X128498420Y-72827385D01*
X128521786Y-72804018D01*
X128521789Y-72804015D01*
X128609394Y-72672905D01*
X128618276Y-72651463D01*
X128666160Y-72535858D01*
X128669737Y-72527223D01*
X128700500Y-72372568D01*
X128700500Y-72214884D01*
X128700500Y-72214881D01*
X128700499Y-72214879D01*
X128679957Y-72111607D01*
X128669737Y-72060229D01*
X128639980Y-71988389D01*
X128609397Y-71914553D01*
X128609393Y-71914546D01*
X128585765Y-71879184D01*
X128575440Y-71863732D01*
X128554563Y-71797057D01*
X128557711Y-71766993D01*
X128560029Y-71756931D01*
X128569737Y-71733497D01*
X128596875Y-71597061D01*
X128597295Y-71595243D01*
X128613537Y-71566349D01*
X128628895Y-71536990D01*
X128630581Y-71536029D01*
X128631533Y-71534337D01*
X128660821Y-71518809D01*
X128689610Y-71502416D01*
X128691547Y-71502519D01*
X128693264Y-71501610D01*
X128726293Y-71504381D01*
X128759380Y-71506155D01*
X128761788Y-71507360D01*
X128762889Y-71507453D01*
X128764603Y-71508769D01*
X128787018Y-71519990D01*
X128920814Y-71609390D01*
X128920827Y-71609397D01*
X129021902Y-71651263D01*
X129066503Y-71669737D01*
X129221153Y-71700499D01*
X129221156Y-71700500D01*
X129221158Y-71700500D01*
X129378844Y-71700500D01*
X129378845Y-71700499D01*
X129533497Y-71669737D01*
X129679179Y-71609394D01*
X129810289Y-71521789D01*
X129921789Y-71410289D01*
X130009394Y-71279179D01*
X130069737Y-71133497D01*
X130100500Y-70978842D01*
X130100500Y-70821158D01*
X130100500Y-70821155D01*
X130100499Y-70821153D01*
X130086094Y-70748736D01*
X130069737Y-70666503D01*
X130069735Y-70666498D01*
X130009397Y-70520827D01*
X130009390Y-70520814D01*
X129921789Y-70389711D01*
X129921786Y-70389707D01*
X129810292Y-70278213D01*
X129810288Y-70278210D01*
X129679185Y-70190609D01*
X129679172Y-70190602D01*
X129533501Y-70130264D01*
X129533489Y-70130261D01*
X129378845Y-70099500D01*
X129378842Y-70099500D01*
X129221158Y-70099500D01*
X129221155Y-70099500D01*
X129066510Y-70130261D01*
X129066498Y-70130264D01*
X128920827Y-70190602D01*
X128920814Y-70190609D01*
X128789711Y-70278210D01*
X128789707Y-70278213D01*
X128678213Y-70389707D01*
X128678210Y-70389711D01*
X128590609Y-70520814D01*
X128590602Y-70520827D01*
X128530264Y-70666498D01*
X128530261Y-70666508D01*
X128503489Y-70801099D01*
X128471104Y-70863010D01*
X128410388Y-70897584D01*
X128340618Y-70893843D01*
X128312981Y-70880009D01*
X128179185Y-70790609D01*
X128179172Y-70790602D01*
X128033501Y-70730264D01*
X128033489Y-70730261D01*
X127878845Y-70699500D01*
X127878842Y-70699500D01*
X127721158Y-70699500D01*
X127721155Y-70699500D01*
X127566510Y-70730261D01*
X127566498Y-70730264D01*
X127420827Y-70790602D01*
X127420814Y-70790609D01*
X127289711Y-70878210D01*
X127289707Y-70878213D01*
X127178213Y-70989707D01*
X127178210Y-70989711D01*
X127090609Y-71120814D01*
X127090602Y-71120827D01*
X127030264Y-71266498D01*
X127030261Y-71266510D01*
X126999500Y-71421153D01*
X115000000Y-71421153D01*
X115000000Y-70288389D01*
X116374500Y-70288389D01*
X116374500Y-70411610D01*
X116398535Y-70532444D01*
X116398538Y-70532454D01*
X116445687Y-70646283D01*
X116445692Y-70646292D01*
X116514141Y-70748732D01*
X116514144Y-70748736D01*
X116601263Y-70835855D01*
X116601267Y-70835858D01*
X116703707Y-70904307D01*
X116703713Y-70904310D01*
X116703714Y-70904311D01*
X116817548Y-70951463D01*
X116938389Y-70975499D01*
X116938393Y-70975500D01*
X116938394Y-70975500D01*
X117061607Y-70975500D01*
X117061608Y-70975499D01*
X117182452Y-70951463D01*
X117296286Y-70904311D01*
X117398733Y-70835858D01*
X117485858Y-70748733D01*
X117554311Y-70646286D01*
X117601463Y-70532452D01*
X117625500Y-70411606D01*
X117625500Y-70288394D01*
X117601463Y-70167548D01*
X117554311Y-70053714D01*
X117554310Y-70053713D01*
X117554307Y-70053707D01*
X117485858Y-69951267D01*
X117485855Y-69951263D01*
X117398736Y-69864144D01*
X117398732Y-69864141D01*
X117296292Y-69795692D01*
X117296283Y-69795687D01*
X117182454Y-69748538D01*
X117182455Y-69748538D01*
X117182452Y-69748537D01*
X117182448Y-69748536D01*
X117182444Y-69748535D01*
X117061610Y-69724500D01*
X117061606Y-69724500D01*
X116938394Y-69724500D01*
X116938389Y-69724500D01*
X116817555Y-69748535D01*
X116817545Y-69748538D01*
X116703716Y-69795687D01*
X116703707Y-69795692D01*
X116601267Y-69864141D01*
X116601263Y-69864144D01*
X116514144Y-69951263D01*
X116514141Y-69951267D01*
X116445692Y-70053707D01*
X116445687Y-70053716D01*
X116398538Y-70167545D01*
X116398535Y-70167555D01*
X116374500Y-70288389D01*
X115000000Y-70288389D01*
X115000000Y-68671153D01*
X119949500Y-68671153D01*
X119949500Y-68828846D01*
X119980261Y-68983489D01*
X119980264Y-68983501D01*
X120040602Y-69129172D01*
X120040609Y-69129185D01*
X120128210Y-69260288D01*
X120128213Y-69260292D01*
X120239707Y-69371786D01*
X120239711Y-69371789D01*
X120370814Y-69459390D01*
X120370827Y-69459397D01*
X120516498Y-69519735D01*
X120516503Y-69519737D01*
X120671153Y-69550499D01*
X120671156Y-69550500D01*
X120671158Y-69550500D01*
X120828844Y-69550500D01*
X120828845Y-69550499D01*
X120983497Y-69519737D01*
X121129179Y-69459394D01*
X121260289Y-69371789D01*
X121371789Y-69260289D01*
X121459394Y-69129179D01*
X121519737Y-68983497D01*
X121550500Y-68828842D01*
X121550500Y-68671158D01*
X121550500Y-68671155D01*
X121550499Y-68671153D01*
X121519738Y-68516510D01*
X121519737Y-68516503D01*
X121519735Y-68516498D01*
X121459397Y-68370827D01*
X121459390Y-68370814D01*
X121371789Y-68239711D01*
X121371786Y-68239707D01*
X121260292Y-68128213D01*
X121260288Y-68128210D01*
X121129185Y-68040609D01*
X121129172Y-68040602D01*
X120983501Y-67980264D01*
X120983489Y-67980261D01*
X120828845Y-67949500D01*
X120828842Y-67949500D01*
X120671158Y-67949500D01*
X120671155Y-67949500D01*
X120516510Y-67980261D01*
X120516498Y-67980264D01*
X120370827Y-68040602D01*
X120370814Y-68040609D01*
X120239711Y-68128210D01*
X120239707Y-68128213D01*
X120128213Y-68239707D01*
X120128210Y-68239711D01*
X120040609Y-68370814D01*
X120040602Y-68370827D01*
X119980264Y-68516498D01*
X119980261Y-68516510D01*
X119949500Y-68671153D01*
X115000000Y-68671153D01*
X115000000Y-65763389D01*
X116374500Y-65763389D01*
X116374500Y-65886610D01*
X116398535Y-66007444D01*
X116398538Y-66007454D01*
X116445687Y-66121283D01*
X116445692Y-66121292D01*
X116514141Y-66223732D01*
X116514144Y-66223736D01*
X116601263Y-66310855D01*
X116601267Y-66310858D01*
X116703707Y-66379307D01*
X116703713Y-66379310D01*
X116703714Y-66379311D01*
X116817548Y-66426463D01*
X116938389Y-66450499D01*
X116938393Y-66450500D01*
X116938394Y-66450500D01*
X117061607Y-66450500D01*
X117061608Y-66450499D01*
X117182452Y-66426463D01*
X117296286Y-66379311D01*
X117398733Y-66310858D01*
X117485858Y-66223733D01*
X117554311Y-66121286D01*
X117601463Y-66007452D01*
X117625500Y-65886606D01*
X117625500Y-65763394D01*
X117601463Y-65642548D01*
X117554311Y-65528714D01*
X117554310Y-65528713D01*
X117554307Y-65528707D01*
X117485858Y-65426267D01*
X117485855Y-65426263D01*
X117398736Y-65339144D01*
X117398732Y-65339141D01*
X117296292Y-65270692D01*
X117296283Y-65270687D01*
X117182454Y-65223538D01*
X117182455Y-65223538D01*
X117182452Y-65223537D01*
X117182448Y-65223536D01*
X117182444Y-65223535D01*
X117061610Y-65199500D01*
X117061606Y-65199500D01*
X116938394Y-65199500D01*
X116938389Y-65199500D01*
X116817555Y-65223535D01*
X116817545Y-65223538D01*
X116703716Y-65270687D01*
X116703707Y-65270692D01*
X116601267Y-65339141D01*
X116601263Y-65339144D01*
X116514144Y-65426263D01*
X116514141Y-65426267D01*
X116445692Y-65528707D01*
X116445687Y-65528716D01*
X116398538Y-65642545D01*
X116398535Y-65642555D01*
X116374500Y-65763389D01*
X115000000Y-65763389D01*
X115000000Y-64063389D01*
X116374500Y-64063389D01*
X116374500Y-64186610D01*
X116398535Y-64307444D01*
X116398538Y-64307454D01*
X116445687Y-64421283D01*
X116445692Y-64421292D01*
X116514141Y-64523732D01*
X116514144Y-64523736D01*
X116601263Y-64610855D01*
X116601267Y-64610858D01*
X116703707Y-64679307D01*
X116703713Y-64679310D01*
X116703714Y-64679311D01*
X116817548Y-64726463D01*
X116938389Y-64750499D01*
X116938393Y-64750500D01*
X116938394Y-64750500D01*
X117061607Y-64750500D01*
X117061608Y-64750499D01*
X117182452Y-64726463D01*
X117296286Y-64679311D01*
X117398733Y-64610858D01*
X117485858Y-64523733D01*
X117554311Y-64421286D01*
X117601463Y-64307452D01*
X117625500Y-64186606D01*
X117625500Y-64063394D01*
X117601463Y-63942548D01*
X117554311Y-63828714D01*
X117554310Y-63828713D01*
X117554307Y-63828707D01*
X117485858Y-63726267D01*
X117485855Y-63726263D01*
X117398736Y-63639144D01*
X117398732Y-63639141D01*
X117296292Y-63570692D01*
X117296283Y-63570687D01*
X117182454Y-63523538D01*
X117182455Y-63523538D01*
X117182452Y-63523537D01*
X117182448Y-63523536D01*
X117182444Y-63523535D01*
X117061610Y-63499500D01*
X117061606Y-63499500D01*
X116938394Y-63499500D01*
X116938389Y-63499500D01*
X116817555Y-63523535D01*
X116817545Y-63523538D01*
X116703716Y-63570687D01*
X116703707Y-63570692D01*
X116601267Y-63639141D01*
X116601263Y-63639144D01*
X116514144Y-63726263D01*
X116514141Y-63726267D01*
X116445692Y-63828707D01*
X116445687Y-63828716D01*
X116398538Y-63942545D01*
X116398535Y-63942555D01*
X116374500Y-64063389D01*
X115000000Y-64063389D01*
X115000000Y-62421153D01*
X119949500Y-62421153D01*
X119949500Y-62578846D01*
X119980261Y-62733489D01*
X119980264Y-62733501D01*
X120040602Y-62879172D01*
X120040609Y-62879185D01*
X120128210Y-63010288D01*
X120128213Y-63010292D01*
X120239707Y-63121786D01*
X120239711Y-63121789D01*
X120370814Y-63209390D01*
X120370827Y-63209397D01*
X120516498Y-63269735D01*
X120516503Y-63269737D01*
X120671153Y-63300499D01*
X120671156Y-63300500D01*
X120671158Y-63300500D01*
X120828844Y-63300500D01*
X120828845Y-63300499D01*
X120983497Y-63269737D01*
X121129179Y-63209394D01*
X121260289Y-63121789D01*
X121371789Y-63010289D01*
X121459394Y-62879179D01*
X121519737Y-62733497D01*
X121550500Y-62578842D01*
X121550500Y-62421158D01*
X121550500Y-62421155D01*
X121550499Y-62421153D01*
X121523474Y-62285292D01*
X121519737Y-62266503D01*
X121473214Y-62154185D01*
X121459397Y-62120827D01*
X121459390Y-62120814D01*
X121371789Y-61989711D01*
X121371786Y-61989707D01*
X121260292Y-61878213D01*
X121260288Y-61878210D01*
X121129185Y-61790609D01*
X121129172Y-61790602D01*
X120983501Y-61730264D01*
X120983489Y-61730261D01*
X120828845Y-61699500D01*
X120828842Y-61699500D01*
X120671158Y-61699500D01*
X120671155Y-61699500D01*
X120516510Y-61730261D01*
X120516498Y-61730264D01*
X120370827Y-61790602D01*
X120370814Y-61790609D01*
X120239711Y-61878210D01*
X120239707Y-61878213D01*
X120128213Y-61989707D01*
X120128210Y-61989711D01*
X120040609Y-62120814D01*
X120040602Y-62120827D01*
X119980264Y-62266498D01*
X119980261Y-62266510D01*
X119949500Y-62421153D01*
X115000000Y-62421153D01*
X115000000Y-60652824D01*
X123949500Y-60652824D01*
X123949500Y-60810517D01*
X123980261Y-60965160D01*
X123980264Y-60965172D01*
X124040602Y-61110843D01*
X124040609Y-61110856D01*
X124128210Y-61241959D01*
X124128213Y-61241963D01*
X124239707Y-61353457D01*
X124239711Y-61353460D01*
X124370814Y-61441061D01*
X124370827Y-61441068D01*
X124516498Y-61501406D01*
X124516503Y-61501408D01*
X124671153Y-61532170D01*
X124671156Y-61532171D01*
X124671158Y-61532171D01*
X124828844Y-61532171D01*
X124828845Y-61532170D01*
X124983497Y-61501408D01*
X125129179Y-61441065D01*
X125260289Y-61353460D01*
X125371789Y-61241960D01*
X125459394Y-61110850D01*
X125519737Y-60965168D01*
X125543410Y-60846158D01*
X125543411Y-60846153D01*
X133705972Y-60846153D01*
X133705972Y-61003846D01*
X133736733Y-61158489D01*
X133736736Y-61158501D01*
X133796402Y-61302548D01*
X133803871Y-61372017D01*
X133796402Y-61397452D01*
X133736736Y-61541498D01*
X133736733Y-61541510D01*
X133705972Y-61696153D01*
X133705972Y-61853846D01*
X133736733Y-62008489D01*
X133736736Y-62008501D01*
X133797074Y-62154172D01*
X133797081Y-62154185D01*
X133884682Y-62285288D01*
X133884685Y-62285292D01*
X133996179Y-62396786D01*
X133996183Y-62396789D01*
X134127286Y-62484390D01*
X134127299Y-62484397D01*
X134272970Y-62544735D01*
X134272975Y-62544737D01*
X134427625Y-62575499D01*
X134427628Y-62575500D01*
X134427630Y-62575500D01*
X134585316Y-62575500D01*
X134585317Y-62575499D01*
X134739969Y-62544737D01*
X134885651Y-62484394D01*
X135016761Y-62396789D01*
X135128261Y-62285289D01*
X135215866Y-62154179D01*
X135276209Y-62008497D01*
X135306972Y-61853842D01*
X135306972Y-61696158D01*
X135306972Y-61696155D01*
X135306971Y-61696153D01*
X135276210Y-61541510D01*
X135276209Y-61541503D01*
X135259601Y-61501408D01*
X135216542Y-61397452D01*
X135209073Y-61327983D01*
X135216542Y-61302548D01*
X135276207Y-61158501D01*
X135276209Y-61158497D01*
X135306972Y-61003842D01*
X135306972Y-60846158D01*
X135306972Y-60846155D01*
X135306971Y-60846153D01*
X135300948Y-60815873D01*
X135276209Y-60691503D01*
X135260188Y-60652824D01*
X135215869Y-60545827D01*
X135215862Y-60545814D01*
X135128261Y-60414711D01*
X135128258Y-60414707D01*
X135016764Y-60303213D01*
X135016760Y-60303210D01*
X134885657Y-60215609D01*
X134885644Y-60215602D01*
X134739973Y-60155264D01*
X134739961Y-60155261D01*
X134585317Y-60124500D01*
X134585314Y-60124500D01*
X134427630Y-60124500D01*
X134427627Y-60124500D01*
X134272982Y-60155261D01*
X134272970Y-60155264D01*
X134127299Y-60215602D01*
X134127286Y-60215609D01*
X133996183Y-60303210D01*
X133996179Y-60303213D01*
X133884685Y-60414707D01*
X133884682Y-60414711D01*
X133797081Y-60545814D01*
X133797074Y-60545827D01*
X133736736Y-60691498D01*
X133736733Y-60691510D01*
X133705972Y-60846153D01*
X125543411Y-60846153D01*
X125549434Y-60815875D01*
X125549434Y-60815873D01*
X125550500Y-60810514D01*
X125550500Y-60652826D01*
X125550499Y-60652824D01*
X125529216Y-60545827D01*
X125519737Y-60498174D01*
X125485164Y-60414707D01*
X125459397Y-60352498D01*
X125459390Y-60352485D01*
X125371789Y-60221382D01*
X125371786Y-60221378D01*
X125260292Y-60109884D01*
X125260288Y-60109881D01*
X125129185Y-60022280D01*
X125129172Y-60022273D01*
X124983501Y-59961935D01*
X124983489Y-59961932D01*
X124828845Y-59931171D01*
X124828842Y-59931171D01*
X124671158Y-59931171D01*
X124671155Y-59931171D01*
X124516510Y-59961932D01*
X124516498Y-59961935D01*
X124370827Y-60022273D01*
X124370814Y-60022280D01*
X124239711Y-60109881D01*
X124239707Y-60109884D01*
X124128213Y-60221378D01*
X124128210Y-60221382D01*
X124040609Y-60352485D01*
X124040602Y-60352498D01*
X123980264Y-60498169D01*
X123980261Y-60498181D01*
X123949500Y-60652824D01*
X115000000Y-60652824D01*
X115000000Y-59538389D01*
X116374500Y-59538389D01*
X116374500Y-59661610D01*
X116398535Y-59782444D01*
X116398538Y-59782454D01*
X116445687Y-59896283D01*
X116445692Y-59896292D01*
X116514141Y-59998732D01*
X116514144Y-59998736D01*
X116601263Y-60085855D01*
X116601267Y-60085858D01*
X116703707Y-60154307D01*
X116703716Y-60154312D01*
X116724739Y-60163020D01*
X116817548Y-60201463D01*
X116917671Y-60221378D01*
X116938389Y-60225499D01*
X116938393Y-60225500D01*
X116938394Y-60225500D01*
X117061607Y-60225500D01*
X117061608Y-60225499D01*
X117182452Y-60201463D01*
X117296286Y-60154311D01*
X117398733Y-60085858D01*
X117485858Y-59998733D01*
X117554311Y-59896286D01*
X117601463Y-59782452D01*
X117625500Y-59661606D01*
X117625500Y-59538394D01*
X117601463Y-59417548D01*
X117554311Y-59303714D01*
X117554310Y-59303713D01*
X117554307Y-59303707D01*
X117485858Y-59201267D01*
X117485855Y-59201263D01*
X117398736Y-59114144D01*
X117398732Y-59114141D01*
X117296292Y-59045692D01*
X117296283Y-59045687D01*
X117182454Y-58998538D01*
X117182455Y-58998538D01*
X117182452Y-58998537D01*
X117182448Y-58998536D01*
X117182444Y-58998535D01*
X117061610Y-58974500D01*
X117061606Y-58974500D01*
X116938394Y-58974500D01*
X116938389Y-58974500D01*
X116817555Y-58998535D01*
X116817545Y-58998538D01*
X116703716Y-59045687D01*
X116703707Y-59045692D01*
X116601267Y-59114141D01*
X116601263Y-59114144D01*
X116514144Y-59201263D01*
X116514141Y-59201267D01*
X116445692Y-59303707D01*
X116445687Y-59303716D01*
X116398538Y-59417545D01*
X116398535Y-59417555D01*
X116374500Y-59538389D01*
X115000000Y-59538389D01*
X115000000Y-57838389D01*
X116374500Y-57838389D01*
X116374500Y-57961610D01*
X116398535Y-58082444D01*
X116398538Y-58082454D01*
X116445687Y-58196283D01*
X116445692Y-58196292D01*
X116514141Y-58298732D01*
X116514144Y-58298736D01*
X116601263Y-58385855D01*
X116601267Y-58385858D01*
X116703707Y-58454307D01*
X116703713Y-58454310D01*
X116703714Y-58454311D01*
X116817548Y-58501463D01*
X116938389Y-58525499D01*
X116938393Y-58525500D01*
X116938394Y-58525500D01*
X117061607Y-58525500D01*
X117061608Y-58525499D01*
X117182452Y-58501463D01*
X117296286Y-58454311D01*
X117398733Y-58385858D01*
X117485858Y-58298733D01*
X117554311Y-58196286D01*
X117601463Y-58082452D01*
X117625500Y-57961606D01*
X117625500Y-57921153D01*
X124199500Y-57921153D01*
X124199500Y-58078846D01*
X124230261Y-58233489D01*
X124230264Y-58233501D01*
X124290602Y-58379172D01*
X124290609Y-58379185D01*
X124378210Y-58510288D01*
X124378213Y-58510292D01*
X124489707Y-58621786D01*
X124489711Y-58621789D01*
X124620814Y-58709390D01*
X124620827Y-58709397D01*
X124718853Y-58750000D01*
X124766503Y-58769737D01*
X124905835Y-58797452D01*
X124921153Y-58800499D01*
X124921156Y-58800500D01*
X124921158Y-58800500D01*
X125078843Y-58800500D01*
X125094677Y-58797350D01*
X125152048Y-58785938D01*
X125221638Y-58792165D01*
X125276816Y-58835027D01*
X125300061Y-58900916D01*
X125299643Y-58919697D01*
X125299500Y-58921150D01*
X125299500Y-59078846D01*
X125330261Y-59233489D01*
X125330264Y-59233501D01*
X125390602Y-59379172D01*
X125390609Y-59379185D01*
X125478210Y-59510288D01*
X125478213Y-59510292D01*
X125589707Y-59621786D01*
X125589711Y-59621789D01*
X125720814Y-59709390D01*
X125720827Y-59709397D01*
X125866498Y-59769735D01*
X125866503Y-59769737D01*
X126002487Y-59796786D01*
X126021153Y-59800499D01*
X126021156Y-59800500D01*
X126021158Y-59800500D01*
X126178844Y-59800500D01*
X126178845Y-59800499D01*
X126333497Y-59769737D01*
X126479179Y-59709394D01*
X126610289Y-59621789D01*
X126721789Y-59510289D01*
X126809394Y-59379179D01*
X126869737Y-59233497D01*
X126900500Y-59078842D01*
X126900500Y-58921158D01*
X126900500Y-58921155D01*
X126900499Y-58921153D01*
X126875893Y-58797452D01*
X126869737Y-58766503D01*
X126853782Y-58727983D01*
X126809397Y-58620827D01*
X126809390Y-58620814D01*
X126721789Y-58489711D01*
X126721786Y-58489707D01*
X126610292Y-58378213D01*
X126610288Y-58378210D01*
X126557844Y-58343168D01*
X126479185Y-58290609D01*
X126479172Y-58290602D01*
X126371861Y-58246153D01*
X131599500Y-58246153D01*
X131599500Y-58403846D01*
X131630261Y-58558489D01*
X131630264Y-58558501D01*
X131689930Y-58702548D01*
X131697399Y-58772017D01*
X131689930Y-58797452D01*
X131630264Y-58941498D01*
X131630261Y-58941510D01*
X131599500Y-59096153D01*
X131599500Y-59253846D01*
X131630261Y-59408489D01*
X131630264Y-59408501D01*
X131690602Y-59554172D01*
X131690609Y-59554185D01*
X131778210Y-59685288D01*
X131778213Y-59685292D01*
X131889707Y-59796786D01*
X131889711Y-59796789D01*
X132020814Y-59884390D01*
X132020827Y-59884397D01*
X132166498Y-59944735D01*
X132166503Y-59944737D01*
X132252948Y-59961932D01*
X132321153Y-59975499D01*
X132321156Y-59975500D01*
X132321158Y-59975500D01*
X132478844Y-59975500D01*
X132478845Y-59975499D01*
X132633497Y-59944737D01*
X132779179Y-59884394D01*
X132910289Y-59796789D01*
X133021789Y-59685289D01*
X133109394Y-59554179D01*
X133169737Y-59408497D01*
X133200500Y-59253842D01*
X133200500Y-59096158D01*
X133200500Y-59096155D01*
X133200499Y-59096153D01*
X133197056Y-59078842D01*
X133169737Y-58941503D01*
X133160705Y-58919697D01*
X133110070Y-58797452D01*
X133102601Y-58727983D01*
X133110070Y-58702548D01*
X133169735Y-58558501D01*
X133169737Y-58558497D01*
X133200500Y-58403842D01*
X133200500Y-58246158D01*
X133200500Y-58246155D01*
X133200499Y-58246153D01*
X133169738Y-58091510D01*
X133169737Y-58091503D01*
X133115933Y-57961607D01*
X133109397Y-57945827D01*
X133109390Y-57945814D01*
X133021789Y-57814711D01*
X133021786Y-57814707D01*
X132910292Y-57703213D01*
X132910288Y-57703210D01*
X132779185Y-57615609D01*
X132779172Y-57615602D01*
X132633501Y-57555264D01*
X132633489Y-57555261D01*
X132478845Y-57524500D01*
X132478842Y-57524500D01*
X132321158Y-57524500D01*
X132321155Y-57524500D01*
X132166510Y-57555261D01*
X132166498Y-57555264D01*
X132020827Y-57615602D01*
X132020814Y-57615609D01*
X131889711Y-57703210D01*
X131889707Y-57703213D01*
X131778213Y-57814707D01*
X131778210Y-57814711D01*
X131690609Y-57945814D01*
X131690602Y-57945827D01*
X131630264Y-58091498D01*
X131630261Y-58091510D01*
X131599500Y-58246153D01*
X126371861Y-58246153D01*
X126333501Y-58230264D01*
X126333489Y-58230261D01*
X126178845Y-58199500D01*
X126178842Y-58199500D01*
X126021158Y-58199500D01*
X126021153Y-58199500D01*
X125947951Y-58214061D01*
X125878360Y-58207834D01*
X125823182Y-58164971D01*
X125799938Y-58099081D01*
X125800358Y-58080285D01*
X125800500Y-58078843D01*
X125800500Y-57921155D01*
X125800499Y-57921153D01*
X125769738Y-57766510D01*
X125769737Y-57766503D01*
X125749462Y-57717555D01*
X125709397Y-57620827D01*
X125709390Y-57620814D01*
X125621789Y-57489711D01*
X125621786Y-57489707D01*
X125510292Y-57378213D01*
X125510288Y-57378210D01*
X125379185Y-57290609D01*
X125379172Y-57290602D01*
X125233501Y-57230264D01*
X125233489Y-57230261D01*
X125078845Y-57199500D01*
X125078842Y-57199500D01*
X124921158Y-57199500D01*
X124921155Y-57199500D01*
X124766510Y-57230261D01*
X124766498Y-57230264D01*
X124620827Y-57290602D01*
X124620814Y-57290609D01*
X124489711Y-57378210D01*
X124489707Y-57378213D01*
X124378213Y-57489707D01*
X124378210Y-57489711D01*
X124290609Y-57620814D01*
X124290602Y-57620827D01*
X124230264Y-57766498D01*
X124230261Y-57766510D01*
X124199500Y-57921153D01*
X117625500Y-57921153D01*
X117625500Y-57838394D01*
X117601463Y-57717548D01*
X117563020Y-57624739D01*
X117554312Y-57603716D01*
X117554307Y-57603707D01*
X117485858Y-57501267D01*
X117485855Y-57501263D01*
X117398736Y-57414144D01*
X117398732Y-57414141D01*
X117296292Y-57345692D01*
X117296283Y-57345687D01*
X117182454Y-57298538D01*
X117182455Y-57298538D01*
X117182452Y-57298537D01*
X117182448Y-57298536D01*
X117182444Y-57298535D01*
X117061610Y-57274500D01*
X117061606Y-57274500D01*
X116938394Y-57274500D01*
X116938389Y-57274500D01*
X116817555Y-57298535D01*
X116817545Y-57298538D01*
X116703716Y-57345687D01*
X116703707Y-57345692D01*
X116601267Y-57414141D01*
X116601263Y-57414144D01*
X116514144Y-57501263D01*
X116514141Y-57501267D01*
X116445692Y-57603707D01*
X116445687Y-57603716D01*
X116398538Y-57717545D01*
X116398535Y-57717555D01*
X116374500Y-57838389D01*
X115000000Y-57838389D01*
X115000000Y-56124000D01*
X115019685Y-56056961D01*
X115072489Y-56011206D01*
X115124000Y-56000000D01*
X120175783Y-56000000D01*
X120242822Y-56019685D01*
G37*
%TD.AperFunction*%
%TD*%
M02*
