M48
; DRILL file {KiCad 9.0.4} date 2025-09-28T00:50:47+0200
; FORMAT={-:-/ absolute / metric / decimal}
; #@! TF.CreationDate,2025-09-28T00:50:47+02:00
; #@! TF.GenerationSoftware,Kicad,Pcbnew,9.0.4
; #@! TF.FileFunction,Plated,1,4,PTH
FMAT,2
METRIC
; #@! TA.AperFunction,Plated,PTH,ViaDrill
T1C0.300
; #@! TA.AperFunction,Plated,PTH,ComponentDrill
T2C0.780
; #@! TA.AperFunction,Plated,PTH,ComponentDrill
T3C1.000
; #@! TA.AperFunction,Plated,PTH,ComponentDrill
T4C1.460
%
G90
G05
T1
X115.6Y-65.3
X115.8Y-71.8
X115.8Y-86.6
X115.8Y-90.1
X115.9Y-94.0
X116.0Y-58.9
X117.5Y-94.1
X117.7Y-75.6
X117.7Y-86.8
X118.3Y-58.8
X118.4Y-65.0
X118.5Y-71.3
X118.6Y-90.8
X119.4Y-94.4
X119.7Y-67.7
X119.9Y-61.3
X120.6Y-79.3
X120.6Y-81.3
X120.7Y-74.9
X120.7Y-83.5
X120.75Y-62.5
X120.75Y-68.75
X121.0Y-56.55
X121.7Y-86.4
X122.6Y-86.4
X124.0Y-79.2
X124.75Y-60.732
X124.9Y-94.5
X125.0Y-58.0
X126.1Y-59.0
X126.4Y-74.0
X126.4Y-74.7
X126.4Y-75.4
X126.4Y-76.1
X126.7Y-56.7
X127.7Y-88.0
X127.8Y-71.5
X127.9Y-72.294
X128.4Y-63.3
X128.5Y-65.8
X128.5Y-68.3
X128.7Y-57.4
X128.7Y-89.9
X129.2Y-75.6
X129.3Y-70.9
X129.6Y-94.9
X130.4Y-74.3
X130.6Y-65.7
X130.8Y-68.9
X131.0Y-61.1
X131.3Y-88.0
X131.4Y-63.5
X132.3Y-89.9
X132.4Y-58.325
X132.4Y-59.175
X132.4Y-80.3
X133.4Y-94.9
X134.5Y-67.2
X134.506Y-60.925
X134.506Y-61.775
X134.6Y-63.8
X134.7Y-73.0
X134.8Y-73.9
X134.8Y-75.2
X134.8Y-75.8
X134.9Y-88.0
X135.9Y-89.9
T2
X129.25Y-93.0
X131.25Y-93.0
X133.25Y-93.0
T3
X116.7Y-79.3
X116.7Y-83.5
X125.67Y-82.485
X125.67Y-85.025
X128.21Y-82.485
X128.21Y-85.025
X130.75Y-82.485
X130.75Y-85.025
X133.29Y-82.485
X133.29Y-85.025
X135.83Y-82.485
X135.83Y-85.025
T4
X127.15Y-93.0
X135.35Y-93.0
M30
