%TF.GenerationSoftware,KiCad,Pcbnew,9.0.4*%
%TF.CreationDate,2025-09-28T00:50:50+02:00*%
%TF.ProjectId,BTM308-host-top,42544d33-3038-42d6-986f-73742d746f70,rev?*%
%TF.SameCoordinates,Original*%
%TF.FileFunction,Soldermask,Top*%
%TF.FilePolarity,Negative*%
%FSLAX46Y46*%
G04 Gerber Fmt 4.6, Leading zero omitted, Abs format (unit mm)*
G04 Created by KiCad (PCBNEW 9.0.4) date 2025-09-28 00:50:50*
%MOMM*%
%LPD*%
G01*
G04 APERTURE LIST*
G04 Aperture macros list*
%AMRoundRect*
0 Rectangle with rounded corners*
0 $1 Rounding radius*
0 $2 $3 $4 $5 $6 $7 $8 $9 X,Y pos of 4 corners*
0 Add a 4 corners polygon primitive as box body*
4,1,4,$2,$3,$4,$5,$6,$7,$8,$9,$2,$3,0*
0 Add four circle primitives for the rounded corners*
1,1,$1+$1,$2,$3*
1,1,$1+$1,$4,$5*
1,1,$1+$1,$6,$7*
1,1,$1+$1,$8,$9*
0 Add four rect primitives between the rounded corners*
20,1,$1+$1,$2,$3,$4,$5,0*
20,1,$1+$1,$4,$5,$6,$7,0*
20,1,$1+$1,$6,$7,$8,$9,0*
20,1,$1+$1,$8,$9,$2,$3,0*%
G04 Aperture macros list end*
%ADD10C,0.001000*%
%ADD11C,0.750000*%
%ADD12RoundRect,0.102000X0.600000X-0.300000X0.600000X0.300000X-0.600000X0.300000X-0.600000X-0.300000X0*%
%ADD13R,2.000000X0.925000*%
%ADD14R,0.925000X2.000000*%
%ADD15RoundRect,0.250000X0.450000X-0.350000X0.450000X0.350000X-0.450000X0.350000X-0.450000X-0.350000X0*%
%ADD16R,1.700000X1.700000*%
%ADD17RoundRect,0.250000X-0.450000X0.350000X-0.450000X-0.350000X0.450000X-0.350000X0.450000X0.350000X0*%
%ADD18RoundRect,0.250000X-0.450000X0.325000X-0.450000X-0.325000X0.450000X-0.325000X0.450000X0.325000X0*%
%ADD19C,1.700000*%
%ADD20R,1.337000X1.337000*%
%ADD21C,1.337000*%
%ADD22C,2.190000*%
G04 APERTURE END LIST*
D10*
%TO.C,SW6*%
X117050000Y-88067500D02*
X116400000Y-88067500D01*
X116400000Y-88467500D01*
X115650000Y-88467500D01*
X115650000Y-87317500D01*
X117050000Y-87317500D01*
X117050000Y-88067500D01*
G36*
X117050000Y-88067500D02*
G01*
X116400000Y-88067500D01*
X116400000Y-88467500D01*
X115650000Y-88467500D01*
X115650000Y-87317500D01*
X117050000Y-87317500D01*
X117050000Y-88067500D01*
G37*
X116400000Y-91967500D02*
X117050000Y-91967500D01*
X117050000Y-92717500D01*
X115650000Y-92717500D01*
X115650000Y-91567500D01*
X115700000Y-91567500D01*
X116400000Y-91567500D01*
X116400000Y-91967500D01*
G36*
X116400000Y-91967500D02*
G01*
X117050000Y-91967500D01*
X117050000Y-92717500D01*
X115650000Y-92717500D01*
X115650000Y-91567500D01*
X115700000Y-91567500D01*
X116400000Y-91567500D01*
X116400000Y-91967500D01*
G37*
%TO.C,SW1*%
X117050000Y-63025000D02*
X116400000Y-63025000D01*
X116400000Y-63425000D01*
X115650000Y-63425000D01*
X115650000Y-62275000D01*
X117050000Y-62275000D01*
X117050000Y-63025000D01*
G36*
X117050000Y-63025000D02*
G01*
X116400000Y-63025000D01*
X116400000Y-63425000D01*
X115650000Y-63425000D01*
X115650000Y-62275000D01*
X117050000Y-62275000D01*
X117050000Y-63025000D01*
G37*
X116400000Y-66925000D02*
X117050000Y-66925000D01*
X117050000Y-67675000D01*
X115650000Y-67675000D01*
X115650000Y-66525000D01*
X115700000Y-66525000D01*
X116400000Y-66525000D01*
X116400000Y-66925000D01*
G36*
X116400000Y-66925000D02*
G01*
X117050000Y-66925000D01*
X117050000Y-67675000D01*
X115650000Y-67675000D01*
X115650000Y-66525000D01*
X115700000Y-66525000D01*
X116400000Y-66525000D01*
X116400000Y-66925000D01*
G37*
%TO.C,SW2*%
X117050000Y-69250000D02*
X116400000Y-69250000D01*
X116400000Y-69650000D01*
X115650000Y-69650000D01*
X115650000Y-68500000D01*
X117050000Y-68500000D01*
X117050000Y-69250000D01*
G36*
X117050000Y-69250000D02*
G01*
X116400000Y-69250000D01*
X116400000Y-69650000D01*
X115650000Y-69650000D01*
X115650000Y-68500000D01*
X117050000Y-68500000D01*
X117050000Y-69250000D01*
G37*
X116400000Y-73150000D02*
X117050000Y-73150000D01*
X117050000Y-73900000D01*
X115650000Y-73900000D01*
X115650000Y-72750000D01*
X115700000Y-72750000D01*
X116400000Y-72750000D01*
X116400000Y-73150000D01*
G36*
X116400000Y-73150000D02*
G01*
X117050000Y-73150000D01*
X117050000Y-73900000D01*
X115650000Y-73900000D01*
X115650000Y-72750000D01*
X115700000Y-72750000D01*
X116400000Y-72750000D01*
X116400000Y-73150000D01*
G37*
%TO.C,SW3*%
X117050000Y-56800000D02*
X116400000Y-56800000D01*
X116400000Y-57200000D01*
X115650000Y-57200000D01*
X115650000Y-56050000D01*
X117050000Y-56050000D01*
X117050000Y-56800000D01*
G36*
X117050000Y-56800000D02*
G01*
X116400000Y-56800000D01*
X116400000Y-57200000D01*
X115650000Y-57200000D01*
X115650000Y-56050000D01*
X117050000Y-56050000D01*
X117050000Y-56800000D01*
G37*
X116400000Y-60700000D02*
X117050000Y-60700000D01*
X117050000Y-61450000D01*
X115650000Y-61450000D01*
X115650000Y-60300000D01*
X115700000Y-60300000D01*
X116400000Y-60300000D01*
X116400000Y-60700000D01*
G36*
X116400000Y-60700000D02*
G01*
X117050000Y-60700000D01*
X117050000Y-61450000D01*
X115650000Y-61450000D01*
X115650000Y-60300000D01*
X115700000Y-60300000D01*
X116400000Y-60300000D01*
X116400000Y-60700000D01*
G37*
%TD*%
D11*
%TO.C,SW6*%
X117000000Y-90867500D03*
X117000000Y-89167500D03*
D12*
X118300000Y-91717500D03*
X118300000Y-88317500D03*
%TD*%
D13*
%TO.C,U1*%
X122850000Y-56800000D03*
X122850000Y-58100000D03*
X122850000Y-59400000D03*
X122850000Y-60700000D03*
X122850000Y-62000000D03*
X122850000Y-63300000D03*
X122850000Y-64600000D03*
X122850000Y-65900000D03*
X122850000Y-67200000D03*
X122850000Y-68500000D03*
X122850000Y-69800000D03*
X122850000Y-71100000D03*
X122850000Y-72400000D03*
X122850000Y-73700000D03*
X122850000Y-75000000D03*
X122850000Y-76300000D03*
D14*
X125100000Y-78050000D03*
X126400000Y-78050000D03*
X127700000Y-78050000D03*
X129000000Y-78050000D03*
X130300000Y-78050000D03*
X131600000Y-78050000D03*
X132900000Y-78050000D03*
X134200000Y-78050000D03*
D13*
X136350000Y-76300000D03*
X136350000Y-75000000D03*
X136350000Y-73700000D03*
X136350000Y-72400000D03*
X136350000Y-71100000D03*
X136350000Y-69800000D03*
X136350000Y-68500000D03*
X136350000Y-67200000D03*
X136350000Y-65900000D03*
X136350000Y-64600000D03*
X136350000Y-63300000D03*
X136350000Y-62000000D03*
X136350000Y-60700000D03*
X136350000Y-59400000D03*
X136350000Y-58100000D03*
X136350000Y-56800000D03*
%TD*%
D15*
%TO.C,R2*%
X120450000Y-72200000D03*
X120450000Y-70200000D03*
%TD*%
D16*
%TO.C,J7*%
X116700000Y-79300000D03*
%TD*%
D11*
%TO.C,SW1*%
X117000000Y-65825000D03*
X117000000Y-64125000D03*
D12*
X118300000Y-66675000D03*
X118300000Y-63275000D03*
%TD*%
D16*
%TO.C,J6*%
X116700000Y-83500000D03*
%TD*%
D17*
%TO.C,R5*%
X120846667Y-87750000D03*
X120846667Y-89750000D03*
%TD*%
D15*
%TO.C,R1*%
X120450000Y-66000000D03*
X120450000Y-64000000D03*
%TD*%
D11*
%TO.C,SW2*%
X117000000Y-72050000D03*
X117000000Y-70350000D03*
D12*
X118300000Y-72900000D03*
X118300000Y-69500000D03*
%TD*%
D17*
%TO.C,R4*%
X123413333Y-87750000D03*
X123413333Y-89750000D03*
%TD*%
D18*
%TO.C,D2*%
X123428333Y-91975000D03*
X123428333Y-94025000D03*
%TD*%
D11*
%TO.C,SW3*%
X117000000Y-59600000D03*
X117000000Y-57900000D03*
D12*
X118300000Y-60450000D03*
X118300000Y-57050000D03*
%TD*%
D15*
%TO.C,R3*%
X120450000Y-59800000D03*
X120450000Y-57800000D03*
%TD*%
D16*
%TO.C,J5*%
X125670000Y-85025000D03*
D19*
X125670000Y-82485000D03*
X128210000Y-85025000D03*
X128210000Y-82485000D03*
X130750000Y-85025000D03*
X130750000Y-82485000D03*
X133290000Y-85025000D03*
X133290000Y-82485000D03*
X135830000Y-85025000D03*
X135830000Y-82485000D03*
%TD*%
D20*
%TO.C,SW4*%
X129250000Y-93000000D03*
D21*
X131250000Y-93000000D03*
X133250000Y-93000000D03*
D22*
X127150000Y-93000000D03*
X135350000Y-93000000D03*
%TD*%
D18*
%TO.C,D1*%
X120831667Y-91975000D03*
X120831667Y-94025000D03*
%TD*%
M02*
