%TF.GenerationSoftware,KiCad,Pcbnew,9.0.4*%
%TF.CreationDate,2025-09-28T00:51:42+02:00*%
%TF.ProjectId,BTM308-host-bottom,42544d33-3038-42d6-986f-73742d626f74,rev?*%
%TF.SameCoordinates,Original*%
%TF.FileFunction,Copper,L3,Inr*%
%TF.FilePolarity,Positive*%
%FSLAX46Y46*%
G04 Gerber Fmt 4.6, Leading zero omitted, Abs format (unit mm)*
G04 Created by KiCad (PCBNEW 9.0.4) date 2025-09-28 00:51:42*
%MOMM*%
%LPD*%
G01*
G04 APERTURE LIST*
%TA.AperFunction,ComponentPad*%
%ADD10R,1.700000X1.700000*%
%TD*%
%TA.AperFunction,ComponentPad*%
%ADD11C,1.700000*%
%TD*%
%TA.AperFunction,ComponentPad*%
%ADD12C,1.600000*%
%TD*%
%TA.AperFunction,HeatsinkPad*%
%ADD13O,1.000000X2.100000*%
%TD*%
%TA.AperFunction,HeatsinkPad*%
%ADD14O,1.000000X1.600000*%
%TD*%
%TA.AperFunction,ViaPad*%
%ADD15C,0.600000*%
%TD*%
G04 APERTURE END LIST*
D10*
%TO.N,AGND*%
%TO.C,J1*%
X155420000Y-85127500D03*
D11*
X155420000Y-82587500D03*
X157960000Y-85127500D03*
%TO.N,/SPK_AN*%
X157960000Y-82587500D03*
%TO.N,GND*%
X160500000Y-85127500D03*
%TO.N,/SPK_AP*%
X160500000Y-82587500D03*
%TO.N,/VCHG*%
X163040000Y-85127500D03*
%TO.N,/SPK_BP*%
X163040000Y-82587500D03*
%TO.N,/VBAT*%
X165580000Y-85127500D03*
%TO.N,/SPK_BN*%
X165580000Y-82587500D03*
%TD*%
D10*
%TO.N,GND*%
%TO.C,J4*%
X165400000Y-93800000D03*
%TD*%
%TO.N,/VBAT*%
%TO.C,J3*%
X165400000Y-88900000D03*
%TD*%
D12*
%TO.N,GND*%
%TO.C,U3*%
X155050000Y-57300000D03*
%TO.N,Net-(U3-Tip)*%
X156050000Y-61700000D03*
%TO.N,Net-(U3-Ring1)*%
X160050000Y-61700000D03*
%TO.N,unconnected-(U3-Ring2-Pad4)*%
X163050000Y-61700000D03*
%TD*%
D13*
%TO.N,GND*%
%TO.C,J2*%
X145680000Y-90267500D03*
D14*
X145680000Y-94447500D03*
D13*
X154320000Y-90267500D03*
D14*
X154320000Y-94447500D03*
%TD*%
D15*
%TO.N,GND*%
X153300000Y-59500000D03*
X164600000Y-63400000D03*
X157400000Y-63400000D03*
X154500000Y-79400000D03*
X146500000Y-60000000D03*
X145500000Y-76300000D03*
X145500000Y-81100000D03*
X145500000Y-83500000D03*
X145500000Y-71000000D03*
X156200000Y-95000000D03*
X160800000Y-91600000D03*
X166100000Y-62300000D03*
X147500000Y-57600000D03*
X145400000Y-73700000D03*
X160000000Y-80300000D03*
X163700000Y-87300000D03*
X160200000Y-95000000D03*
X166400000Y-64500000D03*
X166700000Y-57500000D03*
X151600000Y-61800000D03*
X166100000Y-72000000D03*
X148000000Y-92700000D03*
X166200000Y-69100000D03*
X150300000Y-91200000D03*
X145300000Y-68400000D03*
X162400000Y-59100000D03*
X166600000Y-59500000D03*
X164500000Y-79700000D03*
X159500000Y-63400000D03*
X146900000Y-85800000D03*
X155900000Y-89700000D03*
X150300000Y-58000000D03*
X166000000Y-91700000D03*
X145500000Y-92400000D03*
X166100000Y-75000000D03*
X163400000Y-93800000D03*
X162300000Y-57400000D03*
X159000000Y-91800000D03*
X152800000Y-95000000D03*
X145300000Y-62400000D03*
X147900000Y-95000000D03*
X164700000Y-57500000D03*
X154500000Y-92500000D03*
X162800000Y-88500000D03*
X148000000Y-81500000D03*
X159800000Y-57500000D03*
X163800000Y-78400000D03*
X152700000Y-62600000D03*
X150100000Y-93100000D03*
X150500000Y-95000000D03*
X159300000Y-59200000D03*
X145400000Y-65200000D03*
X152400000Y-93000000D03*
X158900000Y-79200000D03*
X163300000Y-95000000D03*
X145500000Y-78600000D03*
X161500000Y-87400000D03*
X148700000Y-59600000D03*
X161200000Y-94100000D03*
X145600000Y-57800000D03*
X165200000Y-61100000D03*
X157400000Y-57300000D03*
X152700000Y-57500000D03*
%TO.N,/VCHG*%
X148400000Y-90700000D03*
X156900000Y-91800000D03*
X151800000Y-90800000D03*
%TO.N,/VBAT*%
X163600000Y-91100000D03*
%TO.N,AGND*%
X148500000Y-64750000D03*
X155750000Y-69750000D03*
X150750000Y-67000000D03*
X150750000Y-78250000D03*
X152500000Y-82500000D03*
X150750000Y-69250000D03*
X150750000Y-64750000D03*
X150750000Y-71500000D03*
X150750000Y-80500000D03*
X150750000Y-75750000D03*
%TD*%
%TA.AperFunction,Conductor*%
%TO.N,/VBAT*%
G36*
X164989999Y-83816458D02*
G01*
X165043706Y-83829945D01*
X165061588Y-83839057D01*
X165263757Y-83904746D01*
X165473713Y-83938000D01*
X165473714Y-83938000D01*
X165686286Y-83938000D01*
X165686287Y-83938000D01*
X165896243Y-83904746D01*
X166077053Y-83845996D01*
X166117939Y-83839957D01*
X166839003Y-83854979D01*
X166905618Y-83876056D01*
X166950263Y-83929801D01*
X166960419Y-83978522D01*
X166986016Y-91364829D01*
X166966564Y-91431937D01*
X166913919Y-91477874D01*
X166844795Y-91488057D01*
X166781140Y-91459253D01*
X166747456Y-91412711D01*
X166709397Y-91320827D01*
X166709390Y-91320814D01*
X166621789Y-91189711D01*
X166621786Y-91189707D01*
X166510292Y-91078213D01*
X166510288Y-91078210D01*
X166379185Y-90990609D01*
X166379172Y-90990602D01*
X166233501Y-90930264D01*
X166233489Y-90930261D01*
X166078845Y-90899500D01*
X166078842Y-90899500D01*
X165921158Y-90899500D01*
X165921155Y-90899500D01*
X165766510Y-90930261D01*
X165766498Y-90930264D01*
X165620827Y-90990602D01*
X165620814Y-90990609D01*
X165489711Y-91078210D01*
X165489707Y-91078213D01*
X165378213Y-91189707D01*
X165378210Y-91189711D01*
X165290609Y-91320814D01*
X165290602Y-91320827D01*
X165230264Y-91466498D01*
X165230261Y-91466510D01*
X165199500Y-91621153D01*
X165199500Y-91778846D01*
X165230261Y-91933489D01*
X165230264Y-91933501D01*
X165290602Y-92079172D01*
X165290609Y-92079185D01*
X165378210Y-92210288D01*
X165378213Y-92210292D01*
X165405740Y-92237819D01*
X165439225Y-92299142D01*
X165434241Y-92368834D01*
X165392369Y-92424767D01*
X165326905Y-92449184D01*
X165318059Y-92449500D01*
X164502129Y-92449500D01*
X164502123Y-92449501D01*
X164442516Y-92455908D01*
X164307671Y-92506202D01*
X164307664Y-92506206D01*
X164192455Y-92592452D01*
X164192452Y-92592455D01*
X164106206Y-92707664D01*
X164106202Y-92707671D01*
X164055908Y-92842517D01*
X164049501Y-92902116D01*
X164049500Y-92902135D01*
X164049500Y-93039240D01*
X164029815Y-93106279D01*
X163977011Y-93152034D01*
X163907853Y-93161978D01*
X163856610Y-93142342D01*
X163779190Y-93090612D01*
X163779172Y-93090602D01*
X163633501Y-93030264D01*
X163633489Y-93030261D01*
X163478845Y-92999500D01*
X163478842Y-92999500D01*
X163321158Y-92999500D01*
X163321155Y-92999500D01*
X163166510Y-93030261D01*
X163166498Y-93030264D01*
X163020827Y-93090602D01*
X163020814Y-93090609D01*
X162889711Y-93178210D01*
X162889707Y-93178213D01*
X162778213Y-93289707D01*
X162778210Y-93289711D01*
X162690609Y-93420814D01*
X162690602Y-93420827D01*
X162630264Y-93566498D01*
X162630261Y-93566510D01*
X162599500Y-93721153D01*
X162599500Y-93878846D01*
X162630261Y-94033489D01*
X162630264Y-94033501D01*
X162690602Y-94179172D01*
X162690609Y-94179185D01*
X162753485Y-94273285D01*
X162774363Y-94339963D01*
X162755878Y-94407343D01*
X162738064Y-94429857D01*
X162678213Y-94489707D01*
X162678210Y-94489711D01*
X162590609Y-94620814D01*
X162590602Y-94620827D01*
X162530264Y-94766498D01*
X162530261Y-94766510D01*
X162499500Y-94921153D01*
X162499500Y-95078846D01*
X162530261Y-95233489D01*
X162530264Y-95233501D01*
X162581834Y-95358004D01*
X162589303Y-95427474D01*
X162558027Y-95489953D01*
X162497938Y-95525604D01*
X162470814Y-95529405D01*
X161016752Y-95570949D01*
X160949178Y-95553187D01*
X160901934Y-95501712D01*
X160890019Y-95432865D01*
X160907545Y-95385101D01*
X160906521Y-95384554D01*
X160909390Y-95379184D01*
X160909394Y-95379179D01*
X160969737Y-95233497D01*
X161000500Y-95078842D01*
X161000500Y-95024500D01*
X161020185Y-94957461D01*
X161072989Y-94911706D01*
X161124500Y-94900500D01*
X161278844Y-94900500D01*
X161278845Y-94900499D01*
X161433497Y-94869737D01*
X161579179Y-94809394D01*
X161710289Y-94721789D01*
X161821789Y-94610289D01*
X161909394Y-94479179D01*
X161969737Y-94333497D01*
X162000500Y-94178842D01*
X162000500Y-94021158D01*
X162000500Y-94021155D01*
X162000499Y-94021153D01*
X161969738Y-93866510D01*
X161969737Y-93866503D01*
X161909532Y-93721153D01*
X161909397Y-93720827D01*
X161909390Y-93720814D01*
X161821789Y-93589711D01*
X161821786Y-93589707D01*
X161710292Y-93478213D01*
X161710288Y-93478210D01*
X161579185Y-93390609D01*
X161579172Y-93390602D01*
X161433501Y-93330264D01*
X161433489Y-93330261D01*
X161278845Y-93299500D01*
X161278842Y-93299500D01*
X161121158Y-93299500D01*
X161121155Y-93299500D01*
X160966510Y-93330261D01*
X160966498Y-93330264D01*
X160820827Y-93390602D01*
X160820814Y-93390609D01*
X160689711Y-93478210D01*
X160689707Y-93478213D01*
X160578213Y-93589707D01*
X160578210Y-93589711D01*
X160490609Y-93720814D01*
X160490602Y-93720827D01*
X160430264Y-93866498D01*
X160430261Y-93866510D01*
X160399500Y-94021153D01*
X160399500Y-94075500D01*
X160379815Y-94142539D01*
X160327011Y-94188294D01*
X160275500Y-94199500D01*
X160218050Y-94199500D01*
X160151011Y-94179815D01*
X160105256Y-94127011D01*
X160094284Y-94067884D01*
X160125138Y-93566510D01*
X160197868Y-92384635D01*
X160221633Y-92318933D01*
X160277148Y-92276508D01*
X160346787Y-92270831D01*
X160390523Y-92289150D01*
X160420821Y-92309394D01*
X160420823Y-92309395D01*
X160420827Y-92309397D01*
X160564323Y-92368834D01*
X160566503Y-92369737D01*
X160690582Y-92394418D01*
X160721153Y-92400499D01*
X160721156Y-92400500D01*
X160721158Y-92400500D01*
X160878844Y-92400500D01*
X160878845Y-92400499D01*
X161033497Y-92369737D01*
X161179179Y-92309394D01*
X161310289Y-92221789D01*
X161421789Y-92110289D01*
X161509394Y-91979179D01*
X161569737Y-91833497D01*
X161600500Y-91678842D01*
X161600500Y-91521158D01*
X161600500Y-91521155D01*
X161600499Y-91521153D01*
X161588186Y-91459253D01*
X161569737Y-91366503D01*
X161550812Y-91320814D01*
X161509397Y-91220827D01*
X161509390Y-91220814D01*
X161421789Y-91089711D01*
X161421786Y-91089707D01*
X161310292Y-90978213D01*
X161310288Y-90978210D01*
X161179185Y-90890609D01*
X161179172Y-90890602D01*
X161033501Y-90830264D01*
X161033489Y-90830261D01*
X160878845Y-90799500D01*
X160878842Y-90799500D01*
X160721158Y-90799500D01*
X160721155Y-90799500D01*
X160566510Y-90830261D01*
X160566503Y-90830263D01*
X160469792Y-90870321D01*
X160400323Y-90877789D01*
X160337844Y-90846513D01*
X160302192Y-90786424D01*
X160298575Y-90748148D01*
X160395972Y-89165450D01*
X160419737Y-89099747D01*
X160456362Y-89066486D01*
X161821607Y-88254719D01*
X161889286Y-88237378D01*
X161955601Y-88259381D01*
X161999493Y-88313743D01*
X162007026Y-88383205D01*
X162006594Y-88385493D01*
X161999500Y-88421158D01*
X161999500Y-88578846D01*
X162030261Y-88733489D01*
X162030264Y-88733501D01*
X162090602Y-88879172D01*
X162090609Y-88879185D01*
X162178210Y-89010288D01*
X162178213Y-89010292D01*
X162289707Y-89121786D01*
X162289711Y-89121789D01*
X162420814Y-89209390D01*
X162420827Y-89209397D01*
X162566498Y-89269735D01*
X162566503Y-89269737D01*
X162721153Y-89300499D01*
X162721156Y-89300500D01*
X162721158Y-89300500D01*
X162878844Y-89300500D01*
X162878845Y-89300499D01*
X163033497Y-89269737D01*
X163179179Y-89209394D01*
X163310289Y-89121789D01*
X163421789Y-89010289D01*
X163509394Y-88879179D01*
X163569737Y-88733497D01*
X163600500Y-88578842D01*
X163600500Y-88421158D01*
X163600500Y-88421155D01*
X163600499Y-88421153D01*
X163592951Y-88383205D01*
X163569737Y-88266503D01*
X163569732Y-88266492D01*
X163567969Y-88260676D01*
X163570720Y-88259841D01*
X163564497Y-88202641D01*
X163595691Y-88140122D01*
X163655734Y-88104392D01*
X163686555Y-88100500D01*
X163778844Y-88100500D01*
X163778845Y-88100499D01*
X163933497Y-88069737D01*
X164079179Y-88009394D01*
X164210289Y-87921789D01*
X164321789Y-87810289D01*
X164409394Y-87679179D01*
X164469737Y-87533497D01*
X164500500Y-87378842D01*
X164500500Y-87221158D01*
X164500500Y-87221155D01*
X164500499Y-87221153D01*
X164469738Y-87066510D01*
X164469737Y-87066503D01*
X164450815Y-87020821D01*
X164409397Y-86920827D01*
X164409390Y-86920814D01*
X164321789Y-86789711D01*
X164321786Y-86789707D01*
X164210292Y-86678213D01*
X164210288Y-86678210D01*
X164166595Y-86649015D01*
X164121790Y-86595403D01*
X164111550Y-86541920D01*
X164130296Y-85960820D01*
X164152131Y-85894454D01*
X164153869Y-85891997D01*
X164195051Y-85835316D01*
X164291557Y-85645912D01*
X164357246Y-85443743D01*
X164390500Y-85233787D01*
X164390500Y-85021213D01*
X164357246Y-84811257D01*
X164291557Y-84609088D01*
X164195383Y-84420337D01*
X164181933Y-84360049D01*
X164196047Y-83922526D01*
X164217883Y-83856158D01*
X164272135Y-83812129D01*
X164322563Y-83802553D01*
X164989999Y-83816458D01*
G37*
%TD.AperFunction*%
%TD*%
%TA.AperFunction,Conductor*%
%TO.N,/VCHG*%
G36*
X163656128Y-83883525D02*
G01*
X163686956Y-83946226D01*
X163688708Y-83971369D01*
X163676696Y-84343757D01*
X163682966Y-84410524D01*
X163688562Y-84470118D01*
X163702012Y-84530406D01*
X163744980Y-84649830D01*
X163744982Y-84649835D01*
X163818659Y-84794435D01*
X163826105Y-84812410D01*
X163861179Y-84920354D01*
X163865721Y-84939274D01*
X163883473Y-85051352D01*
X163885000Y-85070751D01*
X163885000Y-85184247D01*
X163883473Y-85203645D01*
X163865721Y-85315724D01*
X163861179Y-85334645D01*
X163826106Y-85442586D01*
X163818660Y-85460562D01*
X163767136Y-85561683D01*
X163756975Y-85578266D01*
X163750495Y-85587185D01*
X163744914Y-85594868D01*
X163743082Y-85597422D01*
X163741118Y-85600162D01*
X163739443Y-85602531D01*
X163735912Y-85607586D01*
X163671951Y-85736471D01*
X163671950Y-85736473D01*
X163650168Y-85802678D01*
X163650115Y-85802837D01*
X163625059Y-85944517D01*
X163625059Y-85944522D01*
X163610239Y-86403892D01*
X163588402Y-86470262D01*
X163534151Y-86514291D01*
X163510497Y-86521511D01*
X163466505Y-86530262D01*
X163466498Y-86530264D01*
X163320827Y-86590602D01*
X163320814Y-86590609D01*
X163189711Y-86678210D01*
X163189707Y-86678213D01*
X163078213Y-86789707D01*
X163078210Y-86789711D01*
X162990609Y-86920814D01*
X162990602Y-86920827D01*
X162930264Y-87066498D01*
X162930261Y-87066510D01*
X162899500Y-87221153D01*
X162899500Y-87354471D01*
X162879815Y-87421510D01*
X162829864Y-87465918D01*
X162471234Y-87640859D01*
X162402351Y-87652559D01*
X162338078Y-87625161D01*
X162298820Y-87567362D01*
X162295253Y-87505219D01*
X162300500Y-87478842D01*
X162300500Y-87321155D01*
X162300499Y-87321153D01*
X162296291Y-87300000D01*
X162269737Y-87166503D01*
X162228314Y-87066498D01*
X162209397Y-87020827D01*
X162209390Y-87020814D01*
X162121789Y-86889711D01*
X162121786Y-86889707D01*
X162010292Y-86778213D01*
X162010288Y-86778210D01*
X161879185Y-86690609D01*
X161879172Y-86690602D01*
X161733501Y-86630264D01*
X161733489Y-86630261D01*
X161578845Y-86599500D01*
X161578842Y-86599500D01*
X161421158Y-86599500D01*
X161421155Y-86599500D01*
X161266510Y-86630261D01*
X161266498Y-86630264D01*
X161120827Y-86690602D01*
X161120814Y-86690609D01*
X160989711Y-86778210D01*
X160989707Y-86778213D01*
X160878213Y-86889707D01*
X160878210Y-86889711D01*
X160790609Y-87020814D01*
X160790602Y-87020827D01*
X160730264Y-87166498D01*
X160730261Y-87166510D01*
X160699500Y-87321153D01*
X160699500Y-87478846D01*
X160730261Y-87633489D01*
X160730264Y-87633501D01*
X160790602Y-87779172D01*
X160790609Y-87779185D01*
X160878210Y-87910288D01*
X160878213Y-87910292D01*
X160964407Y-87996486D01*
X160997892Y-88057809D01*
X160992908Y-88127501D01*
X160951036Y-88183434D01*
X160940099Y-88190749D01*
X160198023Y-88631984D01*
X160198015Y-88631989D01*
X160116518Y-88692272D01*
X160116515Y-88692274D01*
X160079887Y-88725538D01*
X160079886Y-88725539D01*
X160012073Y-88800847D01*
X159978225Y-88864328D01*
X159944377Y-88927808D01*
X159921665Y-88990602D01*
X159920548Y-88993689D01*
X159920225Y-88995380D01*
X159891425Y-89134402D01*
X159794028Y-90717108D01*
X159795316Y-90795694D01*
X159795316Y-90795699D01*
X159798933Y-90833970D01*
X159798935Y-90833991D01*
X159812391Y-90911428D01*
X159812395Y-90911440D01*
X159867450Y-91044357D01*
X159867456Y-91044368D01*
X159894887Y-91090602D01*
X159903105Y-91104452D01*
X159940508Y-91150867D01*
X159993382Y-91216481D01*
X159999872Y-91222524D01*
X159997778Y-91224772D01*
X160032037Y-91267265D01*
X160039521Y-91336733D01*
X160038668Y-91341027D01*
X160036307Y-91351909D01*
X160030263Y-91366503D01*
X159999500Y-91521158D01*
X159999500Y-91521609D01*
X159998178Y-91527705D01*
X159981946Y-91557474D01*
X159966228Y-91587524D01*
X159965262Y-91588073D01*
X159964731Y-91589049D01*
X159934989Y-91605312D01*
X159905512Y-91622098D01*
X159904401Y-91622038D01*
X159903428Y-91622571D01*
X159869636Y-91620174D01*
X159835743Y-91618358D01*
X159834841Y-91617707D01*
X159833733Y-91617629D01*
X159806569Y-91597320D01*
X159779071Y-91577491D01*
X159778321Y-91576201D01*
X159777774Y-91575792D01*
X159777217Y-91574302D01*
X159762435Y-91548873D01*
X159709397Y-91420827D01*
X159709390Y-91420814D01*
X159621789Y-91289711D01*
X159621786Y-91289707D01*
X159510292Y-91178213D01*
X159510288Y-91178210D01*
X159379185Y-91090609D01*
X159379172Y-91090602D01*
X159233501Y-91030264D01*
X159233489Y-91030261D01*
X159078845Y-90999500D01*
X159078842Y-90999500D01*
X158921158Y-90999500D01*
X158921155Y-90999500D01*
X158766510Y-91030261D01*
X158766498Y-91030264D01*
X158620827Y-91090602D01*
X158620814Y-91090609D01*
X158489711Y-91178210D01*
X158489707Y-91178213D01*
X158378213Y-91289707D01*
X158378210Y-91289711D01*
X158290609Y-91420814D01*
X158290602Y-91420827D01*
X158230264Y-91566498D01*
X158230261Y-91566510D01*
X158199500Y-91721153D01*
X158199500Y-91878846D01*
X158230261Y-92033489D01*
X158230264Y-92033501D01*
X158290602Y-92179172D01*
X158290609Y-92179185D01*
X158378210Y-92310288D01*
X158378213Y-92310292D01*
X158489707Y-92421786D01*
X158489711Y-92421789D01*
X158620814Y-92509390D01*
X158620827Y-92509397D01*
X158711335Y-92546886D01*
X158766503Y-92569737D01*
X158921153Y-92600499D01*
X158921156Y-92600500D01*
X158921158Y-92600500D01*
X159078844Y-92600500D01*
X159078845Y-92600499D01*
X159233497Y-92569737D01*
X159379179Y-92509394D01*
X159488769Y-92436167D01*
X159555446Y-92415290D01*
X159622826Y-92433774D01*
X159669517Y-92485753D01*
X159681426Y-92546886D01*
X159589738Y-94036838D01*
X159589737Y-94036841D01*
X159597268Y-94160107D01*
X159597268Y-94160110D01*
X159608241Y-94219243D01*
X159643279Y-94330174D01*
X159644700Y-94400030D01*
X159612720Y-94455200D01*
X159578213Y-94489708D01*
X159578208Y-94489714D01*
X159490609Y-94620814D01*
X159490602Y-94620827D01*
X159430264Y-94766498D01*
X159430261Y-94766510D01*
X159399500Y-94921153D01*
X159399500Y-95078846D01*
X159430261Y-95233489D01*
X159430264Y-95233501D01*
X159490602Y-95379172D01*
X159490611Y-95379188D01*
X159509288Y-95407141D01*
X159530165Y-95473818D01*
X159511680Y-95541198D01*
X159459700Y-95587888D01*
X159406191Y-95600030D01*
X156993737Y-95600153D01*
X156926697Y-95580472D01*
X156880939Y-95527670D01*
X156870992Y-95458512D01*
X156890631Y-95407260D01*
X156909388Y-95379188D01*
X156909391Y-95379183D01*
X156909394Y-95379179D01*
X156969737Y-95233497D01*
X157000500Y-95078842D01*
X157000500Y-94921158D01*
X157000500Y-94921155D01*
X157000499Y-94921153D01*
X156969737Y-94766503D01*
X156969735Y-94766498D01*
X156909397Y-94620827D01*
X156909390Y-94620814D01*
X156821789Y-94489711D01*
X156821786Y-94489707D01*
X156710292Y-94378213D01*
X156710288Y-94378210D01*
X156579185Y-94290609D01*
X156579172Y-94290602D01*
X156433501Y-94230264D01*
X156433489Y-94230261D01*
X156278845Y-94199500D01*
X156278842Y-94199500D01*
X156121158Y-94199500D01*
X156121155Y-94199500D01*
X155966510Y-94230261D01*
X155966498Y-94230264D01*
X155820827Y-94290602D01*
X155820814Y-94290609D01*
X155689711Y-94378210D01*
X155689707Y-94378213D01*
X155578213Y-94489707D01*
X155547602Y-94535520D01*
X155493989Y-94580324D01*
X155424664Y-94589031D01*
X155361637Y-94558876D01*
X155324918Y-94499432D01*
X155320500Y-94466628D01*
X155320500Y-94048956D01*
X155282052Y-93855670D01*
X155282051Y-93855669D01*
X155282051Y-93855665D01*
X155282049Y-93855660D01*
X155206635Y-93673592D01*
X155206628Y-93673579D01*
X155097139Y-93509718D01*
X155097136Y-93509714D01*
X154957785Y-93370363D01*
X154957741Y-93370334D01*
X154952333Y-93366720D01*
X154907528Y-93313111D01*
X154898818Y-93243787D01*
X154928970Y-93180758D01*
X154952328Y-93160516D01*
X155010289Y-93121789D01*
X155121789Y-93010289D01*
X155209394Y-92879179D01*
X155269737Y-92733497D01*
X155300500Y-92578842D01*
X155300500Y-92421158D01*
X155300500Y-92421155D01*
X155300499Y-92421153D01*
X155282419Y-92330261D01*
X155269737Y-92266503D01*
X155269735Y-92266498D01*
X155209397Y-92120827D01*
X155209390Y-92120814D01*
X155121789Y-91989711D01*
X155121786Y-91989707D01*
X155010292Y-91878213D01*
X155010288Y-91878210D01*
X154926141Y-91821984D01*
X154881336Y-91768371D01*
X154872629Y-91699046D01*
X154902784Y-91636019D01*
X154926139Y-91615781D01*
X154957782Y-91594639D01*
X155097139Y-91455282D01*
X155206632Y-91291414D01*
X155211840Y-91278842D01*
X155275140Y-91126019D01*
X155282051Y-91109335D01*
X155299893Y-91019637D01*
X155320500Y-90916043D01*
X155320500Y-90507532D01*
X155340185Y-90440493D01*
X155392989Y-90394738D01*
X155462147Y-90384794D01*
X155513391Y-90404430D01*
X155520815Y-90409390D01*
X155520821Y-90409394D01*
X155520823Y-90409395D01*
X155520827Y-90409397D01*
X155666498Y-90469735D01*
X155666503Y-90469737D01*
X155821153Y-90500499D01*
X155821156Y-90500500D01*
X155821158Y-90500500D01*
X155978844Y-90500500D01*
X155978845Y-90500499D01*
X156133497Y-90469737D01*
X156279179Y-90409394D01*
X156410289Y-90321789D01*
X156521789Y-90210289D01*
X156609394Y-90079179D01*
X156669737Y-89933497D01*
X156700500Y-89778842D01*
X156700500Y-89621158D01*
X156700500Y-89621155D01*
X156700499Y-89621153D01*
X156700062Y-89618956D01*
X156669737Y-89466503D01*
X156652824Y-89425670D01*
X156609397Y-89320827D01*
X156609390Y-89320814D01*
X156521789Y-89189711D01*
X156521786Y-89189707D01*
X156410292Y-89078213D01*
X156410288Y-89078210D01*
X156279185Y-88990609D01*
X156279172Y-88990602D01*
X156133501Y-88930264D01*
X156133489Y-88930261D01*
X155978845Y-88899500D01*
X155978842Y-88899500D01*
X155821158Y-88899500D01*
X155821155Y-88899500D01*
X155666510Y-88930261D01*
X155666498Y-88930264D01*
X155520827Y-88990602D01*
X155520814Y-88990609D01*
X155389711Y-89078210D01*
X155320562Y-89147359D01*
X155259238Y-89180843D01*
X155189547Y-89175858D01*
X155133613Y-89133987D01*
X155129792Y-89128588D01*
X155097139Y-89079718D01*
X155097137Y-89079715D01*
X154957785Y-88940363D01*
X154957781Y-88940360D01*
X154793920Y-88830871D01*
X154793907Y-88830864D01*
X154611839Y-88755450D01*
X154611829Y-88755447D01*
X154418543Y-88717000D01*
X154418541Y-88717000D01*
X154221459Y-88717000D01*
X154221457Y-88717000D01*
X154028170Y-88755447D01*
X154028160Y-88755450D01*
X153846092Y-88830864D01*
X153846079Y-88830871D01*
X153682218Y-88940360D01*
X153682214Y-88940363D01*
X153542863Y-89079714D01*
X153542860Y-89079718D01*
X153433371Y-89243579D01*
X153433364Y-89243592D01*
X153357950Y-89425660D01*
X153357947Y-89425670D01*
X153319500Y-89618956D01*
X153319500Y-90166166D01*
X153299815Y-90233205D01*
X153247011Y-90278960D01*
X153177853Y-90288904D01*
X153133501Y-90273554D01*
X153112137Y-90261219D01*
X153007584Y-90233205D01*
X152965766Y-90222000D01*
X152814234Y-90222000D01*
X152667863Y-90261219D01*
X152536635Y-90336985D01*
X152536632Y-90336987D01*
X152429487Y-90444132D01*
X152429485Y-90444135D01*
X152353719Y-90575363D01*
X152323080Y-90689711D01*
X152314500Y-90721734D01*
X152314500Y-90873266D01*
X152325962Y-90916043D01*
X152353719Y-91019636D01*
X152373020Y-91053065D01*
X152429485Y-91150865D01*
X152536635Y-91258015D01*
X152667865Y-91333781D01*
X152814234Y-91373000D01*
X152814236Y-91373000D01*
X152965764Y-91373000D01*
X152965766Y-91373000D01*
X153112135Y-91333781D01*
X153243365Y-91258015D01*
X153243374Y-91258005D01*
X153249488Y-91253315D01*
X153314656Y-91228117D01*
X153383101Y-91242150D01*
X153429025Y-91286988D01*
X153429983Y-91286349D01*
X153433009Y-91290878D01*
X153433094Y-91290961D01*
X153433228Y-91291206D01*
X153542860Y-91455281D01*
X153542863Y-91455285D01*
X153682214Y-91594636D01*
X153682218Y-91594639D01*
X153846079Y-91704128D01*
X153846088Y-91704133D01*
X153899283Y-91726167D01*
X153953686Y-91770008D01*
X153975751Y-91836302D01*
X153958472Y-91904001D01*
X153939512Y-91928409D01*
X153878210Y-91989711D01*
X153790609Y-92120814D01*
X153790602Y-92120827D01*
X153730264Y-92266498D01*
X153730261Y-92266510D01*
X153699500Y-92421153D01*
X153699500Y-92578846D01*
X153730261Y-92733489D01*
X153730264Y-92733501D01*
X153790602Y-92879172D01*
X153790609Y-92879185D01*
X153878210Y-93010288D01*
X153878213Y-93010292D01*
X153914763Y-93046842D01*
X153948248Y-93108165D01*
X153943264Y-93177857D01*
X153901392Y-93233790D01*
X153874534Y-93249084D01*
X153846092Y-93260864D01*
X153846079Y-93260871D01*
X153682218Y-93370360D01*
X153682214Y-93370363D01*
X153542863Y-93509714D01*
X153542860Y-93509718D01*
X153433371Y-93673579D01*
X153433364Y-93673592D01*
X153357950Y-93855660D01*
X153357947Y-93855670D01*
X153319500Y-94048956D01*
X153319500Y-94163149D01*
X153299815Y-94230188D01*
X153247011Y-94275943D01*
X153177853Y-94285887D01*
X153148048Y-94277711D01*
X153094876Y-94255687D01*
X153033497Y-94230263D01*
X153033492Y-94230262D01*
X153033489Y-94230261D01*
X152878845Y-94199500D01*
X152878842Y-94199500D01*
X152721158Y-94199500D01*
X152721155Y-94199500D01*
X152566510Y-94230261D01*
X152566498Y-94230264D01*
X152420827Y-94290602D01*
X152420814Y-94290609D01*
X152289711Y-94378210D01*
X152289707Y-94378213D01*
X152178213Y-94489707D01*
X152178210Y-94489711D01*
X152090609Y-94620814D01*
X152090602Y-94620827D01*
X152030264Y-94766498D01*
X152030261Y-94766510D01*
X151999500Y-94921153D01*
X151999500Y-95078846D01*
X152030261Y-95233489D01*
X152030264Y-95233501D01*
X152090602Y-95379172D01*
X152090608Y-95379183D01*
X152109542Y-95407520D01*
X152130419Y-95474198D01*
X152111934Y-95541578D01*
X152059954Y-95588268D01*
X152006445Y-95600410D01*
X151293541Y-95600446D01*
X151226501Y-95580765D01*
X151180743Y-95527963D01*
X151170796Y-95458805D01*
X151190433Y-95407554D01*
X151209394Y-95379179D01*
X151269737Y-95233497D01*
X151300500Y-95078842D01*
X151300500Y-94921158D01*
X151300500Y-94921155D01*
X151300499Y-94921153D01*
X151269737Y-94766503D01*
X151269735Y-94766498D01*
X151209397Y-94620827D01*
X151209390Y-94620814D01*
X151121789Y-94489711D01*
X151121786Y-94489707D01*
X151010292Y-94378213D01*
X151010288Y-94378210D01*
X150879185Y-94290609D01*
X150879172Y-94290602D01*
X150733501Y-94230264D01*
X150733489Y-94230261D01*
X150578845Y-94199500D01*
X150578842Y-94199500D01*
X150421158Y-94199500D01*
X150421155Y-94199500D01*
X150266510Y-94230261D01*
X150266498Y-94230264D01*
X150120827Y-94290602D01*
X150120814Y-94290609D01*
X149989711Y-94378210D01*
X149989707Y-94378213D01*
X149878213Y-94489707D01*
X149878210Y-94489711D01*
X149790609Y-94620814D01*
X149790602Y-94620827D01*
X149730264Y-94766498D01*
X149730261Y-94766510D01*
X149699500Y-94921153D01*
X149699500Y-95078846D01*
X149730261Y-95233489D01*
X149730264Y-95233501D01*
X149790602Y-95379172D01*
X149790608Y-95379183D01*
X149809621Y-95407638D01*
X149830498Y-95474316D01*
X149812013Y-95541696D01*
X149760034Y-95588385D01*
X149706524Y-95600528D01*
X148693452Y-95600580D01*
X148626412Y-95580899D01*
X148580654Y-95528097D01*
X148570707Y-95458939D01*
X148590344Y-95407688D01*
X148609394Y-95379179D01*
X148669737Y-95233497D01*
X148700500Y-95078842D01*
X148700500Y-94921158D01*
X148700500Y-94921155D01*
X148700499Y-94921153D01*
X148669737Y-94766503D01*
X148669735Y-94766498D01*
X148609397Y-94620827D01*
X148609390Y-94620814D01*
X148521789Y-94489711D01*
X148521786Y-94489707D01*
X148410292Y-94378213D01*
X148410288Y-94378210D01*
X148279185Y-94290609D01*
X148279172Y-94290602D01*
X148133501Y-94230264D01*
X148133489Y-94230261D01*
X147978845Y-94199500D01*
X147978842Y-94199500D01*
X147821158Y-94199500D01*
X147821155Y-94199500D01*
X147666510Y-94230261D01*
X147666498Y-94230264D01*
X147520827Y-94290602D01*
X147520814Y-94290609D01*
X147389711Y-94378210D01*
X147389707Y-94378213D01*
X147278213Y-94489707D01*
X147278210Y-94489711D01*
X147190609Y-94620814D01*
X147190602Y-94620827D01*
X147130264Y-94766498D01*
X147130261Y-94766510D01*
X147099500Y-94921153D01*
X147099500Y-95078846D01*
X147130261Y-95233489D01*
X147130264Y-95233501D01*
X147190602Y-95379172D01*
X147190608Y-95379183D01*
X147209710Y-95407771D01*
X147230587Y-95474448D01*
X147212102Y-95541828D01*
X147160123Y-95588518D01*
X147106613Y-95600661D01*
X146541099Y-95600690D01*
X146474059Y-95581009D01*
X146428301Y-95528207D01*
X146418354Y-95459049D01*
X146447376Y-95395492D01*
X146453403Y-95389017D01*
X146457139Y-95385282D01*
X146566632Y-95221414D01*
X146642051Y-95039335D01*
X146680500Y-94846041D01*
X146680500Y-94048959D01*
X146680500Y-94048956D01*
X146642052Y-93855670D01*
X146642051Y-93855669D01*
X146642051Y-93855665D01*
X146642049Y-93855660D01*
X146566635Y-93673592D01*
X146566628Y-93673579D01*
X146457139Y-93509718D01*
X146457136Y-93509714D01*
X146317785Y-93370363D01*
X146317781Y-93370360D01*
X146153920Y-93260871D01*
X146153910Y-93260866D01*
X146054754Y-93219794D01*
X146000351Y-93175953D01*
X145978286Y-93109658D01*
X145995565Y-93041959D01*
X146014522Y-93017555D01*
X146121789Y-92910289D01*
X146209394Y-92779179D01*
X146269737Y-92633497D01*
X146272192Y-92621153D01*
X147199500Y-92621153D01*
X147199500Y-92778846D01*
X147230261Y-92933489D01*
X147230264Y-92933501D01*
X147290602Y-93079172D01*
X147290609Y-93079185D01*
X147378210Y-93210288D01*
X147378213Y-93210292D01*
X147489707Y-93321786D01*
X147489711Y-93321789D01*
X147620814Y-93409390D01*
X147620827Y-93409397D01*
X147746798Y-93461575D01*
X147766503Y-93469737D01*
X147921153Y-93500499D01*
X147921156Y-93500500D01*
X147921158Y-93500500D01*
X148078844Y-93500500D01*
X148078845Y-93500499D01*
X148233497Y-93469737D01*
X148379179Y-93409394D01*
X148510289Y-93321789D01*
X148621789Y-93210289D01*
X148709394Y-93079179D01*
X148717387Y-93059882D01*
X148733429Y-93021153D01*
X149299500Y-93021153D01*
X149299500Y-93178846D01*
X149330261Y-93333489D01*
X149330264Y-93333501D01*
X149390602Y-93479172D01*
X149390609Y-93479185D01*
X149478210Y-93610288D01*
X149478213Y-93610292D01*
X149589707Y-93721786D01*
X149589711Y-93721789D01*
X149720814Y-93809390D01*
X149720827Y-93809397D01*
X149832530Y-93855665D01*
X149866503Y-93869737D01*
X150021153Y-93900499D01*
X150021156Y-93900500D01*
X150021158Y-93900500D01*
X150178844Y-93900500D01*
X150178845Y-93900499D01*
X150333497Y-93869737D01*
X150479179Y-93809394D01*
X150610289Y-93721789D01*
X150721789Y-93610289D01*
X150809394Y-93479179D01*
X150869737Y-93333497D01*
X150900500Y-93178842D01*
X150900500Y-93021158D01*
X150900500Y-93021155D01*
X150884209Y-92939258D01*
X150884209Y-92939257D01*
X150880608Y-92921153D01*
X151599500Y-92921153D01*
X151599500Y-93078846D01*
X151630261Y-93233489D01*
X151630264Y-93233501D01*
X151690602Y-93379172D01*
X151690609Y-93379185D01*
X151778210Y-93510288D01*
X151778213Y-93510292D01*
X151889707Y-93621786D01*
X151889711Y-93621789D01*
X152020814Y-93709390D01*
X152020827Y-93709397D01*
X152166498Y-93769735D01*
X152166503Y-93769737D01*
X152321153Y-93800499D01*
X152321156Y-93800500D01*
X152321158Y-93800500D01*
X152478844Y-93800500D01*
X152478845Y-93800499D01*
X152633497Y-93769737D01*
X152779179Y-93709394D01*
X152910289Y-93621789D01*
X153021789Y-93510289D01*
X153109394Y-93379179D01*
X153169737Y-93233497D01*
X153200500Y-93078842D01*
X153200500Y-92921158D01*
X153200500Y-92921155D01*
X153200499Y-92921153D01*
X153189627Y-92866498D01*
X153169737Y-92766503D01*
X153150812Y-92720814D01*
X153109397Y-92620827D01*
X153109390Y-92620814D01*
X153021789Y-92489711D01*
X153021786Y-92489707D01*
X152910292Y-92378213D01*
X152910288Y-92378210D01*
X152779185Y-92290609D01*
X152779172Y-92290602D01*
X152633501Y-92230264D01*
X152633489Y-92230261D01*
X152478845Y-92199500D01*
X152478842Y-92199500D01*
X152321158Y-92199500D01*
X152321155Y-92199500D01*
X152166510Y-92230261D01*
X152166498Y-92230264D01*
X152020827Y-92290602D01*
X152020814Y-92290609D01*
X151889711Y-92378210D01*
X151889707Y-92378213D01*
X151778213Y-92489707D01*
X151778210Y-92489711D01*
X151690609Y-92620814D01*
X151690602Y-92620827D01*
X151630264Y-92766498D01*
X151630261Y-92766510D01*
X151599500Y-92921153D01*
X150880608Y-92921153D01*
X150878446Y-92910287D01*
X150869737Y-92866503D01*
X150833569Y-92779185D01*
X150809397Y-92720827D01*
X150809390Y-92720814D01*
X150721789Y-92589711D01*
X150721786Y-92589707D01*
X150610292Y-92478213D01*
X150610288Y-92478210D01*
X150479185Y-92390609D01*
X150479172Y-92390602D01*
X150333501Y-92330264D01*
X150333489Y-92330261D01*
X150178845Y-92299500D01*
X150178842Y-92299500D01*
X150021158Y-92299500D01*
X150021155Y-92299500D01*
X149866510Y-92330261D01*
X149866498Y-92330264D01*
X149720827Y-92390602D01*
X149720814Y-92390609D01*
X149589711Y-92478210D01*
X149589707Y-92478213D01*
X149478213Y-92589707D01*
X149478210Y-92589711D01*
X149390609Y-92720814D01*
X149390602Y-92720827D01*
X149330264Y-92866498D01*
X149330261Y-92866510D01*
X149299500Y-93021153D01*
X148733429Y-93021153D01*
X148755603Y-92967621D01*
X148755605Y-92967614D01*
X148769737Y-92933497D01*
X148800500Y-92778842D01*
X148800500Y-92621158D01*
X148800500Y-92621155D01*
X148800499Y-92621153D01*
X148794244Y-92589707D01*
X148769737Y-92466503D01*
X148750955Y-92421158D01*
X148709397Y-92320827D01*
X148709390Y-92320814D01*
X148621789Y-92189711D01*
X148621786Y-92189707D01*
X148510292Y-92078213D01*
X148510288Y-92078210D01*
X148379185Y-91990609D01*
X148379172Y-91990602D01*
X148233501Y-91930264D01*
X148233489Y-91930261D01*
X148078845Y-91899500D01*
X148078842Y-91899500D01*
X147921158Y-91899500D01*
X147921155Y-91899500D01*
X147766510Y-91930261D01*
X147766498Y-91930264D01*
X147620827Y-91990602D01*
X147620814Y-91990609D01*
X147489711Y-92078210D01*
X147489707Y-92078213D01*
X147378213Y-92189707D01*
X147378210Y-92189711D01*
X147290609Y-92320814D01*
X147290602Y-92320827D01*
X147230264Y-92466498D01*
X147230261Y-92466510D01*
X147199500Y-92621153D01*
X146272192Y-92621153D01*
X146272257Y-92620827D01*
X146278216Y-92590874D01*
X146278216Y-92590873D01*
X146300499Y-92478846D01*
X146300500Y-92478844D01*
X146300500Y-92321155D01*
X146300499Y-92321153D01*
X146282419Y-92230261D01*
X146269737Y-92166503D01*
X146238392Y-92090828D01*
X146209397Y-92020827D01*
X146209390Y-92020814D01*
X146121788Y-91889709D01*
X146121577Y-91889452D01*
X146121508Y-91889290D01*
X146118405Y-91884646D01*
X146119285Y-91884057D01*
X146094262Y-91825143D01*
X146106052Y-91756275D01*
X146149604Y-91708648D01*
X146148848Y-91707517D01*
X146317782Y-91594639D01*
X146457139Y-91455282D01*
X146570017Y-91286348D01*
X146571474Y-91287321D01*
X146614595Y-91243403D01*
X146682729Y-91227926D01*
X146748414Y-91251742D01*
X146750502Y-91253309D01*
X146756632Y-91258012D01*
X146756635Y-91258015D01*
X146887865Y-91333781D01*
X147034234Y-91373000D01*
X147034236Y-91373000D01*
X147185764Y-91373000D01*
X147185766Y-91373000D01*
X147332135Y-91333781D01*
X147463365Y-91258015D01*
X147570515Y-91150865D01*
X147587669Y-91121153D01*
X149499500Y-91121153D01*
X149499500Y-91278846D01*
X149530261Y-91433489D01*
X149530264Y-91433501D01*
X149590602Y-91579172D01*
X149590609Y-91579185D01*
X149678210Y-91710288D01*
X149678213Y-91710292D01*
X149789707Y-91821786D01*
X149789711Y-91821789D01*
X149920814Y-91909390D01*
X149920827Y-91909397D01*
X150023819Y-91952057D01*
X150066503Y-91969737D01*
X150196313Y-91995558D01*
X150221153Y-92000499D01*
X150221156Y-92000500D01*
X150221158Y-92000500D01*
X150378844Y-92000500D01*
X150378845Y-92000499D01*
X150533497Y-91969737D01*
X150679179Y-91909394D01*
X150810289Y-91821789D01*
X150921789Y-91710289D01*
X151009394Y-91579179D01*
X151069737Y-91433497D01*
X151100500Y-91278842D01*
X151100500Y-91121158D01*
X151100500Y-91121155D01*
X151100499Y-91121153D01*
X151080306Y-91019636D01*
X151069737Y-90966503D01*
X151048835Y-90916041D01*
X151009397Y-90820827D01*
X151009390Y-90820814D01*
X150921789Y-90689711D01*
X150921786Y-90689707D01*
X150810292Y-90578213D01*
X150810288Y-90578210D01*
X150679185Y-90490609D01*
X150679172Y-90490602D01*
X150533501Y-90430264D01*
X150533489Y-90430261D01*
X150378845Y-90399500D01*
X150378842Y-90399500D01*
X150221158Y-90399500D01*
X150221155Y-90399500D01*
X150066510Y-90430261D01*
X150066498Y-90430264D01*
X149920827Y-90490602D01*
X149920814Y-90490609D01*
X149789711Y-90578210D01*
X149789707Y-90578213D01*
X149678213Y-90689707D01*
X149678210Y-90689711D01*
X149590609Y-90820814D01*
X149590602Y-90820827D01*
X149530264Y-90966498D01*
X149530261Y-90966510D01*
X149499500Y-91121153D01*
X147587669Y-91121153D01*
X147646281Y-91019635D01*
X147685500Y-90873266D01*
X147685500Y-90721734D01*
X147646281Y-90575365D01*
X147570515Y-90444135D01*
X147463365Y-90336985D01*
X147380087Y-90288904D01*
X147332136Y-90261219D01*
X147227584Y-90233205D01*
X147185766Y-90222000D01*
X147034234Y-90222000D01*
X146887862Y-90261219D01*
X146866499Y-90273554D01*
X146798598Y-90290025D01*
X146732572Y-90267173D01*
X146689382Y-90212251D01*
X146680500Y-90166166D01*
X146680500Y-89618956D01*
X146642052Y-89425670D01*
X146642051Y-89425669D01*
X146642051Y-89425665D01*
X146580248Y-89276458D01*
X146566635Y-89243592D01*
X146566628Y-89243579D01*
X146457139Y-89079718D01*
X146457136Y-89079714D01*
X146317785Y-88940363D01*
X146317781Y-88940360D01*
X146153920Y-88830871D01*
X146153907Y-88830864D01*
X145971839Y-88755450D01*
X145971829Y-88755447D01*
X145778543Y-88717000D01*
X145778541Y-88717000D01*
X145581459Y-88717000D01*
X145581457Y-88717000D01*
X145388170Y-88755447D01*
X145388160Y-88755450D01*
X145206092Y-88830864D01*
X145206079Y-88830871D01*
X145042218Y-88940360D01*
X145042213Y-88940364D01*
X144993113Y-88989464D01*
X144931790Y-89022948D01*
X144862098Y-89017963D01*
X144806165Y-88976092D01*
X144781749Y-88910627D01*
X144781442Y-88900266D01*
X144798496Y-87521546D01*
X144819009Y-87454757D01*
X144872375Y-87409659D01*
X144921554Y-87399086D01*
X158100000Y-87300000D01*
X160700000Y-86507500D01*
X160719999Y-86490042D01*
X160720163Y-86490230D01*
X160740182Y-86467261D01*
X160787521Y-86449295D01*
X160816243Y-86444746D01*
X161018412Y-86379057D01*
X161207816Y-86282551D01*
X161229789Y-86266586D01*
X161379786Y-86157609D01*
X161379788Y-86157606D01*
X161379792Y-86157604D01*
X161530104Y-86007292D01*
X161530106Y-86007288D01*
X161530109Y-86007286D01*
X161655048Y-85835320D01*
X161655047Y-85835320D01*
X161655051Y-85835316D01*
X161751557Y-85645912D01*
X161817246Y-85443743D01*
X161850500Y-85233787D01*
X161850500Y-85021213D01*
X161817246Y-84811257D01*
X161751557Y-84609088D01*
X161685371Y-84479192D01*
X161672476Y-84410524D01*
X161683211Y-84371063D01*
X161868234Y-83969023D01*
X161914143Y-83916354D01*
X161975921Y-83896963D01*
X162598293Y-83872068D01*
X162641552Y-83878035D01*
X162723757Y-83904746D01*
X162933713Y-83938000D01*
X162933714Y-83938000D01*
X163146286Y-83938000D01*
X163146287Y-83938000D01*
X163356243Y-83904746D01*
X163526456Y-83849439D01*
X163596295Y-83847445D01*
X163656128Y-83883525D01*
G37*
%TD.AperFunction*%
%TD*%
M02*
