%TF.GenerationSoftware,KiCad,Pcbnew,9.0.4*%
%TF.CreationDate,2025-09-28T00:51:42+02:00*%
%TF.ProjectId,BTM308-host-bottom,42544d33-3038-42d6-986f-73742d626f74,rev?*%
%TF.SameCoordinates,Original*%
%TF.FileFunction,Legend,Top*%
%TF.FilePolarity,Positive*%
%FSLAX46Y46*%
G04 Gerber Fmt 4.6, Leading zero omitted, Abs format (unit mm)*
G04 Created by KiCad (PCBNEW 9.0.4) date 2025-09-28 00:51:42*
%MOMM*%
%LPD*%
G01*
G04 APERTURE LIST*
%ADD10C,0.250000*%
%ADD11C,0.150000*%
%ADD12C,0.120000*%
G04 APERTURE END LIST*
D10*
X163259336Y-88219666D02*
X161735527Y-88219666D01*
X162497431Y-87457761D02*
X162497431Y-88981571D01*
X163259336Y-94419666D02*
X161735527Y-94419666D01*
D11*
X157238095Y-66704819D02*
X157238095Y-67514342D01*
X157238095Y-67514342D02*
X157285714Y-67609580D01*
X157285714Y-67609580D02*
X157333333Y-67657200D01*
X157333333Y-67657200D02*
X157428571Y-67704819D01*
X157428571Y-67704819D02*
X157619047Y-67704819D01*
X157619047Y-67704819D02*
X157714285Y-67657200D01*
X157714285Y-67657200D02*
X157761904Y-67609580D01*
X157761904Y-67609580D02*
X157809523Y-67514342D01*
X157809523Y-67514342D02*
X157809523Y-66704819D01*
X158238095Y-66800057D02*
X158285714Y-66752438D01*
X158285714Y-66752438D02*
X158380952Y-66704819D01*
X158380952Y-66704819D02*
X158619047Y-66704819D01*
X158619047Y-66704819D02*
X158714285Y-66752438D01*
X158714285Y-66752438D02*
X158761904Y-66800057D01*
X158761904Y-66800057D02*
X158809523Y-66895295D01*
X158809523Y-66895295D02*
X158809523Y-66990533D01*
X158809523Y-66990533D02*
X158761904Y-67133390D01*
X158761904Y-67133390D02*
X158190476Y-67704819D01*
X158190476Y-67704819D02*
X158809523Y-67704819D01*
X160000595Y-58954819D02*
X160000595Y-59764342D01*
X160000595Y-59764342D02*
X160048214Y-59859580D01*
X160048214Y-59859580D02*
X160095833Y-59907200D01*
X160095833Y-59907200D02*
X160191071Y-59954819D01*
X160191071Y-59954819D02*
X160381547Y-59954819D01*
X160381547Y-59954819D02*
X160476785Y-59907200D01*
X160476785Y-59907200D02*
X160524404Y-59859580D01*
X160524404Y-59859580D02*
X160572023Y-59764342D01*
X160572023Y-59764342D02*
X160572023Y-58954819D01*
X160952976Y-58954819D02*
X161572023Y-58954819D01*
X161572023Y-58954819D02*
X161238690Y-59335771D01*
X161238690Y-59335771D02*
X161381547Y-59335771D01*
X161381547Y-59335771D02*
X161476785Y-59383390D01*
X161476785Y-59383390D02*
X161524404Y-59431009D01*
X161524404Y-59431009D02*
X161572023Y-59526247D01*
X161572023Y-59526247D02*
X161572023Y-59764342D01*
X161572023Y-59764342D02*
X161524404Y-59859580D01*
X161524404Y-59859580D02*
X161476785Y-59907200D01*
X161476785Y-59907200D02*
X161381547Y-59954819D01*
X161381547Y-59954819D02*
X161095833Y-59954819D01*
X161095833Y-59954819D02*
X161000595Y-59907200D01*
X161000595Y-59907200D02*
X160952976Y-59859580D01*
D12*
%TO.C,J1*%
X154040000Y-81207500D02*
X166960000Y-81207500D01*
X154040000Y-83857500D02*
X154040000Y-81207500D01*
X154040000Y-86507500D02*
X154040000Y-85127500D01*
X155420000Y-86507500D02*
X154040000Y-86507500D01*
X156690000Y-83857500D02*
X154040000Y-83857500D01*
X156690000Y-86507500D02*
X156690000Y-83857500D01*
X156690000Y-86507500D02*
X166960000Y-86507500D01*
X166960000Y-86507500D02*
X166960000Y-81207500D01*
%TO.C,C5*%
X148488748Y-69515000D02*
X149011252Y-69515000D01*
X148488748Y-70985000D02*
X149011252Y-70985000D01*
%TO.C,R20*%
X151265000Y-66477064D02*
X151265000Y-66022936D01*
X152735000Y-66477064D02*
X152735000Y-66022936D01*
%TO.C,R16*%
X151477064Y-85765000D02*
X151022936Y-85765000D01*
X151477064Y-87235000D02*
X151022936Y-87235000D01*
%TO.C,R19*%
X163265000Y-66477064D02*
X163265000Y-66022936D01*
X164735000Y-66477064D02*
X164735000Y-66022936D01*
%TO.C,C4*%
X148451248Y-76515000D02*
X148973752Y-76515000D01*
X148451248Y-77985000D02*
X148973752Y-77985000D01*
%TO.C,R17*%
X145015000Y-85964564D02*
X145015000Y-85510436D01*
X146485000Y-85964564D02*
X146485000Y-85510436D01*
%TO.C,C3*%
X148451248Y-78765000D02*
X148973752Y-78765000D01*
X148451248Y-80235000D02*
X148973752Y-80235000D01*
%TO.C,C12*%
X150988748Y-83515000D02*
X151511252Y-83515000D01*
X150988748Y-84985000D02*
X151511252Y-84985000D01*
%TO.C,D3*%
X156350000Y-88227500D02*
X156350000Y-93737500D01*
X159650000Y-88227500D02*
X156350000Y-88227500D01*
X159650000Y-88227500D02*
X159650000Y-93737500D01*
%TO.C,U2*%
X155240000Y-64490000D02*
X155240000Y-64760000D01*
X155240000Y-70010000D02*
X155240000Y-69740000D01*
X158000000Y-64490000D02*
X155240000Y-64490000D01*
X158000000Y-64490000D02*
X160760000Y-64490000D01*
X158000000Y-70010000D02*
X155240000Y-70010000D01*
X158000000Y-70010000D02*
X160760000Y-70010000D01*
X160760000Y-64490000D02*
X160760000Y-64760000D01*
X160760000Y-70010000D02*
X160760000Y-69740000D01*
X154475000Y-64760000D02*
X154235000Y-64430000D01*
X154715000Y-64430000D01*
X154475000Y-64760000D01*
G36*
X154475000Y-64760000D02*
G01*
X154235000Y-64430000D01*
X154715000Y-64430000D01*
X154475000Y-64760000D01*
G37*
%TO.C,R9*%
X153515000Y-72522936D02*
X153515000Y-72977064D01*
X154985000Y-72522936D02*
X154985000Y-72977064D01*
%TO.C,R6*%
X151265000Y-74477064D02*
X151265000Y-74022936D01*
X152735000Y-74477064D02*
X152735000Y-74022936D01*
%TO.C,R7*%
X155765000Y-72977064D02*
X155765000Y-72522936D01*
X157235000Y-72977064D02*
X157235000Y-72522936D01*
%TO.C,R13*%
X161015000Y-72522936D02*
X161015000Y-72977064D01*
X162485000Y-72522936D02*
X162485000Y-72977064D01*
%TO.C,J4*%
X164020000Y-92530000D02*
X164020000Y-92420000D01*
X166780000Y-92420000D02*
X164020000Y-92420000D01*
X166780000Y-92530000D02*
X164020000Y-92530000D01*
X166780000Y-92530000D02*
X166780000Y-92420000D01*
X166780000Y-93800000D02*
X166780000Y-95180000D01*
X166780000Y-95180000D02*
X165400000Y-95180000D01*
%TO.C,R10*%
X163265000Y-74477064D02*
X163265000Y-74022936D01*
X164735000Y-74477064D02*
X164735000Y-74022936D01*
%TO.C,J3*%
X164020000Y-87630000D02*
X164020000Y-87520000D01*
X166780000Y-87520000D02*
X164020000Y-87520000D01*
X166780000Y-87630000D02*
X164020000Y-87630000D01*
X166780000Y-87630000D02*
X166780000Y-87520000D01*
X166780000Y-88900000D02*
X166780000Y-90280000D01*
X166780000Y-90280000D02*
X165400000Y-90280000D01*
%TO.C,C8*%
X155765000Y-77011252D02*
X155765000Y-76488748D01*
X157235000Y-77011252D02*
X157235000Y-76488748D01*
%TO.C,U3*%
X153200000Y-62800000D02*
X153200000Y-56200000D01*
X166200000Y-56200000D02*
X153200000Y-56200000D01*
X166200000Y-57000000D02*
X166200000Y-56200000D01*
X166200000Y-62000000D02*
X166200000Y-62800000D01*
X166200000Y-62800000D02*
X153200000Y-62800000D01*
X168200000Y-57000000D02*
X166200000Y-57000000D01*
X168200000Y-61700000D02*
X168200000Y-57000000D01*
X168200000Y-61700000D02*
X168200000Y-62000000D01*
X168200000Y-62000000D02*
X166200000Y-62000000D01*
%TO.C,C6*%
X161015000Y-77011252D02*
X161015000Y-76488748D01*
X162485000Y-77011252D02*
X162485000Y-76488748D01*
%TO.C,C10*%
X148488748Y-67265000D02*
X149011252Y-67265000D01*
X148488748Y-68735000D02*
X149011252Y-68735000D01*
%TO.C,R11*%
X158765000Y-72977064D02*
X158765000Y-72522936D01*
X160235000Y-72977064D02*
X160235000Y-72522936D01*
%TO.C,R15*%
X148522936Y-71765000D02*
X148977064Y-71765000D01*
X148522936Y-73235000D02*
X148977064Y-73235000D01*
%TO.C,C11*%
X146765000Y-65011252D02*
X146765000Y-64488748D01*
X148235000Y-65011252D02*
X148235000Y-64488748D01*
%TO.C,C1*%
X161515000Y-91088748D02*
X161515000Y-91611252D01*
X162985000Y-91088748D02*
X162985000Y-91611252D01*
%TO.C,C7*%
X153515000Y-77011252D02*
X153515000Y-76488748D01*
X154985000Y-77011252D02*
X154985000Y-76488748D01*
%TO.C,C13*%
X148973752Y-74015000D02*
X148451248Y-74015000D01*
X148973752Y-75485000D02*
X148451248Y-75485000D01*
%TO.C,R8*%
X151265000Y-70477064D02*
X151265000Y-70022936D01*
X152735000Y-70477064D02*
X152735000Y-70022936D01*
%TO.C,R12*%
X163265000Y-70477064D02*
X163265000Y-70022936D01*
X164735000Y-70477064D02*
X164735000Y-70022936D01*
%TO.C,R14*%
X150022936Y-81265000D02*
X150477064Y-81265000D01*
X150022936Y-82735000D02*
X150477064Y-82735000D01*
%TO.C,C9*%
X158765000Y-77011252D02*
X158765000Y-76488748D01*
X160235000Y-77011252D02*
X160235000Y-76488748D01*
%TO.C,R18*%
X147265000Y-85964564D02*
X147265000Y-85510436D01*
X148735000Y-85964564D02*
X148735000Y-85510436D01*
%TO.C,R21*%
X165465000Y-79127064D02*
X165465000Y-78672936D01*
X166935000Y-79127064D02*
X166935000Y-78672936D01*
%TO.C,J2*%
X145300000Y-91497500D02*
X145300000Y-93497500D01*
X145300000Y-95397500D02*
X145300000Y-97297500D01*
X145300000Y-97297500D02*
X154700000Y-97297500D01*
X154700000Y-91497500D02*
X154700000Y-93497500D01*
X154700000Y-95397500D02*
X154700000Y-97297500D01*
%TO.C,C2*%
X149015000Y-65048752D02*
X149015000Y-64526248D01*
X150485000Y-65048752D02*
X150485000Y-64526248D01*
%TD*%
M02*
