M48
; DRILL file {KiCad 9.0.4} date 2025-09-28T00:51:39+0200
; FORMAT={-:-/ absolute / metric / decimal}
; #@! TF.CreationDate,2025-09-28T00:51:39+02:00
; #@! TF.GenerationSoftware,Kicad,Pcbnew,9.0.4
; #@! TF.FileFunction,Plated,1,4,PTH
FMAT,2
METRIC
; #@! TA.AperFunction,Plated,PTH,ViaDrill
T1C0.300
; #@! TA.AperFunction,Plated,PTH,ComponentDrill
T2C0.600
; #@! TA.AperFunction,Plated,PTH,ComponentDrill
T3C0.700
; #@! TA.AperFunction,Plated,PTH,ComponentDrill
T4C1.000
%
G90
G05
T1
X145.3Y-62.4
X145.3Y-68.4
X145.4Y-65.2
X145.4Y-73.7
X145.5Y-71.0
X145.5Y-76.3
X145.5Y-78.6
X145.5Y-81.1
X145.5Y-83.5
X145.5Y-92.4
X145.6Y-57.8
X146.5Y-60.0
X146.9Y-85.8
X147.5Y-57.6
X147.9Y-95.0
X148.0Y-81.5
X148.0Y-92.7
X148.4Y-90.7
X148.5Y-64.75
X148.7Y-59.6
X150.1Y-93.1
X150.3Y-58.0
X150.3Y-91.2
X150.5Y-95.0
X150.75Y-64.75
X150.75Y-67.0
X150.75Y-69.25
X150.75Y-71.5
X150.75Y-75.75
X150.75Y-78.25
X150.75Y-80.5
X151.6Y-61.8
X151.8Y-90.8
X152.4Y-93.0
X152.5Y-82.5
X152.7Y-57.5
X152.7Y-62.6
X152.8Y-95.0
X153.3Y-59.5
X154.5Y-79.4
X154.5Y-92.5
X155.75Y-69.75
X155.9Y-89.7
X156.2Y-95.0
X156.9Y-91.8
X157.4Y-57.3
X157.4Y-63.4
X158.9Y-79.2
X159.0Y-91.8
X159.3Y-59.2
X159.5Y-63.4
X159.8Y-57.5
X160.0Y-80.3
X160.2Y-95.0
X160.8Y-91.6
X161.2Y-94.1
X161.5Y-87.4
X162.3Y-57.4
X162.4Y-59.1
X162.8Y-88.5
X163.3Y-95.0
X163.4Y-93.8
X163.6Y-91.1
X163.7Y-87.3
X163.8Y-78.4
X164.5Y-79.7
X164.6Y-63.4
X164.7Y-57.5
X165.2Y-61.1
X166.0Y-91.7
X166.1Y-62.3
X166.1Y-72.0
X166.1Y-75.0
X166.2Y-69.1
X166.4Y-64.5
X166.6Y-59.5
X166.7Y-57.5
T4
X155.42Y-82.587
X155.42Y-85.127
X157.96Y-82.587
X157.96Y-85.127
X160.5Y-82.587
X160.5Y-85.127
X163.04Y-82.587
X163.04Y-85.127
X165.4Y-88.9
X165.4Y-93.8
X165.58Y-82.587
X165.58Y-85.127
T2
G00X145.68Y-89.718
M15
G01X145.68Y-90.817
M16
G05
G00X145.68Y-94.147
M15
G01X145.68Y-94.748
M16
G05
G00X154.32Y-89.718
M15
G01X154.32Y-90.817
M16
G05
G00X154.32Y-94.147
M15
G01X154.32Y-94.748
M16
G05
T3
G00X155.45Y-57.3
M15
G01X154.65Y-57.3
M16
G05
G00X156.45Y-61.7
M15
G01X155.65Y-61.7
M16
G05
G00X160.45Y-61.7
M15
G01X159.65Y-61.7
M16
G05
G00X163.45Y-61.7
M15
G01X162.65Y-61.7
M16
G05
M30
