%TF.GenerationSoftware,KiCad,Pcbnew,9.0.4*%
%TF.CreationDate,2025-09-28T00:51:42+02:00*%
%TF.ProjectId,BTM308-host-bottom,42544d33-3038-42d6-986f-73742d626f74,rev?*%
%TF.SameCoordinates,Original*%
%TF.FileFunction,Copper,L4,Bot*%
%TF.FilePolarity,Positive*%
%FSLAX46Y46*%
G04 Gerber Fmt 4.6, Leading zero omitted, Abs format (unit mm)*
G04 Created by KiCad (PCBNEW 9.0.4) date 2025-09-28 00:51:42*
%MOMM*%
%LPD*%
G01*
G04 APERTURE LIST*
%TA.AperFunction,ComponentPad*%
%ADD10R,1.700000X1.700000*%
%TD*%
%TA.AperFunction,ComponentPad*%
%ADD11C,1.700000*%
%TD*%
%TA.AperFunction,ComponentPad*%
%ADD12C,1.600000*%
%TD*%
%TA.AperFunction,HeatsinkPad*%
%ADD13O,1.000000X2.100000*%
%TD*%
%TA.AperFunction,HeatsinkPad*%
%ADD14O,1.000000X1.600000*%
%TD*%
%TA.AperFunction,ViaPad*%
%ADD15C,0.600000*%
%TD*%
G04 APERTURE END LIST*
D10*
%TO.P,J1,1,Pin_1*%
%TO.N,AGND*%
X155420000Y-85127500D03*
D11*
%TO.P,J1,2,Pin_2*%
X155420000Y-82587500D03*
%TO.P,J1,3,Pin_3*%
X157960000Y-85127500D03*
%TO.P,J1,4,Pin_4*%
%TO.N,/SPK_AN*%
X157960000Y-82587500D03*
%TO.P,J1,5,Pin_5*%
%TO.N,GND*%
X160500000Y-85127500D03*
%TO.P,J1,6,Pin_6*%
%TO.N,/SPK_AP*%
X160500000Y-82587500D03*
%TO.P,J1,7,Pin_7*%
%TO.N,/VCHG*%
X163040000Y-85127500D03*
%TO.P,J1,8,Pin_8*%
%TO.N,/SPK_BP*%
X163040000Y-82587500D03*
%TO.P,J1,9,Pin_9*%
%TO.N,/VBAT*%
X165580000Y-85127500D03*
%TO.P,J1,10,Pin_10*%
%TO.N,/SPK_BN*%
X165580000Y-82587500D03*
%TD*%
D10*
%TO.P,J4,1,Pin_1*%
%TO.N,GND*%
X165400000Y-93800000D03*
%TD*%
%TO.P,J3,1,Pin_1*%
%TO.N,/VBAT*%
X165400000Y-88900000D03*
%TD*%
D12*
%TO.P,U3,1,Sleeve*%
%TO.N,GND*%
X155050000Y-57300000D03*
%TO.P,U3,2,Tip*%
%TO.N,Net-(U3-Tip)*%
X156050000Y-61700000D03*
%TO.P,U3,3,Ring1*%
%TO.N,Net-(U3-Ring1)*%
X160050000Y-61700000D03*
%TO.P,U3,4,Ring2*%
%TO.N,unconnected-(U3-Ring2-Pad4)*%
X163050000Y-61700000D03*
%TD*%
D13*
%TO.P,J2,S1,SHIELD*%
%TO.N,GND*%
X145680000Y-90267500D03*
D14*
X145680000Y-94447500D03*
D13*
X154320000Y-90267500D03*
D14*
X154320000Y-94447500D03*
%TD*%
D15*
%TO.N,GND*%
X153300000Y-59500000D03*
X164600000Y-63400000D03*
X157400000Y-63400000D03*
X154500000Y-79400000D03*
X146500000Y-60000000D03*
X145500000Y-76300000D03*
X145500000Y-81100000D03*
X145500000Y-83500000D03*
X145500000Y-71000000D03*
X156200000Y-95000000D03*
X160800000Y-91600000D03*
X166100000Y-62300000D03*
X147500000Y-57600000D03*
X145400000Y-73700000D03*
X160000000Y-80300000D03*
X163700000Y-87300000D03*
X160200000Y-95000000D03*
X166400000Y-64500000D03*
X166700000Y-57500000D03*
X151600000Y-61800000D03*
X166100000Y-72000000D03*
X148000000Y-92700000D03*
X166200000Y-69100000D03*
X150300000Y-91200000D03*
X145300000Y-68400000D03*
X162400000Y-59100000D03*
X166600000Y-59500000D03*
X164500000Y-79700000D03*
X159500000Y-63400000D03*
X146900000Y-85800000D03*
X155900000Y-89700000D03*
X150300000Y-58000000D03*
X166000000Y-91700000D03*
X145500000Y-92400000D03*
X166100000Y-75000000D03*
X163400000Y-93800000D03*
X162300000Y-57400000D03*
X159000000Y-91800000D03*
X152800000Y-95000000D03*
X145300000Y-62400000D03*
X147900000Y-95000000D03*
X164700000Y-57500000D03*
X154500000Y-92500000D03*
X162800000Y-88500000D03*
X148000000Y-81500000D03*
X159800000Y-57500000D03*
X163800000Y-78400000D03*
X152700000Y-62600000D03*
X150100000Y-93100000D03*
X150500000Y-95000000D03*
X159300000Y-59200000D03*
X145400000Y-65200000D03*
X152400000Y-93000000D03*
X158900000Y-79200000D03*
X163300000Y-95000000D03*
X145500000Y-78600000D03*
X161500000Y-87400000D03*
X148700000Y-59600000D03*
X161200000Y-94100000D03*
X145600000Y-57800000D03*
X165200000Y-61100000D03*
X157400000Y-57300000D03*
X152700000Y-57500000D03*
%TO.N,/VCHG*%
X148400000Y-90700000D03*
X156900000Y-91800000D03*
X151800000Y-90800000D03*
%TO.N,/VBAT*%
X163600000Y-91100000D03*
%TO.N,AGND*%
X148500000Y-64750000D03*
X155750000Y-69750000D03*
X150750000Y-67000000D03*
X150750000Y-78250000D03*
X152500000Y-82500000D03*
X150750000Y-69250000D03*
X150750000Y-64750000D03*
X150750000Y-71500000D03*
X150750000Y-80500000D03*
X150750000Y-75750000D03*
%TD*%
%TA.AperFunction,Conductor*%
%TO.N,GND*%
G36*
X167141600Y-56120471D02*
G01*
X167187355Y-56173275D01*
X167198561Y-56224786D01*
X167198561Y-95476786D01*
X167178876Y-95543825D01*
X167126072Y-95589580D01*
X167074561Y-95600786D01*
X144824500Y-95600786D01*
X144757461Y-95581101D01*
X144711706Y-95528297D01*
X144700500Y-95476786D01*
X144700500Y-91721153D01*
X156099500Y-91721153D01*
X156099500Y-91878846D01*
X156130261Y-92033489D01*
X156130264Y-92033501D01*
X156190602Y-92179172D01*
X156190609Y-92179185D01*
X156278210Y-92310288D01*
X156278213Y-92310292D01*
X156389707Y-92421786D01*
X156389711Y-92421789D01*
X156520814Y-92509390D01*
X156520827Y-92509397D01*
X156666498Y-92569735D01*
X156666503Y-92569737D01*
X156821153Y-92600499D01*
X156821156Y-92600500D01*
X156821158Y-92600500D01*
X156978844Y-92600500D01*
X156978845Y-92600499D01*
X157133497Y-92569737D01*
X157279179Y-92509394D01*
X157410289Y-92421789D01*
X157521789Y-92310289D01*
X157609394Y-92179179D01*
X157669737Y-92033497D01*
X157700500Y-91878842D01*
X157700500Y-91721158D01*
X157700500Y-91721155D01*
X157700499Y-91721153D01*
X157678447Y-91610292D01*
X157669737Y-91566503D01*
X157642398Y-91500500D01*
X157609397Y-91420827D01*
X157609390Y-91420814D01*
X157521789Y-91289711D01*
X157521786Y-91289707D01*
X157410292Y-91178213D01*
X157410288Y-91178210D01*
X157320429Y-91118168D01*
X157279185Y-91090609D01*
X157279172Y-91090602D01*
X157133501Y-91030264D01*
X157133489Y-91030261D01*
X157087701Y-91021153D01*
X162799500Y-91021153D01*
X162799500Y-91178846D01*
X162830261Y-91333489D01*
X162830264Y-91333501D01*
X162890602Y-91479172D01*
X162890609Y-91479185D01*
X162978210Y-91610288D01*
X162978213Y-91610292D01*
X163089707Y-91721786D01*
X163089711Y-91721789D01*
X163220814Y-91809390D01*
X163220827Y-91809397D01*
X163366498Y-91869735D01*
X163366503Y-91869737D01*
X163521153Y-91900499D01*
X163521156Y-91900500D01*
X163521158Y-91900500D01*
X163678844Y-91900500D01*
X163678845Y-91900499D01*
X163833497Y-91869737D01*
X163979179Y-91809394D01*
X164110289Y-91721789D01*
X164221789Y-91610289D01*
X164309394Y-91479179D01*
X164369737Y-91333497D01*
X164400500Y-91178842D01*
X164400500Y-91021158D01*
X164400500Y-91021155D01*
X164400499Y-91021153D01*
X164371082Y-90873265D01*
X164369737Y-90866503D01*
X164333427Y-90778842D01*
X164309397Y-90720827D01*
X164309390Y-90720814D01*
X164221789Y-90589711D01*
X164221786Y-90589707D01*
X164110292Y-90478213D01*
X164110288Y-90478210D01*
X163979185Y-90390609D01*
X163979172Y-90390602D01*
X163833501Y-90330264D01*
X163833489Y-90330261D01*
X163678845Y-90299500D01*
X163678842Y-90299500D01*
X163521158Y-90299500D01*
X163521155Y-90299500D01*
X163366510Y-90330261D01*
X163366498Y-90330264D01*
X163220827Y-90390602D01*
X163220814Y-90390609D01*
X163089711Y-90478210D01*
X163089707Y-90478213D01*
X162978213Y-90589707D01*
X162978210Y-90589711D01*
X162890609Y-90720814D01*
X162890602Y-90720827D01*
X162830264Y-90866498D01*
X162830261Y-90866510D01*
X162799500Y-91021153D01*
X157087701Y-91021153D01*
X156978845Y-90999500D01*
X156978842Y-90999500D01*
X156821158Y-90999500D01*
X156821155Y-90999500D01*
X156666510Y-91030261D01*
X156666498Y-91030264D01*
X156520827Y-91090602D01*
X156520814Y-91090609D01*
X156389711Y-91178210D01*
X156389707Y-91178213D01*
X156278213Y-91289707D01*
X156278210Y-91289711D01*
X156190609Y-91420814D01*
X156190602Y-91420827D01*
X156130264Y-91566498D01*
X156130261Y-91566510D01*
X156099500Y-91721153D01*
X144700500Y-91721153D01*
X144700500Y-90721734D01*
X146534500Y-90721734D01*
X146534500Y-90873265D01*
X146573719Y-91019636D01*
X146608093Y-91079172D01*
X146649485Y-91150865D01*
X146756635Y-91258015D01*
X146887865Y-91333781D01*
X147034234Y-91373000D01*
X147034236Y-91373000D01*
X147185764Y-91373000D01*
X147185766Y-91373000D01*
X147332135Y-91333781D01*
X147463365Y-91258015D01*
X147564380Y-91156999D01*
X147625699Y-91123517D01*
X147695391Y-91128501D01*
X147751325Y-91170372D01*
X147755160Y-91175791D01*
X147778213Y-91210292D01*
X147889707Y-91321786D01*
X147889711Y-91321789D01*
X148020814Y-91409390D01*
X148020827Y-91409397D01*
X148166498Y-91469735D01*
X148166503Y-91469737D01*
X148321153Y-91500499D01*
X148321156Y-91500500D01*
X148321158Y-91500500D01*
X148478844Y-91500500D01*
X148478845Y-91500499D01*
X148633497Y-91469737D01*
X148751592Y-91420821D01*
X148779172Y-91409397D01*
X148779172Y-91409396D01*
X148779179Y-91409394D01*
X148910289Y-91321789D01*
X149021789Y-91210289D01*
X149109394Y-91079179D01*
X149169737Y-90933497D01*
X149200500Y-90778842D01*
X149200500Y-90721153D01*
X150999500Y-90721153D01*
X150999500Y-90878846D01*
X151030261Y-91033489D01*
X151030264Y-91033501D01*
X151090602Y-91179172D01*
X151090609Y-91179185D01*
X151178210Y-91310288D01*
X151178213Y-91310292D01*
X151289707Y-91421786D01*
X151289711Y-91421789D01*
X151420814Y-91509390D01*
X151420827Y-91509397D01*
X151558683Y-91566498D01*
X151566503Y-91569737D01*
X151721153Y-91600499D01*
X151721156Y-91600500D01*
X151721158Y-91600500D01*
X151878844Y-91600500D01*
X151878845Y-91600499D01*
X151889179Y-91598443D01*
X151914287Y-91593450D01*
X151914292Y-91593449D01*
X151999800Y-91576439D01*
X152033497Y-91569737D01*
X152179179Y-91509394D01*
X152310289Y-91421789D01*
X152359079Y-91372999D01*
X152426097Y-91305982D01*
X152427144Y-91307029D01*
X152478803Y-91271828D01*
X152548648Y-91269946D01*
X152578926Y-91282432D01*
X152667865Y-91333781D01*
X152814234Y-91373000D01*
X152814236Y-91373000D01*
X152965764Y-91373000D01*
X152965766Y-91373000D01*
X153112135Y-91333781D01*
X153243365Y-91258015D01*
X153350515Y-91150865D01*
X153426281Y-91019635D01*
X153465500Y-90873266D01*
X153465500Y-90721734D01*
X153426281Y-90575365D01*
X153350515Y-90444135D01*
X153243365Y-90336985D01*
X153167803Y-90293359D01*
X153112136Y-90261219D01*
X153038950Y-90241609D01*
X152965766Y-90222000D01*
X152814234Y-90222000D01*
X152667865Y-90261219D01*
X152667864Y-90261219D01*
X152667862Y-90261220D01*
X152667861Y-90261220D01*
X152576146Y-90314172D01*
X152508245Y-90330645D01*
X152442219Y-90307792D01*
X152426755Y-90293359D01*
X152426097Y-90294018D01*
X152310292Y-90178213D01*
X152310288Y-90178210D01*
X152179185Y-90090609D01*
X152179172Y-90090602D01*
X152033501Y-90030264D01*
X152033489Y-90030261D01*
X151878845Y-89999500D01*
X151878842Y-89999500D01*
X151721158Y-89999500D01*
X151721155Y-89999500D01*
X151566510Y-90030261D01*
X151566498Y-90030264D01*
X151420827Y-90090602D01*
X151420814Y-90090609D01*
X151289711Y-90178210D01*
X151289707Y-90178213D01*
X151178213Y-90289707D01*
X151178210Y-90289711D01*
X151090609Y-90420814D01*
X151090602Y-90420827D01*
X151030264Y-90566498D01*
X151030261Y-90566510D01*
X150999500Y-90721153D01*
X149200500Y-90721153D01*
X149200500Y-90621158D01*
X149200500Y-90621155D01*
X149200499Y-90621153D01*
X149172066Y-90478211D01*
X149169737Y-90466503D01*
X149136762Y-90386894D01*
X149109397Y-90320827D01*
X149109390Y-90320814D01*
X149021789Y-90189711D01*
X149021786Y-90189707D01*
X148910292Y-90078213D01*
X148910288Y-90078210D01*
X148779185Y-89990609D01*
X148779172Y-89990602D01*
X148633501Y-89930264D01*
X148633489Y-89930261D01*
X148478845Y-89899500D01*
X148478842Y-89899500D01*
X148321158Y-89899500D01*
X148321155Y-89899500D01*
X148166510Y-89930261D01*
X148166498Y-89930264D01*
X148020827Y-89990602D01*
X148020814Y-89990609D01*
X147889711Y-90078210D01*
X147889707Y-90078213D01*
X147778213Y-90189707D01*
X147778210Y-90189711D01*
X147690609Y-90320814D01*
X147690604Y-90320824D01*
X147690332Y-90321482D01*
X147690097Y-90321773D01*
X147687736Y-90326191D01*
X147686898Y-90325743D01*
X147646491Y-90375885D01*
X147580197Y-90397950D01*
X147512497Y-90380671D01*
X147488090Y-90361710D01*
X147463367Y-90336987D01*
X147463365Y-90336985D01*
X147387803Y-90293359D01*
X147332136Y-90261219D01*
X147258950Y-90241609D01*
X147185766Y-90222000D01*
X147034234Y-90222000D01*
X146887863Y-90261219D01*
X146756635Y-90336985D01*
X146756632Y-90336987D01*
X146649487Y-90444132D01*
X146649485Y-90444135D01*
X146573719Y-90575363D01*
X146534500Y-90721734D01*
X144700500Y-90721734D01*
X144700500Y-88002135D01*
X164049500Y-88002135D01*
X164049500Y-89797870D01*
X164049501Y-89797876D01*
X164055908Y-89857483D01*
X164106202Y-89992328D01*
X164106206Y-89992335D01*
X164192452Y-90107544D01*
X164192455Y-90107547D01*
X164307664Y-90193793D01*
X164307671Y-90193797D01*
X164442517Y-90244091D01*
X164442516Y-90244091D01*
X164449444Y-90244835D01*
X164502127Y-90250500D01*
X166297872Y-90250499D01*
X166357483Y-90244091D01*
X166492331Y-90193796D01*
X166607546Y-90107546D01*
X166693796Y-89992331D01*
X166744091Y-89857483D01*
X166750500Y-89797873D01*
X166750499Y-88002128D01*
X166744091Y-87942517D01*
X166693796Y-87807669D01*
X166693795Y-87807668D01*
X166693793Y-87807664D01*
X166607547Y-87692455D01*
X166607544Y-87692452D01*
X166492335Y-87606206D01*
X166492328Y-87606202D01*
X166357482Y-87555908D01*
X166357483Y-87555908D01*
X166297883Y-87549501D01*
X166297881Y-87549500D01*
X166297873Y-87549500D01*
X166297864Y-87549500D01*
X164502129Y-87549500D01*
X164502123Y-87549501D01*
X164442516Y-87555908D01*
X164307671Y-87606202D01*
X164307664Y-87606206D01*
X164192455Y-87692452D01*
X164192452Y-87692455D01*
X164106206Y-87807664D01*
X164106202Y-87807671D01*
X164055908Y-87942517D01*
X164049501Y-88002116D01*
X164049501Y-88002123D01*
X164049500Y-88002135D01*
X144700500Y-88002135D01*
X144700500Y-64500000D01*
X146599999Y-64500000D01*
X146799999Y-80599998D01*
X146800000Y-80600000D01*
X150096566Y-81084789D01*
X150160026Y-81114017D01*
X150197612Y-81172917D01*
X150202488Y-81204517D01*
X150249999Y-83199999D01*
X150250000Y-83200000D01*
X153081218Y-83391947D01*
X153146770Y-83416120D01*
X153188848Y-83471898D01*
X153196783Y-83519012D01*
X153100000Y-87099999D01*
X153100000Y-87100000D01*
X159300000Y-86900000D01*
X159254582Y-85537476D01*
X159260582Y-85495028D01*
X159277246Y-85443743D01*
X159310500Y-85233787D01*
X159310500Y-85021213D01*
X159277246Y-84811257D01*
X159277245Y-84811253D01*
X159277245Y-84811252D01*
X159230433Y-84667181D01*
X159224433Y-84632994D01*
X159219116Y-84473498D01*
X159200000Y-83900000D01*
X158832740Y-83900000D01*
X158765701Y-83880315D01*
X158719946Y-83827511D01*
X158710002Y-83758353D01*
X158739027Y-83694797D01*
X158759855Y-83675682D01*
X158839786Y-83617609D01*
X158839788Y-83617606D01*
X158839792Y-83617604D01*
X158990104Y-83467292D01*
X158990106Y-83467288D01*
X158990109Y-83467286D01*
X159115048Y-83295320D01*
X159115047Y-83295320D01*
X159115051Y-83295316D01*
X159119514Y-83286554D01*
X159167488Y-83235759D01*
X159235308Y-83218963D01*
X159301444Y-83241499D01*
X159340486Y-83286556D01*
X159344951Y-83295320D01*
X159469890Y-83467286D01*
X159620213Y-83617609D01*
X159792179Y-83742548D01*
X159792181Y-83742549D01*
X159792184Y-83742551D01*
X159981588Y-83839057D01*
X160183757Y-83904746D01*
X160393713Y-83938000D01*
X160393714Y-83938000D01*
X160606286Y-83938000D01*
X160606287Y-83938000D01*
X160816243Y-83904746D01*
X161018412Y-83839057D01*
X161207816Y-83742551D01*
X161299854Y-83675682D01*
X161379786Y-83617609D01*
X161379788Y-83617606D01*
X161379792Y-83617604D01*
X161530104Y-83467292D01*
X161530106Y-83467288D01*
X161530109Y-83467286D01*
X161655048Y-83295320D01*
X161655047Y-83295320D01*
X161655051Y-83295316D01*
X161659514Y-83286554D01*
X161707488Y-83235759D01*
X161775308Y-83218963D01*
X161841444Y-83241499D01*
X161880486Y-83286556D01*
X161884951Y-83295320D01*
X162009890Y-83467286D01*
X162160213Y-83617609D01*
X162332182Y-83742550D01*
X162340946Y-83747016D01*
X162391742Y-83794991D01*
X162408536Y-83862812D01*
X162385998Y-83928947D01*
X162340946Y-83967984D01*
X162332182Y-83972449D01*
X162160213Y-84097390D01*
X162009890Y-84247713D01*
X161884951Y-84419679D01*
X161788444Y-84609085D01*
X161722753Y-84811260D01*
X161689500Y-85021213D01*
X161689500Y-85233787D01*
X161722754Y-85443743D01*
X161746142Y-85515725D01*
X161788444Y-85645914D01*
X161884951Y-85835320D01*
X162009890Y-86007286D01*
X162160213Y-86157609D01*
X162332179Y-86282548D01*
X162332181Y-86282549D01*
X162332184Y-86282551D01*
X162521588Y-86379057D01*
X162723757Y-86444746D01*
X162933713Y-86478000D01*
X162933714Y-86478000D01*
X163146286Y-86478000D01*
X163146287Y-86478000D01*
X163356243Y-86444746D01*
X163558412Y-86379057D01*
X163747816Y-86282551D01*
X163769789Y-86266586D01*
X163919786Y-86157609D01*
X163919788Y-86157606D01*
X163919792Y-86157604D01*
X164070104Y-86007292D01*
X164070106Y-86007288D01*
X164070109Y-86007286D01*
X164195048Y-85835320D01*
X164195047Y-85835320D01*
X164195051Y-85835316D01*
X164199514Y-85826554D01*
X164247488Y-85775759D01*
X164315308Y-85758963D01*
X164381444Y-85781499D01*
X164420486Y-85826556D01*
X164424951Y-85835320D01*
X164549890Y-86007286D01*
X164700213Y-86157609D01*
X164872179Y-86282548D01*
X164872181Y-86282549D01*
X164872184Y-86282551D01*
X165061588Y-86379057D01*
X165263757Y-86444746D01*
X165473713Y-86478000D01*
X165473714Y-86478000D01*
X165686286Y-86478000D01*
X165686287Y-86478000D01*
X165896243Y-86444746D01*
X166098412Y-86379057D01*
X166287816Y-86282551D01*
X166309789Y-86266586D01*
X166459786Y-86157609D01*
X166459788Y-86157606D01*
X166459792Y-86157604D01*
X166610104Y-86007292D01*
X166610106Y-86007288D01*
X166610109Y-86007286D01*
X166735048Y-85835320D01*
X166735047Y-85835320D01*
X166735051Y-85835316D01*
X166831557Y-85645912D01*
X166897246Y-85443743D01*
X166930500Y-85233787D01*
X166930500Y-85021213D01*
X166897246Y-84811257D01*
X166831557Y-84609088D01*
X166735051Y-84419684D01*
X166735049Y-84419681D01*
X166735048Y-84419679D01*
X166610109Y-84247713D01*
X166459786Y-84097390D01*
X166287820Y-83972451D01*
X166287115Y-83972091D01*
X166279054Y-83967985D01*
X166228259Y-83920012D01*
X166211463Y-83852192D01*
X166233999Y-83786056D01*
X166279054Y-83747015D01*
X166287816Y-83742551D01*
X166379854Y-83675682D01*
X166459786Y-83617609D01*
X166459788Y-83617606D01*
X166459792Y-83617604D01*
X166610104Y-83467292D01*
X166610106Y-83467288D01*
X166610109Y-83467286D01*
X166735048Y-83295320D01*
X166735047Y-83295320D01*
X166735051Y-83295316D01*
X166831557Y-83105912D01*
X166897246Y-82903743D01*
X166930500Y-82693787D01*
X166930500Y-82481213D01*
X166897246Y-82271257D01*
X166831557Y-82069088D01*
X166735051Y-81879684D01*
X166735049Y-81879681D01*
X166735048Y-81879679D01*
X166610109Y-81707713D01*
X166459786Y-81557390D01*
X166287820Y-81432451D01*
X166098414Y-81335944D01*
X166098413Y-81335943D01*
X166098412Y-81335943D01*
X165896243Y-81270254D01*
X165896241Y-81270253D01*
X165896240Y-81270253D01*
X165734957Y-81244708D01*
X165686287Y-81237000D01*
X165473713Y-81237000D01*
X165425042Y-81244708D01*
X165263760Y-81270253D01*
X165061585Y-81335944D01*
X164872179Y-81432451D01*
X164700213Y-81557390D01*
X164549890Y-81707713D01*
X164424949Y-81879682D01*
X164420484Y-81888446D01*
X164372509Y-81939242D01*
X164304688Y-81956036D01*
X164238553Y-81933498D01*
X164199516Y-81888446D01*
X164195050Y-81879682D01*
X164070109Y-81707713D01*
X163919786Y-81557390D01*
X163747820Y-81432451D01*
X163558414Y-81335944D01*
X163558413Y-81335943D01*
X163558412Y-81335943D01*
X163356243Y-81270254D01*
X163356241Y-81270253D01*
X163356240Y-81270253D01*
X163194957Y-81244708D01*
X163146287Y-81237000D01*
X162933713Y-81237000D01*
X162885042Y-81244708D01*
X162723760Y-81270253D01*
X162521585Y-81335944D01*
X162332179Y-81432451D01*
X162160213Y-81557390D01*
X162009890Y-81707713D01*
X161884949Y-81879682D01*
X161880484Y-81888446D01*
X161832509Y-81939242D01*
X161764688Y-81956036D01*
X161698553Y-81933498D01*
X161659516Y-81888446D01*
X161655050Y-81879682D01*
X161530109Y-81707713D01*
X161379786Y-81557390D01*
X161207820Y-81432451D01*
X161018414Y-81335944D01*
X161018413Y-81335943D01*
X161018412Y-81335943D01*
X160816243Y-81270254D01*
X160816241Y-81270253D01*
X160816240Y-81270253D01*
X160654957Y-81244708D01*
X160606287Y-81237000D01*
X160393713Y-81237000D01*
X160345042Y-81244708D01*
X160183760Y-81270253D01*
X159981585Y-81335944D01*
X159792179Y-81432451D01*
X159620213Y-81557390D01*
X159469890Y-81707713D01*
X159344949Y-81879682D01*
X159340484Y-81888446D01*
X159292509Y-81939242D01*
X159224688Y-81956036D01*
X159158553Y-81933498D01*
X159119516Y-81888446D01*
X159115050Y-81879682D01*
X158990109Y-81707713D01*
X158839786Y-81557390D01*
X158667820Y-81432451D01*
X158478414Y-81335944D01*
X158478413Y-81335943D01*
X158478412Y-81335943D01*
X158276243Y-81270254D01*
X158276241Y-81270253D01*
X158276240Y-81270253D01*
X158114957Y-81244708D01*
X158066287Y-81237000D01*
X157853713Y-81237000D01*
X157805042Y-81244708D01*
X157643760Y-81270253D01*
X157441585Y-81335944D01*
X157252179Y-81432451D01*
X157080213Y-81557390D01*
X156929894Y-81707709D01*
X156929890Y-81707714D01*
X156916363Y-81726332D01*
X156861032Y-81768996D01*
X156791418Y-81774974D01*
X156729624Y-81742366D01*
X156707854Y-81714027D01*
X156700000Y-81700001D01*
X156700000Y-81700000D01*
X154769893Y-80517031D01*
X153652464Y-79832155D01*
X153605593Y-79780339D01*
X153593877Y-79738770D01*
X153313575Y-76935755D01*
X153326492Y-76867093D01*
X153374481Y-76816311D01*
X153436431Y-76799421D01*
X165100000Y-76750000D01*
X165000000Y-66600000D01*
X164999999Y-66599999D01*
X165000000Y-66599999D01*
X160804076Y-65916942D01*
X160741071Y-65886741D01*
X160704395Y-65827272D01*
X160700000Y-65794553D01*
X160700000Y-64400000D01*
X151582000Y-64464665D01*
X151514823Y-64445456D01*
X151468695Y-64392978D01*
X151466560Y-64388120D01*
X151459397Y-64370827D01*
X151459390Y-64370814D01*
X151371789Y-64239711D01*
X151371786Y-64239707D01*
X151260292Y-64128213D01*
X151260288Y-64128210D01*
X151129185Y-64040609D01*
X151129172Y-64040602D01*
X150983501Y-63980264D01*
X150983489Y-63980261D01*
X150828845Y-63949500D01*
X150828842Y-63949500D01*
X150671158Y-63949500D01*
X150671155Y-63949500D01*
X150516510Y-63980261D01*
X150516498Y-63980264D01*
X150370827Y-64040602D01*
X150370814Y-64040609D01*
X150239711Y-64128210D01*
X150239707Y-64128213D01*
X150128213Y-64239707D01*
X150128210Y-64239711D01*
X150040609Y-64370814D01*
X150040603Y-64370826D01*
X150028540Y-64399948D01*
X149984698Y-64454351D01*
X149918403Y-64476414D01*
X149914859Y-64476490D01*
X149338590Y-64480576D01*
X149271413Y-64461367D01*
X149225285Y-64408889D01*
X149223150Y-64404031D01*
X149209396Y-64370827D01*
X149209394Y-64370821D01*
X149209392Y-64370818D01*
X149209392Y-64370817D01*
X149121789Y-64239711D01*
X149121786Y-64239707D01*
X149010292Y-64128213D01*
X149010288Y-64128210D01*
X148879185Y-64040609D01*
X148879172Y-64040602D01*
X148733501Y-63980264D01*
X148733489Y-63980261D01*
X148578845Y-63949500D01*
X148578842Y-63949500D01*
X148421158Y-63949500D01*
X148421155Y-63949500D01*
X148266510Y-63980261D01*
X148266498Y-63980264D01*
X148120827Y-64040602D01*
X148120814Y-64040609D01*
X147989711Y-64128210D01*
X147989707Y-64128213D01*
X147878213Y-64239707D01*
X147878207Y-64239715D01*
X147790607Y-64370818D01*
X147790602Y-64370827D01*
X147771911Y-64415951D01*
X147728070Y-64470354D01*
X147661775Y-64492418D01*
X147658231Y-64492494D01*
X146599999Y-64500000D01*
X144700500Y-64500000D01*
X144700500Y-61597648D01*
X154749500Y-61597648D01*
X154749500Y-61802351D01*
X154781522Y-62004534D01*
X154844781Y-62199223D01*
X154937715Y-62381613D01*
X155058028Y-62547213D01*
X155202786Y-62691971D01*
X155357749Y-62804556D01*
X155368390Y-62812287D01*
X155484607Y-62871503D01*
X155550776Y-62905218D01*
X155550778Y-62905218D01*
X155550781Y-62905220D01*
X155655137Y-62939127D01*
X155745465Y-62968477D01*
X155846557Y-62984488D01*
X155947648Y-63000500D01*
X155947649Y-63000500D01*
X156152351Y-63000500D01*
X156152352Y-63000500D01*
X156354534Y-62968477D01*
X156549219Y-62905220D01*
X156731610Y-62812287D01*
X156824590Y-62744732D01*
X156897213Y-62691971D01*
X156897215Y-62691968D01*
X156897219Y-62691966D01*
X157041966Y-62547219D01*
X157041968Y-62547215D01*
X157041971Y-62547213D01*
X157094732Y-62474590D01*
X157162287Y-62381610D01*
X157255220Y-62199219D01*
X157318477Y-62004534D01*
X157350500Y-61802352D01*
X157350500Y-61597648D01*
X158749500Y-61597648D01*
X158749500Y-61802351D01*
X158781522Y-62004534D01*
X158844781Y-62199223D01*
X158937715Y-62381613D01*
X159058028Y-62547213D01*
X159202786Y-62691971D01*
X159357749Y-62804556D01*
X159368390Y-62812287D01*
X159484607Y-62871503D01*
X159550776Y-62905218D01*
X159550778Y-62905218D01*
X159550781Y-62905220D01*
X159655137Y-62939127D01*
X159745465Y-62968477D01*
X159846557Y-62984488D01*
X159947648Y-63000500D01*
X159947649Y-63000500D01*
X160152351Y-63000500D01*
X160152352Y-63000500D01*
X160354534Y-62968477D01*
X160549219Y-62905220D01*
X160731610Y-62812287D01*
X160824590Y-62744732D01*
X160897213Y-62691971D01*
X160897215Y-62691968D01*
X160897219Y-62691966D01*
X161041966Y-62547219D01*
X161041968Y-62547215D01*
X161041971Y-62547213D01*
X161094732Y-62474590D01*
X161162287Y-62381610D01*
X161255220Y-62199219D01*
X161318477Y-62004534D01*
X161350500Y-61802352D01*
X161350500Y-61597648D01*
X161749500Y-61597648D01*
X161749500Y-61802351D01*
X161781522Y-62004534D01*
X161844781Y-62199223D01*
X161937715Y-62381613D01*
X162058028Y-62547213D01*
X162202786Y-62691971D01*
X162357749Y-62804556D01*
X162368390Y-62812287D01*
X162484607Y-62871503D01*
X162550776Y-62905218D01*
X162550778Y-62905218D01*
X162550781Y-62905220D01*
X162655137Y-62939127D01*
X162745465Y-62968477D01*
X162846557Y-62984488D01*
X162947648Y-63000500D01*
X162947649Y-63000500D01*
X163152351Y-63000500D01*
X163152352Y-63000500D01*
X163354534Y-62968477D01*
X163549219Y-62905220D01*
X163731610Y-62812287D01*
X163824590Y-62744732D01*
X163897213Y-62691971D01*
X163897215Y-62691968D01*
X163897219Y-62691966D01*
X164041966Y-62547219D01*
X164041968Y-62547215D01*
X164041971Y-62547213D01*
X164094732Y-62474590D01*
X164162287Y-62381610D01*
X164255220Y-62199219D01*
X164318477Y-62004534D01*
X164350500Y-61802352D01*
X164350500Y-61597648D01*
X164318477Y-61395466D01*
X164255220Y-61200781D01*
X164255218Y-61200778D01*
X164255218Y-61200776D01*
X164221503Y-61134607D01*
X164162287Y-61018390D01*
X164154556Y-61007749D01*
X164041971Y-60852786D01*
X163897213Y-60708028D01*
X163731613Y-60587715D01*
X163731612Y-60587714D01*
X163731610Y-60587713D01*
X163674653Y-60558691D01*
X163549223Y-60494781D01*
X163354534Y-60431522D01*
X163179995Y-60403878D01*
X163152352Y-60399500D01*
X162947648Y-60399500D01*
X162923329Y-60403351D01*
X162745465Y-60431522D01*
X162550776Y-60494781D01*
X162368386Y-60587715D01*
X162202786Y-60708028D01*
X162058028Y-60852786D01*
X161937715Y-61018386D01*
X161844781Y-61200776D01*
X161781522Y-61395465D01*
X161749500Y-61597648D01*
X161350500Y-61597648D01*
X161318477Y-61395466D01*
X161255220Y-61200781D01*
X161255218Y-61200778D01*
X161255218Y-61200776D01*
X161221503Y-61134607D01*
X161162287Y-61018390D01*
X161154556Y-61007749D01*
X161041971Y-60852786D01*
X160897213Y-60708028D01*
X160731613Y-60587715D01*
X160731612Y-60587714D01*
X160731610Y-60587713D01*
X160674653Y-60558691D01*
X160549223Y-60494781D01*
X160354534Y-60431522D01*
X160179995Y-60403878D01*
X160152352Y-60399500D01*
X159947648Y-60399500D01*
X159923329Y-60403351D01*
X159745465Y-60431522D01*
X159550776Y-60494781D01*
X159368386Y-60587715D01*
X159202786Y-60708028D01*
X159058028Y-60852786D01*
X158937715Y-61018386D01*
X158844781Y-61200776D01*
X158781522Y-61395465D01*
X158749500Y-61597648D01*
X157350500Y-61597648D01*
X157318477Y-61395466D01*
X157255220Y-61200781D01*
X157255218Y-61200778D01*
X157255218Y-61200776D01*
X157221503Y-61134607D01*
X157162287Y-61018390D01*
X157154556Y-61007749D01*
X157041971Y-60852786D01*
X156897213Y-60708028D01*
X156731613Y-60587715D01*
X156731612Y-60587714D01*
X156731610Y-60587713D01*
X156674653Y-60558691D01*
X156549223Y-60494781D01*
X156354534Y-60431522D01*
X156179995Y-60403878D01*
X156152352Y-60399500D01*
X155947648Y-60399500D01*
X155923329Y-60403351D01*
X155745465Y-60431522D01*
X155550776Y-60494781D01*
X155368386Y-60587715D01*
X155202786Y-60708028D01*
X155058028Y-60852786D01*
X154937715Y-61018386D01*
X154844781Y-61200776D01*
X154781522Y-61395465D01*
X154749500Y-61597648D01*
X144700500Y-61597648D01*
X144700500Y-59598543D01*
X156499499Y-59598543D01*
X156537947Y-59791829D01*
X156537950Y-59791839D01*
X156613364Y-59973907D01*
X156613371Y-59973920D01*
X156722860Y-60137781D01*
X156722863Y-60137785D01*
X156862214Y-60277136D01*
X156862218Y-60277139D01*
X157026079Y-60386628D01*
X157026092Y-60386635D01*
X157134463Y-60431523D01*
X157208165Y-60462051D01*
X157208169Y-60462051D01*
X157208170Y-60462052D01*
X157401456Y-60500500D01*
X157401459Y-60500500D01*
X157598543Y-60500500D01*
X157728582Y-60474632D01*
X157791835Y-60462051D01*
X157973914Y-60386632D01*
X158137782Y-60277139D01*
X158277139Y-60137782D01*
X158386632Y-59973914D01*
X158462051Y-59791835D01*
X158500500Y-59598543D01*
X163499499Y-59598543D01*
X163537947Y-59791829D01*
X163537950Y-59791839D01*
X163613364Y-59973907D01*
X163613371Y-59973920D01*
X163722860Y-60137781D01*
X163722863Y-60137785D01*
X163862214Y-60277136D01*
X163862218Y-60277139D01*
X164026079Y-60386628D01*
X164026092Y-60386635D01*
X164134463Y-60431523D01*
X164208165Y-60462051D01*
X164208169Y-60462051D01*
X164208170Y-60462052D01*
X164401456Y-60500500D01*
X164401459Y-60500500D01*
X164598543Y-60500500D01*
X164728582Y-60474632D01*
X164791835Y-60462051D01*
X164973914Y-60386632D01*
X165137782Y-60277139D01*
X165277139Y-60137782D01*
X165386632Y-59973914D01*
X165462051Y-59791835D01*
X165500500Y-59598541D01*
X165500500Y-59401459D01*
X165500500Y-59401456D01*
X165462052Y-59208170D01*
X165462051Y-59208169D01*
X165462051Y-59208165D01*
X165462049Y-59208160D01*
X165386635Y-59026092D01*
X165386628Y-59026079D01*
X165277139Y-58862218D01*
X165277136Y-58862214D01*
X165137785Y-58722863D01*
X165137781Y-58722860D01*
X164973920Y-58613371D01*
X164973907Y-58613364D01*
X164791839Y-58537950D01*
X164791829Y-58537947D01*
X164598543Y-58499500D01*
X164598541Y-58499500D01*
X164401459Y-58499500D01*
X164401457Y-58499500D01*
X164208170Y-58537947D01*
X164208160Y-58537950D01*
X164026092Y-58613364D01*
X164026079Y-58613371D01*
X163862218Y-58722860D01*
X163862214Y-58722863D01*
X163722863Y-58862214D01*
X163722860Y-58862218D01*
X163613371Y-59026079D01*
X163613364Y-59026092D01*
X163537950Y-59208160D01*
X163537947Y-59208170D01*
X163499500Y-59401456D01*
X163499500Y-59401459D01*
X163499500Y-59598541D01*
X163499500Y-59598543D01*
X163499499Y-59598543D01*
X158500500Y-59598543D01*
X158500500Y-59598541D01*
X158500500Y-59401459D01*
X158500500Y-59401456D01*
X158462052Y-59208170D01*
X158462051Y-59208169D01*
X158462051Y-59208165D01*
X158462049Y-59208160D01*
X158386635Y-59026092D01*
X158386628Y-59026079D01*
X158277139Y-58862218D01*
X158277136Y-58862214D01*
X158137785Y-58722863D01*
X158137781Y-58722860D01*
X157973920Y-58613371D01*
X157973907Y-58613364D01*
X157791839Y-58537950D01*
X157791829Y-58537947D01*
X157598543Y-58499500D01*
X157598541Y-58499500D01*
X157401459Y-58499500D01*
X157401457Y-58499500D01*
X157208170Y-58537947D01*
X157208160Y-58537950D01*
X157026092Y-58613364D01*
X157026079Y-58613371D01*
X156862218Y-58722860D01*
X156862214Y-58722863D01*
X156722863Y-58862214D01*
X156722860Y-58862218D01*
X156613371Y-59026079D01*
X156613364Y-59026092D01*
X156537950Y-59208160D01*
X156537947Y-59208170D01*
X156499500Y-59401456D01*
X156499500Y-59401459D01*
X156499500Y-59598541D01*
X156499500Y-59598543D01*
X156499499Y-59598543D01*
X144700500Y-59598543D01*
X144700500Y-56224786D01*
X144720185Y-56157747D01*
X144772989Y-56111992D01*
X144824500Y-56100786D01*
X167074561Y-56100786D01*
X167141600Y-56120471D01*
G37*
%TD.AperFunction*%
%TD*%
M02*
